<svg width="32" height="232" viewBox="0 0 32 232" xmlns="http://www.w3.org/2000/svg" xmlns:sketch="http://www.bohemiancoding.com/sketch/ns"><title>argentina_el-chaten</title><desc>Created with Sketch.</desc><g sketch:type="MSPage" fill="none"><g sketch:type="MSLayerGroup"><g fill="#fff" sketch:type="MSShapeGroup"><path d="M6.171 89.944c.191.177.436.274.69.274h1.439l-.004.083c0 .273.112.533.308.714.166.153.379.238.599.238h3.028c.5 0 .907-.427.907-.952 0-.525-.407-.952-.907-.952h-.087l.023-.226c0-.604-.468-1.095-1.044-1.095h-4.262c-.254 0-.499.097-.689.274-.225.208-.354.507-.354.821 0 .314.129.613.354.821zm.548-.99l.141-.057h4.262c.119 0 .215.101.215.226s-.096.226-.215.226c-.229 0-.414.195-.414.435h-.002c0 .24.185.435.414.435h1.11c.044 0 .079.037.079.083 0 .046-.035.083-.079.083h-3.028l-.052-.021-.027-.062.027-.062.051-.021h.002c.229 0 .414-.195.414-.435s-.186-.435-.414-.435h-2.344l-.142-.057c-.027-.025-.073-.081-.073-.169 0-.088.046-.144.074-.169z" id="Fill-1"/><path d="M29.917 108.731c0-.48-.371-.87-.829-.87h-9.054l-.763-.348-.652-.338 2.996-.368.115-.032 1.737-.781.074-.043.792-.579.08-.077.756-.941 1.218.138c.134.016.267-.039.356-.145l.835-.998 1.425-.535c.215-.081.328-.33.251-.556-.077-.226-.314-.344-.53-.263l-1.526.573c-.066.025-.125.067-.172.122l-.764.913-.371-.042-.853-.097c-.137-.016-.273.041-.361.152l-.863 1.075-.713.521-1.003.451-1.87-.747-.044-.015-1.789-.486-.061-.011-2.397-.263-.649-.071.155-.088.118-.067h4.147c.146 0 .281-.081.356-.213l.53-.936 2.16-.781 1.659-.592h.001l1.27-.454c.217-.077.332-.324.259-.552-.074-.227-.309-.349-.526-.272l-.772.276-.199-1.962v-2.173l-.002-.044-.019-.196h3.102c.254 0 .499-.097.689-.274.225-.208.354-.507.354-.821 0-.314-.129-.613-.354-.821-.191-.177-.436-.274-.689-.274h-1.439l.004-.083c0-.273-.112-.533-.308-.714-.166-.154-.379-.238-.599-.238h-1.729l-.442-1.385-.098-.167-1.152-1.228c-.099-.105-.242-.15-.379-.121-.138.03-.252.131-.302.269l-.512 1.391-.028.142-.053 1.688-.097.511-.371-.451c-.088-.107-.221-.162-.354-.149-.134.014-.253.095-.32.218l-.61 1.125c-.035.065-.054.14-.054.215v2.479l-.312.12-.267-.383-.249-2.102h.058c.229 0 .414-.195.414-.435s-.185-.435-.414-.435h-.161l-.015-.125-.181-2.299c-.012-.147-.094-.278-.218-.348-.124-.07-.273-.068-.396.003l-1.077.627c-.12.07-.199.198-.212.341l-.119 1.392-.033.407h-2.648l-.227-.333c-.129-.19-.379-.239-.565-.11l-.641.443h-1.193c-.229 0-.414.195-.414.435s.185.435.414.435h.576l-.176.443-.032.167v1.768l-.359 1.137-.527.668-.208-1.761v-1.577l-.036-.177-.883-2.083-.102-.147-.978-.923c-.121-.114-.295-.143-.444-.075-.149.069-.246.223-.247.394l-.015 1.676-.262.751-.109-.05c-.17-.078-.369-.027-.486.124l-.625.804c-.05.064-.081.142-.09.224l-.174 1.555-.003.051v2.381l-.369-.313-.158-.083-1.88-.508c-.221-.06-.448.08-.504.313-.057.233.076.47.298.529l1.793.484.97.824 1.307 1.167c.065.058.145.093.23.102l3.034.3 2.696.253.03.538c.011.189.136.349.311.396l2.217.596.06.011 3.135.344 1.737.472.171.068.591.236-1.749.215-1.69.207-.029.007-1.694-.729c-.354-.177-1.461-.729-1.632-.792-.139-.052-.949-.169-2.409-.35l-2.267-.272-.794-.615c-.071-.055-.158-.085-.246-.085h-1.704l-1.423-.163-1.541-.405-.101-.013h-.896c-.229 0-.414.195-.414.435s.185.435.414.435h.845l1.519.399.056.011.893.102.581.067.045.003h1.59l.773.6c.058.045.127.073.199.082l2.375.285c.97.12 2.058.267 2.238.309.137.057.886.425 1.553.759l.021.01 1.745.751 1.097.568.259.134-.469-.134h-16.036c-.458 0-.829.389-.829.87 0 .381.234.705.56.822.073.065.166.106.268.106.247 0 .352.043.498.103.177.072.397.163.8.163s.623-.09.8-.163c.146-.06.252-.103.498-.103.247 0 .352.043.498.103.177.072.397.163.8.163s.623-.09.8-.163c.146-.06.252-.103.498-.103.247 0 .352.043.498.103.177.072.397.163.8.163.402 0 .623-.09.8-.163.146-.06.252-.103.498-.103.247 0 .352.043.498.103.177.072.397.163.8.163s.623-.09.8-.163c.146-.06.252-.103.498-.103.247 0 .352.043.498.103.177.072.397.163.8.163.402 0 .623-.09.8-.163.146-.06.252-.103.498-.103s.352.043.498.103c.177.072.397.163.8.163s.623-.09.8-.163c.146-.06.252-.103.499-.103.246 0 .352.043.498.103.177.072.397.163.8.163.402 0 .623-.09.8-.163.146-.06.252-.103.498-.103.247 0 .352.043.499.103.177.072.397.163.8.163s.623-.09.8-.163c.146-.06.252-.103.499-.103.246 0 .352.043.498.103.177.072.397.163.8.163s.623-.09.8-.163c.146-.06.252-.103.499-.103.246 0 .352.043.498.103.177.072.397.163.8.163s.623-.09.8-.163c.146-.06.252-.103.499-.103s.353.043.499.103c.177.072.397.163.8.163.229 0 .414-.195.414-.435l-.001-.007c.248-.15.415-.431.415-.753zm-16.612-5.179l-.033-.596c-.012-.215-.172-.389-.377-.408l-2.698-.253-.198-.019v-1.601l-.009-.088-.068-.345.107-.136.896-1.135.074-.141.404-1.281.021-.137v-1.751l.289-.728.471-.325.243.356.021.03.045 1.706-.33.951-.408.06c-.205.03-.357.214-.357.431v1.351c0 .24.185.435.414.435.229 0 .414-.195.414-.435v-.972l.297-.043c.152-.022.28-.131.332-.282l.383-1.104.294-.141.177.382v1.361l.015.118.304 1.137.005.016c.051.167.194.287.362.3l.768.062-.099.292-.012.044-.671 2.933-.052.03-.098.055-.109.091-.818-.22zm2.125-8.587l-.019.237-.001.037v2.174l.001.03.118 1.808-.077.227-.703-.057-.211-.787v-1.401l-.042-.19-.395-.854c-.098-.213-.34-.303-.545-.205l-.25.12-.03-1.138h2.154zm.903-.869l.027-.331.1-1.161.324-.189.129 1.636.002.018.003.027.377 3.191c.009.074.035.144.077.203l.515.738.002.002.013.015.04.045.006.007 1.135 1.047.873 1.617c.076.141.217.221.361.221.069 0 .139-.018.204-.057.199-.118.269-.384.156-.593l-.907-1.681-.087-.112-.663-.612.222-.085c.163-.063.272-.226.272-.408v-2.668l.266-.49.542.659.006.006.039.04.012.01.047.034.02.011.058.026.009.004.072.015.009.002.349.038.154.017.538.641.033 1.106c.007.235.191.421.414.421h.013c.229-.008.408-.208.401-.448l-.038-1.262c-.003-.101-.039-.198-.103-.274l-.743-.886c-.069-.082-.165-.134-.268-.145l-.211-.023.18-.951.008-.071.052-1.65.255-.693.635.677.444 1.389.024.059.021.039.243.396.101.165.009.015.258.42.077.126.025.256v.001l.158 1.635v2.174l.002.046.221 2.181-1.355.484-2.305.833c-.093.034-.171.1-.221.189l-.08.141-.002.003-.405.715h-4.016l-.099.013.497-2.172.484-1.432.023-.175-.123-1.883v-2.14l.095-1.162zm8.851-.434l.052.021.027.062-.028.062-.051.021h-.002c-.229 0-.414.195-.414.435s.186.435.414.435h2.344l.141.057c.028.025.074.081.074.169 0 .088-.046.144-.074.169l-.141.057h-3.185l-.092-.952-.064-.192-.21-.343h1.209zm-19.306 4.297l.157-1.404.325-.418v.934c0 .24.185.435.414.435.229 0 .414-.195.414-.435v-1.185l.412-1.182.025-.145.007-.788.23.216.811 1.914v1.512l.003.054.221 1.868.005.035.268 1.352v1.475l-2.228-.22-1.065-.951v-3.066z" id="Fill-2"/><path d="M14.678 90.092h2.123c.229 0 .414-.195.414-.435s-.185-.435-.414-.435h-2.123c-.229 0-.414.195-.414.435s.185.435.414.435" id="Fill-3"/><path d="M14.747 88.898h5.226c.229 0 .414-.195.414-.435s-.185-.435-.414-.435h-5.226c-.229 0-.414.195-.414.435s.185.435.414.435" id="Fill-4"/></g><g fill="#373D43" sketch:type="MSShapeGroup"><path d="M6.171 6.944c.191.177.436.274.69.274h1.439l-.004.083c0 .273.112.533.308.714.166.153.379.238.599.238h3.028c.5 0 .907-.427.907-.952 0-.525-.407-.952-.907-.952h-.087l.023-.226c0-.604-.468-1.095-1.044-1.095h-4.262c-.254 0-.499.097-.689.274-.225.208-.354.507-.354.821 0 .314.129.613.354.821zm.548-.99l.141-.057h4.262c.119 0 .215.101.215.226s-.096.226-.215.226c-.229 0-.414.195-.414.435h-.002c0 .24.185.435.414.435h1.11c.044 0 .079.037.079.083 0 .046-.035.083-.079.083h-3.028l-.052-.021-.027-.062.027-.062.051-.021h.002c.229 0 .414-.195.414-.435s-.186-.435-.414-.435h-2.344l-.142-.057c-.027-.025-.073-.081-.073-.169 0-.088.046-.144.074-.169z" id="Fill-1"/><path d="M29.917 25.731c0-.48-.371-.87-.829-.87h-9.054l-.763-.348-.652-.338 2.996-.368.115-.032 1.737-.781.074-.043.792-.579.08-.077.756-.941 1.218.138c.134.016.267-.039.356-.145l.835-.998 1.425-.535c.215-.081.328-.33.251-.556-.077-.226-.314-.344-.53-.263l-1.526.573c-.066.025-.125.067-.172.122l-.764.913-.371-.042-.853-.097c-.137-.016-.273.041-.361.152l-.863 1.075-.713.521-1.003.451-1.87-.747-.044-.015-1.789-.486-.061-.011-2.397-.263-.649-.071.155-.088.118-.067h4.147c.146 0 .281-.081.356-.213l.53-.936 2.16-.781 1.659-.592h.001l1.27-.454c.217-.077.332-.324.259-.552-.074-.227-.309-.349-.526-.272l-.772.276-.199-1.962v-2.173l-.002-.044-.019-.196h3.102c.254 0 .499-.097.689-.274.225-.208.354-.507.354-.821 0-.314-.129-.613-.354-.821-.191-.177-.436-.274-.689-.274h-1.439l.004-.083c0-.273-.112-.533-.308-.714-.166-.154-.379-.238-.599-.238h-1.729l-.442-1.385-.098-.167-1.152-1.228c-.099-.105-.242-.15-.379-.121-.138.03-.252.131-.302.269l-.512 1.391-.028.142-.053 1.688-.097.511-.371-.451c-.088-.107-.221-.162-.354-.149-.134.014-.253.095-.32.218l-.61 1.125c-.035.065-.054.14-.054.215v2.479l-.312.12-.267-.383-.249-2.102h.058c.229 0 .414-.195.414-.435s-.185-.435-.414-.435h-.161l-.015-.125-.181-2.299c-.012-.147-.094-.278-.218-.348-.124-.07-.273-.068-.396.003l-1.077.627c-.12.07-.199.198-.212.341l-.119 1.392-.033.407h-2.648l-.227-.333c-.129-.19-.379-.239-.565-.11l-.641.443h-1.193c-.229 0-.414.195-.414.435s.185.435.414.435h.576l-.176.443-.032.167v1.768l-.359 1.137-.527.668-.208-1.761v-1.577l-.036-.177-.883-2.083-.102-.147-.978-.923c-.121-.114-.295-.143-.444-.075-.149.069-.246.223-.247.394l-.015 1.676-.262.751-.109-.05c-.17-.078-.369-.027-.486.124l-.625.804c-.05.064-.081.142-.09.224l-.174 1.555-.003.051v2.381l-.369-.313-.158-.083-1.88-.508c-.221-.06-.448.08-.504.313-.057.233.076.47.298.529l1.793.484.97.824 1.307 1.167c.065.058.145.093.23.102l3.034.3 2.696.253.03.538c.011.189.136.349.311.396l2.217.596.06.011 3.135.344 1.737.472.171.068.591.236-1.749.215-1.69.207-.029.007-1.694-.729c-.354-.177-1.461-.729-1.632-.792-.139-.052-.949-.169-2.409-.35l-2.267-.272-.794-.615c-.071-.055-.158-.085-.246-.085h-1.704l-1.423-.163-1.541-.405-.101-.013h-.896c-.229 0-.414.195-.414.435s.185.435.414.435h.845l1.519.399.056.011.893.102.581.067.045.003h1.59l.773.6c.058.045.127.073.199.082l2.375.285c.97.12 2.058.267 2.238.309.137.057.886.425 1.553.759l.021.01 1.745.751 1.097.568.259.134-.469-.134h-16.036c-.458 0-.829.389-.829.87 0 .381.234.705.56.822.073.065.166.106.268.106.247 0 .352.043.498.103.177.072.397.163.8.163s.623-.09.8-.163c.146-.06.252-.103.498-.103.247 0 .352.043.498.103.177.072.397.163.8.163s.623-.09.8-.163c.146-.06.252-.103.498-.103.247 0 .352.043.498.103.177.072.397.163.8.163.402 0 .623-.09.8-.163.146-.06.252-.103.498-.103.247 0 .352.043.498.103.177.072.397.163.8.163s.623-.09.8-.163c.146-.06.252-.103.498-.103.247 0 .352.043.498.103.177.072.397.163.8.163.402 0 .623-.09.8-.163.146-.06.252-.103.498-.103s.352.043.498.103c.177.072.397.163.8.163s.623-.09.8-.163c.146-.06.252-.103.499-.103.246 0 .352.043.498.103.177.072.397.163.8.163.402 0 .623-.09.8-.163.146-.06.252-.103.498-.103.247 0 .352.043.499.103.177.072.397.163.8.163s.623-.09.8-.163c.146-.06.252-.103.499-.103.246 0 .352.043.498.103.177.072.397.163.8.163s.623-.09.8-.163c.146-.06.252-.103.499-.103.246 0 .352.043.498.103.177.072.397.163.8.163s.623-.09.8-.163c.146-.06.252-.103.499-.103s.353.043.499.103c.177.072.397.163.8.163.229 0 .414-.195.414-.435l-.001-.007c.248-.15.415-.431.415-.753zm-16.612-5.179l-.033-.596c-.012-.215-.172-.389-.377-.408l-2.698-.253-.198-.019v-1.601l-.009-.088-.068-.345.107-.136.896-1.135.074-.141.404-1.281.021-.137v-1.751l.289-.728.471-.325.243.356.021.03.045 1.706-.33.951-.408.06c-.205.03-.357.214-.357.431v1.351c0 .24.185.435.414.435.229 0 .414-.195.414-.435v-.972l.297-.043c.152-.022.28-.131.332-.282l.383-1.104.294-.141.177.382v1.361l.015.118.304 1.137.005.016c.051.167.194.287.362.3l.768.062-.099.292-.012.044-.671 2.933-.052.03-.098.055-.109.091-.818-.22zm2.125-8.587l-.019.237-.001.037v2.174l.001.03.118 1.808-.077.227-.703-.057-.211-.787v-1.401l-.042-.19-.395-.854c-.098-.213-.34-.303-.545-.205l-.25.12-.03-1.138h2.154zm.903-.869l.027-.331.1-1.161.324-.189.129 1.636.002.018.003.027.377 3.191c.009.074.035.144.077.203l.515.738.002.002.013.015.04.045.006.007 1.135 1.047.873 1.617c.076.141.217.221.361.221.069 0 .139-.018.204-.057.199-.118.269-.384.156-.593l-.907-1.681-.087-.112-.663-.612.222-.085c.163-.063.272-.226.272-.408v-2.668l.266-.49.542.659.006.006.039.04.012.01.047.034.02.011.058.026.009.004.072.015.009.002.349.038.154.017.538.641.033 1.106c.007.235.191.421.414.421h.013c.229-.008.408-.208.401-.448l-.038-1.262c-.003-.101-.039-.198-.103-.274l-.743-.886c-.069-.082-.165-.134-.268-.145l-.211-.023.18-.951.008-.071.052-1.65.255-.693.635.677.444 1.389.024.059.021.039.243.396.101.165.009.015.258.42.077.126.025.256v.001l.158 1.635v2.174l.002.046.221 2.181-1.355.484-2.305.833c-.093.034-.171.1-.221.189l-.08.141-.002.003-.405.715h-4.016l-.099.013.497-2.172.484-1.432.023-.175-.123-1.883v-2.14l.095-1.162zm8.851-.434l.052.021.027.062-.028.062-.051.021h-.002c-.229 0-.414.195-.414.435s.186.435.414.435h2.344l.141.057c.028.025.074.081.074.169 0 .088-.046.144-.074.169l-.141.057h-3.185l-.092-.952-.064-.192-.21-.343h1.209zm-19.306 4.297l.157-1.404.325-.418v.934c0 .24.185.435.414.435.229 0 .414-.195.414-.435v-1.185l.412-1.182.025-.145.007-.788.23.216.811 1.914v1.512l.003.054.221 1.868.005.035.268 1.352v1.475l-2.228-.22-1.065-.951v-3.066z" id="Fill-2"/><path d="M14.678 7.092h2.123c.229 0 .414-.195.414-.435s-.185-.435-.414-.435h-2.123c-.229 0-.414.195-.414.435s.185.435.414.435" id="Fill-3"/><path d="M14.747 5.898h5.226c.229 0 .414-.195.414-.435s-.185-.435-.414-.435h-5.226c-.229 0-.414.195-.414.435s.185.435.414.435" id="Fill-4"/></g><g fill="#67737B" sketch:type="MSShapeGroup"><path d="M6.171 46.944c.191.177.436.274.69.274h1.439l-.004.083c0 .273.112.533.308.714.166.153.379.238.599.238h3.028c.5 0 .907-.427.907-.952 0-.525-.407-.952-.907-.952h-.087l.023-.226c0-.604-.468-1.095-1.044-1.095h-4.262c-.254 0-.499.097-.689.274-.225.208-.354.507-.354.821 0 .314.129.613.354.821zm.548-.99l.141-.057h4.262c.119 0 .215.101.215.226s-.096.226-.215.226c-.229 0-.414.195-.414.435h-.002c0 .24.185.435.414.435h1.11c.044 0 .079.037.079.083 0 .046-.035.083-.079.083h-3.028l-.052-.021-.027-.062.027-.062.051-.021h.002c.229 0 .414-.195.414-.435s-.186-.435-.414-.435h-2.344l-.142-.057c-.027-.025-.073-.081-.073-.169 0-.088.046-.144.074-.169z" id="Fill-1"/><path d="M29.917 65.731c0-.48-.371-.87-.829-.87h-9.054l-.763-.348-.652-.338 2.996-.368.115-.032 1.737-.781.074-.043.792-.579.08-.077.756-.941 1.218.138c.134.016.267-.039.356-.145l.835-.998 1.425-.535c.215-.081.328-.33.251-.556-.077-.226-.314-.344-.53-.263l-1.526.573c-.066.025-.125.067-.172.122l-.764.913-.371-.042-.853-.097c-.137-.016-.273.041-.361.152l-.863 1.075-.713.521-1.003.451-1.87-.747-.044-.015-1.789-.486-.061-.011-2.397-.263-.649-.071.155-.088.118-.067h4.147c.146 0 .281-.081.356-.213l.53-.936 2.16-.781 1.659-.592h.001l1.27-.454c.217-.077.332-.324.259-.552-.074-.227-.309-.349-.526-.272l-.772.276-.199-1.962v-2.173l-.002-.044-.019-.196h3.102c.254 0 .499-.097.689-.274.225-.208.354-.507.354-.821 0-.314-.129-.613-.354-.821-.191-.177-.436-.274-.689-.274h-1.439l.004-.083c0-.273-.112-.533-.308-.714-.166-.154-.379-.238-.599-.238h-1.729l-.442-1.385-.098-.167-1.152-1.228c-.099-.105-.242-.15-.379-.121-.138.03-.252.131-.302.269l-.512 1.391-.028.142-.053 1.688-.097.511-.371-.451c-.088-.107-.221-.162-.354-.149-.134.014-.253.095-.32.218l-.61 1.125c-.035.065-.054.14-.054.215v2.479l-.312.12-.267-.383-.249-2.102h.058c.229 0 .414-.195.414-.435s-.185-.435-.414-.435h-.161l-.015-.125-.181-2.299c-.012-.147-.094-.278-.218-.348-.124-.07-.273-.068-.396.003l-1.077.627c-.12.07-.199.198-.212.341l-.119 1.392-.033.407h-2.648l-.227-.333c-.129-.19-.379-.239-.565-.11l-.641.443h-1.193c-.229 0-.414.195-.414.435s.185.435.414.435h.576l-.176.443-.032.167v1.768l-.359 1.137-.527.668-.208-1.761v-1.577l-.036-.177-.883-2.083-.102-.147-.978-.923c-.121-.114-.295-.143-.444-.075-.149.069-.246.223-.247.394l-.015 1.676-.262.751-.109-.05c-.17-.078-.369-.027-.486.124l-.625.804c-.05.064-.081.142-.09.224l-.174 1.555-.003.051v2.381l-.369-.313-.158-.083-1.88-.508c-.221-.06-.448.08-.504.313-.057.233.076.47.298.529l1.793.484.97.824 1.307 1.167c.065.058.145.093.23.102l3.034.3 2.696.253.03.538c.011.189.136.349.311.396l2.217.596.06.011 3.135.344 1.737.472.171.068.591.236-1.749.215-1.69.207-.029.007-1.694-.729c-.354-.177-1.461-.729-1.632-.792-.139-.052-.949-.169-2.409-.35l-2.267-.272-.794-.615c-.071-.055-.158-.085-.246-.085h-1.704l-1.423-.163-1.541-.405-.101-.013h-.896c-.229 0-.414.195-.414.435s.185.435.414.435h.845l1.519.399.056.011.893.102.581.067.045.003h1.59l.773.6c.058.045.127.073.199.082l2.375.285c.97.12 2.058.267 2.238.309.137.057.886.425 1.553.759l.021.01 1.745.751 1.097.568.259.134-.469-.134h-16.036c-.458 0-.829.389-.829.87 0 .381.234.705.56.822.073.065.166.106.268.106.247 0 .352.043.498.103.177.072.397.163.8.163s.623-.09.8-.163c.146-.06.252-.103.498-.103.247 0 .352.043.498.103.177.072.397.163.8.163s.623-.09.8-.163c.146-.06.252-.103.498-.103.247 0 .352.043.498.103.177.072.397.163.8.163.402 0 .623-.09.8-.163.146-.06.252-.103.498-.103.247 0 .352.043.498.103.177.072.397.163.8.163s.623-.09.8-.163c.146-.06.252-.103.498-.103.247 0 .352.043.498.103.177.072.397.163.8.163.402 0 .623-.09.8-.163.146-.06.252-.103.498-.103s.352.043.498.103c.177.072.397.163.8.163s.623-.09.8-.163c.146-.06.252-.103.499-.103.246 0 .352.043.498.103.177.072.397.163.8.163.402 0 .623-.09.8-.163.146-.06.252-.103.498-.103.247 0 .352.043.499.103.177.072.397.163.8.163s.623-.09.8-.163c.146-.06.252-.103.499-.103.246 0 .352.043.498.103.177.072.397.163.8.163s.623-.09.8-.163c.146-.06.252-.103.499-.103.246 0 .352.043.498.103.177.072.397.163.8.163s.623-.09.8-.163c.146-.06.252-.103.499-.103s.353.043.499.103c.177.072.397.163.8.163.229 0 .414-.195.414-.435l-.001-.007c.248-.15.415-.431.415-.753zm-16.612-5.179l-.033-.596c-.012-.215-.172-.389-.377-.408l-2.698-.253-.198-.019v-1.601l-.009-.088-.068-.345.107-.136.896-1.135.074-.141.404-1.281.021-.137v-1.751l.289-.728.471-.325.243.356.021.03.045 1.706-.33.951-.408.06c-.205.03-.357.214-.357.431v1.351c0 .24.185.435.414.435.229 0 .414-.195.414-.435v-.972l.297-.043c.152-.022.28-.131.332-.282l.383-1.104.294-.141.177.382v1.361l.015.118.304 1.137.005.016c.051.167.194.287.362.3l.768.062-.099.292-.012.044-.671 2.933-.052.03-.098.055-.109.091-.818-.22zm2.125-8.587l-.019.237-.001.037v2.174l.001.03.118 1.808-.077.227-.703-.057-.211-.787v-1.401l-.042-.19-.395-.854c-.098-.213-.34-.303-.545-.205l-.25.12-.03-1.138h2.154zm.903-.869l.027-.331.1-1.161.324-.189.129 1.636.002.018.003.027.377 3.191c.009.074.035.144.077.203l.515.738.002.002.013.015.04.045.006.007 1.135 1.047.873 1.617c.076.141.217.221.361.221.069 0 .139-.018.204-.057.199-.118.269-.384.156-.593l-.907-1.681-.087-.112-.663-.612.222-.085c.163-.063.272-.226.272-.408v-2.668l.266-.49.542.659.006.006.039.04.012.01.047.034.02.011.058.026.009.004.072.015.009.002.349.038.154.017.538.641.033 1.106c.007.235.191.421.414.421h.013c.229-.008.408-.208.401-.448l-.038-1.262c-.003-.101-.039-.198-.103-.274l-.743-.886c-.069-.082-.165-.134-.268-.145l-.211-.023.18-.951.008-.071.052-1.65.255-.693.635.677.444 1.389.024.059.021.039.243.396.101.165.009.015.258.42.077.126.025.256v.001l.158 1.635v2.174l.002.046.221 2.181-1.355.484-2.305.833c-.093.034-.171.1-.221.189l-.08.141-.002.003-.405.715h-4.016l-.099.013.497-2.172.484-1.432.023-.175-.123-1.883v-2.14l.095-1.162zm8.851-.434l.052.021.027.062-.028.062-.051.021h-.002c-.229 0-.414.195-.414.435s.186.435.414.435h2.344l.141.057c.028.025.074.081.074.169 0 .088-.046.144-.074.169l-.141.057h-3.185l-.092-.952-.064-.192-.21-.343h1.209zm-19.306 4.297l.157-1.404.325-.418v.934c0 .24.185.435.414.435.229 0 .414-.195.414-.435v-1.185l.412-1.182.025-.145.007-.788.23.216.811 1.914v1.512l.003.054.221 1.868.005.035.268 1.352v1.475l-2.228-.22-1.065-.951v-3.066z" id="Fill-2"/><path d="M14.678 47.092h2.123c.229 0 .414-.195.414-.435s-.185-.435-.414-.435h-2.123c-.229 0-.414.195-.414.435s.185.435.414.435" id="Fill-3"/><path d="M14.747 45.898h5.226c.229 0 .414-.195.414-.435s-.185-.435-.414-.435h-5.226c-.229 0-.414.195-.414.435s.185.435.414.435" id="Fill-4"/></g><g fill="#206FAC" sketch:type="MSShapeGroup"><path d="M6.171 128.944c.191.177.436.274.69.274h1.439l-.004.083c0 .273.112.533.308.714.166.153.379.238.599.238h3.028c.5 0 .907-.427.907-.952 0-.525-.407-.952-.907-.952h-.087l.023-.226c0-.604-.468-1.095-1.044-1.095h-4.262c-.254 0-.499.097-.689.274-.225.208-.354.507-.354.821 0 .314.129.613.354.821zm.548-.99l.141-.057h4.262c.119 0 .215.101.215.226s-.096.226-.215.226c-.229 0-.414.195-.414.435h-.002c0 .24.185.435.414.435h1.11c.044 0 .079.037.079.083 0 .046-.035.083-.079.083h-3.028l-.052-.021-.027-.062.027-.062.051-.021h.002c.229 0 .414-.195.414-.435s-.186-.435-.414-.435h-2.344l-.142-.057c-.027-.025-.073-.081-.073-.169 0-.088.046-.144.074-.169z"/><path d="M29.917 147.731c0-.48-.371-.87-.829-.87h-9.054l-.763-.348-.652-.338 2.996-.368.115-.032 1.737-.781.074-.043.792-.579.08-.077.756-.941 1.218.138c.134.016.267-.039.356-.145l.835-.998 1.425-.535c.215-.081.328-.33.251-.556-.077-.226-.314-.344-.53-.263l-1.526.573c-.066.025-.125.067-.172.122l-.764.913-.371-.042-.853-.097c-.137-.016-.273.041-.361.152l-.863 1.075-.713.521-1.003.451-1.87-.747-.044-.015-1.789-.486-.061-.011-2.397-.263-.649-.071.155-.088.118-.067h4.147c.146 0 .281-.081.356-.213l.53-.936 2.16-.781 1.659-.592h.001l1.27-.454c.217-.077.332-.324.259-.552-.074-.227-.309-.349-.526-.272l-.772.276-.199-1.962v-2.173l-.002-.044-.019-.196h3.102c.254 0 .499-.097.689-.274.225-.208.354-.507.354-.821 0-.314-.129-.613-.354-.821-.191-.177-.436-.274-.689-.274h-1.439l.004-.083c0-.273-.112-.533-.308-.714-.166-.154-.379-.238-.599-.238h-1.729l-.442-1.385-.098-.167-1.152-1.228c-.099-.105-.242-.15-.379-.121-.138.03-.252.131-.302.269l-.512 1.391-.028.142-.053 1.688-.097.511-.371-.451c-.088-.107-.221-.162-.354-.149-.134.014-.253.095-.32.218l-.61 1.125c-.035.065-.054.14-.054.215v2.479l-.312.12-.267-.383-.249-2.102h.058c.229 0 .414-.195.414-.435s-.185-.435-.414-.435h-.161l-.015-.125-.181-2.299c-.012-.147-.094-.278-.218-.348-.124-.07-.273-.068-.396.003l-1.077.627c-.12.07-.199.198-.212.341l-.119 1.392-.033.407h-2.648l-.227-.333c-.129-.19-.379-.239-.565-.11l-.641.443h-1.193c-.229 0-.414.195-.414.435s.185.435.414.435h.576l-.176.443-.032.167v1.768l-.359 1.137-.527.668-.208-1.761v-1.577l-.036-.177-.883-2.083-.102-.147-.978-.923c-.121-.114-.295-.143-.444-.075-.149.069-.246.223-.247.394l-.015 1.676-.262.751-.109-.05c-.17-.078-.369-.027-.486.124l-.625.804c-.05.064-.081.142-.09.224l-.174 1.555-.003.051v2.381l-.369-.313-.158-.083-1.88-.508c-.221-.06-.448.08-.504.313-.057.233.076.47.298.529l1.793.484.97.824 1.307 1.167c.065.058.145.093.23.102l3.034.3 2.696.253.03.538c.011.189.136.349.311.396l2.217.596.06.011 3.135.344 1.737.472.171.068.591.236-1.749.215-1.69.207-.029.007-1.694-.729c-.354-.177-1.461-.729-1.632-.792-.139-.052-.949-.169-2.409-.35l-2.267-.272-.794-.615c-.071-.055-.158-.085-.246-.085h-1.704l-1.423-.163-1.541-.405-.101-.013h-.896c-.229 0-.414.195-.414.435s.185.435.414.435h.845l1.519.399.056.011.893.102.581.067.045.003h1.59l.773.6c.058.045.127.073.199.082l2.375.285c.97.12 2.058.267 2.238.309.137.057.886.425 1.553.759l.021.01 1.745.751 1.097.568.259.134-.469-.134h-16.036c-.458 0-.829.389-.829.87 0 .381.234.705.56.822.073.065.166.106.268.106.247 0 .352.043.498.103.177.072.397.163.8.163s.623-.09.8-.163c.146-.06.252-.103.498-.103.247 0 .352.043.498.103.177.072.397.163.8.163s.623-.09.8-.163c.146-.06.252-.103.498-.103.247 0 .352.043.498.103.177.072.397.163.8.163.402 0 .623-.09.8-.163.146-.06.252-.103.498-.103.247 0 .352.043.498.103.177.072.397.163.8.163s.623-.09.8-.163c.146-.06.252-.103.498-.103.247 0 .352.043.498.103.177.072.397.163.8.163.402 0 .623-.09.8-.163.146-.06.252-.103.498-.103s.352.043.498.103c.177.072.397.163.8.163s.623-.09.8-.163c.146-.06.252-.103.499-.103.246 0 .352.043.498.103.177.072.397.163.8.163.402 0 .623-.09.8-.163.146-.06.252-.103.498-.103.247 0 .352.043.499.103.177.072.397.163.8.163s.623-.09.8-.163c.146-.06.252-.103.499-.103.246 0 .352.043.498.103.177.072.397.163.8.163s.623-.09.8-.163c.146-.06.252-.103.499-.103.246 0 .352.043.498.103.177.072.397.163.8.163s.623-.09.8-.163c.146-.06.252-.103.499-.103s.353.043.499.103c.177.072.397.163.8.163.229 0 .414-.195.414-.435l-.001-.007c.248-.15.415-.431.415-.753zm-16.612-5.179l-.033-.596c-.012-.215-.172-.389-.377-.408l-2.698-.253-.198-.019v-1.601l-.009-.088-.068-.345.107-.136.896-1.135.074-.141.404-1.281.021-.137v-1.751l.289-.728.471-.325.243.356.021.03.045 1.706-.33.951-.408.06c-.205.03-.357.214-.357.431v1.351c0 .24.185.435.414.435.229 0 .414-.195.414-.435v-.972l.297-.043c.152-.022.28-.131.332-.282l.383-1.104.294-.141.177.382v1.361l.015.118.304 1.137.005.016c.051.167.194.287.362.3l.768.062-.099.292-.012.044-.671 2.933-.052.03-.098.055-.109.091-.818-.22zm2.125-8.587l-.019.237-.001.037v2.174l.001.03.118 1.808-.077.227-.703-.057-.211-.787v-1.401l-.042-.19-.395-.854c-.098-.213-.34-.303-.545-.205l-.25.12-.03-1.138h2.154zm.903-.869l.027-.331.1-1.161.324-.189.129 1.636.002.018.003.027.377 3.191c.009.074.035.144.077.203l.515.738.002.002.013.015.04.045.006.007 1.135 1.047.873 1.617c.076.141.217.221.361.221.069 0 .139-.018.204-.057.199-.118.269-.384.156-.593l-.907-1.681-.087-.112-.663-.612.222-.085c.163-.063.272-.226.272-.408v-2.668l.266-.49.542.659.006.006.039.04.012.01.047.034.02.011.058.026.009.004.072.015.009.002.349.038.154.017.538.641.033 1.106c.007.235.191.421.414.421h.013c.229-.008.408-.208.401-.448l-.038-1.262c-.003-.101-.039-.198-.103-.274l-.743-.886c-.069-.082-.165-.134-.268-.145l-.211-.023.18-.951.008-.071.052-1.65.255-.693.635.677.444 1.389.024.059.021.039.243.396.101.165.009.015.258.42.077.126.025.256v.001l.158 1.635v2.174l.002.046.221 2.181-1.355.484-2.305.833c-.093.034-.171.1-.221.189l-.08.141-.002.003-.405.715h-4.016l-.099.013.497-2.172.484-1.432.023-.175-.123-1.883v-2.14l.095-1.162zm8.851-.434l.052.021.027.062-.028.062-.051.021h-.002c-.229 0-.414.195-.414.435s.186.435.414.435h2.344l.141.057c.028.025.074.081.074.169 0 .088-.046.144-.074.169l-.141.057h-3.185l-.092-.952-.064-.192-.21-.343h1.209zm-19.306 4.297l.157-1.404.325-.418v.934c0 .24.185.435.414.435.229 0 .414-.195.414-.435v-1.185l.412-1.182.025-.145.007-.788.23.216.811 1.914v1.512l.003.054.221 1.868.005.035.268 1.352v1.475l-2.228-.22-1.065-.951v-3.066z"/><path d="M14.678 129.092h2.123c.229 0 .414-.195.414-.435s-.185-.435-.414-.435h-2.123c-.229 0-.414.195-.414.435s.185.435.414.435"/><path d="M14.747 127.898h5.226c.229 0 .414-.195.414-.435s-.185-.435-.414-.435h-5.226c-.229 0-.414.195-.414.435s.185.435.414.435"/></g></g></g></svg>