<?xml version="1.0" encoding="utf-8"?>
<!-- Generator: Adobe Illustrator 16.0.0, SVG Export Plug-In . SVG Version: 6.00 Build 0)  -->
<!DOCTYPE svg PUBLIC "-//W3C//DTD SVG 1.1//EN" "http://www.w3.org/Graphics/SVG/1.1/DTD/svg11.dtd">
<svg version="1.1" id="Layer_1" xmlns:sketch="http://www.bohemiancoding.com/sketch/ns"
	 xmlns="http://www.w3.org/2000/svg" xmlns:xlink="http://www.w3.org/1999/xlink" x="0px" y="0px" width="32px" height="232px"
	 viewBox="0 0 32 232" enable-background="new 0 0 32 232" xml:space="preserve">
<title>argentina_buenos-aires</title>
<desc>Created with Sketch.</desc>
<g id="Gold-destinations" sketch:type="MSPage">
	<g id="Slices" transform="translate(-520.000000, -612.000000)" sketch:type="MSLayerGroup">
	</g>
	<g id="Destination-Icons" transform="translate(-519.000000, -277.000000)" sketch:type="MSLayerGroup">
		<path id="Buenos-Aires" sketch:type="MSShapeGroup" fill="#373D43" d="M548.232,302.975c-0.234,0-0.334-0.042-0.473-0.1
			c-0.043-0.017-0.088-0.036-0.137-0.054c0.012-0.058,0.018-0.117,0.018-0.178c0-0.463-0.352-0.838-0.785-0.838h-1.922v-4.969
			l2.104-1.834c0.313-0.273,0.382-0.754,0.157-1.114c-0.224-0.359-0.666-0.479-1.022-0.276l-1.239,0.704v-2.15
			c0-0.232-0.176-0.419-0.393-0.419h-0.844v-1.379c0-1.47-1.304-2.654-1.787-3.043v-0.983c0.117-0.076,0.189-0.211,0.189-0.358
			c0-0.153-0.078-0.294-0.204-0.368l-0.021-0.012l-0.012-0.023c-0.069-0.134-0.201-0.218-0.345-0.218
			c-0.143,0-0.275,0.084-0.344,0.218l-0.012,0.023l-0.022,0.012c-0.126,0.074-0.204,0.215-0.204,0.368
			c0,0.147,0.072,0.282,0.189,0.358v0.983c-0.105,0.085-0.25,0.208-0.413,0.365h-0.267c0.043-0.131,0.068-0.272,0.068-0.419
			c0-0.693-0.528-1.257-1.178-1.257h-4.672c-0.287,0-0.563,0.112-0.779,0.315c-0.253,0.239-0.399,0.583-0.399,0.942
			c0,0.36,0.146,0.704,0.399,0.943c0.216,0.203,0.492,0.315,0.779,0.315h1.294c-0.017,0.077-0.025,0.157-0.025,0.237
			c0,0.308,0.124,0.602,0.342,0.807c0.185,0.174,0.421,0.269,0.666,0.269h2.454c-0.035,0.171-0.057,0.347-0.057,0.527v3.439h-0.531
			v-1.641c0-0.232-0.176-0.419-0.393-0.419h-0.461v-1.019c0-0.231-0.176-0.419-0.393-0.419s-0.393,0.188-0.393,0.419v1.019h-0.461
			c-0.217,0-0.393,0.187-0.393,0.419v1.641h-1.062v-0.769c0-0.231-0.176-0.419-0.393-0.419h-1.515c-0.217,0-0.393,0.188-0.393,0.419
			v0.769h-0.661c-0.217,0-0.393,0.188-0.393,0.419v6.973c-0.213,0.058-0.438,0.115-0.671,0.169l-0.326-16.046
			c-0.003-0.168-0.054-0.332-0.146-0.469l-1.006-1.502c-0.146-0.219-0.383-0.35-0.636-0.351h-0.003
			c-0.252,0-0.488,0.128-0.636,0.347l-1.02,1.502c-0.094,0.138-0.146,0.303-0.149,0.473l-0.022,1.099h-2.684
			c-0.137,0-0.249-0.119-0.249-0.266s0.112-0.266,0.249-0.266c0.217,0,0.393-0.188,0.393-0.419s-0.176-0.419-0.393-0.419
			c-0.57,0-1.034,0.495-1.034,1.104s0.463,1.104,1.034,1.104h2.667l-0.008,0.418h-1.426c-0.217,0-0.393,0.188-0.393,0.42
			s0.176,0.418,0.393,0.418h1.409l-0.27,13.291h-2.542c-0.434,0-0.785,0.375-0.785,0.838c0,0.117,0.022,0.228,0.063,0.33
			c-0.027,0.001-0.056,0.002-0.086,0.002c-0.233,0-0.333-0.042-0.472-0.1c-0.167-0.07-0.376-0.157-0.758-0.157
			c-0.217,0-0.393,0.188-0.393,0.419s0.175,0.419,0.393,0.419c0.234,0,0.334,0.042,0.472,0.1c0.168,0.069,0.376,0.157,0.758,0.157
			s0.591-0.087,0.758-0.157c0.139-0.058,0.238-0.1,0.472-0.1s0.333,0.042,0.472,0.1c0.168,0.069,0.376,0.157,0.758,0.157
			c0.381,0,0.59-0.087,0.758-0.157c0.139-0.058,0.239-0.1,0.473-0.1c0.233,0,0.333,0.042,0.472,0.1
			c0.168,0.069,0.376,0.157,0.758,0.157s0.59-0.087,0.758-0.157c0.139-0.058,0.239-0.1,0.473-0.1s0.333,0.042,0.473,0.1
			c0.167,0.069,0.376,0.157,0.757,0.157c0.382,0,0.591-0.087,0.758-0.157c0.139-0.058,0.238-0.1,0.472-0.1s0.334,0.042,0.472,0.1
			c0.168,0.069,0.377,0.157,0.758,0.157s0.59-0.087,0.758-0.157c0.139-0.058,0.239-0.1,0.472-0.1c0.234,0,0.334,0.042,0.473,0.1
			c0.167,0.069,0.377,0.157,0.758,0.157s0.591-0.087,0.758-0.157c0.139-0.058,0.239-0.1,0.473-0.1c0.234,0,0.334,0.042,0.473,0.1
			c0.168,0.069,0.377,0.157,0.758,0.157s0.59-0.087,0.758-0.157c0.139-0.058,0.238-0.1,0.473-0.1c0.233,0,0.334,0.042,0.473,0.1
			c0.168,0.069,0.376,0.157,0.758,0.157s0.59-0.087,0.758-0.157c0.139-0.058,0.239-0.1,0.473-0.1s0.334,0.042,0.473,0.1
			c0.168,0.069,0.376,0.157,0.758,0.157s0.591-0.087,0.758-0.157c0.139-0.058,0.239-0.1,0.473-0.1c0.234,0,0.334,0.042,0.473,0.1
			c0.168,0.069,0.377,0.157,0.758,0.157c0.382,0,0.591-0.087,0.759-0.157c0.139-0.058,0.239-0.1,0.473-0.1s0.334,0.042,0.473,0.1
			c0.168,0.069,0.376,0.157,0.759,0.157c0.217,0,0.393-0.188,0.393-0.419C548.625,303.163,548.449,302.975,548.232,302.975
			L548.232,302.975z M528.813,288.515l0.059-2.895l0.235-0.346l0.23,0.343l0.325,16.04c-0.361,0.05-0.735,0.09-1.118,0.116
			L528.813,288.515L528.813,288.515z M536.718,288.764c0-0.092,0.048-0.151,0.075-0.178c0.029-0.027,0.078-0.06,0.147-0.06h0.002
			c0.217,0,0.393-0.188,0.393-0.419s-0.176-0.419-0.393-0.419h-2.279c-0.122,0-0.208-0.058-0.259-0.105
			c-0.086-0.082-0.134-0.193-0.134-0.314s0.048-0.232,0.134-0.314c0.072-0.068,0.164-0.105,0.259-0.105h4.672
			c0.216,0,0.393,0.188,0.393,0.419c0,0.231-0.177,0.419-0.393,0.419c-0.217,0-0.393,0.188-0.393,0.419h-0.002
			c0,0.231,0.175,0.419,0.393,0.419h0.655c-0.104,0.148-0.202,0.307-0.29,0.475h-2.759c-0.069,0-0.118-0.033-0.146-0.06
			C536.766,288.916,536.718,288.856,536.718,288.764L536.718,288.764z M540.206,289.84c0.044-0.144,0.103-0.284,0.171-0.419
			c0.076-0.147,0.164-0.287,0.258-0.419c0.089-0.125,0.184-0.242,0.278-0.351c0.097-0.11,0.192-0.21,0.284-0.3
			c0.109-0.108,0.213-0.199,0.298-0.272c0.007-0.006,0.016-0.013,0.022-0.02c0.379,0.319,1.139,1.044,1.343,1.889h-2.685
			C540.184,289.912,540.195,289.876,540.206,289.84L540.206,289.84z M538.021,292.584v5.654l-0.922,0.523v-6.177H538.021
			L538.021,292.584z M538.025,300.133l0.389-0.22l0.005-0.002l0.388-0.22l0.004-0.003l0.234-0.132l0.034-0.02l0.358-0.203
			l0.034-0.02l0.357-0.203l0.031-0.018l-0.031,0.027l-0.357,0.312l-0.034,0.03l-0.358,0.312l-0.034,0.03l-0.234,0.204l-0.004,0.003
			l-0.388,0.338l-0.005,0.004l-0.389,0.337l-0.004,0.005l-0.983,0.856l-0.29,0.253h-1.668l0.172-0.098l0.079-0.045l0.922-0.523
			l0.062-0.034l0.331-0.189l0.062-0.034l0.331-0.188l0.062-0.035l0.922-0.523L538.025,300.133L538.025,300.133z M538.811,302.171
			l0.234-0.203v0.296h-0.234V302.171L538.811,302.171z M539.864,301.805v-0.552l0.729-0.635v1.646h-0.729V301.805L539.864,301.805z
			 M541.458,301.805v-1.94l0.922-0.804v3.204h-0.922V301.805L541.458,301.805z M540.594,294.645v2.133l-0.729,0.414v-2.754
			l0.729-0.572V294.645L540.594,294.645z M542.38,295.764l-0.922,0.523v-1.642h0.922V295.764L542.38,295.764z M534.467,300.254
			l-0.243,0.138c-0.059,0.027-0.228,0.101-0.486,0.203v-7.138h0.729V300.254L534.467,300.254z M544.148,301.805v0.459h-0.922v-3.941
			l0.922-0.803V301.805L544.148,301.805z M544.148,294.761l-0.922,0.523v-2.7h0.922V294.761L544.148,294.761z M538.811,294.645
			h0.234v3.013l-0.234,0.132V294.645L538.811,294.645z M535.331,294.645h0.922v4.596l-0.922,0.523V294.645L535.331,294.645z
			 M532.684,294.645h0.233v6.247c-0.075,0.025-0.153,0.05-0.233,0.076V294.645L532.684,294.645z M542.834,291.746
			c-0.217,0-0.393,0.187-0.393,0.419v1.641h-1.062v-0.769c0-0.158-0.083-0.302-0.215-0.374c-0.133-0.072-0.291-0.058-0.41,0.036
			l-0.631,0.494v-2.407h2.789v0.959H542.834L542.834,291.746z"/>
		<path id="Buenos-Aires-copy" sketch:type="MSShapeGroup" fill="#FFFFFF" d="M548.232,384.975c-0.234,0-0.334-0.042-0.473-0.1
			c-0.043-0.017-0.088-0.036-0.137-0.054c0.012-0.058,0.018-0.117,0.018-0.178c0-0.463-0.352-0.838-0.785-0.838h-1.922v-4.969
			l2.104-1.834c0.313-0.273,0.382-0.754,0.157-1.114c-0.224-0.359-0.666-0.479-1.022-0.276l-1.239,0.704v-2.15
			c0-0.232-0.176-0.419-0.393-0.419h-0.844v-1.379c0-1.47-1.304-2.654-1.787-3.043v-0.983c0.117-0.076,0.189-0.211,0.189-0.358
			c0-0.153-0.078-0.294-0.204-0.368l-0.021-0.012l-0.012-0.023c-0.069-0.134-0.201-0.218-0.345-0.218
			c-0.143,0-0.275,0.084-0.344,0.218l-0.012,0.023l-0.022,0.012c-0.126,0.074-0.204,0.215-0.204,0.368
			c0,0.147,0.072,0.282,0.189,0.358v0.983c-0.105,0.085-0.25,0.208-0.413,0.365h-0.267c0.043-0.131,0.068-0.272,0.068-0.419
			c0-0.693-0.528-1.257-1.178-1.257h-4.672c-0.287,0-0.563,0.112-0.779,0.315c-0.253,0.239-0.399,0.583-0.399,0.942
			c0,0.36,0.146,0.704,0.399,0.943c0.216,0.203,0.492,0.315,0.779,0.315h1.294c-0.017,0.077-0.025,0.157-0.025,0.237
			c0,0.308,0.124,0.602,0.342,0.807c0.185,0.174,0.421,0.269,0.666,0.269h2.454c-0.035,0.171-0.057,0.347-0.057,0.527v3.439h-0.531
			v-1.641c0-0.232-0.176-0.419-0.393-0.419h-0.461v-1.019c0-0.231-0.176-0.419-0.393-0.419s-0.393,0.188-0.393,0.419v1.019h-0.461
			c-0.217,0-0.393,0.187-0.393,0.419v1.641h-1.062v-0.769c0-0.231-0.176-0.419-0.393-0.419h-1.515c-0.217,0-0.393,0.188-0.393,0.419
			v0.769h-0.661c-0.217,0-0.393,0.188-0.393,0.419v6.973c-0.213,0.058-0.438,0.115-0.671,0.169l-0.326-16.046
			c-0.003-0.168-0.054-0.332-0.146-0.469l-1.006-1.502c-0.146-0.219-0.383-0.35-0.636-0.351h-0.003
			c-0.252,0-0.488,0.128-0.636,0.347l-1.02,1.502c-0.094,0.138-0.146,0.303-0.149,0.473l-0.022,1.099h-2.684
			c-0.137,0-0.249-0.119-0.249-0.266s0.112-0.266,0.249-0.266c0.217,0,0.393-0.188,0.393-0.419s-0.176-0.419-0.393-0.419
			c-0.57,0-1.034,0.495-1.034,1.104s0.463,1.104,1.034,1.104h2.667l-0.008,0.418h-1.426c-0.217,0-0.393,0.188-0.393,0.42
			s0.176,0.418,0.393,0.418h1.409l-0.27,13.291h-2.542c-0.434,0-0.785,0.375-0.785,0.838c0,0.117,0.022,0.228,0.063,0.33
			c-0.027,0.001-0.056,0.002-0.086,0.002c-0.233,0-0.333-0.042-0.472-0.1c-0.167-0.07-0.376-0.157-0.758-0.157
			c-0.217,0-0.393,0.188-0.393,0.419s0.175,0.419,0.393,0.419c0.234,0,0.334,0.042,0.472,0.1c0.168,0.069,0.376,0.157,0.758,0.157
			s0.591-0.087,0.758-0.157c0.139-0.058,0.238-0.1,0.472-0.1s0.333,0.042,0.472,0.1c0.168,0.069,0.376,0.157,0.758,0.157
			c0.381,0,0.59-0.087,0.758-0.157c0.139-0.058,0.239-0.1,0.473-0.1c0.233,0,0.333,0.042,0.472,0.1
			c0.168,0.069,0.376,0.157,0.758,0.157s0.59-0.087,0.758-0.157c0.139-0.058,0.239-0.1,0.473-0.1s0.333,0.042,0.473,0.1
			c0.167,0.069,0.376,0.157,0.757,0.157c0.382,0,0.591-0.087,0.758-0.157c0.139-0.058,0.238-0.1,0.472-0.1s0.334,0.042,0.472,0.1
			c0.168,0.069,0.377,0.157,0.758,0.157s0.59-0.087,0.758-0.157c0.139-0.058,0.239-0.1,0.472-0.1c0.234,0,0.334,0.042,0.473,0.1
			c0.167,0.069,0.377,0.157,0.758,0.157s0.591-0.087,0.758-0.157c0.139-0.058,0.239-0.1,0.473-0.1c0.234,0,0.334,0.042,0.473,0.1
			c0.168,0.069,0.377,0.157,0.758,0.157s0.59-0.087,0.758-0.157c0.139-0.058,0.238-0.1,0.473-0.1c0.233,0,0.334,0.042,0.473,0.1
			c0.168,0.069,0.376,0.157,0.758,0.157s0.59-0.087,0.758-0.157c0.139-0.058,0.239-0.1,0.473-0.1s0.334,0.042,0.473,0.1
			c0.168,0.069,0.376,0.157,0.758,0.157s0.591-0.087,0.758-0.157c0.139-0.058,0.239-0.1,0.473-0.1c0.234,0,0.334,0.042,0.473,0.1
			c0.168,0.069,0.377,0.157,0.758,0.157c0.382,0,0.591-0.087,0.759-0.157c0.139-0.058,0.239-0.1,0.473-0.1s0.334,0.042,0.473,0.1
			c0.168,0.069,0.376,0.157,0.759,0.157c0.217,0,0.393-0.188,0.393-0.419C548.625,385.163,548.449,384.975,548.232,384.975
			L548.232,384.975z M528.813,370.515l0.059-2.895l0.235-0.346l0.23,0.343l0.325,16.04c-0.361,0.05-0.735,0.09-1.118,0.116
			L528.813,370.515L528.813,370.515z M536.718,370.764c0-0.092,0.048-0.151,0.075-0.178c0.029-0.027,0.078-0.06,0.147-0.06h0.002
			c0.217,0,0.393-0.188,0.393-0.419s-0.176-0.419-0.393-0.419h-2.279c-0.122,0-0.208-0.058-0.259-0.105
			c-0.086-0.082-0.134-0.193-0.134-0.314s0.048-0.232,0.134-0.314c0.072-0.068,0.164-0.105,0.259-0.105h4.672
			c0.216,0,0.393,0.188,0.393,0.419c0,0.231-0.177,0.419-0.393,0.419c-0.217,0-0.393,0.188-0.393,0.419h-0.002
			c0,0.231,0.175,0.419,0.393,0.419h0.655c-0.104,0.148-0.202,0.307-0.29,0.475h-2.759c-0.069,0-0.118-0.033-0.146-0.06
			C536.766,370.916,536.718,370.856,536.718,370.764L536.718,370.764z M540.206,371.84c0.044-0.144,0.103-0.284,0.171-0.419
			c0.076-0.147,0.164-0.287,0.258-0.419c0.089-0.125,0.184-0.242,0.278-0.351c0.097-0.11,0.192-0.21,0.284-0.3
			c0.109-0.108,0.213-0.199,0.298-0.272c0.007-0.006,0.016-0.013,0.022-0.02c0.379,0.319,1.139,1.044,1.343,1.889h-2.685
			C540.184,371.912,540.195,371.876,540.206,371.84L540.206,371.84z M538.021,374.584v5.654l-0.922,0.523v-6.177H538.021
			L538.021,374.584z M538.025,382.133l0.389-0.22l0.005-0.002l0.388-0.22l0.004-0.003l0.234-0.132l0.034-0.02l0.358-0.203
			l0.034-0.02l0.357-0.203l0.031-0.018l-0.031,0.027l-0.357,0.312l-0.034,0.03l-0.358,0.312l-0.034,0.03l-0.234,0.204l-0.004,0.003
			l-0.388,0.338l-0.005,0.004l-0.389,0.337l-0.004,0.005l-0.983,0.856l-0.29,0.253h-1.668l0.172-0.098l0.079-0.045l0.922-0.523
			l0.062-0.034l0.331-0.189l0.062-0.034l0.331-0.188l0.062-0.035l0.922-0.523L538.025,382.133L538.025,382.133z M538.811,384.171
			l0.234-0.203v0.296h-0.234V384.171L538.811,384.171z M539.864,383.805v-0.552l0.729-0.635v1.646h-0.729V383.805L539.864,383.805z
			 M541.458,383.805v-1.94l0.922-0.804v3.204h-0.922V383.805L541.458,383.805z M540.594,376.645v2.133l-0.729,0.414v-2.754
			l0.729-0.572V376.645L540.594,376.645z M542.38,377.764l-0.922,0.523v-1.642h0.922V377.764L542.38,377.764z M534.467,382.254
			l-0.243,0.138c-0.059,0.027-0.228,0.101-0.486,0.203v-7.138h0.729V382.254L534.467,382.254z M544.148,383.805v0.459h-0.922v-3.941
			l0.922-0.803V383.805L544.148,383.805z M544.148,376.761l-0.922,0.523v-2.7h0.922V376.761L544.148,376.761z M538.811,376.645
			h0.234v3.013l-0.234,0.132V376.645L538.811,376.645z M535.331,376.645h0.922v4.596l-0.922,0.523V376.645L535.331,376.645z
			 M532.684,376.645h0.233v6.247c-0.075,0.025-0.153,0.05-0.233,0.076V376.645L532.684,376.645z M542.834,373.746
			c-0.217,0-0.393,0.187-0.393,0.419v1.641h-1.062v-0.769c0-0.158-0.083-0.302-0.215-0.374c-0.133-0.072-0.291-0.058-0.41,0.036
			l-0.631,0.494v-2.407h2.789v0.959H542.834L542.834,373.746z"/>
		<path id="Buenos-Aires-copy_1_" sketch:type="MSShapeGroup" fill="#67737B" d="M548.232,343.975c-0.234,0-0.334-0.042-0.473-0.1
			c-0.043-0.017-0.088-0.036-0.137-0.054c0.012-0.058,0.018-0.117,0.018-0.178c0-0.463-0.352-0.838-0.785-0.838h-1.922v-4.969
			l2.104-1.834c0.313-0.273,0.382-0.754,0.157-1.114c-0.224-0.359-0.666-0.479-1.022-0.276l-1.239,0.704v-2.15
			c0-0.232-0.176-0.419-0.393-0.419h-0.844v-1.379c0-1.47-1.304-2.654-1.787-3.043v-0.983c0.117-0.076,0.189-0.211,0.189-0.358
			c0-0.153-0.078-0.294-0.204-0.368l-0.021-0.012l-0.012-0.023c-0.069-0.134-0.201-0.218-0.345-0.218
			c-0.143,0-0.275,0.084-0.344,0.218l-0.012,0.023l-0.022,0.012c-0.126,0.074-0.204,0.215-0.204,0.368
			c0,0.147,0.072,0.282,0.189,0.358v0.983c-0.105,0.085-0.25,0.208-0.413,0.365h-0.267c0.043-0.131,0.068-0.272,0.068-0.419
			c0-0.693-0.528-1.257-1.178-1.257h-4.672c-0.287,0-0.563,0.112-0.779,0.315c-0.253,0.239-0.399,0.583-0.399,0.942
			c0,0.36,0.146,0.704,0.399,0.943c0.216,0.203,0.492,0.315,0.779,0.315h1.294c-0.017,0.077-0.025,0.157-0.025,0.237
			c0,0.308,0.124,0.602,0.342,0.807c0.185,0.174,0.421,0.269,0.666,0.269h2.454c-0.035,0.171-0.057,0.347-0.057,0.527v3.439h-0.531
			v-1.641c0-0.232-0.176-0.419-0.393-0.419h-0.461v-1.019c0-0.231-0.176-0.419-0.393-0.419s-0.393,0.188-0.393,0.419v1.019h-0.461
			c-0.217,0-0.393,0.187-0.393,0.419v1.641h-1.062v-0.769c0-0.231-0.176-0.419-0.393-0.419h-1.515c-0.217,0-0.393,0.188-0.393,0.419
			v0.769h-0.661c-0.217,0-0.393,0.188-0.393,0.419v6.973c-0.213,0.058-0.438,0.115-0.671,0.169l-0.326-16.046
			c-0.003-0.168-0.054-0.332-0.146-0.469l-1.006-1.502c-0.146-0.219-0.383-0.35-0.636-0.351h-0.003
			c-0.252,0-0.488,0.128-0.636,0.347l-1.02,1.502c-0.094,0.138-0.146,0.303-0.149,0.473l-0.022,1.099h-2.684
			c-0.137,0-0.249-0.119-0.249-0.266s0.112-0.266,0.249-0.266c0.217,0,0.393-0.188,0.393-0.419s-0.176-0.419-0.393-0.419
			c-0.57,0-1.034,0.495-1.034,1.104s0.463,1.104,1.034,1.104h2.667l-0.008,0.418h-1.426c-0.217,0-0.393,0.188-0.393,0.42
			s0.176,0.418,0.393,0.418h1.409l-0.27,13.291h-2.542c-0.434,0-0.785,0.375-0.785,0.838c0,0.117,0.022,0.228,0.063,0.33
			c-0.027,0.001-0.056,0.002-0.086,0.002c-0.233,0-0.333-0.042-0.472-0.1c-0.167-0.07-0.376-0.157-0.758-0.157
			c-0.217,0-0.393,0.188-0.393,0.419s0.175,0.419,0.393,0.419c0.234,0,0.334,0.042,0.472,0.1c0.168,0.069,0.376,0.157,0.758,0.157
			s0.591-0.087,0.758-0.157c0.139-0.058,0.238-0.1,0.472-0.1s0.333,0.042,0.472,0.1c0.168,0.069,0.376,0.157,0.758,0.157
			c0.381,0,0.59-0.087,0.758-0.157c0.139-0.058,0.239-0.1,0.473-0.1c0.233,0,0.333,0.042,0.472,0.1
			c0.168,0.069,0.376,0.157,0.758,0.157s0.59-0.087,0.758-0.157c0.139-0.058,0.239-0.1,0.473-0.1s0.333,0.042,0.473,0.1
			c0.167,0.069,0.376,0.157,0.757,0.157c0.382,0,0.591-0.087,0.758-0.157c0.139-0.058,0.238-0.1,0.472-0.1s0.334,0.042,0.472,0.1
			c0.168,0.069,0.377,0.157,0.758,0.157s0.59-0.087,0.758-0.157c0.139-0.058,0.239-0.1,0.472-0.1c0.234,0,0.334,0.042,0.473,0.1
			c0.167,0.069,0.377,0.157,0.758,0.157s0.591-0.087,0.758-0.157c0.139-0.058,0.239-0.1,0.473-0.1c0.234,0,0.334,0.042,0.473,0.1
			c0.168,0.069,0.377,0.157,0.758,0.157s0.59-0.087,0.758-0.157c0.139-0.058,0.238-0.1,0.473-0.1c0.233,0,0.334,0.042,0.473,0.1
			c0.168,0.069,0.376,0.157,0.758,0.157s0.59-0.087,0.758-0.157c0.139-0.058,0.239-0.1,0.473-0.1s0.334,0.042,0.473,0.1
			c0.168,0.069,0.376,0.157,0.758,0.157s0.591-0.087,0.758-0.157c0.139-0.058,0.239-0.1,0.473-0.1c0.234,0,0.334,0.042,0.473,0.1
			c0.168,0.069,0.377,0.157,0.758,0.157c0.382,0,0.591-0.087,0.759-0.157c0.139-0.058,0.239-0.1,0.473-0.1s0.334,0.042,0.473,0.1
			c0.168,0.069,0.376,0.157,0.759,0.157c0.217,0,0.393-0.188,0.393-0.419C548.625,344.163,548.449,343.975,548.232,343.975
			L548.232,343.975z M528.813,329.515l0.059-2.895l0.235-0.346l0.23,0.343l0.325,16.04c-0.361,0.05-0.735,0.09-1.118,0.116
			L528.813,329.515L528.813,329.515z M536.718,329.764c0-0.092,0.048-0.151,0.075-0.178c0.029-0.027,0.078-0.06,0.147-0.06h0.002
			c0.217,0,0.393-0.188,0.393-0.419s-0.176-0.419-0.393-0.419h-2.279c-0.122,0-0.208-0.058-0.259-0.105
			c-0.086-0.082-0.134-0.193-0.134-0.314s0.048-0.232,0.134-0.314c0.072-0.068,0.164-0.105,0.259-0.105h4.672
			c0.216,0,0.393,0.188,0.393,0.419c0,0.231-0.177,0.419-0.393,0.419c-0.217,0-0.393,0.188-0.393,0.419h-0.002
			c0,0.231,0.175,0.419,0.393,0.419h0.655c-0.104,0.148-0.202,0.307-0.29,0.475h-2.759c-0.069,0-0.118-0.033-0.146-0.06
			C536.766,329.916,536.718,329.856,536.718,329.764L536.718,329.764z M540.206,330.84c0.044-0.144,0.103-0.284,0.171-0.419
			c0.076-0.147,0.164-0.287,0.258-0.419c0.089-0.125,0.184-0.242,0.278-0.351c0.097-0.11,0.192-0.21,0.284-0.3
			c0.109-0.108,0.213-0.199,0.298-0.272c0.007-0.006,0.016-0.013,0.022-0.02c0.379,0.319,1.139,1.044,1.343,1.889h-2.685
			C540.184,330.912,540.195,330.876,540.206,330.84L540.206,330.84z M538.021,333.584v5.654l-0.922,0.523v-6.177H538.021
			L538.021,333.584z M538.025,341.133l0.389-0.22l0.005-0.002l0.388-0.22l0.004-0.003l0.234-0.132l0.034-0.02l0.358-0.203
			l0.034-0.02l0.357-0.203l0.031-0.018l-0.031,0.027l-0.357,0.312l-0.034,0.03l-0.358,0.312l-0.034,0.03l-0.234,0.204l-0.004,0.003
			l-0.388,0.338l-0.005,0.004l-0.389,0.337l-0.004,0.005l-0.983,0.856l-0.29,0.253h-1.668l0.172-0.098l0.079-0.045l0.922-0.523
			l0.062-0.034l0.331-0.189l0.062-0.034l0.331-0.188l0.062-0.035l0.922-0.523L538.025,341.133L538.025,341.133z M538.811,343.171
			l0.234-0.203v0.296h-0.234V343.171L538.811,343.171z M539.864,342.805v-0.552l0.729-0.635v1.646h-0.729V342.805L539.864,342.805z
			 M541.458,342.805v-1.94l0.922-0.804v3.204h-0.922V342.805L541.458,342.805z M540.594,335.645v2.133l-0.729,0.414v-2.754
			l0.729-0.572V335.645L540.594,335.645z M542.38,336.764l-0.922,0.523v-1.642h0.922V336.764L542.38,336.764z M534.467,341.254
			l-0.243,0.138c-0.059,0.027-0.228,0.101-0.486,0.203v-7.138h0.729V341.254L534.467,341.254z M544.148,342.805v0.459h-0.922v-3.941
			l0.922-0.803V342.805L544.148,342.805z M544.148,335.761l-0.922,0.523v-2.7h0.922V335.761L544.148,335.761z M538.811,335.645
			h0.234v3.013l-0.234,0.132V335.645L538.811,335.645z M535.331,335.645h0.922v4.596l-0.922,0.523V335.645L535.331,335.645z
			 M532.684,335.645h0.233v6.247c-0.075,0.025-0.153,0.05-0.233,0.076V335.645L532.684,335.645z M542.834,332.746
			c-0.217,0-0.393,0.187-0.393,0.419v1.641h-1.062v-0.769c0-0.158-0.083-0.302-0.215-0.374c-0.133-0.072-0.291-0.058-0.41,0.036
			l-0.631,0.494v-2.407h2.789v0.959H542.834L542.834,332.746z"/>
		<path id="Buenos-Aires-copy-2" sketch:type="MSShapeGroup" fill="#206FAC" d="M548.232,422.95c-0.234,0-0.334-0.041-0.473-0.1
			c-0.043-0.017-0.088-0.035-0.137-0.054c0.012-0.058,0.018-0.116,0.018-0.178c0-0.463-0.352-0.839-0.785-0.839h-1.922v-4.969
			l2.104-1.834c0.313-0.273,0.382-0.755,0.157-1.114c-0.224-0.358-0.666-0.479-1.022-0.276l-1.239,0.704v-2.15
			c0-0.231-0.176-0.419-0.393-0.419h-0.844v-1.379c0-1.471-1.304-2.654-1.787-3.043v-0.984c0.117-0.075,0.189-0.211,0.189-0.357
			c0-0.152-0.078-0.294-0.204-0.367l-0.021-0.013l-0.012-0.022c-0.069-0.135-0.201-0.219-0.345-0.219
			c-0.143,0-0.275,0.084-0.344,0.219l-0.012,0.022l-0.022,0.013c-0.126,0.073-0.204,0.215-0.204,0.367
			c0,0.146,0.072,0.282,0.189,0.357v0.984c-0.105,0.085-0.25,0.207-0.413,0.364h-0.267c0.043-0.132,0.068-0.272,0.068-0.419
			c0-0.693-0.528-1.258-1.178-1.258h-4.672c-0.287,0-0.563,0.111-0.779,0.314c-0.253,0.239-0.399,0.583-0.399,0.943
			c0,0.359,0.146,0.703,0.399,0.942c0.216,0.202,0.492,0.315,0.779,0.315h1.294c-0.017,0.076-0.025,0.156-0.025,0.236
			c0,0.309,0.124,0.603,0.342,0.807c0.185,0.174,0.421,0.27,0.666,0.27h2.454c-0.035,0.172-0.057,0.348-0.057,0.527v3.439h-0.531
			v-1.642c0-0.231-0.176-0.419-0.393-0.419h-0.461v-1.02c0-0.23-0.176-0.418-0.393-0.418s-0.393,0.188-0.393,0.418v1.02h-0.461
			c-0.217,0-0.393,0.188-0.393,0.419v1.642h-1.062v-0.77c0-0.23-0.176-0.419-0.393-0.419h-1.515c-0.217,0-0.393,0.188-0.393,0.419
			v0.77h-0.661c-0.217,0-0.393,0.188-0.393,0.419v6.974c-0.213,0.057-0.438,0.114-0.671,0.168l-0.326-16.045
			c-0.003-0.169-0.054-0.332-0.146-0.469l-1.006-1.503c-0.146-0.219-0.383-0.35-0.636-0.351h-0.003
			c-0.252,0-0.488,0.129-0.636,0.347l-1.02,1.502c-0.094,0.138-0.146,0.303-0.149,0.474l-0.022,1.098h-2.684
			c-0.137,0-0.249-0.119-0.249-0.266s0.112-0.266,0.249-0.266c0.217,0,0.393-0.188,0.393-0.418c0-0.232-0.176-0.42-0.393-0.42
			c-0.57,0-1.034,0.495-1.034,1.104c0,0.609,0.463,1.104,1.034,1.104h2.667l-0.008,0.418h-1.426c-0.217,0-0.393,0.189-0.393,0.42
			c0,0.232,0.176,0.419,0.393,0.419h1.409l-0.27,13.29h-2.542c-0.434,0-0.785,0.376-0.785,0.839c0,0.117,0.022,0.228,0.063,0.329
			c-0.027,0.002-0.056,0.002-0.086,0.002c-0.233,0-0.333-0.041-0.472-0.1c-0.167-0.069-0.376-0.156-0.758-0.156
			c-0.217,0-0.393,0.188-0.393,0.419s0.175,0.419,0.393,0.419c0.234,0,0.334,0.043,0.472,0.1c0.168,0.07,0.376,0.157,0.758,0.157
			s0.591-0.087,0.758-0.157c0.139-0.057,0.238-0.1,0.472-0.1s0.333,0.043,0.472,0.1c0.168,0.07,0.376,0.157,0.758,0.157
			c0.381,0,0.59-0.087,0.758-0.157c0.139-0.057,0.239-0.1,0.473-0.1c0.233,0,0.333,0.043,0.472,0.1
			c0.168,0.07,0.376,0.157,0.758,0.157s0.59-0.087,0.758-0.157c0.139-0.057,0.239-0.1,0.473-0.1s0.333,0.043,0.473,0.1
			c0.167,0.07,0.376,0.157,0.757,0.157c0.382,0,0.591-0.087,0.758-0.157c0.139-0.057,0.238-0.1,0.472-0.1s0.334,0.043,0.472,0.1
			c0.168,0.07,0.377,0.157,0.758,0.157s0.59-0.087,0.758-0.157c0.139-0.057,0.239-0.1,0.472-0.1c0.234,0,0.334,0.043,0.473,0.1
			c0.167,0.07,0.377,0.157,0.758,0.157s0.591-0.087,0.758-0.157c0.139-0.057,0.239-0.1,0.473-0.1c0.234,0,0.334,0.043,0.473,0.1
			c0.168,0.07,0.377,0.157,0.758,0.157s0.59-0.087,0.758-0.157c0.139-0.057,0.238-0.1,0.473-0.1c0.233,0,0.334,0.043,0.473,0.1
			c0.168,0.07,0.376,0.157,0.758,0.157s0.59-0.087,0.758-0.157c0.139-0.057,0.239-0.1,0.473-0.1s0.334,0.043,0.473,0.1
			c0.168,0.07,0.376,0.157,0.758,0.157s0.591-0.087,0.758-0.157c0.139-0.057,0.239-0.1,0.473-0.1c0.234,0,0.334,0.043,0.473,0.1
			c0.168,0.07,0.377,0.157,0.758,0.157c0.382,0,0.591-0.087,0.759-0.157c0.139-0.057,0.239-0.1,0.473-0.1s0.334,0.043,0.473,0.1
			c0.168,0.07,0.376,0.157,0.759,0.157c0.217,0,0.393-0.188,0.393-0.419C548.625,423.139,548.449,422.95,548.232,422.95
			L548.232,422.95z M528.813,408.49l0.059-2.895l0.235-0.347l0.23,0.344l0.325,16.04c-0.361,0.05-0.735,0.09-1.118,0.116
			L528.813,408.49L528.813,408.49z M536.718,408.739c0-0.092,0.048-0.15,0.075-0.178c0.029-0.027,0.078-0.059,0.147-0.059h0.002
			c0.217,0,0.393-0.188,0.393-0.42s-0.176-0.419-0.393-0.419h-2.279c-0.122,0-0.208-0.058-0.259-0.104
			c-0.086-0.082-0.134-0.193-0.134-0.314c0-0.122,0.048-0.232,0.134-0.314c0.072-0.068,0.164-0.105,0.259-0.105h4.672
			c0.216,0,0.393,0.188,0.393,0.42c0,0.23-0.177,0.419-0.393,0.419c-0.217,0-0.393,0.188-0.393,0.419h-0.002
			c0,0.231,0.175,0.42,0.393,0.42h0.655c-0.104,0.148-0.202,0.307-0.29,0.475h-2.759c-0.069,0-0.118-0.033-0.146-0.06
			S536.718,408.832,536.718,408.739L536.718,408.739z M540.206,409.815c0.044-0.144,0.103-0.284,0.171-0.419
			c0.076-0.147,0.164-0.286,0.258-0.419c0.089-0.125,0.184-0.242,0.278-0.351c0.097-0.11,0.192-0.21,0.284-0.3
			c0.109-0.107,0.213-0.199,0.298-0.271c0.007-0.007,0.016-0.014,0.022-0.02c0.379,0.318,1.139,1.043,1.343,1.889h-2.685
			C540.184,409.888,540.195,409.852,540.206,409.815L540.206,409.815z M538.021,412.56v5.654l-0.922,0.522v-6.177H538.021
			L538.021,412.56z M538.025,420.108l0.389-0.22l0.005-0.003l0.388-0.219l0.004-0.004l0.234-0.132l0.034-0.021l0.358-0.202
			l0.034-0.021l0.357-0.203l0.031-0.018l-0.031,0.027l-0.357,0.312l-0.034,0.029l-0.358,0.312l-0.034,0.03l-0.234,0.204
			l-0.004,0.003l-0.388,0.339l-0.005,0.004l-0.389,0.338l-0.004,0.004l-0.983,0.857l-0.29,0.252h-1.668l0.172-0.098l0.079-0.045
			l0.922-0.522l0.062-0.034l0.331-0.189l0.062-0.033l0.331-0.189l0.062-0.034l0.922-0.523L538.025,420.108L538.025,420.108z
			 M538.811,422.147l0.234-0.203v0.296h-0.234V422.147L538.811,422.147z M539.864,421.78v-0.551l0.729-0.636v1.646h-0.729V421.78
			L539.864,421.78z M541.458,421.78v-1.939l0.922-0.805v3.204h-0.922V421.78L541.458,421.78z M540.594,414.62v2.133l-0.729,0.414
			v-2.754l0.729-0.572V414.62L540.594,414.62z M542.38,415.739l-0.922,0.523v-1.643h0.922V415.739L542.38,415.739z M534.467,420.229
			l-0.243,0.139c-0.059,0.027-0.228,0.101-0.486,0.203v-7.139h0.729V420.229L534.467,420.229z M544.148,421.78v0.46h-0.922v-3.941
			l0.922-0.804V421.78L544.148,421.78z M544.148,414.736l-0.922,0.522v-2.699h0.922V414.736L544.148,414.736z M538.811,414.62h0.234
			v3.013l-0.234,0.132V414.62L538.811,414.62z M535.331,414.62h0.922v4.596l-0.922,0.523V414.62L535.331,414.62z M532.684,414.62
			h0.233v6.247c-0.075,0.024-0.153,0.05-0.233,0.075V414.62L532.684,414.62z M542.834,411.722c-0.217,0-0.393,0.188-0.393,0.419
			v1.642h-1.062v-0.77c0-0.157-0.083-0.302-0.215-0.373c-0.133-0.072-0.291-0.058-0.41,0.036l-0.631,0.494v-2.407h2.789v0.959
			H542.834L542.834,411.722z"/>
	</g>
</g>
</svg>
