<svg width="32" height="232" viewBox="0 0 32 232" xmlns="http://www.w3.org/2000/svg" xmlns:sketch="http://www.bohemiancoding.com/sketch/ns"><title>Atacama Desert_Chile</title><desc>Created with Sketch.</desc><g sketch:type="MSPage" fill="none"><g sketch:type="MSLayerGroup"><g fill="#fff" sketch:type="MSShapeGroup"><path d="M10.463 88.31c.113 0 .222-.046.302-.128.08-.082.126-.194.125-.309 0-.116-.046-.227-.126-.309-.08-.081-.189-.127-.302-.127-.113 0-.222.046-.302.127-.081.082-.126.194-.126.31 0 .116.045.227.125.308.08.082.19.128.303.128" id="Fill-1"/><path d="M13.9 90.904c.113 0 .222-.046.302-.128.08-.082.126-.194.125-.309 0-.116-.046-.227-.126-.309-.08-.081-.189-.127-.302-.127-.113 0-.222.046-.302.127-.081.082-.126.194-.126.31 0 .116.045.227.125.308.08.082.19.128.303.128" id="Fill-2"/><path d="M18.51 89.629c.113 0 .222-.046.302-.128.08-.082.126-.194.125-.309 0-.116-.046-.227-.126-.309-.08-.081-.189-.127-.302-.127-.113 0-.222.046-.302.127-.081.082-.126.194-.126.31 0 .116.045.227.125.308.08.082.19.128.303.128" id="Fill-3"/><path d="M19.7 86.711c.08.082.19.129.304.129.113 0 .222-.046.302-.128.13-.133.163-.336.08-.504-.063-.128-.183-.216-.319-.236-.132-.02-.27.025-.365.122-.132.133-.164.338-.08.507l.078.11" id="Fill-4"/><path d="M21.644 88.436c.113 0 .222-.046.302-.128.08-.082.126-.194.125-.31 0-.116-.046-.227-.126-.309-.08-.081-.189-.127-.302-.127-.113 0-.222.046-.302.127-.081.082-.126.194-.126.31 0 .116.045.227.125.308.08.082.19.128.303.128" id="Fill-5"/><path d="M6.08 89.575l.356.198.194.363c.075.14.219.227.375.227s.3-.087.375-.227l.194-.363.356-.198c.137-.077.222-.223.222-.383 0-.159-.085-.306-.222-.383l-.356-.198-.195-.363c-.075-.14-.219-.227-.375-.227s-.3.087-.375.227l-.195.363-.355.198c-.137.077-.222.223-.222.383 0 .159.085.306.222.383" id="Fill-6"/><path d="M14.229 87.57l.356.198.194.363c.075.14.219.227.375.227s.3-.087.375-.227l.194-.363.356-.198c.137-.077.223-.223.223-.383 0-.159-.085-.306-.223-.383l-.356-.198-.194-.363c-.075-.14-.219-.227-.375-.227s-.3.087-.375.227l-.194.363-.356.198c-.137.077-.222.223-.222.383 0 .159.085.306.222.383" id="Fill-7"/><path d="M27.489 94.688h-.145l-.093-.11-1.23-1.013-.613-1.418-.018-.036c-.188-.344-.466-.785-.717-.925-.132-.083-.863-.712-1.493-1.271-.102-.091-.24-.126-.372-.097l-1.26.282-.161.074-1.045.778-1.064-.286c-.169-.045-.347.018-.452.161l-1.019 1.393-.792.582h-.668c-.077 0-.152.021-.218.061l-.706.426h-1.995l-.681-.365-.242-.564c-.089-.208-.32-.311-.53-.238l-1.909.666-1.148-.224-1.182-.626c-.127-.067-.278-.065-.403.005l-1.581.888-1.009.279-.178.101-.655.618-.012.012-.584.595-.748.254h-.126c-.236 0-.428.195-.428.436s.191.436.428.436h25.05c.236 0 .428-.195.428-.436s-.191-.436-.428-.436zm-22.994-.226l.572-.539.957-.264.095-.039 1.425-.801 1.034.548.117.041 1.321.258c.073.014.148.009.219-.016l1.644-.574.144.336c.039.091.107.165.193.211l.907.486.199.05h2.218c.077 0 .152-.021.218-.061l.706-.426h.69c.09 0 .177-.029.25-.082l.958-.704.093-.093.886-1.211.981.264c.125.033.257.008.361-.069l1.137-.846.962-.215c.516.456 1.249 1.093 1.461 1.222.073.064.255.333.392.58l.647 1.495.123.163.62.511h-21.75l.222-.226z" id="Fill-8"/><path d="M10.302 101.748h.002c.236 0 .428-.195.428-.436v-1.993l.078.003c.515 0 .934-.427.934-.952v-.92c0-.241-.191-.436-.428-.436-.236 0-.428.195-.428.436v.92l-.078.08-.078-.08-.003-.031v-2.018c0-.241-.191-.436-.428-.436-.236 0-.428.195-.428.436v2.523l-.078.08-.078-.08v-1.253c0-.241-.191-.436-.428-.436-.236 0-.428.195-.428.436v1.253c0 .525.419.952.934.952l.081-.004v1.084h-.888c-.236 0-.428.195-.428.436s.191.436.428.436h1.3139999999999998" id="Fill-9"/><path d="M7.319 99.673c-.236 0-.428.195-.428.436v1.258c0 .148-.118.269-.264.269-.146 0-.264-.121-.264-.269l-.004-.042v-2.76c0-.241-.191-.436-.428-.436-.236 0-.428.195-.428.436v3.45c0 .148-.118.269-.264.269-.145 0-.264-.121-.264-.269v-1.713c0-.241-.191-.436-.428-.436-.236 0-.428.195-.428.436v1.713c0 .629.502 1.142 1.119 1.142l.268-.035v1.832h-1.371c-.236 0-.428.195-.428.436s.191.436.428.436h1.799c.236 0 .428-.195.428-.436v-2.913l.264.032c.617 0 1.119-.512 1.119-1.142v-1.258c0-.241-.191-.436-.428-.436" id="Fill-10"/><path d="M18.531 101.994c-1.136 0-2.838.672-4.552 1.797-1.149.754-2.147 1.615-2.81 2.424-1.114 1.359-.98 2.228-.671 2.717.201.318.62.697 1.477.697.702 0 1.621-.257 2.624-.719v.289c-.591.419-1.011 1.072-1.129 1.827h-2.534c-.236 0-.428.195-.428.436s.191.436.428.436h7.474c.236 0 .428-.195.428-.436 0-.937-.461-1.765-1.163-2.263v-2.197c.661-.524 1.232-1.07 1.661-1.595 1.114-1.359.98-2.228.671-2.717-.201-.318-.62-.697-1.477-.697zm-2.32 9.033h-1.869c.077-.331.242-.628.465-.866.141-.15.307-.276.49-.373.252-.132.538-.209.841-.209.303 0 .588.076.841.209.183.096.348.222.49.372.224.238.388.535.466.866h-1.723zm.61-2.23c-.218-.058-.447-.089-.683-.089-.236 0-.465.031-.683.089v-.319c.354-.194.713-.409 1.072-.645l.293-.197v1.162zm-1.219-2.432l-.197.126c-.277.175-.546.333-.804.474-1.068.58-1.964.872-2.498.914.279-.501 1.106-1.508 2.802-2.621 1.502-.986 2.806-1.46 3.499-1.514-.279.5-1.106 1.507-2.802 2.62z" id="Fill-11"/><path d="M26.407 96.28c-.78 0-2.01.49-3.211 1.278-.821.539-1.532 1.152-2.003 1.726-.735.897-.664 1.444-.475 1.744.12.19.375.416.912.416.506 0 1.202-.207 1.956-.567v.303c-.389.296-.672.729-.778 1.23h-1.784c-.236 0-.428.195-.428.436s.191.436.428.436h2.13l.035.004h3.222c.236 0 .428-.195.428-.436v-.005c-.002-.681-.326-1.286-.824-1.665v-1.545c0-.104-.037-.198-.096-.273.362-.307.677-.62.925-.923.735-.898.664-1.444.475-1.744-.12-.19-.375-.416-.912-.416zm-1.247 3.792v.731c-.117-.021-.237-.033-.359-.033-.123 0-.242.012-.359.033v-.386l.4-.25.141-.094h.177zm-1.461 2.338c.047-.121.112-.232.193-.331.174-.213.417-.364.695-.416l.215-.021.215.021c.278.052.521.203.695.416.08.099.146.21.193.331h-2.204zm1.021-3.21l-.341.233-.323.203-.041.025-.428.243c-.855.457-1.568.668-1.956.668l-.185-.023c.013-.262.634-1.221 2.213-2.258 1.199-.787 2.244-1.139 2.748-1.139l.185.023c-.012.242-.544 1.08-1.872 2.024z" id="Fill-12"/><path d="M18.359 97.778c.574-.7.506-1.145.349-1.395-.102-.162-.316-.355-.755-.355-.589 0-1.472.349-2.364.934-.598.392-1.116.84-1.461 1.26-.574.7-.506 1.145-.349 1.395.102.162.316.355.755.355.326 0 .742-.107 1.199-.302-.211.199-.369.455-.45.745h-1.183c-.236 0-.428.195-.428.436s.191.436.428.436h1.525l.025.003h2.306c.236 0 .428-.195.428-.436v-.006c-.002-.504-.232-.954-.59-1.249v-1.046l-.033-.169c.231-.203.435-.408.598-.607zm-2.139 2.637c.132-.183.344-.301.583-.301s.451.119.583.301h-1.167zm.719-1.167l-.136-.007-.135.007v-.065l.23-.145.041-.028v.238zm-.232-1.131l-.271.187c-.217.142-.426.264-.623.367-.54.282-.987.418-1.247.428.136-.272.61-.828 1.486-1.403.813-.533 1.515-.781 1.87-.795-.121.243-.512.71-1.215 1.216z" id="Fill-13"/></g><g fill="#373D43" sketch:type="MSShapeGroup"><path d="M10.463 4.31c.113 0 .222-.046.302-.128.08-.082.126-.194.125-.309 0-.116-.046-.227-.126-.309-.08-.081-.189-.127-.302-.127-.113 0-.222.046-.302.127-.081.082-.126.194-.126.31 0 .116.045.227.125.308.08.082.19.128.303.128" id="Fill-1"/><path d="M13.9 6.904c.113 0 .222-.046.302-.128.08-.082.126-.194.125-.309 0-.116-.046-.227-.126-.309-.08-.081-.189-.127-.302-.127-.113 0-.222.046-.302.127-.081.082-.126.194-.126.31 0 .116.045.227.125.308.08.082.19.128.303.128" id="Fill-2"/><path d="M18.51 5.629c.113 0 .222-.046.302-.128.08-.082.126-.194.125-.309 0-.116-.046-.227-.126-.309-.08-.081-.189-.127-.302-.127-.113 0-.222.046-.302.127-.081.082-.126.194-.126.31 0 .116.045.227.125.308.08.082.19.128.303.128" id="Fill-3"/><path d="M19.7 2.711c.08.082.19.129.304.129.113 0 .222-.046.302-.128.13-.133.163-.336.08-.504-.063-.128-.183-.216-.319-.236-.132-.02-.27.025-.365.122-.132.133-.164.338-.08.507l.078.11" id="Fill-4"/><path d="M21.644 4.436c.113 0 .222-.046.302-.128.08-.082.126-.194.125-.31 0-.116-.046-.227-.126-.309-.08-.081-.189-.127-.302-.127-.113 0-.222.046-.302.127-.081.082-.126.194-.126.31 0 .116.045.227.125.308.08.082.19.128.303.128" id="Fill-5"/><path d="M6.08 5.575l.356.198.194.363c.075.14.219.227.375.227s.3-.087.375-.227l.194-.363.356-.198c.137-.077.222-.223.222-.383 0-.159-.085-.306-.222-.383l-.356-.198-.195-.363c-.075-.14-.219-.227-.375-.227s-.3.087-.375.227l-.195.363-.355.198c-.137.077-.222.223-.222.383 0 .159.085.306.222.383" id="Fill-6"/><path d="M14.229 3.57l.356.198.194.363c.075.14.219.227.375.227s.3-.087.375-.227l.194-.363.356-.198c.137-.077.223-.223.223-.383 0-.159-.085-.306-.223-.383l-.356-.198-.194-.363c-.075-.14-.219-.227-.375-.227s-.3.087-.375.227l-.194.363-.356.198c-.137.077-.222.223-.222.383 0 .159.085.306.222.383" id="Fill-7"/><path d="M27.489 10.688h-.145l-.093-.11-1.23-1.013-.613-1.418-.018-.036c-.188-.344-.466-.785-.717-.925-.132-.083-.863-.712-1.493-1.271-.102-.091-.24-.126-.372-.097l-1.26.282-.161.074-1.045.778-1.064-.286c-.169-.045-.347.018-.452.161l-1.019 1.393-.792.582h-.668c-.077 0-.152.021-.218.061l-.706.426h-1.995l-.681-.365-.242-.564c-.089-.208-.32-.311-.53-.238l-1.909.666-1.148-.224-1.182-.626c-.127-.067-.278-.065-.403.005l-1.581.888-1.009.279-.178.101-.655.618-.012.012-.584.595-.748.254h-.126c-.236 0-.428.195-.428.436s.191.436.428.436h25.05c.236 0 .428-.195.428-.436s-.191-.436-.428-.436zm-22.994-.226l.572-.539.957-.264.095-.039 1.425-.801 1.034.548.117.041 1.321.258c.073.014.148.009.219-.016l1.644-.574.144.336c.039.091.107.165.193.211l.907.486.199.05h2.218c.077 0 .152-.021.218-.061l.706-.426h.69c.09 0 .177-.029.25-.082l.958-.704.093-.093.886-1.211.981.264c.125.033.257.008.361-.069l1.137-.846.962-.215c.516.456 1.249 1.093 1.461 1.222.073.064.255.333.392.58l.647 1.495.123.163.62.511h-21.75l.222-.226z" id="Fill-8"/><path d="M10.302 17.748h.002c.236 0 .428-.195.428-.436v-1.993l.078.003c.515 0 .934-.427.934-.952v-.92c0-.241-.191-.436-.428-.436-.236 0-.428.195-.428.436v.92l-.078.08-.078-.08-.003-.031v-2.018c0-.241-.191-.436-.428-.436-.236 0-.428.195-.428.436v2.523l-.078.08-.078-.08v-1.253c0-.241-.191-.436-.428-.436-.236 0-.428.195-.428.436v1.253c0 .525.419.952.934.952l.081-.004v1.084h-.888c-.236 0-.428.195-.428.436s.191.436.428.436h1.3139999999999998" id="Fill-9"/><path d="M7.319 15.673c-.236 0-.428.195-.428.436v1.258c0 .148-.118.269-.264.269-.146 0-.264-.121-.264-.269l-.004-.042v-2.76c0-.241-.191-.436-.428-.436-.236 0-.428.195-.428.436v3.45c0 .148-.118.269-.264.269-.145 0-.264-.121-.264-.269v-1.713c0-.241-.191-.436-.428-.436-.236 0-.428.195-.428.436v1.713c0 .629.502 1.142 1.119 1.142l.268-.035v1.832h-1.371c-.236 0-.428.195-.428.436s.191.436.428.436h1.799c.236 0 .428-.195.428-.436v-2.913l.264.032c.617 0 1.119-.512 1.119-1.142v-1.258c0-.241-.191-.436-.428-.436" id="Fill-10"/><path d="M18.531 17.994c-1.136 0-2.838.672-4.552 1.797-1.149.754-2.147 1.615-2.81 2.424-1.114 1.359-.98 2.228-.671 2.717.201.318.62.697 1.477.697.702 0 1.621-.257 2.624-.719v.289c-.591.419-1.011 1.072-1.129 1.827h-2.534c-.236 0-.428.195-.428.436s.191.436.428.436h7.474c.236 0 .428-.195.428-.436 0-.937-.461-1.765-1.163-2.263v-2.197c.661-.524 1.232-1.07 1.661-1.595 1.114-1.359.98-2.228.671-2.717-.201-.318-.62-.697-1.477-.697zm-2.32 9.033h-1.869c.077-.331.242-.628.465-.866.141-.15.307-.276.49-.373.252-.132.538-.209.841-.209.303 0 .588.076.841.209.183.096.348.222.49.372.224.238.388.535.466.866h-1.723zm.61-2.23c-.218-.058-.447-.089-.683-.089-.236 0-.465.031-.683.089v-.319c.354-.194.713-.409 1.072-.645l.293-.197v1.162zm-1.219-2.432l-.197.126c-.277.175-.546.333-.804.474-1.068.58-1.964.872-2.498.914.279-.501 1.106-1.508 2.802-2.621 1.502-.986 2.806-1.46 3.499-1.514-.279.5-1.106 1.507-2.802 2.62z" id="Fill-11"/><path d="M26.407 12.28c-.78 0-2.01.49-3.211 1.278-.821.539-1.532 1.152-2.003 1.726-.735.897-.664 1.444-.475 1.744.12.19.375.416.912.416.506 0 1.202-.207 1.956-.567v.303c-.389.296-.672.729-.778 1.23h-1.784c-.236 0-.428.195-.428.436s.191.436.428.436h2.13l.035.004h3.222c.236 0 .428-.195.428-.436v-.005c-.002-.681-.326-1.286-.824-1.665v-1.545c0-.104-.037-.198-.096-.273.362-.307.677-.62.925-.923.735-.898.664-1.444.475-1.744-.12-.19-.375-.416-.912-.416zm-1.247 3.792v.731c-.117-.021-.237-.033-.359-.033-.123 0-.242.012-.359.033v-.386l.4-.25.141-.094h.177zm-1.461 2.338c.047-.121.112-.232.193-.331.174-.213.417-.364.695-.416l.215-.021.215.021c.278.052.521.203.695.416.08.099.146.21.193.331h-2.204zm1.021-3.21l-.341.233-.323.203-.041.025-.428.243c-.855.457-1.568.668-1.956.668l-.185-.023c.013-.262.634-1.221 2.213-2.258 1.199-.787 2.244-1.139 2.748-1.139l.185.023c-.012.242-.544 1.08-1.872 2.024z" id="Fill-12"/><path d="M18.359 13.778c.574-.7.506-1.145.349-1.395-.102-.162-.316-.355-.755-.355-.589 0-1.472.349-2.364.934-.598.392-1.116.84-1.461 1.26-.574.7-.506 1.145-.349 1.395.102.162.316.355.755.355.326 0 .742-.107 1.199-.302-.211.199-.369.455-.45.745h-1.183c-.236 0-.428.195-.428.436s.191.436.428.436h1.525l.025.003h2.306c.236 0 .428-.195.428-.436v-.006c-.002-.504-.232-.954-.59-1.249v-1.046l-.033-.169c.231-.203.435-.408.598-.607zm-2.139 2.637c.132-.183.344-.301.583-.301s.451.119.583.301h-1.167zm.719-1.167l-.136-.007-.135.007v-.065l.23-.145.041-.028v.238zm-.232-1.131l-.271.187c-.217.142-.426.264-.623.367-.54.282-.987.418-1.247.428.136-.272.61-.828 1.486-1.403.813-.533 1.515-.781 1.87-.795-.121.243-.512.71-1.215 1.216z" id="Fill-13"/></g><g fill="#67737B" sketch:type="MSShapeGroup"><path d="M10.463 46.31c.113 0 .222-.046.302-.128.08-.082.126-.194.125-.309 0-.116-.046-.227-.126-.309-.08-.081-.189-.127-.302-.127-.113 0-.222.046-.302.127-.081.082-.126.194-.126.31 0 .116.045.227.125.308.08.082.19.128.303.128" id="Fill-1"/><path d="M13.9 48.904c.113 0 .222-.046.302-.128.08-.082.126-.194.125-.309 0-.116-.046-.227-.126-.309-.08-.081-.189-.127-.302-.127-.113 0-.222.046-.302.127-.081.082-.126.194-.126.31 0 .116.045.227.125.308.08.082.19.128.303.128" id="Fill-2"/><path d="M18.51 47.629c.113 0 .222-.046.302-.128.08-.082.126-.194.125-.309 0-.116-.046-.227-.126-.309-.08-.081-.189-.127-.302-.127-.113 0-.222.046-.302.127-.081.082-.126.194-.126.31 0 .116.045.227.125.308.08.082.19.128.303.128" id="Fill-3"/><path d="M19.7 44.711c.08.082.19.129.304.129.113 0 .222-.046.302-.128.13-.133.163-.336.08-.504-.063-.128-.183-.216-.319-.236-.132-.02-.27.025-.365.122-.132.133-.164.338-.08.507l.078.11" id="Fill-4"/><path d="M21.644 46.436c.113 0 .222-.046.302-.128.08-.082.126-.194.125-.31 0-.116-.046-.227-.126-.309-.08-.081-.189-.127-.302-.127-.113 0-.222.046-.302.127-.081.082-.126.194-.126.31 0 .116.045.227.125.308.08.082.19.128.303.128" id="Fill-5"/><path d="M6.08 47.575l.356.198.194.363c.075.14.219.227.375.227s.3-.087.375-.227l.194-.363.356-.198c.137-.077.222-.223.222-.383 0-.159-.085-.306-.222-.383l-.356-.198-.195-.363c-.075-.14-.219-.227-.375-.227s-.3.087-.375.227l-.195.363-.355.198c-.137.077-.222.223-.222.383 0 .159.085.306.222.383" id="Fill-6"/><path d="M14.229 45.57l.356.198.194.363c.075.14.219.227.375.227s.3-.087.375-.227l.194-.363.356-.198c.137-.077.223-.223.223-.383 0-.159-.085-.306-.223-.383l-.356-.198-.194-.363c-.075-.14-.219-.227-.375-.227s-.3.087-.375.227l-.194.363-.356.198c-.137.077-.222.223-.222.383 0 .159.085.306.222.383" id="Fill-7"/><path d="M27.489 52.688h-.145l-.093-.11-1.23-1.013-.613-1.418-.018-.036c-.188-.344-.466-.785-.717-.925-.132-.083-.863-.712-1.493-1.271-.102-.091-.24-.126-.372-.097l-1.26.282-.161.074-1.045.778-1.064-.286c-.169-.045-.347.018-.452.161l-1.019 1.393-.792.582h-.668c-.077 0-.152.021-.218.061l-.706.426h-1.995l-.681-.365-.242-.564c-.089-.208-.32-.311-.53-.238l-1.909.666-1.148-.224-1.182-.626c-.127-.067-.278-.065-.403.005l-1.581.888-1.009.279-.178.101-.655.618-.012.012-.584.595-.748.254h-.126c-.236 0-.428.195-.428.436s.191.436.428.436h25.05c.236 0 .428-.195.428-.436s-.191-.436-.428-.436zm-22.994-.226l.572-.539.957-.264.095-.039 1.425-.801 1.034.548.117.041 1.321.258c.073.014.148.009.219-.016l1.644-.574.144.336c.039.091.107.165.193.211l.907.486.199.05h2.218c.077 0 .152-.021.218-.061l.706-.426h.69c.09 0 .177-.029.25-.082l.958-.704.093-.093.886-1.211.981.264c.125.033.257.008.361-.069l1.137-.846.962-.215c.516.456 1.249 1.093 1.461 1.222.073.064.255.333.392.58l.647 1.495.123.163.62.511h-21.75l.222-.226z" id="Fill-8"/><path d="M10.302 59.748h.002c.236 0 .428-.195.428-.436v-1.993l.078.003c.515 0 .934-.427.934-.952v-.92c0-.241-.191-.436-.428-.436-.236 0-.428.195-.428.436v.92l-.078.08-.078-.08-.003-.031v-2.018c0-.241-.191-.436-.428-.436-.236 0-.428.195-.428.436v2.523l-.078.08-.078-.08v-1.253c0-.241-.191-.436-.428-.436-.236 0-.428.195-.428.436v1.253c0 .525.419.952.934.952l.081-.004v1.084h-.888c-.236 0-.428.195-.428.436s.191.436.428.436h1.3139999999999998" id="Fill-9"/><path d="M7.319 57.673c-.236 0-.428.195-.428.436v1.258c0 .148-.118.269-.264.269-.146 0-.264-.121-.264-.269l-.004-.042v-2.76c0-.241-.191-.436-.428-.436-.236 0-.428.195-.428.436v3.45c0 .148-.118.269-.264.269-.145 0-.264-.121-.264-.269v-1.713c0-.241-.191-.436-.428-.436-.236 0-.428.195-.428.436v1.713c0 .629.502 1.142 1.119 1.142l.268-.035v1.832h-1.371c-.236 0-.428.195-.428.436s.191.436.428.436h1.799c.236 0 .428-.195.428-.436v-2.913l.264.032c.617 0 1.119-.512 1.119-1.142v-1.258c0-.241-.191-.436-.428-.436" id="Fill-10"/><path d="M18.531 59.994c-1.136 0-2.838.672-4.552 1.797-1.149.754-2.147 1.615-2.81 2.424-1.114 1.359-.98 2.228-.671 2.717.201.318.62.697 1.477.697.702 0 1.621-.257 2.624-.719v.289c-.591.419-1.011 1.072-1.129 1.827h-2.534c-.236 0-.428.195-.428.436s.191.436.428.436h7.474c.236 0 .428-.195.428-.436 0-.937-.461-1.765-1.163-2.263v-2.197c.661-.524 1.232-1.07 1.661-1.595 1.114-1.359.98-2.228.671-2.717-.201-.318-.62-.697-1.477-.697zm-2.32 9.033h-1.869c.077-.331.242-.628.465-.866.141-.15.307-.276.49-.373.252-.132.538-.209.841-.209.303 0 .588.076.841.209.183.096.348.222.49.372.224.238.388.535.466.866h-1.723zm.61-2.23c-.218-.058-.447-.089-.683-.089-.236 0-.465.031-.683.089v-.319c.354-.194.713-.409 1.072-.645l.293-.197v1.162zm-1.219-2.432l-.197.126c-.277.175-.546.333-.804.474-1.068.58-1.964.872-2.498.914.279-.501 1.106-1.508 2.802-2.621 1.502-.986 2.806-1.46 3.499-1.514-.279.5-1.106 1.507-2.802 2.62z" id="Fill-11"/><path d="M26.407 54.28c-.78 0-2.01.49-3.211 1.278-.821.539-1.532 1.152-2.003 1.726-.735.897-.664 1.444-.475 1.744.12.19.375.416.912.416.506 0 1.202-.207 1.956-.567v.303c-.389.296-.672.729-.778 1.23h-1.784c-.236 0-.428.195-.428.436s.191.436.428.436h2.13l.035.004h3.222c.236 0 .428-.195.428-.436v-.005c-.002-.681-.326-1.286-.824-1.665v-1.545c0-.104-.037-.198-.096-.273.362-.307.677-.62.925-.923.735-.898.664-1.444.475-1.744-.12-.19-.375-.416-.912-.416zm-1.247 3.792v.731c-.117-.021-.237-.033-.359-.033-.123 0-.242.012-.359.033v-.386l.4-.25.141-.094h.177zm-1.461 2.338c.047-.121.112-.232.193-.331.174-.213.417-.364.695-.416l.215-.021.215.021c.278.052.521.203.695.416.08.099.146.21.193.331h-2.204zm1.021-3.21l-.341.233-.323.203-.041.025-.428.243c-.855.457-1.568.668-1.956.668l-.185-.023c.013-.262.634-1.221 2.213-2.258 1.199-.787 2.244-1.139 2.748-1.139l.185.023c-.012.242-.544 1.08-1.872 2.024z" id="Fill-12"/><path d="M18.359 55.778c.574-.7.506-1.145.349-1.395-.102-.162-.316-.355-.755-.355-.589 0-1.472.349-2.364.934-.598.392-1.116.84-1.461 1.26-.574.7-.506 1.145-.349 1.395.102.162.316.355.755.355.326 0 .742-.107 1.199-.302-.211.199-.369.455-.45.745h-1.183c-.236 0-.428.195-.428.436s.191.436.428.436h1.525l.025.003h2.306c.236 0 .428-.195.428-.436v-.006c-.002-.504-.232-.954-.59-1.249v-1.046l-.033-.169c.231-.203.435-.408.598-.607zm-2.139 2.637c.132-.183.344-.301.583-.301s.451.119.583.301h-1.167zm.719-1.167l-.136-.007-.135.007v-.065l.23-.145.041-.028v.238zm-.232-1.131l-.271.187c-.217.142-.426.264-.623.367-.54.282-.987.418-1.247.428.136-.272.61-.828 1.486-1.403.813-.533 1.515-.781 1.87-.795-.121.243-.512.71-1.215 1.216z" id="Fill-13"/></g><g fill="#206FAC" sketch:type="MSShapeGroup"><path d="M10.463 127.31c.113 0 .222-.046.302-.128.08-.082.126-.194.125-.309 0-.116-.046-.227-.126-.309-.08-.081-.189-.127-.302-.127-.113 0-.222.046-.302.127-.081.082-.126.194-.126.31 0 .116.045.227.125.308.08.082.19.128.303.128"/><path d="M13.9 129.904c.113 0 .222-.046.302-.128.08-.082.126-.194.125-.309 0-.116-.046-.227-.126-.309-.08-.081-.189-.127-.302-.127-.113 0-.222.046-.302.127-.081.082-.126.194-.126.31 0 .116.045.227.125.308.08.082.19.128.303.128"/><path d="M18.51 128.629c.113 0 .222-.046.302-.128.08-.082.126-.194.125-.309 0-.116-.046-.227-.126-.309-.08-.081-.189-.127-.302-.127-.113 0-.222.046-.302.127-.081.082-.126.194-.126.31 0 .116.045.227.125.308.08.082.19.128.303.128"/><path d="M19.7 125.711c.08.082.19.129.304.129.113 0 .222-.046.302-.128.13-.133.163-.336.08-.504-.063-.128-.183-.216-.319-.236-.132-.02-.27.025-.365.122-.132.133-.164.338-.08.507l.078.11"/><path d="M21.644 127.436c.113 0 .222-.046.302-.128.08-.082.126-.194.125-.31 0-.116-.046-.227-.126-.309-.08-.081-.189-.127-.302-.127-.113 0-.222.046-.302.127-.081.082-.126.194-.126.31 0 .116.045.227.125.308.08.082.19.128.303.128"/><path d="M6.08 128.575l.356.198.194.363c.075.14.219.227.375.227s.3-.087.375-.227l.194-.363.356-.198c.137-.077.222-.223.222-.383 0-.159-.085-.306-.222-.383l-.356-.198-.195-.363c-.075-.14-.219-.227-.375-.227s-.3.087-.375.227l-.195.363-.355.198c-.137.077-.222.223-.222.383 0 .159.085.306.222.383"/><path d="M14.229 126.57l.356.198.194.363c.075.14.219.227.375.227s.3-.087.375-.227l.194-.363.356-.198c.137-.077.223-.223.223-.383 0-.159-.085-.306-.223-.383l-.356-.198-.194-.363c-.075-.14-.219-.227-.375-.227s-.3.087-.375.227l-.194.363-.356.198c-.137.077-.222.223-.222.383 0 .159.085.306.222.383"/><path d="M27.489 133.688h-.145l-.093-.11-1.23-1.013-.613-1.418-.018-.036c-.188-.344-.466-.785-.717-.925-.132-.083-.863-.712-1.493-1.271-.102-.091-.24-.126-.372-.097l-1.26.282-.161.074-1.045.778-1.064-.286c-.169-.045-.347.018-.452.161l-1.019 1.393-.792.582h-.668c-.077 0-.152.021-.218.061l-.706.426h-1.995l-.681-.365-.242-.564c-.089-.208-.32-.311-.53-.238l-1.909.666-1.148-.224-1.182-.626c-.127-.067-.278-.065-.403.005l-1.581.888-1.009.279-.178.101-.655.618-.012.012-.584.595-.748.254h-.126c-.236 0-.428.195-.428.436s.191.436.428.436h25.05c.236 0 .428-.195.428-.436s-.191-.436-.428-.436zm-22.994-.226l.572-.539.957-.264.095-.039 1.425-.801 1.034.548.117.041 1.321.258c.073.014.148.009.219-.016l1.644-.574.144.336c.039.091.107.165.193.211l.907.486.199.05h2.218c.077 0 .152-.021.218-.061l.706-.426h.69c.09 0 .177-.029.25-.082l.958-.704.093-.093.886-1.211.981.264c.125.033.257.008.361-.069l1.137-.846.962-.215c.516.456 1.249 1.093 1.461 1.222.073.064.255.333.392.58l.647 1.495.123.163.62.511h-21.75l.222-.226z"/><path d="M10.302 140.748h.002c.236 0 .428-.195.428-.436v-1.993l.078.003c.515 0 .934-.427.934-.952v-.92c0-.241-.191-.436-.428-.436-.236 0-.428.195-.428.436v.92l-.078.08-.078-.08-.003-.031v-2.018c0-.241-.191-.436-.428-.436-.236 0-.428.195-.428.436v2.523l-.078.08-.078-.08v-1.253c0-.241-.191-.436-.428-.436-.236 0-.428.195-.428.436v1.253c0 .525.419.952.934.952l.081-.004v1.084h-.888c-.236 0-.428.195-.428.436s.191.436.428.436h1.3139999999999998"/><path d="M7.319 138.673c-.236 0-.428.195-.428.436v1.258c0 .148-.118.269-.264.269-.146 0-.264-.121-.264-.269l-.004-.042v-2.76c0-.241-.191-.436-.428-.436-.236 0-.428.195-.428.436v3.45c0 .148-.118.269-.264.269-.145 0-.264-.121-.264-.269v-1.713c0-.241-.191-.436-.428-.436-.236 0-.428.195-.428.436v1.713c0 .629.502 1.142 1.119 1.142l.268-.035v1.832h-1.371c-.236 0-.428.195-.428.436s.191.436.428.436h1.799c.236 0 .428-.195.428-.436v-2.913l.264.032c.617 0 1.119-.512 1.119-1.142v-1.258c0-.241-.191-.436-.428-.436"/><path d="M18.531 140.994c-1.136 0-2.838.672-4.552 1.797-1.149.754-2.147 1.615-2.81 2.424-1.114 1.359-.98 2.228-.671 2.717.201.318.62.697 1.477.697.702 0 1.621-.257 2.624-.719v.289c-.591.419-1.011 1.072-1.129 1.827h-2.534c-.236 0-.428.195-.428.436s.191.436.428.436h7.474c.236 0 .428-.195.428-.436 0-.937-.461-1.765-1.163-2.263v-2.197c.661-.524 1.232-1.07 1.661-1.595 1.114-1.359.98-2.228.671-2.717-.201-.318-.62-.697-1.477-.697zm-2.32 9.033h-1.869c.077-.331.242-.628.465-.866.141-.15.307-.276.49-.373.252-.132.538-.209.841-.209.303 0 .588.076.841.209.183.096.348.222.49.372.224.238.388.535.466.866h-1.723zm.61-2.23c-.218-.058-.447-.089-.683-.089-.236 0-.465.031-.683.089v-.319c.354-.194.713-.409 1.072-.645l.293-.197v1.162zm-1.219-2.432l-.197.126c-.277.175-.546.333-.804.474-1.068.58-1.964.872-2.498.914.279-.501 1.106-1.508 2.802-2.621 1.502-.986 2.806-1.46 3.499-1.514-.279.5-1.106 1.507-2.802 2.62z"/><path d="M26.407 135.28c-.78 0-2.01.49-3.211 1.278-.821.539-1.532 1.152-2.003 1.726-.735.897-.664 1.444-.475 1.744.12.19.375.416.912.416.506 0 1.202-.207 1.956-.567v.303c-.389.296-.672.729-.778 1.23h-1.784c-.236 0-.428.195-.428.436s.191.436.428.436h2.13l.035.004h3.222c.236 0 .428-.195.428-.436v-.005c-.002-.681-.326-1.286-.824-1.665v-1.545c0-.104-.037-.198-.096-.273.362-.307.677-.62.925-.923.735-.898.664-1.444.475-1.744-.12-.19-.375-.416-.912-.416zm-1.247 3.792v.731c-.117-.021-.237-.033-.359-.033-.123 0-.242.012-.359.033v-.386l.4-.25.141-.094h.177zm-1.461 2.338c.047-.121.112-.232.193-.331.174-.213.417-.364.695-.416l.215-.021.215.021c.278.052.521.203.695.416.08.099.146.21.193.331h-2.204zm1.021-3.21l-.341.233-.323.203-.041.025-.428.243c-.855.457-1.568.668-1.956.668l-.185-.023c.013-.262.634-1.221 2.213-2.258 1.199-.787 2.244-1.139 2.748-1.139l.185.023c-.012.242-.544 1.08-1.872 2.024z"/><path d="M18.359 136.778c.574-.7.506-1.145.349-1.395-.102-.162-.316-.355-.755-.355-.589 0-1.472.349-2.364.934-.598.392-1.116.84-1.461 1.26-.574.7-.506 1.145-.349 1.395.102.162.316.355.755.355.326 0 .742-.107 1.199-.302-.211.199-.369.455-.45.745h-1.183c-.236 0-.428.195-.428.436s.191.436.428.436h1.525l.025.003h2.306c.236 0 .428-.195.428-.436v-.006c-.002-.504-.232-.954-.59-1.249v-1.046l-.033-.169c.231-.203.435-.408.598-.607zm-2.139 2.637c.132-.183.344-.301.583-.301s.451.119.583.301h-1.167zm.719-1.167l-.136-.007-.135.007v-.065l.23-.145.041-.028v.238zm-.232-1.131l-.271.187c-.217.142-.426.264-.623.367-.54.282-.987.418-1.247.428.136-.272.61-.828 1.486-1.403.813-.533 1.515-.781 1.87-.795-.121.243-.512.71-1.215 1.216z"/></g></g></g></svg>