<svg width="32" height="232" viewBox="0 0 32 232" xmlns="http://www.w3.org/2000/svg" xmlns:sketch="http://www.bohemiancoding.com/sketch/ns"><title>croatia_dubrovnik</title><desc>Created with Sketch.</desc><g sketch:type="MSPage" fill="none"><g sketch:type="MSLayerGroup"><g fill="#373D43" sketch:type="MSShapeGroup"><path d="M17.308 22.715c.412 0 .638-.085.819-.152.15-.056.258-.097.51-.097.234 0 .424-.182.424-.407 0-.225-.19-.407-.424-.407-.413 0-.638.084-.819.153-.15.056-.258.096-.51.096-.253 0-.361-.04-.51-.096-.182-.068-.407-.153-.819-.153s-.638.084-.819.153c-.15.056-.258.096-.51.096s-.361-.04-.51-.096c-.181-.068-.407-.153-.819-.153s-.638.084-.819.153c-.15.056-.258.096-.511.096s-.36-.04-.51-.096c-.181-.068-.407-.153-.819-.153s-.638.084-.819.153c-.15.056-.258.096-.51.096s-.36-.04-.51-.096c-.181-.068-.407-.153-.819-.153-.413 0-.638.084-.819.153-.15.056-.258.096-.51.096s-.36-.04-.51-.096c-.181-.068-.407-.153-.819-.153s-.638.084-.819.153c-.15.056-.258.096-.51.096-.253 0-.361-.04-.51-.096-.181-.068-.407-.153-.819-.153-.235 0-.424.182-.424.407 0 .225.19.407.424.407.252 0 .36.041.51.097.181.068.407.152.819.152s.637-.085.819-.152c.15-.056.258-.097.51-.097.253 0 .36.041.51.097.181.068.407.152.819.152s.638-.085.819-.152c.15-.056.258-.097.51-.097s.36.041.51.097c.181.068.407.152.819.152s.638-.085.819-.152c.15-.056.258-.097.51-.097s.36.041.51.097c.181.068.407.152.819.152s.638-.085.819-.152c.15-.056.258-.097.51-.097s.36.041.51.097c.182.068.407.152.819.152s.637-.085.819-.152c.15-.056.258-.097.51-.097.253 0 .36.041.51.097.181.068.407.152.819.152" id="Fill-1"/><path d="M16.126 3.821h.188c-.029.098-.045.2-.045.307 0 .619.524 1.122 1.168 1.122h7.607c.284 0 .558-.1.772-.281.252-.213.397-.52.397-.841 0-.321-.145-.628-.397-.841-.214-.181-.488-.28-.772-.28h-4.343l.014-.153c0-.277-.124-.542-.341-.725-.185-.156-.421-.242-.666-.242h-3.582c-.555 0-1.008.434-1.008.967 0 .533.452.967 1.008.967zm0-1.12h3.582l.105.039.055.114-.055.114-.104.038h-.002c-.235 0-.424.182-.424.407 0 .225.19.408.424.408h5.338c.099 0 .17.042.211.077.041.034.11.11.11.23 0 .12-.069.196-.109.23-.042.036-.112.078-.211.078h-7.607c-.177 0-.32-.138-.32-.308 0-.17.143-.307.32-.307.234 0 .424-.183.424-.408h.002c0-.225-.19-.407-.424-.407h-1.313c-.088 0-.159-.069-.159-.153 0-.084.072-.153.159-.153z" id="Fill-2"/><path d="M3.385 20.321c.15-.056.257-.097.51-.097.252 0 .36.04.51.097.181.068.407.153.819.153s.638-.085.818-.153c.15-.056.258-.097.51-.097s.36.04.51.097c.181.068.407.153.819.153s.637-.085.819-.153c.15-.056.258-.097.51-.097s.36.04.51.097c.181.068.407.153.818.153.412 0 .638-.085.819-.153.15-.056.257-.097.51-.097.252 0 .36.04.51.097.181.068.407.153.819.153s.637-.085.819-.153c.15-.056.258-.097.51-.097s.36.04.51.097c.182.068.407.153.819.153s.637-.085.819-.153c.15-.056.258-.097.51-.097.253 0 .36.04.51.097.181.068.407.153.819.153s.637-.085.819-.153c.149-.056.258-.097.51-.097.253 0 .36.04.51.097.181.068.407.153.819.153.413 0 .638-.085.819-.153.15-.056.258-.097.51-.097l.043.001c-.081.546-.128 1.145-.128 1.802 0 .225.19.408.424.408h3.083c.234 0 .424-.183.424-.408v-1.558l.141.004c.412 0 .638-.085.82-.153.15-.056.258-.097.51-.097.253 0 .361.04.511.097.181.068.407.153.819.153.234 0 .424-.183.424-.408 0-.225-.19-.407-.424-.407l-.235-.016c.038-.094.06-.195.06-.302v-2.079c0-.422-.336-.771-.769-.81v-.787c0-.225-.19-.407-.425-.407-.234 0-.424.182-.424.407v.745l-1.009-.047v-2.699c0-.225-.19-.408-.424-.408-.234 0-.424.183-.424.408v1.49c-.257.15-.758.489-1.284 1.108l-9.094-.428v-2.274h3.001v.572c0 .225.19.407.424.407h1.612c.234 0 .424-.182.424-.407v-1.111h1.908c.235 0 .425-.182.425-.407v-.11h4.835v1.521c0 .225.19.407.424.407.235 0 .424-.182.424-.407v-1.928c0-.225-.19-.407-.424-.407h-5.684c-.234 0-.424.182-.424.407v.11h-1.908c-.235 0-.424.182-.424.407v1.111h-.763v-.572c0-.225-.19-.407-.424-.407h-3.425v-3.611h2.502v.11c0 .225.19.407.424.407h1.909v1.111c0 .225.19.407.424.407h1.612c.234 0 .424-.182.424-.407v-.572h2.163c.234 0 .424-.183.424-.407v-1.401h2.969c.234 0 .424-.182.424-.408 0-.224-.19-.407-.424-.407h-3.393c-.235 0-.424.182-.424.407v1.401h-2.163c-.234 0-.424.182-.424.407v.572h-.763v-1.111c0-.225-.19-.407-.424-.407h-1.909v-.11c0-.225-.19-.408-.424-.408h-2.927v-.084l-.001-.006v-.994h.018c.235 0 .425-.183.425-.408v-1.319c0-.224-.19-.407-.425-.407h-1.805c-.234 0-.424.182-.424.407v.355h-.343v-.355c0-.224-.19-.407-.424-.407h-1.487c-.234 0-.424.182-.424.407v.355h-.343v-.355c0-.224-.19-.407-.424-.407h-1.487c-.234 0-.424.182-.424.407v.355h-.343v-.355c0-.224-.19-.407-.424-.407h-1.487c-.234 0-.424.182-.424.407v.355h-.343v-.355c0-.224-.19-.407-.425-.407h-1.796c-.234 0-.424.182-.424.407v1.319c0 .225.19.408.424.408h.07v10.422l-.698 1.789c-.121-.024-.265-.041-.446-.041-.234 0-.424.183-.424.407 0 .225.19.407.424.407.253 0 .361.04.51.097.181.068.407.153.819.153s.638-.085.819-.153zm-.65-14.401h.948v.355c0 .224.19.407.424.407h1.192c.234 0 .424-.183.424-.407v-.355h.639v.355c0 .224.19.407.424.407h1.191c.235 0 .424-.183.424-.407v-.355h.639v.355c0 .224.19.407.425.407h1.191c.234 0 .424-.183.424-.407v-.355h.639v.355c0 .224.19.407.424.407h1.192c.235 0 .424-.183.424-.407v-.355h.957v.504h-.018c-.234 0-.424.182-.424.407v.593c-.468 0-.848.364-.848.814v8.372c0 .434.355.792.807.813l.041.002.424.02.424.02 8.104.381c-.096.212-.187.438-.271.68h-18.876v-10.288c0-.45-.38-.814-.848-.814h-.001v-.593c0-.225-.19-.407-.425-.407h-.07v-.504zm22.58 10.395l.185-.159v5.465h-2.228c.013-.426.048-.822.1-1.191l.042-.274.105-.529.07-.286c.078-.293.167-.564.263-.814.089-.229.184-.442.283-.637.154-.302.319-.565.484-.793.24-.331.482-.588.696-.782zm1.963 2.212h-.93v-.533l.93.044v.489z" id="Fill-3"/><path d="M29.096 24.52c-.366 0-.53-.062-.738-.14l-.19-.068c.773-.389.983-.834 1.017-.92.05-.126.032-.266-.047-.376-.08-.11-.21-.176-.35-.176h-7.926c-.14 0-.27.066-.349.176-.079.11-.097.251-.047.376.04.101.327.709 1.508 1.127h-.015c-.366 0-.53-.062-.738-.14-.244-.091-.52-.195-1.046-.195s-.803.104-1.046.195c-.207.078-.372.14-.738.14s-.53-.062-.738-.14c-.244-.091-.52-.195-1.047-.195-.234 0-.424.182-.424.407 0 .225.19.407.424.407.367 0 .53.062.738.14.244.091.52.195 1.046.195s.802-.104 1.046-.195c.208-.078.372-.14.738-.14s.53.062.738.14c.244.091.521.195 1.047.195.526 0 .802-.104 1.046-.195.208-.078.372-.14.738-.14s.53.062.738.14c.244.091.521.195 1.047.195.526 0 .802-.104 1.046-.195.208-.078.372-.14.738-.14s.53.062.738.14c.244.091.521.195 1.047.195.234 0 .424-.182.424-.407 0-.225-.19-.407-.424-.407zm-1.452-.865c-.525.233-1.397.452-2.818.452-1.412 0-2.283-.218-2.81-.452h5.629z" id="Fill-4"/><path d="M6.593 12.676c-.016-.329-.299-.592-.646-.592-.347 0-.63.262-.646.592v.388h1.292v-.388" id="Fill-5"/><path d="M9.305 12.676c-.016-.329-.299-.592-.646-.592-.347 0-.63.262-.646.592v.388h1.292v-.388" id="Fill-6"/><path d="M12.017 12.676c-.016-.329-.299-.592-.645-.592-.347 0-.63.262-.646.592v.388h1.291v-.388" id="Fill-7"/><path d="M6.593 10.653c-.016-.329-.299-.591-.646-.591-.347 0-.63.262-.646.591v.388h1.292v-.388" id="Fill-8"/><path d="M9.305 10.653c-.016-.329-.299-.591-.646-.591-.347 0-.63.262-.646.591v.388h1.292v-.388" id="Fill-9"/><path d="M12.017 10.653c-.008-.156-.076-.297-.182-.402-.117-.116-.282-.189-.464-.189-.182 0-.346.072-.464.189-.106.105-.175.246-.182.402v.388h1.291v-.388" id="Fill-10"/><path d="M6.593 8.706c-.01-.191-.109-.36-.259-.467-.108-.078-.242-.124-.387-.124-.145 0-.279.046-.387.124-.15.108-.249.276-.259.467v.388h1.292v-.388" id="Fill-11"/><path d="M9.305 8.706c-.01-.191-.109-.36-.259-.467-.108-.078-.242-.124-.387-.124-.145 0-.279.046-.387.124-.15.108-.25.276-.259.467v.388h1.292v-.388" id="Fill-12"/><path d="M12.017 9.094v-.388l-.029-.156c-.041-.126-.122-.234-.23-.311-.108-.078-.241-.124-.387-.124-.145 0-.279.046-.387.124-.15.108-.25.276-.259.467v.388h1.291" id="Fill-13"/><path d="M6.593 14.611c-.016-.329-.299-.591-.646-.591-.347 0-.63.262-.646.591v.388h1.292v-.388" id="Fill-14"/><path d="M9.305 14.611c-.016-.329-.299-.591-.646-.591-.347 0-.63.262-.646.591v.388h1.292v-.388" id="Fill-15"/><path d="M12.017 14.611c-.016-.329-.299-.591-.645-.591-.347 0-.63.262-.646.591v.388h1.291v-.388" id="Fill-16"/><path d="M6.593 16.546c-.016-.329-.299-.591-.646-.591-.347 0-.63.262-.646.591v.388h1.292v-.388" id="Fill-17"/><path d="M9.305 16.546c-.016-.329-.299-.591-.646-.591-.347 0-.63.262-.646.591v.388h1.292v-.388" id="Fill-18"/><path d="M12.017 16.546c-.016-.329-.299-.591-.645-.591-.347 0-.63.262-.646.591v.388h1.291v-.388" id="Fill-19"/></g><g id="Dubrovnik-copy" fill="#fff" sketch:type="MSShapeGroup"><path d="M19.315 109.43c.387 0 .599-.088.769-.158.14-.058.242-.1.479-.1.22 0 .398-.188.398-.421 0-.233-.178-.421-.398-.421-.387 0-.599.087-.769.158-.141.058-.242.1-.479.1s-.339-.042-.479-.1c-.171-.071-.382-.158-.769-.158s-.599.087-.769.158c-.14.058-.242.1-.479.1s-.339-.042-.479-.1c-.17-.071-.382-.158-.769-.158s-.599.087-.769.158c-.141.058-.243.1-.48.1s-.338-.042-.479-.1c-.17-.071-.382-.158-.769-.158s-.599.087-.769.158c-.141.058-.242.1-.479.1s-.338-.042-.479-.1c-.17-.071-.382-.158-.769-.158s-.599.087-.769.158c-.141.058-.242.1-.479.1s-.338-.042-.479-.1c-.17-.071-.382-.158-.769-.158s-.599.087-.769.158c-.14.058-.242.1-.479.1s-.339-.042-.479-.1c-.17-.071-.382-.158-.769-.158-.22 0-.398.189-.398.421 0 .233.178.421.398.421.237 0 .338.042.479.1.17.07.382.158.769.158s.598-.088.769-.158c.14-.058.242-.1.479-.1s.338.042.479.1c.17.07.382.158.769.158s.599-.088.769-.158c.141-.058.242-.1.479-.1s.338.042.479.1c.17.07.382.158.769.158s.599-.088.769-.158c.14-.058.242-.1.479-.1s.338.042.479.1c.17.07.382.158.769.158s.599-.088.769-.158c.14-.058.242-.1.479-.1s.338.042.479.1c.171.07.382.158.769.158s.599-.088.769-.158c.14-.058.242-.1.479-.1s.338.042.479.1c.17.07.382.158.769.158" id="Fill-1"/><path d="M18.206 89.884h.176c-.027.101-.043.207-.043.318 0 .64.492 1.161 1.097 1.161h7.144c.267 0 .524-.103.725-.29.237-.221.373-.538.373-.87 0-.332-.136-.65-.373-.87-.201-.187-.459-.29-.725-.29h-4.079l.013-.158c0-.287-.117-.56-.32-.75-.173-.161-.396-.25-.625-.25h-3.364c-.522 0-.946.449-.946 1.001 0 .552.425 1.001.946 1.001zm0-1.159h3.364l.098.04.051.118-.052.118-.098.04h-.002c-.22 0-.398.188-.398.421 0 .233.178.422.398.422h5.013c.093 0 .159.043.198.08.038.036.103.114.103.238 0 .124-.065.203-.103.238-.039.037-.105.08-.198.08h-7.144c-.166 0-.301-.143-.301-.318 0-.175.135-.318.301-.318.22 0 .398-.189.398-.422h.002c0-.233-.178-.421-.398-.421h-1.233c-.082 0-.149-.071-.149-.158 0-.087.067-.158.149-.158z" id="Fill-2"/><path d="M6.24 106.953c.14-.058.242-.1.479-.1s.338.042.479.1c.17.07.382.158.769.158s.599-.088.769-.158c.14-.058.242-.1.479-.1s.338.042.479.1c.17.07.382.158.769.158s.599-.088.769-.158c.141-.058.242-.1.479-.1s.338.042.479.1c.17.07.382.158.769.158s.599-.088.769-.158c.14-.058.242-.1.479-.1s.338.042.479.1c.17.07.382.158.769.158s.599-.088.769-.158c.14-.058.242-.1.479-.1s.338.042.479.1c.171.07.382.158.769.158s.599-.088.769-.158c.14-.058.242-.1.479-.1s.338.042.479.1c.17.07.382.158.769.158s.599-.088.769-.158c.14-.058.242-.1.479-.1s.338.042.479.1c.17.07.382.158.769.158s.599-.088.769-.158c.14-.058.242-.1.479-.1l.041.001c-.076.565-.12 1.185-.12 1.865 0 .233.178.422.398.422h2.895c.22 0 .398-.189.398-.422v-1.612l.132.004c.387 0 .599-.088.77-.158.14-.058.242-.1.479-.1s.339.042.48.1c.17.07.382.158.769.158.22 0 .398-.189.398-.422 0-.233-.178-.421-.398-.421l-.221-.017c.036-.097.057-.202.057-.312v-2.15c0-.437-.315-.797-.722-.838v-.814c0-.233-.178-.421-.399-.421-.22 0-.398.189-.398.421v.771l-.947-.049v-2.792c0-.233-.178-.422-.398-.422-.22 0-.398.189-.398.422v1.541c-.241.155-.712.506-1.206 1.147l-8.541-.442v-2.352h2.818v.592c0 .233.178.421.398.421h1.514c.22 0 .398-.189.398-.421v-1.149h1.792c.22 0 .399-.189.399-.421v-.114h4.541v1.573c0 .233.178.421.398.421.22 0 .398-.189.398-.421v-1.994c0-.233-.178-.421-.398-.421h-5.338c-.22 0-.398.189-.398.421v.114h-1.792c-.22 0-.398.188-.398.421v1.149h-.717v-.592c0-.233-.178-.421-.398-.421h-3.217v-3.735h2.35v.114c0 .233.178.421.398.421h1.793v1.15c0 .233.178.421.398.421h1.514c.22 0 .398-.188.398-.421v-.592h2.032c.22 0 .398-.189.398-.421v-1.449h2.788c.22 0 .398-.189.398-.422 0-.232-.178-.421-.398-.421h-3.186c-.22 0-.398.189-.398.421v1.45h-2.032c-.22 0-.398.188-.398.421v.592h-.717v-1.149c0-.233-.178-.421-.398-.421h-1.793v-.114c0-.233-.178-.422-.398-.422h-2.749v-.087l-.001-.006v-1.028h.017c.22 0 .399-.189.399-.422v-1.364c0-.232-.178-.421-.399-.421h-1.695c-.22 0-.398.189-.398.421v.367h-.322v-.367c0-.232-.178-.421-.398-.421h-1.397c-.22 0-.398.189-.398.421v.367h-.322v-.367c0-.232-.178-.421-.398-.421h-1.397c-.22 0-.398.189-.398.421v.367h-.322v-.367c0-.232-.178-.421-.398-.421h-1.397c-.22 0-.398.189-.398.421v.367h-.322v-.367c0-.232-.179-.421-.399-.421h-1.687c-.22 0-.398.189-.398.421v1.364c0 .233.178.422.398.422h.065v10.781l-.656 1.851c-.113-.025-.248-.042-.419-.042-.22 0-.398.189-.398.421 0 .233.178.421.398.421.237 0 .339.042.479.1.17.07.382.158.769.158s.599-.088.769-.158zm-.61-14.897h.89v.367c0 .232.178.421.398.421h1.119c.22 0 .398-.189.398-.421v-.367h.6v.367c0 .232.178.421.398.421h1.119c.22 0 .398-.189.398-.421v-.367h.6v.367c0 .232.178.421.399.421h1.119c.22 0 .398-.189.398-.421v-.367h.6v.367c0 .232.178.421.398.421h1.119c.22 0 .398-.189.398-.421v-.367h.899v.522h-.017c-.22 0-.398.189-.398.421v.614c-.44 0-.796.377-.796.842v8.661c0 .449.333.819.758.841l.039.002.398.021.398.021 7.61.394c-.09.22-.175.454-.254.703h-17.727v-10.643c0-.465-.357-.842-.797-.842h-.001v-.614c0-.233-.178-.421-.399-.421h-.065v-.522zm21.206 10.753l.174-.164v5.653h-2.092c.013-.44.045-.85.094-1.232l.04-.284.098-.547.066-.295c.073-.303.157-.584.247-.842.083-.237.173-.457.266-.659.145-.313.3-.585.454-.82.226-.343.453-.608.653-.809zm1.843 2.288h-.873v-.551l.873.045v.506z" id="Fill-3"/><path d="M30.386 111.297c-.344 0-.498-.064-.693-.144l-.178-.07c.726-.402.923-.863.955-.951.047-.13.03-.275-.044-.389-.075-.114-.197-.182-.328-.182h-7.444c-.131 0-.254.068-.328.182-.074.114-.091.259-.044.389.038.104.307.733 1.416 1.166h-.014c-.344 0-.498-.064-.693-.144-.229-.094-.489-.202-.983-.202s-.754.107-.983.202c-.195.081-.349.144-.693.144s-.498-.064-.693-.144c-.229-.094-.489-.202-.983-.202-.22 0-.398.188-.398.421 0 .233.178.421.398.421.344 0 .498.064.693.144.229.094.489.202.983.202s.754-.107.983-.202c.195-.081.349-.144.693-.144s.498.064.693.144c.229.094.489.202.983.202s.754-.107.983-.202c.195-.081.349-.144.693-.144s.498.064.693.144c.229.094.489.202.983.202s.754-.107.983-.202c.195-.081.349-.144.693-.144s.498.064.693.144c.229.094.489.202.983.202.22 0 .398-.188.398-.421 0-.233-.178-.421-.398-.421zm-1.364-.895c-.493.241-1.312.467-2.647.467-1.327 0-2.144-.225-2.639-.467h5.286z" id="Fill-4"/><path d="M9.253 99.045c-.015-.341-.281-.612-.607-.612-.326 0-.591.271-.607.612v.401h1.213v-.401" id="Fill-5"/><path d="M11.8 99.045c-.015-.341-.281-.612-.607-.612-.326 0-.591.271-.607.612v.401h1.213v-.401" id="Fill-6"/><path d="M14.346 99.045c-.015-.341-.281-.612-.606-.612-.326 0-.592.271-.607.612v.401h1.213v-.401" id="Fill-7"/><path d="M9.253 96.951c-.015-.34-.281-.611-.607-.611-.326 0-.591.271-.607.611v.401h1.213v-.401" id="Fill-8"/><path d="M11.8 96.951c-.015-.34-.281-.611-.607-.611-.326 0-.591.271-.607.611v.401h1.213v-.401" id="Fill-9"/><path d="M14.346 96.951c-.007-.161-.071-.307-.171-.416-.11-.12-.265-.195-.436-.195-.171 0-.325.075-.436.195-.1.109-.164.254-.171.416v.401h1.213v-.401" id="Fill-10"/><path d="M9.253 94.937c-.009-.198-.103-.372-.243-.483-.101-.081-.227-.128-.364-.128-.137 0-.262.048-.364.128-.14.111-.234.286-.243.483v.401h1.213v-.401" id="Fill-11"/><path d="M11.8 94.937c-.009-.198-.103-.372-.243-.483-.102-.081-.227-.128-.364-.128-.137 0-.262.048-.363.128-.141.111-.235.286-.243.483v.401h1.213v-.401" id="Fill-12"/><path d="M14.346 95.338v-.401l-.027-.161c-.039-.13-.115-.242-.216-.322-.101-.081-.227-.128-.363-.128-.137 0-.262.048-.364.128-.14.111-.234.286-.243.483v.401h1.213" id="Fill-13"/><path d="M9.253 101.046c-.015-.34-.281-.612-.607-.612-.326 0-.591.271-.607.612v.401h1.213v-.401" id="Fill-14"/><path d="M11.8 101.046c-.015-.34-.281-.612-.607-.612-.326 0-.591.271-.607.612v.401h1.213v-.401" id="Fill-15"/><path d="M14.346 101.046c-.015-.34-.281-.612-.606-.612-.326 0-.592.271-.607.612v.401h1.213v-.401" id="Fill-16"/><path d="M9.253 103.048c-.015-.34-.281-.612-.607-.612-.326 0-.591.271-.607.612v.401h1.213v-.401" id="Fill-17"/><path d="M11.8 103.048c-.015-.34-.281-.612-.607-.612-.326 0-.591.271-.607.612v.401h1.213v-.401" id="Fill-18"/><path d="M14.346 103.048c-.015-.34-.281-.612-.606-.612-.326 0-.592.271-.607.612v.401h1.213v-.401" id="Fill-19"/></g><g fill="#67737B" sketch:type="MSShapeGroup"><path d="M17.315 69.43c.387 0 .599-.088.769-.158.14-.058.242-.1.479-.1.22 0 .398-.188.398-.421 0-.233-.178-.421-.398-.421-.387 0-.599.087-.769.158-.141.058-.242.1-.479.1s-.339-.042-.479-.1c-.171-.071-.382-.158-.769-.158s-.599.087-.769.158c-.14.058-.242.1-.479.1s-.339-.042-.479-.1c-.17-.071-.382-.158-.769-.158s-.599.087-.769.158c-.141.058-.243.1-.48.1s-.338-.042-.479-.1c-.17-.071-.382-.158-.769-.158s-.599.087-.769.158c-.141.058-.242.1-.479.1s-.338-.042-.479-.1c-.17-.071-.382-.158-.769-.158s-.599.087-.769.158c-.141.058-.242.1-.479.1s-.338-.042-.479-.1c-.17-.071-.382-.158-.769-.158s-.599.087-.769.158c-.14.058-.242.1-.479.1s-.339-.042-.479-.1c-.17-.071-.382-.158-.769-.158-.22 0-.398.189-.398.421 0 .233.178.421.398.421.237 0 .338.042.479.1.17.07.382.158.769.158s.598-.088.769-.158c.14-.058.242-.1.479-.1s.338.042.479.1c.17.07.382.158.769.158s.599-.088.769-.158c.141-.058.242-.1.479-.1s.338.042.479.1c.17.07.382.158.769.158s.599-.088.769-.158c.14-.058.242-.1.479-.1s.338.042.479.1c.17.07.382.158.769.158s.599-.088.769-.158c.14-.058.242-.1.479-.1s.338.042.479.1c.171.07.382.158.769.158s.599-.088.769-.158c.14-.058.242-.1.479-.1s.338.042.479.1c.17.07.382.158.769.158" id="Fill-1"/><path d="M16.206 49.884h.176c-.027.101-.043.207-.043.318 0 .64.492 1.161 1.097 1.161h7.144c.267 0 .524-.103.725-.29.237-.221.373-.538.373-.87 0-.332-.136-.65-.373-.87-.201-.187-.459-.29-.725-.29h-4.079l.013-.158c0-.287-.117-.56-.32-.75-.173-.161-.396-.25-.625-.25h-3.364c-.522 0-.946.449-.946 1.001 0 .552.425 1.001.946 1.001zm0-1.159h3.364l.098.04.051.118-.052.118-.098.04h-.002c-.22 0-.398.188-.398.421 0 .233.178.422.398.422h5.013c.093 0 .159.043.198.08.038.036.103.114.103.238 0 .124-.065.203-.103.238-.039.037-.105.08-.198.08h-7.144c-.166 0-.301-.143-.301-.318 0-.175.135-.318.301-.318.22 0 .398-.189.398-.422h.002c0-.233-.178-.421-.398-.421h-1.233c-.082 0-.149-.071-.149-.158 0-.087.067-.158.149-.158z" id="Fill-2"/><path d="M4.24 66.953c.14-.058.242-.1.479-.1s.338.042.479.1c.17.07.382.158.769.158s.599-.088.769-.158c.14-.058.242-.1.479-.1s.338.042.479.1c.17.07.382.158.769.158s.599-.088.769-.158c.141-.058.242-.1.479-.1s.338.042.479.1c.17.07.382.158.769.158s.599-.088.769-.158c.14-.058.242-.1.479-.1s.338.042.479.1c.17.07.382.158.769.158s.599-.088.769-.158c.14-.058.242-.1.479-.1s.338.042.479.1c.171.07.382.158.769.158s.599-.088.769-.158c.14-.058.242-.1.479-.1s.338.042.479.1c.17.07.382.158.769.158s.599-.088.769-.158c.14-.058.242-.1.479-.1s.338.042.479.1c.17.07.382.158.769.158s.599-.088.769-.158c.14-.058.242-.1.479-.1l.041.001c-.076.565-.12 1.185-.12 1.865 0 .233.178.422.398.422h2.895c.22 0 .398-.189.398-.422v-1.612l.132.004c.387 0 .599-.088.77-.158.14-.058.242-.1.479-.1s.339.042.48.1c.17.07.382.158.769.158.22 0 .398-.189.398-.422 0-.233-.178-.421-.398-.421l-.221-.017c.036-.097.057-.202.057-.312v-2.15c0-.437-.315-.797-.722-.838v-.814c0-.233-.178-.421-.399-.421-.22 0-.398.189-.398.421v.771l-.947-.049v-2.792c0-.233-.178-.422-.398-.422-.22 0-.398.189-.398.422v1.541c-.241.155-.712.506-1.206 1.147l-8.541-.442v-2.352h2.818v.592c0 .233.178.421.398.421h1.514c.22 0 .398-.189.398-.421v-1.149h1.792c.22 0 .399-.189.399-.421v-.114h4.541v1.573c0 .233.178.421.398.421.22 0 .398-.189.398-.421v-1.994c0-.233-.178-.421-.398-.421h-5.338c-.22 0-.398.189-.398.421v.114h-1.792c-.22 0-.398.188-.398.421v1.149h-.717v-.592c0-.233-.178-.421-.398-.421h-3.217v-3.735h2.35v.114c0 .233.178.421.398.421h1.793v1.15c0 .233.178.421.398.421h1.514c.22 0 .398-.188.398-.421v-.592h2.032c.22 0 .398-.189.398-.421v-1.449h2.788c.22 0 .398-.189.398-.422 0-.232-.178-.421-.398-.421h-3.186c-.22 0-.398.189-.398.421v1.45h-2.032c-.22 0-.398.188-.398.421v.592h-.717v-1.149c0-.233-.178-.421-.398-.421h-1.793v-.114c0-.233-.178-.422-.398-.422h-2.749v-.087l-.001-.006v-1.028h.017c.22 0 .399-.189.399-.422v-1.364c0-.232-.178-.421-.399-.421h-1.695c-.22 0-.398.189-.398.421v.367h-.322v-.367c0-.232-.178-.421-.398-.421h-1.397c-.22 0-.398.189-.398.421v.367h-.322v-.367c0-.232-.178-.421-.398-.421h-1.397c-.22 0-.398.189-.398.421v.367h-.322v-.367c0-.232-.178-.421-.398-.421h-1.397c-.22 0-.398.189-.398.421v.367h-.322v-.367c0-.232-.179-.421-.399-.421h-1.687c-.22 0-.398.189-.398.421v1.364c0 .233.178.422.398.422h.065v10.781l-.656 1.851c-.113-.025-.248-.042-.419-.042-.22 0-.398.189-.398.421 0 .233.178.421.398.421.237 0 .339.042.479.1.17.07.382.158.769.158s.599-.088.769-.158zm-.61-14.897h.89v.367c0 .232.178.421.398.421h1.119c.22 0 .398-.189.398-.421v-.367h.6v.367c0 .232.178.421.398.421h1.119c.22 0 .398-.189.398-.421v-.367h.6v.367c0 .232.178.421.399.421h1.119c.22 0 .398-.189.398-.421v-.367h.6v.367c0 .232.178.421.398.421h1.119c.22 0 .398-.189.398-.421v-.367h.899v.522h-.017c-.22 0-.398.189-.398.421v.614c-.44 0-.796.377-.796.842v8.661c0 .449.333.819.758.841l.039.002.398.021.398.021 7.61.394c-.09.22-.175.454-.254.703h-17.727v-10.643c0-.465-.357-.842-.797-.842h-.001v-.614c0-.233-.178-.421-.399-.421h-.065v-.522zm21.206 10.753l.174-.164v5.653h-2.092c.013-.44.045-.85.094-1.232l.04-.284.098-.547.066-.295c.073-.303.157-.584.247-.842.083-.237.173-.457.266-.659.145-.313.3-.585.454-.82.226-.343.453-.608.653-.809zm1.843 2.288h-.873v-.551l.873.045v.506z" id="Fill-3"/><path d="M28.386 71.297c-.344 0-.498-.064-.693-.144l-.178-.07c.726-.402.923-.863.955-.951.047-.13.03-.275-.044-.389-.075-.114-.197-.182-.328-.182h-7.444c-.131 0-.254.068-.328.182-.074.114-.091.259-.044.389.038.104.307.733 1.416 1.166h-.014c-.344 0-.498-.064-.693-.144-.229-.094-.489-.202-.983-.202s-.754.107-.983.202c-.195.081-.349.144-.693.144s-.498-.064-.693-.144c-.229-.094-.489-.202-.983-.202-.22 0-.398.188-.398.421 0 .233.178.421.398.421.344 0 .498.064.693.144.229.094.489.202.983.202s.754-.107.983-.202c.195-.081.349-.144.693-.144s.498.064.693.144c.229.094.489.202.983.202s.754-.107.983-.202c.195-.081.349-.144.693-.144s.498.064.693.144c.229.094.489.202.983.202s.754-.107.983-.202c.195-.081.349-.144.693-.144s.498.064.693.144c.229.094.489.202.983.202.22 0 .398-.188.398-.421 0-.233-.178-.421-.398-.421zm-1.364-.895c-.493.241-1.312.467-2.647.467-1.327 0-2.144-.225-2.639-.467h5.286z" id="Fill-4"/><path d="M7.253 59.045c-.015-.341-.281-.612-.607-.612-.326 0-.591.271-.607.612v.401h1.213v-.401" id="Fill-5"/><path d="M9.8 59.045c-.015-.341-.281-.612-.607-.612-.326 0-.591.271-.607.612v.401h1.213v-.401" id="Fill-6"/><path d="M12.346 59.045c-.015-.341-.281-.612-.606-.612-.326 0-.592.271-.607.612v.401h1.213v-.401" id="Fill-7"/><path d="M7.253 56.951c-.015-.34-.281-.611-.607-.611-.326 0-.591.271-.607.611v.401h1.213v-.401" id="Fill-8"/><path d="M9.8 56.951c-.015-.34-.281-.611-.607-.611-.326 0-.591.271-.607.611v.401h1.213v-.401" id="Fill-9"/><path d="M12.346 56.951c-.007-.161-.071-.307-.171-.416-.11-.12-.265-.195-.436-.195-.171 0-.325.075-.436.195-.1.109-.164.254-.171.416v.401h1.213v-.401" id="Fill-10"/><path d="M7.253 54.937c-.009-.198-.103-.372-.243-.483-.101-.081-.227-.128-.364-.128-.137 0-.262.048-.364.128-.14.111-.234.286-.243.483v.401h1.213v-.401" id="Fill-11"/><path d="M9.8 54.937c-.009-.198-.103-.372-.243-.483-.102-.081-.227-.128-.364-.128-.137 0-.262.048-.363.128-.141.111-.235.286-.243.483v.401h1.213v-.401" id="Fill-12"/><path d="M12.346 55.338v-.401l-.027-.161c-.039-.13-.115-.242-.216-.322-.101-.081-.227-.128-.363-.128-.137 0-.262.048-.364.128-.14.111-.234.286-.243.483v.401h1.213" id="Fill-13"/><path d="M7.253 61.046c-.015-.34-.281-.612-.607-.612-.326 0-.591.271-.607.612v.401h1.213v-.401" id="Fill-14"/><path d="M9.8 61.046c-.015-.34-.281-.612-.607-.612-.326 0-.591.271-.607.612v.401h1.213v-.401" id="Fill-15"/><path d="M12.346 61.046c-.015-.34-.281-.612-.606-.612-.326 0-.592.271-.607.612v.401h1.213v-.401" id="Fill-16"/><path d="M7.253 63.048c-.015-.34-.281-.612-.607-.612-.326 0-.591.271-.607.612v.401h1.213v-.401" id="Fill-17"/><path d="M9.8 63.048c-.015-.34-.281-.612-.607-.612-.326 0-.591.271-.607.612v.401h1.213v-.401" id="Fill-18"/><path d="M12.346 63.048c-.015-.34-.281-.612-.606-.612-.326 0-.592.271-.607.612v.401h1.213v-.401" id="Fill-19"/></g><g fill="#206FAC" sketch:type="MSShapeGroup"><path d="M17.315 149.43c.387 0 .599-.088.769-.158.14-.058.242-.1.479-.1.22 0 .398-.188.398-.421 0-.233-.178-.421-.398-.421-.387 0-.599.087-.769.158-.141.058-.242.1-.479.1s-.339-.042-.479-.1c-.171-.071-.382-.158-.769-.158s-.599.087-.769.158c-.14.058-.242.1-.479.1s-.339-.042-.479-.1c-.17-.071-.382-.158-.769-.158s-.599.087-.769.158c-.141.058-.243.1-.48.1s-.338-.042-.479-.1c-.17-.071-.382-.158-.769-.158s-.599.087-.769.158c-.141.058-.242.1-.479.1s-.338-.042-.479-.1c-.17-.071-.382-.158-.769-.158s-.599.087-.769.158c-.141.058-.242.1-.479.1s-.338-.042-.479-.1c-.17-.071-.382-.158-.769-.158s-.599.087-.769.158c-.14.058-.242.1-.479.1s-.339-.042-.479-.1c-.17-.071-.382-.158-.769-.158-.22 0-.398.189-.398.421 0 .233.178.421.398.421.237 0 .338.042.479.1.17.07.382.158.769.158s.598-.088.769-.158c.14-.058.242-.1.479-.1s.338.042.479.1c.17.07.382.158.769.158s.599-.088.769-.158c.141-.058.242-.1.479-.1s.338.042.479.1c.17.07.382.158.769.158s.599-.088.769-.158c.14-.058.242-.1.479-.1s.338.042.479.1c.17.07.382.158.769.158s.599-.088.769-.158c.14-.058.242-.1.479-.1s.338.042.479.1c.171.07.382.158.769.158s.599-.088.769-.158c.14-.058.242-.1.479-.1s.338.042.479.1c.17.07.382.158.769.158"/><path d="M16.206 129.884h.176c-.027.101-.043.207-.043.318 0 .64.492 1.161 1.097 1.161h7.144c.267 0 .524-.103.725-.29.237-.221.373-.538.373-.87 0-.332-.136-.65-.373-.87-.201-.187-.459-.29-.725-.29h-4.079l.013-.158c0-.287-.117-.56-.32-.75-.173-.161-.396-.25-.625-.25h-3.364c-.522 0-.946.449-.946 1.001 0 .552.425 1.001.946 1.001zm0-1.159h3.364l.098.04.051.118-.052.118-.098.04h-.002c-.22 0-.398.188-.398.421 0 .233.178.422.398.422h5.013c.093 0 .159.043.198.08.038.036.103.114.103.238 0 .124-.065.203-.103.238-.039.037-.105.08-.198.08h-7.144c-.166 0-.301-.143-.301-.318 0-.175.135-.318.301-.318.22 0 .398-.189.398-.422h.002c0-.233-.178-.421-.398-.421h-1.233c-.082 0-.149-.071-.149-.158 0-.087.067-.158.149-.158z"/><path d="M4.24 146.953c.14-.058.242-.1.479-.1s.338.042.479.1c.17.07.382.158.769.158s.599-.088.769-.158c.14-.058.242-.1.479-.1s.338.042.479.1c.17.07.382.158.769.158s.599-.088.769-.158c.141-.058.242-.1.479-.1s.338.042.479.1c.17.07.382.158.769.158s.599-.088.769-.158c.14-.058.242-.1.479-.1s.338.042.479.1c.17.07.382.158.769.158s.599-.088.769-.158c.14-.058.242-.1.479-.1s.338.042.479.1c.171.07.382.158.769.158s.599-.088.769-.158c.14-.058.242-.1.479-.1s.338.042.479.1c.17.07.382.158.769.158s.599-.088.769-.158c.14-.058.242-.1.479-.1s.338.042.479.1c.17.07.382.158.769.158s.599-.088.769-.158c.14-.058.242-.1.479-.1l.041.001c-.076.565-.12 1.185-.12 1.865 0 .233.178.422.398.422h2.895c.22 0 .398-.189.398-.422v-1.612l.132.004c.387 0 .599-.088.77-.158.14-.058.242-.1.479-.1s.339.042.48.1c.17.07.382.158.769.158.22 0 .398-.189.398-.422 0-.233-.178-.421-.398-.421l-.221-.017c.036-.097.057-.202.057-.312v-2.15c0-.437-.315-.797-.722-.838v-.814c0-.233-.178-.421-.399-.421-.22 0-.398.189-.398.421v.771l-.947-.049v-2.792c0-.233-.178-.422-.398-.422-.22 0-.398.189-.398.422v1.541c-.241.155-.712.506-1.206 1.147l-8.541-.442v-2.352h2.818v.592c0 .233.178.421.398.421h1.514c.22 0 .398-.189.398-.421v-1.149h1.792c.22 0 .399-.189.399-.421v-.114h4.541v1.573c0 .233.178.421.398.421.22 0 .398-.189.398-.421v-1.994c0-.233-.178-.421-.398-.421h-5.338c-.22 0-.398.189-.398.421v.114h-1.792c-.22 0-.398.188-.398.421v1.149h-.717v-.592c0-.233-.178-.421-.398-.421h-3.217v-3.735h2.35v.114c0 .233.178.421.398.421h1.793v1.15c0 .233.178.421.398.421h1.514c.22 0 .398-.188.398-.421v-.592h2.032c.22 0 .398-.189.398-.421v-1.449h2.788c.22 0 .398-.189.398-.422 0-.232-.178-.421-.398-.421h-3.186c-.22 0-.398.189-.398.421v1.45h-2.032c-.22 0-.398.188-.398.421v.592h-.717v-1.149c0-.233-.178-.421-.398-.421h-1.793v-.114c0-.233-.178-.422-.398-.422h-2.749v-.087l-.001-.006v-1.028h.017c.22 0 .399-.189.399-.422v-1.364c0-.232-.178-.421-.399-.421h-1.695c-.22 0-.398.189-.398.421v.367h-.322v-.367c0-.232-.178-.421-.398-.421h-1.397c-.22 0-.398.189-.398.421v.367h-.322v-.367c0-.232-.178-.421-.398-.421h-1.397c-.22 0-.398.189-.398.421v.367h-.322v-.367c0-.232-.178-.421-.398-.421h-1.397c-.22 0-.398.189-.398.421v.367h-.322v-.367c0-.232-.179-.421-.399-.421h-1.687c-.22 0-.398.189-.398.421v1.364c0 .233.178.422.398.422h.065v10.781l-.656 1.851c-.113-.025-.248-.042-.419-.042-.22 0-.398.189-.398.421 0 .233.178.421.398.421.237 0 .339.042.479.1.17.07.382.158.769.158s.599-.088.769-.158zm-.61-14.897h.89v.367c0 .232.178.421.398.421h1.119c.22 0 .398-.189.398-.421v-.367h.6v.367c0 .232.178.421.398.421h1.119c.22 0 .398-.189.398-.421v-.367h.6v.367c0 .232.178.421.399.421h1.119c.22 0 .398-.189.398-.421v-.367h.6v.367c0 .232.178.421.398.421h1.119c.22 0 .398-.189.398-.421v-.367h.899v.522h-.017c-.22 0-.398.189-.398.421v.614c-.44 0-.796.377-.796.842v8.661c0 .449.333.819.758.841l.039.002.398.021.398.021 7.61.394c-.09.22-.175.454-.254.703h-17.727v-10.643c0-.465-.357-.842-.797-.842h-.001v-.614c0-.233-.178-.421-.399-.421h-.065v-.522zm21.206 10.753l.174-.164v5.653h-2.092c.013-.44.045-.85.094-1.232l.04-.284.098-.547.066-.295c.073-.303.157-.584.247-.842.083-.237.173-.457.266-.659.145-.313.3-.585.454-.82.226-.343.453-.608.653-.809zm1.843 2.288h-.873v-.551l.873.045v.506z"/><path d="M28.386 151.297c-.344 0-.498-.064-.693-.144l-.178-.07c.726-.402.923-.863.955-.951.047-.13.03-.275-.044-.389-.075-.114-.197-.182-.328-.182h-7.444c-.131 0-.254.068-.328.182-.074.114-.091.259-.044.389.038.104.307.733 1.416 1.166h-.014c-.344 0-.498-.064-.693-.144-.229-.094-.489-.202-.983-.202s-.754.107-.983.202c-.195.081-.349.144-.693.144s-.498-.064-.693-.144c-.229-.094-.489-.202-.983-.202-.22 0-.398.188-.398.421 0 .233.178.421.398.421.344 0 .498.064.693.144.229.094.489.202.983.202s.754-.107.983-.202c.195-.081.349-.144.693-.144s.498.064.693.144c.229.094.489.202.983.202s.754-.107.983-.202c.195-.081.349-.144.693-.144s.498.064.693.144c.229.094.489.202.983.202s.754-.107.983-.202c.195-.081.349-.144.693-.144s.498.064.693.144c.229.094.489.202.983.202.22 0 .398-.188.398-.421 0-.233-.178-.421-.398-.421zm-1.364-.895c-.493.241-1.312.467-2.647.467-1.327 0-2.144-.225-2.639-.467h5.286z"/><path d="M7.253 139.045c-.015-.341-.281-.612-.607-.612-.326 0-.591.271-.607.612v.401h1.213v-.401"/><path d="M9.8 139.045c-.015-.341-.281-.612-.607-.612-.326 0-.591.271-.607.612v.401h1.213v-.401"/><path d="M12.346 139.045c-.015-.341-.281-.612-.606-.612-.326 0-.592.271-.607.612v.401h1.213v-.401"/><path d="M7.253 136.951c-.015-.34-.281-.611-.607-.611-.326 0-.591.271-.607.611v.401h1.213v-.401"/><path d="M9.8 136.951c-.015-.34-.281-.611-.607-.611-.326 0-.591.271-.607.611v.401h1.213v-.401"/><path d="M12.346 136.951c-.007-.161-.071-.307-.171-.416-.11-.12-.265-.195-.436-.195-.171 0-.325.075-.436.195-.1.109-.164.254-.171.416v.401h1.213v-.401"/><path d="M7.253 134.937c-.009-.198-.103-.372-.243-.483-.101-.081-.227-.128-.364-.128-.137 0-.262.048-.364.128-.14.111-.234.286-.243.483v.401h1.213v-.401"/><path d="M9.8 134.937c-.009-.198-.103-.372-.243-.483-.102-.081-.227-.128-.364-.128-.137 0-.262.048-.363.128-.141.111-.235.286-.243.483v.401h1.213v-.401"/><path d="M12.346 135.338v-.401l-.027-.161c-.039-.13-.115-.242-.216-.322-.101-.081-.227-.128-.363-.128-.137 0-.262.048-.364.128-.14.111-.234.286-.243.483v.401h1.213"/><path d="M7.253 141.046c-.015-.34-.281-.612-.607-.612-.326 0-.591.271-.607.612v.401h1.213v-.401"/><path d="M9.8 141.046c-.015-.34-.281-.612-.607-.612-.326 0-.591.271-.607.612v.401h1.213v-.401"/><path d="M12.346 141.046c-.015-.34-.281-.612-.606-.612-.326 0-.592.271-.607.612v.401h1.213v-.401"/><path d="M7.253 143.048c-.015-.34-.281-.612-.607-.612-.326 0-.591.271-.607.612v.401h1.213v-.401"/><path d="M9.8 143.048c-.015-.34-.281-.612-.607-.612-.326 0-.591.271-.607.612v.401h1.213v-.401"/><path d="M12.346 143.048c-.015-.34-.281-.612-.606-.612-.326 0-.592.271-.607.612v.401h1.213v-.401"/></g></g></g></svg>