<svg width="32" height="232" viewBox="0 0 32 232" xmlns="http://www.w3.org/2000/svg" xmlns:sketch="http://www.bohemiancoding.com/sketch/ns"><title>italy</title><desc>Created with Sketch.</desc><g sketch:type="MSPage" fill="none"><g sketch:type="MSLayerGroup"><g fill="#373D43" sketch:type="MSShapeGroup"><path d="M13.738 18.718c.02-.209-.126-.396-.325-.417-.199-.021-.376.132-.396.342l-.117 1.234.721.075.117-1.235" id="Fill-1"/><path d="M15.639 18.916c.02-.21-.125-.396-.325-.417-.199-.021-.376.132-.396.342l-.117 1.235.721.075.116-1.234" id="Fill-2"/><path d="M17.539 19.114c.02-.209-.126-.396-.325-.417-.199-.021-.376.132-.396.342l-.117 1.234.721.075.117-1.235" id="Fill-3"/><path d="M13.707 15.189c-.199-.021-.376.133-.396.342l-.116 1.235.721.075.116-1.234c.02-.21-.126-.396-.325-.417" id="Fill-4"/><path d="M15.607 15.388c-.199-.021-.377.132-.397.342l-.116 1.234.721.075.116-1.235c.02-.209-.126-.396-.325-.417" id="Fill-5"/><path d="M17.508 15.586c-.2-.021-.377.132-.397.342l-.116 1.235.721.075.116-1.235c.02-.21-.126-.396-.324-.417" id="Fill-6"/><path d="M14 12.078c-.199-.021-.376.132-.396.342l-.117 1.234.721.075.117-1.235c.02-.209-.126-.396-.325-.417" id="Fill-7"/><path d="M15.901 12.276c-.199-.021-.376.132-.396.342l-.117 1.235.721.075.117-1.234c.02-.209-.125-.396-.325-.417" id="Fill-8"/><path d="M17.801 12.475c-.199-.021-.376.132-.396.342l-.117 1.235.721.075.117-1.235c.02-.21-.125-.396-.325-.417" id="Fill-9"/><path d="M13.12 21.413c-.199-.021-.376.132-.396.342l-.117 1.235.721.075.117-1.235c.02-.21-.126-.396-.325-.417" id="Fill-10"/><path d="M15.02 21.61c-.199-.021-.376.132-.396.342l-.117 1.234.721.075.117-1.234c.02-.21-.126-.396-.325-.417" id="Fill-11"/><path d="M16.92 21.808c-.199-.021-.376.133-.396.342l-.116 1.235.721.075.117-1.235c.02-.209-.126-.396-.325-.417" id="Fill-12"/><path d="M14.294 8.967c-.2-.021-.377.132-.396.342l-.117 1.235.721.075.117-1.235c.02-.209-.126-.396-.325-.417" id="Fill-13"/><path d="M16.194 9.165c-.199-.021-.377.132-.396.342l-.117 1.235.721.075.117-1.235c.02-.209-.126-.396-.325-.417" id="Fill-14"/><path d="M18.095 9.363c-.199-.021-.377.132-.396.342l-.116 1.235.721.075.117-1.234c.02-.21-.126-.396-.325-.417" id="Fill-15"/><path d="M25.323 27.256h-6.166l.228-2.415c.141-.05.249-.182.265-.348.015-.166-.066-.317-.194-.396l.177-1.88h.775v1.044c0 .227.175.411.391.411h1.04c.216 0 .391-.184.391-.411v-.416h3.094c.216 0 .39-.183.39-.41 0-.227-.174-.41-.39-.41h-3.484l-.157.035c-.137.064-.233.208-.233.375v.417h-.26v-1.045c0-.227-.175-.41-.39-.41h-.859l.004-.023c.015-.166-.066-.317-.194-.396l.224-2.377c.141-.05.249-.182.264-.347.015-.165-.066-.318-.194-.396l.225-2.377c.141-.05.248-.182.263-.348.016-.165-.065-.317-.194-.395l.224-2.377c.141-.05.249-.181.264-.348.016-.165-.065-.317-.194-.396l.301-3.195c.043-.451-.271-.853-.7-.898l-.418-.044.183-1.944c.043-.451-.27-.853-.7-.898l-5.303-.553c-.207-.022-.412.044-.572.182-.16.138-.261.337-.282.554l-.183 1.943-.418-.044c-.207-.021-.412.044-.572.182-.16.138-.261.337-.282.554l-.301 3.196c-.141.05-.248.182-.264.348-.016.166.065.318.194.396l-.224 2.377c-.14.05-.248.182-.264.348-.016.165.065.317.194.396l-.224 2.377c-.14.05-.248.182-.264.348-.016.166.065.317.194.396l-.224 2.377-.093.049c-1.315.286-2.283.95-2.526 1.774h-1.563c-.215 0-.39.184-.39.41v1.892h-2.188c-.215 0-.39.184-.39.411 0 .227.175.41.39.41h2.578c.216 0 .391-.183.391-.41v-1.892h1.503c.215 0 .39-.184.39-.411 0-.518.7-1.078 1.815-1.35l-.21 2.236c-.141.05-.249.181-.264.347-.016.166.065.317.194.396l-.319 3.38h-5.804c-.431 0-.78.367-.78.821 0 .453.349.821.78.821h21.308c.431 0 .78-.368.78-.821 0-.454-.35-.821-.78-.821zm-9.359-2.149c-.358-.037-.677.238-.713.614l-.145 1.535h-1.007l-.228-.024.154-1.638c.035-.377-.226-.713-.584-.75-.358-.037-.677.238-.713.615l-.154 1.638-1.161-.121.274-2.9 6.14.641-.24 2.54h-1.172l.132-1.399c.035-.377-.226-.713-.584-.75zm-3.393-10.392l6.14.641-.217 2.303-6.14-.641.217-2.303zm.294-3.12l6.141.64-.218 2.303-6.14-.64.217-2.303zm.298-3.159l6.14.641-.221 2.342-6.14-.641.221-2.342zm5.254 10.039l-.217 2.303-5.964-.622c-.033-.079-.09-.145-.16-.189l.201-2.133 6.14.641zm-6.434 2.479l6.14.641-.217 2.303-6.14-.641.217-2.303zm2.636-15.154l3.75.392-.106 1.126-.564-.059.05-.528c.02-.21-.126-.396-.325-.417-.199-.021-.376.132-.396.342l-.049.528-1.179-.123.05-.528c.019-.209-.126-.396-.325-.417-.199-.021-.376.133-.396.342l-.05.528-.564-.059.106-1.127z" id="Fill-16"/><path d="M3.518 12.889c.192.179.44.277.695.277h1.022l-.01.136c0 .274.112.535.308.717.166.154.38.239.601.239h3.188c.502 0 .91-.429.91-.956 0-.527-.408-.957-.91-.957h-.151l.037-.286c0-.611-.472-1.107-1.053-1.107h-3.943c-.256 0-.503.098-.695.277-.227.21-.357.513-.357.83 0 .317.13.62.357.83zm.516-1.044c.035-.033.095-.072.179-.072h3.943c.15 0 .272.128.272.286 0 .158-.122.286-.272.286-.215 0-.39.184-.39.411h-.002c0 .227.175.41.39.41h1.168c.071 0 .129.061.129.136 0 .075-.058.135-.129.135h-3.188l-.085-.034-.044-.101.044-.102.085-.034h.002c.215 0 .39-.183.39-.41 0-.227-.175-.411-.39-.411h-1.923c-.084 0-.144-.039-.179-.072-.035-.032-.093-.103-.093-.215s.058-.183.093-.215z" id="Fill-17"/></g><g id="Italy-copy" fill="#67737B" sketch:type="MSShapeGroup"><path d="M13.738 59.718c.02-.209-.126-.396-.325-.417-.199-.021-.376.132-.396.342l-.117 1.234.721.075.117-1.235" id="Fill-1"/><path d="M15.639 59.916c.02-.21-.125-.396-.325-.417-.199-.021-.376.132-.396.342l-.117 1.235.721.075.116-1.234" id="Fill-2"/><path d="M17.539 60.114c.02-.209-.126-.396-.325-.417-.199-.021-.376.132-.396.342l-.117 1.234.721.075.117-1.235" id="Fill-3"/><path d="M13.707 56.189c-.199-.021-.376.133-.396.342l-.116 1.235.721.075.116-1.234c.02-.21-.126-.396-.325-.417" id="Fill-4"/><path d="M15.607 56.388c-.199-.021-.377.132-.397.342l-.116 1.234.721.075.116-1.235c.02-.209-.126-.396-.325-.417" id="Fill-5"/><path d="M17.508 56.586c-.2-.021-.377.132-.397.342l-.116 1.235.721.075.116-1.235c.02-.21-.126-.396-.324-.417" id="Fill-6"/><path d="M14 53.078c-.199-.021-.376.132-.396.342l-.117 1.234.721.075.117-1.235c.02-.209-.126-.396-.325-.417" id="Fill-7"/><path d="M15.901 53.276c-.199-.021-.376.132-.396.342l-.117 1.235.721.075.117-1.234c.02-.209-.125-.396-.325-.417" id="Fill-8"/><path d="M17.801 53.475c-.199-.021-.376.132-.396.342l-.117 1.235.721.075.117-1.235c.02-.21-.125-.396-.325-.417" id="Fill-9"/><path d="M13.12 62.413c-.199-.021-.376.132-.396.342l-.117 1.235.721.075.117-1.235c.02-.21-.126-.396-.325-.417" id="Fill-10"/><path d="M15.02 62.61c-.199-.021-.376.132-.396.342l-.117 1.234.721.075.117-1.234c.02-.21-.126-.396-.325-.417" id="Fill-11"/><path d="M16.92 62.808c-.199-.021-.376.133-.396.342l-.116 1.235.721.075.117-1.235c.02-.209-.126-.396-.325-.417" id="Fill-12"/><path d="M14.294 49.967c-.2-.021-.377.132-.396.342l-.117 1.235.721.075.117-1.235c.02-.209-.126-.396-.325-.417" id="Fill-13"/><path d="M16.194 50.165c-.199-.021-.377.132-.396.342l-.117 1.235.721.075.117-1.235c.02-.209-.126-.396-.325-.417" id="Fill-14"/><path d="M18.095 50.363c-.199-.021-.377.132-.396.342l-.116 1.235.721.075.117-1.234c.02-.21-.126-.396-.325-.417" id="Fill-15"/><path d="M25.323 68.256h-6.166l.228-2.415c.141-.05.249-.182.265-.348.015-.166-.066-.317-.194-.396l.177-1.88h.775v1.044c0 .227.175.411.391.411h1.04c.216 0 .391-.184.391-.411v-.416h3.094c.216 0 .39-.183.39-.41 0-.227-.174-.41-.39-.41h-3.484l-.157.035c-.137.064-.233.208-.233.375v.417h-.26v-1.045c0-.227-.175-.41-.39-.41h-.859l.004-.023c.015-.166-.066-.317-.194-.396l.224-2.377c.141-.05.249-.182.264-.347.015-.165-.066-.318-.194-.396l.225-2.377c.141-.05.248-.182.263-.348.016-.165-.065-.317-.194-.395l.224-2.377c.141-.05.249-.181.264-.348.016-.165-.065-.317-.194-.396l.301-3.195c.043-.451-.271-.853-.7-.898l-.418-.044.183-1.944c.043-.451-.27-.853-.7-.898l-5.303-.553c-.207-.022-.412.044-.572.182-.16.138-.261.337-.282.554l-.183 1.943-.418-.044c-.207-.021-.412.044-.572.182-.16.138-.261.337-.282.554l-.301 3.196c-.141.05-.248.182-.264.348-.016.166.065.318.194.396l-.224 2.377c-.14.05-.248.182-.264.348-.016.165.065.317.194.396l-.224 2.377c-.14.05-.248.182-.264.348-.016.166.065.317.194.396l-.224 2.377-.093.049c-1.315.286-2.283.95-2.526 1.774h-1.563c-.215 0-.39.184-.39.41v1.892h-2.188c-.215 0-.39.184-.39.411 0 .227.175.41.39.41h2.578c.216 0 .391-.183.391-.41v-1.892h1.503c.215 0 .39-.184.39-.411 0-.518.7-1.078 1.815-1.35l-.21 2.236c-.141.05-.249.181-.264.347-.016.166.065.317.194.396l-.319 3.38h-5.804c-.431 0-.78.367-.78.821 0 .453.349.821.78.821h21.308c.431 0 .78-.368.78-.821 0-.454-.35-.821-.78-.821zm-9.359-2.149c-.358-.037-.677.238-.713.614l-.145 1.535h-1.007l-.228-.024.154-1.638c.035-.377-.226-.713-.584-.75-.358-.037-.677.238-.713.615l-.154 1.638-1.161-.121.274-2.9 6.14.641-.24 2.54h-1.172l.132-1.399c.035-.377-.226-.713-.584-.75zm-3.393-10.392l6.14.641-.217 2.303-6.14-.641.217-2.303zm.294-3.12l6.141.64-.218 2.303-6.14-.64.217-2.303zm.298-3.159l6.14.641-.221 2.342-6.14-.641.221-2.342zm5.254 10.039l-.217 2.303-5.964-.622c-.033-.079-.09-.145-.16-.189l.201-2.133 6.14.641zm-6.434 2.479l6.14.641-.217 2.303-6.14-.641.217-2.303zm2.636-15.154l3.75.392-.106 1.126-.564-.059.05-.528c.02-.21-.126-.396-.325-.417-.199-.021-.376.132-.396.342l-.049.528-1.179-.123.05-.528c.019-.209-.126-.396-.325-.417-.199-.021-.376.133-.396.342l-.05.528-.564-.059.106-1.127z" id="Fill-16"/><path d="M3.518 53.889c.192.179.44.277.695.277h1.022l-.01.136c0 .274.112.535.308.717.166.154.38.239.601.239h3.188c.502 0 .91-.429.91-.956 0-.527-.408-.957-.91-.957h-.151l.037-.286c0-.611-.472-1.107-1.053-1.107h-3.943c-.256 0-.503.098-.695.277-.227.21-.357.513-.357.83 0 .317.13.62.357.83zm.516-1.044c.035-.033.095-.072.179-.072h3.943c.15 0 .272.128.272.286 0 .158-.122.286-.272.286-.215 0-.39.184-.39.411h-.002c0 .227.175.41.39.41h1.168c.071 0 .129.061.129.136 0 .075-.058.135-.129.135h-3.188l-.085-.034-.044-.101.044-.102.085-.034h.002c.215 0 .39-.183.39-.41 0-.227-.175-.411-.39-.411h-1.923c-.084 0-.144-.039-.179-.072-.035-.032-.093-.103-.093-.215s.058-.183.093-.215z" id="Fill-17"/></g><g fill="#206FAC" sketch:type="MSShapeGroup"><path d="M13.738 141.718c.02-.209-.126-.396-.325-.417-.199-.021-.376.132-.396.342l-.117 1.234.721.075.117-1.235" id="Fill-1"/><path d="M15.639 141.916c.02-.21-.125-.396-.325-.417-.199-.021-.376.132-.396.342l-.117 1.235.721.075.116-1.234" id="Fill-2"/><path d="M17.539 142.114c.02-.209-.126-.396-.325-.417-.199-.021-.376.132-.396.342l-.117 1.234.721.075.117-1.235" id="Fill-3"/><path d="M13.707 138.189c-.199-.021-.376.133-.396.342l-.116 1.235.721.075.116-1.234c.02-.21-.126-.396-.325-.417" id="Fill-4"/><path d="M15.607 138.388c-.199-.021-.377.132-.397.342l-.116 1.234.721.075.116-1.235c.02-.209-.126-.396-.325-.417" id="Fill-5"/><path d="M17.508 138.586c-.2-.021-.377.132-.397.342l-.116 1.235.721.075.116-1.235c.02-.21-.126-.396-.324-.417" id="Fill-6"/><path d="M14 135.078c-.199-.021-.376.132-.396.342l-.117 1.234.721.075.117-1.235c.02-.209-.126-.396-.325-.417" id="Fill-7"/><path d="M15.901 135.276c-.199-.021-.376.132-.396.342l-.117 1.235.721.075.117-1.234c.02-.209-.125-.396-.325-.417" id="Fill-8"/><path d="M17.801 135.475c-.199-.021-.376.132-.396.342l-.117 1.235.721.075.117-1.235c.02-.21-.125-.396-.325-.417" id="Fill-9"/><path d="M13.12 144.412c-.199-.021-.376.132-.396.342l-.117 1.235.721.075.117-1.235c.02-.21-.126-.396-.325-.417" id="Fill-10"/><path d="M15.02 144.61c-.199-.021-.376.132-.396.342l-.117 1.234.721.075.117-1.234c.02-.21-.126-.396-.325-.417" id="Fill-11"/><path d="M16.92 144.808c-.199-.021-.376.133-.396.342l-.116 1.235.721.075.117-1.235c.02-.209-.126-.396-.325-.417" id="Fill-12"/><path d="M14.294 131.967c-.2-.021-.377.132-.396.342l-.117 1.235.721.075.117-1.235c.02-.209-.126-.396-.325-.417" id="Fill-13"/><path d="M16.194 132.165c-.199-.021-.377.132-.396.342l-.117 1.235.721.075.117-1.235c.02-.209-.126-.396-.325-.417" id="Fill-14"/><path d="M18.095 132.363c-.199-.021-.377.132-.396.342l-.116 1.235.721.075.117-1.234c.02-.21-.126-.396-.325-.417" id="Fill-15"/><path d="M25.323 150.256h-6.166l.228-2.415c.141-.05.249-.182.265-.348.015-.166-.066-.317-.194-.396l.177-1.88h.775v1.044c0 .227.175.411.391.411h1.04c.216 0 .391-.184.391-.411v-.416h3.094c.216 0 .39-.183.39-.41 0-.227-.174-.41-.39-.41h-3.484l-.157.035c-.137.064-.233.208-.233.375v.417h-.26v-1.045c0-.227-.175-.41-.39-.41h-.859l.004-.023c.015-.166-.066-.317-.194-.396l.224-2.377c.141-.05.249-.182.264-.347.015-.165-.066-.318-.194-.396l.225-2.377c.141-.05.248-.182.263-.348.016-.165-.065-.317-.194-.395l.224-2.377c.141-.05.249-.181.264-.348.016-.165-.065-.317-.194-.396l.301-3.195c.043-.451-.271-.853-.7-.898l-.418-.044.183-1.944c.043-.451-.27-.853-.7-.898l-5.303-.553c-.207-.022-.412.044-.572.182-.16.138-.261.337-.282.554l-.183 1.943-.418-.044c-.207-.021-.412.044-.572.182-.16.138-.261.337-.282.554l-.301 3.196c-.141.05-.248.182-.264.348-.016.166.065.318.194.396l-.224 2.377c-.14.05-.248.182-.264.348-.016.165.065.317.194.396l-.224 2.377c-.14.05-.248.182-.264.348-.016.166.065.317.194.396l-.224 2.377-.093.049c-1.315.286-2.283.95-2.526 1.774h-1.563c-.215 0-.39.184-.39.41v1.892h-2.188c-.215 0-.39.184-.39.411 0 .227.175.41.39.41h2.578c.216 0 .391-.183.391-.41v-1.892h1.503c.215 0 .39-.184.39-.411 0-.518.7-1.078 1.815-1.35l-.21 2.236c-.141.05-.249.181-.264.347-.016.166.065.317.194.396l-.319 3.38h-5.804c-.431 0-.78.367-.78.821 0 .453.349.821.78.821h21.308c.431 0 .78-.368.78-.821 0-.454-.35-.821-.78-.821zm-9.359-2.149c-.358-.037-.677.238-.713.614l-.145 1.535h-1.007l-.228-.024.154-1.638c.035-.377-.226-.713-.584-.75-.358-.037-.677.238-.713.615l-.154 1.638-1.161-.121.274-2.9 6.14.641-.24 2.54h-1.172l.132-1.399c.035-.377-.226-.713-.584-.75zm-3.393-10.392l6.14.641-.217 2.303-6.14-.641.217-2.303zm.294-3.12l6.141.64-.218 2.303-6.14-.64.217-2.303zm.298-3.159l6.14.641-.221 2.342-6.14-.641.221-2.342zm5.254 10.039l-.217 2.303-5.964-.622c-.033-.079-.09-.145-.16-.189l.201-2.133 6.14.641zm-6.434 2.479l6.14.641-.217 2.303-6.14-.641.217-2.303zm2.636-15.154l3.75.392-.106 1.126-.564-.059.05-.528c.02-.21-.126-.396-.325-.417-.199-.021-.376.132-.396.342l-.049.528-1.179-.123.05-.528c.019-.209-.126-.396-.325-.417-.199-.021-.376.133-.396.342l-.05.528-.564-.059.106-1.127z" id="Fill-16"/><path d="M3.518 135.889c.192.179.44.277.695.277h1.022l-.01.136c0 .274.112.535.308.717.166.154.38.239.601.239h3.188c.502 0 .91-.429.91-.956 0-.527-.408-.957-.91-.957h-.151l.037-.286c0-.611-.472-1.107-1.053-1.107h-3.943c-.256 0-.503.098-.695.277-.227.21-.357.513-.357.83 0 .317.13.62.357.83zm.516-1.044c.035-.033.095-.072.179-.072h3.943c.15 0 .272.128.272.286 0 .158-.122.286-.272.286-.215 0-.39.184-.39.411h-.002c0 .227.175.41.39.41h1.168c.071 0 .129.061.129.136 0 .075-.058.135-.129.135h-3.188l-.085-.034-.044-.101.044-.102.085-.034h.002c.215 0 .39-.183.39-.41 0-.227-.175-.411-.39-.411h-1.923c-.084 0-.144-.039-.179-.072-.035-.032-.093-.103-.093-.215s.058-.183.093-.215z" id="Fill-17"/></g><g fill="#fff" sketch:type="MSShapeGroup"><path d="M13.738 100.718c.02-.209-.126-.396-.325-.417-.199-.021-.376.132-.396.342l-.117 1.234.721.075.117-1.235"/><path d="M15.639 100.916c.02-.21-.125-.396-.325-.417-.199-.021-.376.132-.396.342l-.117 1.235.721.075.116-1.234"/><path d="M17.539 101.114c.02-.209-.126-.396-.325-.417-.199-.021-.376.132-.396.342l-.117 1.234.721.075.117-1.235"/><path d="M13.707 97.189c-.199-.021-.376.133-.396.342l-.116 1.235.721.075.116-1.234c.02-.21-.126-.396-.325-.417"/><path d="M15.607 97.388c-.199-.021-.377.132-.397.342l-.116 1.234.721.075.116-1.235c.02-.209-.126-.396-.325-.417"/><path d="M17.508 97.586c-.2-.021-.377.132-.397.342l-.116 1.235.721.075.116-1.235c.02-.21-.126-.396-.324-.417"/><path d="M14 94.078c-.199-.021-.376.132-.396.342l-.117 1.234.721.075.117-1.235c.02-.209-.126-.396-.325-.417"/><path d="M15.901 94.276c-.199-.021-.376.132-.396.342l-.117 1.235.721.075.117-1.234c.02-.209-.125-.396-.325-.417"/><path d="M17.801 94.475c-.199-.021-.376.132-.396.342l-.117 1.235.721.075.117-1.235c.02-.21-.125-.396-.325-.417"/><path d="M13.12 103.412c-.199-.021-.376.132-.396.342l-.117 1.235.721.075.117-1.235c.02-.21-.126-.396-.325-.417"/><path d="M15.02 103.61c-.199-.021-.376.132-.396.342l-.117 1.234.721.075.117-1.234c.02-.21-.126-.396-.325-.417"/><path d="M16.92 103.808c-.199-.021-.376.133-.396.342l-.116 1.235.721.075.117-1.235c.02-.209-.126-.396-.325-.417"/><path d="M14.294 90.967c-.2-.021-.377.132-.396.342l-.117 1.235.721.075.117-1.235c.02-.209-.126-.396-.325-.417"/><path d="M16.194 91.165c-.199-.021-.377.132-.396.342l-.117 1.235.721.075.117-1.235c.02-.209-.126-.396-.325-.417"/><path d="M18.095 91.363c-.199-.021-.377.132-.396.342l-.116 1.235.721.075.117-1.234c.02-.21-.126-.396-.325-.417"/><path d="M25.323 109.256h-6.166l.228-2.415c.141-.05.249-.182.265-.348.015-.166-.066-.317-.194-.396l.177-1.88h.775v1.044c0 .227.175.411.391.411h1.04c.216 0 .391-.184.391-.411v-.416h3.094c.216 0 .39-.183.39-.41 0-.227-.174-.41-.39-.41h-3.484l-.157.035c-.137.064-.233.208-.233.375v.417h-.26v-1.045c0-.227-.175-.41-.39-.41h-.859l.004-.023c.015-.166-.066-.317-.194-.396l.224-2.377c.141-.05.249-.182.264-.347.015-.165-.066-.318-.194-.396l.225-2.377c.141-.05.248-.182.263-.348.016-.165-.065-.317-.194-.395l.224-2.377c.141-.05.249-.181.264-.348.016-.165-.065-.317-.194-.396l.301-3.195c.043-.451-.271-.853-.7-.898l-.418-.044.183-1.944c.043-.451-.27-.853-.7-.898l-5.303-.553c-.207-.022-.412.044-.572.182-.16.138-.261.337-.282.554l-.183 1.943-.418-.044c-.207-.021-.412.044-.572.182-.16.138-.261.337-.282.554l-.301 3.196c-.141.05-.248.182-.264.348-.016.166.065.318.194.396l-.224 2.377c-.14.05-.248.182-.264.348-.016.165.065.317.194.396l-.224 2.377c-.14.05-.248.182-.264.348-.016.166.065.317.194.396l-.224 2.377-.093.049c-1.315.286-2.283.95-2.526 1.774h-1.563c-.215 0-.39.184-.39.41v1.892h-2.188c-.215 0-.39.184-.39.411 0 .227.175.41.39.41h2.578c.216 0 .391-.183.391-.41v-1.892h1.503c.215 0 .39-.184.39-.411 0-.518.7-1.078 1.815-1.35l-.21 2.236c-.141.05-.249.181-.264.347-.016.166.065.317.194.396l-.319 3.38h-5.804c-.431 0-.78.367-.78.821 0 .453.349.821.78.821h21.308c.431 0 .78-.368.78-.821 0-.454-.35-.821-.78-.821zm-9.359-2.149c-.358-.037-.677.238-.713.614l-.145 1.535h-1.007l-.228-.024.154-1.638c.035-.377-.226-.713-.584-.75-.358-.037-.677.238-.713.615l-.154 1.638-1.161-.121.274-2.9 6.14.641-.24 2.54h-1.172l.132-1.399c.035-.377-.226-.713-.584-.75zm-3.393-10.392l6.14.641-.217 2.303-6.14-.641.217-2.303zm.294-3.12l6.141.64-.218 2.303-6.14-.64.217-2.303zm.298-3.159l6.14.641-.221 2.342-6.14-.641.221-2.342zm5.254 10.039l-.217 2.303-5.964-.622c-.033-.079-.09-.145-.16-.189l.201-2.133 6.14.641zm-6.434 2.479l6.14.641-.217 2.303-6.14-.641.217-2.303zm2.636-15.154l3.75.392-.106 1.126-.564-.059.05-.528c.02-.21-.126-.396-.325-.417-.199-.021-.376.132-.396.342l-.049.528-1.179-.123.05-.528c.019-.209-.126-.396-.325-.417-.199-.021-.376.133-.396.342l-.05.528-.564-.059.106-1.127z"/><path d="M3.518 94.889c.192.179.44.277.695.277h1.022l-.01.136c0 .274.112.535.308.717.166.154.38.239.601.239h3.188c.502 0 .91-.429.91-.956 0-.527-.408-.957-.91-.957h-.151l.037-.286c0-.611-.472-1.107-1.053-1.107h-3.943c-.256 0-.503.098-.695.277-.227.21-.357.513-.357.83 0 .317.13.62.357.83zm.516-1.044c.035-.033.095-.072.179-.072h3.943c.15 0 .272.128.272.286 0 .158-.122.286-.272.286-.215 0-.39.184-.39.411h-.002c0 .227.175.41.39.41h1.168c.071 0 .129.061.129.136 0 .075-.058.135-.129.135h-3.188l-.085-.034-.044-.101.044-.102.085-.034h.002c.215 0 .39-.183.39-.41 0-.227-.175-.411-.39-.411h-1.923c-.084 0-.144-.039-.179-.072-.035-.032-.093-.103-.093-.215s.058-.183.093-.215z"/></g></g></g></svg>