<svg xmlns:sketch="http://www.bohemiancoding.com/sketch/ns" xmlns="http://www.w3.org/2000/svg" width="32" height="232" viewBox="0 0 32 232"><title>valetta_malta</title><desc>Created with Sketch.</desc><g sketch:type="MSShapeGroup" fill="#fff"><path d="M5.044 88.857h.182c-.028.107-.044.22-.044.337 0 .679.509 1.232 1.135 1.232h7.385c.276 0 .542-.11.75-.309.244-.234.385-.571.385-.924s-.141-.689-.385-.924c-.208-.199-.474-.308-.75-.308h-4.216l.014-.167c0-.304-.121-.595-.332-.796-.179-.171-.408-.266-.646-.266h-3.477c-.54 0-.978.477-.978 1.062s.437 1.063.977 1.063zm0-1.229h3.477l.102.042.053.125-.053.125-.101.042h-.002c-.228 0-.412.2-.412.447s.185.447.412.447h5.182c.096 0 .165.046.205.084.04.038.106.122.106.253 0 .132-.066.215-.106.253-.041.039-.109.085-.205.085h-7.385c-.171 0-.311-.151-.311-.338 0-.186.14-.337.311-.337.228 0 .412-.2.412-.447h.002c0-.247-.184-.447-.412-.447h-1.274c-.085 0-.154-.075-.154-.167-.001-.092.067-.167.153-.167z"/><path d="M29.493 102.582c-.245 0-.351-.044-.496-.106-.177-.075-.396-.167-.795-.167l-.152.005v-5.275c0-.247-.185-.447-.411-.447h-.672v-1.82c0-.247-.184-.447-.41-.447h-1.381v-2.646c0-.494-.369-.895-.824-.895h-.152l-1.096-4.784c-.045-.199-.209-.339-.397-.339s-.354.14-.399.339l-1.097 4.784h-.151c-.455 0-.822.4-.822.895v2.199h-.83c-.568-1.181-1.652-2.023-2.927-2.17v-.979c0-.247-.185-.447-.412-.447s-.412.2-.412.447v.983c-1.809.223-3.231 1.848-3.32 3.848h-.734v-.787c0-.494-.369-.894-.824-.894h-.356v-1.133c0-.247-.184-.447-.412-.447h-5.115c-.228 0-.412.201-.412.447v1.133h-.356c-.455 0-.823.4-.823.894v7.614l.011.14-.124-.049c-.176-.075-.395-.167-.795-.167-.227 0-.412.2-.412.447s.185.447.412.447c.245 0 .35.044.496.106.176.075.395.167.795.167s.619-.093.795-.167c.145-.062.25-.106.495-.106s.35.044.495.106c.176.075.395.167.795.167l.07-.002v1.264c0 .247.185.447.412.447h2.23c.228 0 .412-.2.412-.447l-.002-.041c-.001-.458-.028-.881-.073-1.274l.326-.115c.146-.062.25-.106.496-.106s.35.044.495.106c.176.075.395.167.795.167s.619-.093.795-.167l.188-.07h.613l.189.07c.176.075.395.167.795.167s.619-.093.795-.167l.188-.07h.613l.189.07c.176.075.395.167.795.167.399 0 .619-.093.795-.167l.188-.07h.613l.188.07c.176.075.395.167.795.167s.619-.093.795-.167l.189-.07h.613l.041.012.01.004.139.054c.176.075.395.167.795.167.398 0 .618-.093.795-.167l.035-.015h.919l.036.015c.176.075.395.167.795.167s.619-.093.795-.167c.146-.062.25-.106.496-.106.244 0 .35.044.494.106.177.075.396.167.796.167.399 0 .618-.093.795-.167.146-.062.251-.106.496-.106s.351.044.495.106c.177.075.396.167.796.167.228 0 .411-.2.411-.447-.002-.247-.183-.448-.411-.448zm-13.414-10.005c.967 0 1.825.512 2.358 1.299.095.141.18.29.252.447.067.144.125.293.172.447.052.173.09.353.113.538h-5.792c.201-1.541 1.423-2.731 2.897-2.731zm5.98-1.794l.646-2.822.754 3.299h-1.51l.11-.477zm3.117 6.702h2.051v4.823h-2.051v-4.823zm0-2.267h.969v1.373h-.969v-1.373zm-3.295-2.647h1.646v8.934h-1.646v-8.934zm-1.817 9.773h-.199v-.924c0-.247-.186-.447-.412-.447s-.412.2-.412.447v.924h-.666v-.924c0-.247-.184-.447-.411-.447s-.412.2-.412.447v.924h-.667v-.924c0-.247-.184-.447-.411-.447s-.412.2-.412.447v.924h-.667v-.924c0-.247-.184-.447-.412-.447s-.412.2-.412.447v.924h-.667v-.924c0-.247-.184-.447-.412-.447s-.412.2-.412.447v.924h-.667v-.924c0-.142-.062-.268-.157-.349-.07-.061-.158-.098-.254-.098-.202 0-.37.159-.404.367l-.007.08v.924h-.404v-2.377h9.181v2.377h-.304zm-6.911-6.142h5.888v1.259h-5.888v-1.259zm-.07 2.207h7.287v.664h-9.045l.177-.664h1.581zm7.062-3.639v2.691h-.278v-1.707l-.041-.191c-.013-.272-.048-.538-.107-.794l.426.001zm-8.545 1.682h.659v1.063h-.659v-1.063zm-6.294-3.262h4.292v.686h-4.292v-.686zm1.853 10.078v-3.074c.375.4.857 1.105 1.148 2.263.075.299.137.628.182.989.033.264.056.545.067.845h-1.397v-1.023zm2.183-.792l-.168.064c-.467-2.211-1.572-3.178-2.015-3.486v-1.156c0-.247-.185-.447-.412-.447-.228 0-.412.2-.412.447v4.683l-.07.001c-.245 0-.35-.044-.495-.106-.121-.051-.262-.11-.467-.143l.002-.026v-6.642h4.292v6.642l.006.072-.261.097z"/><path d="M13.486 106.389c-.4 0-.619.093-.795.167-.145.062-.25.106-.495.106s-.35-.044-.496-.106c-.176-.074-.395-.167-.794-.167-.238 0-.411.033-.55.076.315-.265.417-.512.437-.569.048-.137.031-.292-.045-.413-.077-.121-.204-.194-.339-.194h-5.731c-.136 0-.263.073-.339.194-.076.121-.094.275-.045.413.022.064.152.383.59.689-.115.046-.222.078-.427.078-.228 0-.412.2-.412.447s.185.447.412.447c.4 0 .619-.093.794-.167.146-.062.25-.106.496-.106s.35.044.496.106c.176.075.395.167.795.167s.619-.093.795-.167c.145-.062.25-.106.495-.106s.35.044.495.106c.176.075.395.167.795.167s.619-.093.795-.167c.146-.062.25-.106.496-.106.245 0 .35.044.495.106.176.075.395.167.795.167s.619-.093.795-.167c.146-.062.25-.106.496-.106.228 0 .412-.2.412-.447s-.188-.448-.416-.448zm-7.317-.205h2.747c-.346.083-.794.141-1.374.141s-1.027-.058-1.373-.141z"/></g><g sketch:type="MSShapeGroup" fill="#373D43"><path d="M5.044 6.857h.182c-.028.107-.044.22-.044.337 0 .679.509 1.232 1.135 1.232h7.385c.276 0 .542-.11.75-.309.244-.234.385-.571.385-.924s-.141-.689-.385-.924c-.208-.199-.474-.308-.75-.308h-4.216l.014-.167c0-.304-.121-.595-.332-.796-.179-.171-.408-.266-.646-.266h-3.477c-.54 0-.978.477-.978 1.062s.437 1.063.977 1.063zm0-1.229h3.477l.102.042.053.125-.053.125-.101.042h-.002c-.228 0-.412.2-.412.447s.185.447.412.447h5.182c.096 0 .165.046.205.084.04.038.106.122.106.253 0 .132-.066.215-.106.253-.041.039-.109.085-.205.085h-7.385c-.171 0-.311-.151-.311-.338 0-.186.14-.337.311-.337.228 0 .412-.2.412-.447h.002c0-.247-.184-.447-.412-.447h-1.274c-.085 0-.154-.075-.154-.167-.001-.092.067-.167.153-.167z"/><path d="M29.493 20.582c-.245 0-.351-.044-.496-.106-.177-.075-.396-.167-.795-.167l-.152.005v-5.275c0-.247-.185-.447-.411-.447h-.672v-1.82c0-.247-.184-.447-.41-.447h-1.381v-2.646c0-.494-.369-.895-.824-.895h-.152l-1.096-4.784c-.045-.199-.209-.339-.397-.339s-.354.14-.399.339l-1.097 4.784h-.151c-.455 0-.822.4-.822.895v2.199h-.83c-.568-1.181-1.652-2.023-2.927-2.17v-.979c0-.247-.185-.447-.412-.447s-.412.2-.412.447v.983c-1.809.223-3.231 1.848-3.32 3.848h-.734v-.787c0-.494-.369-.894-.824-.894h-.356v-1.133c0-.247-.184-.447-.412-.447h-5.115c-.228 0-.412.201-.412.447v1.133h-.356c-.455 0-.823.4-.823.894v7.614l.011.14-.124-.049c-.176-.075-.395-.167-.795-.167-.227 0-.412.2-.412.447s.185.447.412.447c.245 0 .35.044.496.106.176.075.395.167.795.167s.619-.093.795-.167c.145-.062.25-.106.495-.106s.35.044.495.106c.176.075.395.167.795.167l.07-.002v1.264c0 .247.185.447.412.447h2.23c.228 0 .412-.2.412-.447l-.002-.041c-.001-.458-.028-.881-.073-1.274l.326-.115c.146-.062.25-.106.496-.106s.35.044.495.106c.176.075.395.167.795.167s.619-.093.795-.167l.188-.07h.613l.189.07c.176.075.395.167.795.167s.619-.093.795-.167l.188-.07h.613l.189.07c.176.075.395.167.795.167.399 0 .619-.093.795-.167l.188-.07h.613l.188.07c.176.075.395.167.795.167s.619-.093.795-.167l.189-.07h.613l.041.012.01.004.139.054c.176.075.395.167.795.167.398 0 .618-.093.795-.167l.035-.015h.919l.036.015c.176.075.395.167.795.167s.619-.093.795-.167c.146-.062.25-.106.496-.106.244 0 .35.044.494.106.177.075.396.167.796.167.399 0 .618-.093.795-.167.146-.062.251-.106.496-.106s.351.044.495.106c.177.075.396.167.796.167.228 0 .411-.2.411-.447-.002-.247-.183-.448-.411-.448zm-13.414-10.005c.967 0 1.825.512 2.358 1.299.095.141.18.29.252.447.067.144.125.293.172.447.052.173.09.353.113.538h-5.792c.201-1.541 1.423-2.731 2.897-2.731zm5.98-1.794l.646-2.822.754 3.299h-1.51l.11-.477zm3.117 6.702h2.051v4.823h-2.051v-4.823zm0-2.267h.969v1.373h-.969v-1.373zm-3.295-2.647h1.646v8.934h-1.646v-8.934zm-1.817 9.773h-.199v-.924c0-.247-.186-.447-.412-.447s-.412.2-.412.447v.924h-.666v-.924c0-.247-.184-.447-.411-.447s-.412.2-.412.447v.924h-.667v-.924c0-.247-.184-.447-.411-.447s-.412.2-.412.447v.924h-.667v-.924c0-.247-.184-.447-.412-.447s-.412.2-.412.447v.924h-.667v-.924c0-.247-.184-.447-.412-.447s-.412.2-.412.447v.924h-.667v-.924c0-.142-.062-.268-.157-.349-.07-.061-.158-.098-.254-.098-.202 0-.37.159-.404.367l-.007.08v.924h-.404v-2.377h9.181v2.377h-.304zm-6.911-6.142h5.888v1.259h-5.888v-1.259zm-.07 2.207h7.287v.664h-9.045l.177-.664h1.581zm7.062-3.639v2.691h-.278v-1.707l-.041-.191c-.013-.272-.048-.538-.107-.794l.426.001zm-8.545 1.682h.659v1.063h-.659v-1.063zm-6.294-3.262h4.292v.686h-4.292v-.686zm1.853 10.078v-3.074c.375.4.857 1.105 1.148 2.263.075.299.137.628.182.989.033.264.056.545.067.845h-1.397v-1.023zm2.183-.792l-.168.064c-.467-2.211-1.572-3.178-2.015-3.486v-1.156c0-.247-.185-.447-.412-.447-.228 0-.412.2-.412.447v4.683l-.07.001c-.245 0-.35-.044-.495-.106-.121-.051-.262-.11-.467-.143l.002-.026v-6.642h4.292v6.642l.006.072-.261.097z"/><path d="M13.486 24.389c-.4 0-.619.093-.795.167-.145.062-.25.106-.495.106s-.35-.044-.496-.106c-.176-.074-.395-.167-.794-.167-.238 0-.411.033-.55.076.315-.265.417-.512.437-.569.048-.137.031-.292-.045-.413-.077-.121-.204-.194-.339-.194h-5.731c-.136 0-.263.073-.339.194-.076.121-.094.275-.045.413.022.064.152.383.59.689-.115.046-.222.078-.427.078-.228 0-.412.2-.412.447s.185.447.412.447c.4 0 .619-.093.794-.167.146-.062.25-.106.496-.106s.35.044.496.106c.176.075.395.167.795.167s.619-.093.795-.167c.145-.062.25-.106.495-.106s.35.044.495.106c.176.075.395.167.795.167s.619-.093.795-.167c.146-.062.25-.106.496-.106.245 0 .35.044.495.106.176.075.395.167.795.167s.619-.093.795-.167c.146-.062.25-.106.496-.106.228 0 .412-.2.412-.447s-.188-.448-.416-.448zm-7.317-.205h2.747c-.346.083-.794.141-1.374.141s-1.027-.058-1.373-.141z"/></g><g sketch:type="MSShapeGroup" fill="#67737B"><path d="M5.044 46.857h.182c-.028.107-.044.22-.044.337 0 .679.509 1.232 1.135 1.232h7.385c.276 0 .542-.11.75-.309.244-.234.385-.571.385-.924s-.141-.689-.385-.924c-.208-.199-.474-.308-.75-.308h-4.216l.014-.167c0-.304-.121-.595-.332-.796-.179-.171-.408-.266-.646-.266h-3.477c-.54 0-.978.477-.978 1.062s.437 1.063.977 1.063zm0-1.229h3.477l.102.042.053.125-.053.125-.101.042h-.002c-.228 0-.412.2-.412.447s.185.447.412.447h5.182c.096 0 .165.046.205.084.04.038.106.122.106.253 0 .132-.066.215-.106.253-.041.039-.109.085-.205.085h-7.385c-.171 0-.311-.151-.311-.338 0-.186.14-.337.311-.337.228 0 .412-.2.412-.447h.002c0-.247-.184-.447-.412-.447h-1.274c-.085 0-.154-.075-.154-.167-.001-.092.067-.167.153-.167z"/><path d="M29.493 60.582c-.245 0-.351-.044-.496-.106-.177-.075-.396-.167-.795-.167l-.152.005v-5.275c0-.247-.185-.447-.411-.447h-.672v-1.82c0-.247-.184-.447-.41-.447h-1.381v-2.646c0-.494-.369-.895-.824-.895h-.152l-1.096-4.784c-.045-.199-.209-.339-.397-.339s-.354.14-.399.339l-1.097 4.784h-.151c-.455 0-.822.4-.822.895v2.199h-.83c-.568-1.181-1.652-2.023-2.927-2.17v-.979c0-.247-.185-.447-.412-.447s-.412.2-.412.447v.983c-1.809.223-3.231 1.848-3.32 3.848h-.734v-.787c0-.494-.369-.894-.824-.894h-.356v-1.133c0-.247-.184-.447-.412-.447h-5.115c-.228 0-.412.201-.412.447v1.133h-.356c-.455 0-.823.4-.823.894v7.614l.011.14-.124-.049c-.176-.075-.395-.167-.795-.167-.227 0-.412.2-.412.447s.185.447.412.447c.245 0 .35.044.496.106.176.075.395.167.795.167s.619-.093.795-.167c.145-.062.25-.106.495-.106s.35.044.495.106c.176.075.395.167.795.167l.07-.002v1.264c0 .247.185.447.412.447h2.23c.228 0 .412-.2.412-.447l-.002-.041c-.001-.458-.028-.881-.073-1.274l.326-.115c.146-.062.25-.106.496-.106s.35.044.495.106c.176.075.395.167.795.167s.619-.093.795-.167l.188-.07h.613l.189.07c.176.075.395.167.795.167s.619-.093.795-.167l.188-.07h.613l.189.07c.176.075.395.167.795.167.399 0 .619-.093.795-.167l.188-.07h.613l.188.07c.176.075.395.167.795.167s.619-.093.795-.167l.189-.07h.613l.041.012.01.004.139.054c.176.075.395.167.795.167.398 0 .618-.093.795-.167l.035-.015h.919l.036.015c.176.075.395.167.795.167s.619-.093.795-.167c.146-.062.25-.106.496-.106.244 0 .35.044.494.106.177.075.396.167.796.167.399 0 .618-.093.795-.167.146-.062.251-.106.496-.106s.351.044.495.106c.177.075.396.167.796.167.228 0 .411-.2.411-.447-.002-.247-.183-.448-.411-.448zm-13.414-10.005c.967 0 1.825.512 2.358 1.299.095.141.18.29.252.447.067.144.125.293.172.447.052.173.09.353.113.538h-5.792c.201-1.541 1.423-2.731 2.897-2.731zm5.98-1.794l.646-2.822.754 3.299h-1.51l.11-.477zm3.117 6.702h2.051v4.823h-2.051v-4.823zm0-2.267h.969v1.373h-.969v-1.373zm-3.295-2.647h1.646v8.934h-1.646v-8.934zm-1.817 9.773h-.199v-.924c0-.247-.186-.447-.412-.447s-.412.2-.412.447v.924h-.666v-.924c0-.247-.184-.447-.411-.447s-.412.2-.412.447v.924h-.667v-.924c0-.247-.184-.447-.411-.447s-.412.2-.412.447v.924h-.667v-.924c0-.247-.184-.447-.412-.447s-.412.2-.412.447v.924h-.667v-.924c0-.247-.184-.447-.412-.447s-.412.2-.412.447v.924h-.667v-.924c0-.142-.062-.268-.157-.349-.07-.061-.158-.098-.254-.098-.202 0-.37.159-.404.367l-.007.08v.924h-.404v-2.377h9.181v2.377h-.304zm-6.911-6.142h5.888v1.259h-5.888v-1.259zm-.07 2.207h7.287v.664h-9.045l.177-.664h1.581zm7.062-3.639v2.691h-.278v-1.707l-.041-.191c-.013-.272-.048-.538-.107-.794l.426.001zm-8.545 1.682h.659v1.063h-.659v-1.063zm-6.294-3.262h4.292v.686h-4.292v-.686zm1.853 10.078v-3.074c.375.4.857 1.105 1.148 2.263.075.299.137.628.182.989.033.264.056.545.067.845h-1.397v-1.023zm2.183-.792l-.168.064c-.467-2.211-1.572-3.178-2.015-3.486v-1.156c0-.247-.185-.447-.412-.447-.228 0-.412.2-.412.447v4.683l-.07.001c-.245 0-.35-.044-.495-.106-.121-.051-.262-.11-.467-.143l.002-.026v-6.642h4.292v6.642l.006.072-.261.097z"/><path d="M13.486 64.389c-.4 0-.619.093-.795.167-.145.062-.25.106-.495.106s-.35-.044-.496-.106c-.176-.074-.395-.167-.794-.167-.238 0-.411.033-.55.076.315-.265.417-.512.437-.569.048-.137.031-.292-.045-.413-.077-.121-.204-.194-.339-.194h-5.731c-.136 0-.263.073-.339.194-.076.121-.094.275-.045.413.022.064.152.383.59.689-.115.046-.222.078-.427.078-.228 0-.412.2-.412.447s.185.447.412.447c.4 0 .619-.093.794-.167.146-.062.25-.106.496-.106s.35.044.496.106c.176.075.395.167.795.167s.619-.093.795-.167c.145-.062.25-.106.495-.106s.35.044.495.106c.176.075.395.167.795.167s.619-.093.795-.167c.146-.062.25-.106.496-.106.245 0 .35.044.495.106.176.075.395.167.795.167s.619-.093.795-.167c.146-.062.25-.106.496-.106.228 0 .412-.2.412-.447s-.188-.448-.416-.448zm-7.317-.205h2.747c-.346.083-.794.141-1.374.141s-1.027-.058-1.373-.141z"/></g><g sketch:type="MSShapeGroup" fill="#206FAC"><path d="M5.044 129.736h.182c-.028.107-.044.222-.044.338 0 .681.509 1.232 1.135 1.232h7.385c.276 0 .542-.109.75-.309.244-.234.385-.57.385-.924s-.141-.689-.385-.924c-.208-.199-.474-.31-.75-.31h-4.216l.014-.167c0-.304-.121-.595-.332-.796-.179-.172-.408-.267-.646-.267h-3.477c-.54 0-.978.478-.978 1.062s.437 1.065.977 1.065zm0-1.227h3.477l.102.041.053.126-.053.126-.101.041h-.002c-.228 0-.412.201-.412.447 0 .247.185.446.412.446h5.182c.096 0 .165.047.205.086.04.037.106.121.106.252 0 .133-.066.216-.106.254-.041.037-.109.084-.205.084h-7.385c-.171 0-.311-.15-.311-.338 0-.186.14-.338.311-.338.228 0 .412-.199.412-.447h.002c0-.245-.184-.446-.412-.446h-1.274c-.085 0-.154-.074-.154-.167s.067-.167.153-.167z"/><path d="M29.493 143.462c-.245 0-.351-.045-.496-.104-.177-.076-.396-.168-.795-.168l-.152.004v-5.273c0-.248-.185-.447-.411-.447h-.672v-1.82c0-.248-.184-.446-.41-.446h-1.381v-2.646c0-.494-.369-.896-.824-.896h-.152l-1.097-4.783c-.045-.198-.209-.34-.397-.34s-.354.142-.399.34l-1.097 4.783h-.151c-.455 0-.822.399-.822.896v2.198h-.83c-.568-1.183-1.652-2.022-2.927-2.17v-.979c0-.246-.185-.447-.412-.447s-.412.201-.412.447v.982c-1.809.223-3.231 1.85-3.32 3.85h-.734v-.787c0-.494-.369-.896-.824-.896h-.356v-1.133c0-.247-.184-.447-.412-.447h-5.115c-.228 0-.412.2-.412.447v1.133h-.356c-.455 0-.823.399-.823.896v7.613l.011.141-.124-.049c-.176-.076-.395-.168-.795-.168-.227 0-.412.199-.412.446s.185.447.412.447c.245 0 .35.045.496.104.176.075.395.168.795.168s.619-.093.795-.168c.145-.061.25-.104.495-.104s.35.045.495.104c.176.075.395.168.795.168l.07-.002v1.264c0 .248.185.447.412.447h2.23c.228 0 .412-.199.412-.447l-.002-.04c-.001-.458-.028-.882-.073-1.273l.326-.114c.146-.062.25-.105.496-.105s.35.045.495.105c.176.074.395.168.795.168s.619-.094.795-.168l.188-.069h.613l.189.069c.176.074.395.168.795.168s.619-.094.795-.168l.188-.069h.613l.189.069c.176.074.395.168.795.168.399 0 .619-.094.795-.168l.188-.069h.613l.188.069c.176.074.395.168.795.168s.619-.094.795-.168l.189-.069h.613l.041.012.01.004.139.054c.176.075.395.168.795.168.398 0 .618-.093.795-.168l.035-.015h.919l.036.015c.176.075.395.168.795.168s.619-.093.795-.168c.146-.061.25-.104.496-.104.244 0 .35.045.494.104.177.075.396.168.796.168.399 0 .618-.093.795-.168.146-.061.251-.104.496-.104s.351.045.495.104c.177.075.396.168.796.168.228 0 .411-.199.411-.446s-.182-.454-.41-.454zm-13.414-10.004c.967 0 1.825.512 2.358 1.299.095.142.18.289.252.446.067.144.125.293.172.447.052.172.09.353.113.537h-5.792c.201-1.539 1.423-2.729 2.897-2.729zm5.98-1.795l.646-2.822.754 3.299h-1.51l.11-.477zm3.117 6.702h2.051v4.822h-2.051v-4.822zm0-2.266h.969v1.373h-.969v-1.373zm-3.295-2.648h1.646v8.935h-1.646v-8.935zm-1.817 9.774h-.199v-.924c0-.247-.186-.447-.412-.447s-.412.2-.412.447v.924h-.666v-.924c0-.247-.184-.447-.411-.447s-.412.2-.412.447v.924h-.667v-.924c0-.247-.184-.447-.411-.447s-.412.2-.412.447v.924h-.667v-.924c0-.247-.184-.447-.412-.447s-.412.2-.412.447v.924h-.667v-.924c0-.247-.184-.447-.412-.447s-.412.2-.412.447v.924h-.667v-.924c0-.143-.062-.268-.157-.35-.07-.061-.158-.098-.254-.098-.202 0-.37.158-.404.366l-.007.08v.924h-.404v-2.377h9.181v2.377l-.304.002zm-6.911-6.142h5.888v1.259h-5.888v-1.259zm-.07 2.207h7.287v.663h-9.045l.177-.663h1.581zm7.062-3.64v2.691h-.278v-1.706l-.041-.19c-.013-.272-.048-.537-.107-.795h.426zm-8.545 1.682h.659v1.062h-.659v-1.062zm-6.294-3.262h4.292v.687h-4.292v-.687zm1.853 10.078v-3.072c.375.398.857 1.104 1.148 2.262.075.299.137.629.182.99.033.264.056.545.067.844h-1.397v-1.024zm2.183-.791l-.168.062c-.467-2.211-1.572-3.178-2.015-3.484v-1.156c0-.248-.185-.447-.412-.447-.228 0-.412.199-.412.447v4.682l-.07.002c-.245 0-.35-.045-.495-.105-.121-.052-.262-.109-.467-.143l.002-.025v-6.643h4.292v6.643l.006.07-.261.097z"/><path d="M13.486 147.27c-.4 0-.619.094-.795.168-.145.062-.25.106-.495.106s-.35-.045-.496-.106c-.176-.074-.395-.168-.794-.168-.238 0-.411.033-.55.075.315-.265.417-.512.437-.567.048-.139.031-.293-.045-.414-.077-.121-.204-.193-.339-.193h-5.731c-.136 0-.263.072-.339.193-.076.121-.094.275-.045.414.022.062.152.383.59.688-.115.046-.222.078-.427.078-.228 0-.412.198-.412.446 0 .246.185.447.412.447.4 0 .619-.094.794-.168.146-.062.25-.105.496-.105s.35.044.496.105c.176.074.395.168.795.168s.619-.094.795-.168c.145-.062.25-.105.495-.105s.35.044.495.105c.176.074.395.168.795.168s.619-.094.795-.168c.146-.062.25-.105.496-.105.245 0 .35.044.495.105.176.074.395.168.795.168s.619-.094.795-.168c.146-.062.25-.105.496-.105.228 0 .412-.2.412-.447s-.188-.447-.416-.447zm-7.317-.206h2.747c-.346.084-.794.142-1.374.142s-1.027-.058-1.373-.142z"/></g></svg>