<svg width="32" height="232" viewBox="0 0 32 232" xmlns="http://www.w3.org/2000/svg" xmlns:sketch="http://www.bohemiancoding.com/sketch/ns"><title>Singapore_Singapore-City</title><desc>Created with Sketch.</desc><g sketch:type="MSPage" fill="none"><g sketch:type="MSLayerGroup"><g fill="#373D43" sketch:type="MSShapeGroup"><path d="M5.183 4.935c.202.181.461.281.73.281h3.276l-.013.152c0 .277.118.542.323.725.174.156.397.242.629.242h3.386c.526 0 .953-.434.953-.967 0-.533-.427-.967-.953-.967h-.177c.028-.098.043-.201.043-.308 0-.618-.496-1.122-1.105-1.122h-6.362c-.268 0-.527.1-.73.28-.238.213-.375.52-.375.841 0 .321.137.628.375.841zm.53-1.071c.039-.036.106-.078.2-.078h6.362c.167 0 .303.138.303.308 0 .17-.136.308-.303.308-.221 0-.401.182-.401.407h-.002c0 .225.179.408.401.408h1.241c.083 0 .15.068.15.152 0 .084-.067.153-.15.153h-3.386l-.099-.038-.052-.114.052-.114.098-.038h.002c.221 0 .401-.182.401-.408 0-.225-.18-.407-.401-.407h-4.217c-.093 0-.16-.042-.2-.077-.066-.06-.103-.142-.103-.23 0-.089.037-.171.103-.23z" id="Fill-1"/><path d="M21.297 19.975c.067.044.142.065.216.065.132 0 .261-.066.338-.188.119-.19.065-.442-.122-.562l-.348-.255c-.173-.141-.425-.112-.564.063-.138.176-.11.432.063.573.135.109.275.212.417.304" id="Fill-2"/><path d="M19.39 17.832l.258.437c.077.12.206.185.337.185.075 0 .15-.022.218-.066.186-.122.238-.375.117-.564l-.227-.385c-.107-.197-.351-.269-.545-.16-.194.108-.265.356-.158.553" id="Fill-3"/><path d="M19.763 9.884c.067.044.143.066.218.066.131 0 .26-.066.337-.186l.14-.209.113-.156c.135-.178.102-.434-.074-.571-.176-.137-.427-.103-.562.076l-.13.179-.16.239c-.121.188-.067.441.118.563" id="Fill-4"/><path d="M27.826 16.842l.128.022c.167 0 .324-.108.38-.278l.143-.484c.058-.217-.069-.44-.283-.498-.214-.058-.434.071-.491.288l-.129.435c-.07.214.043.444.253.516" id="Fill-5"/><path d="M27.428 17.697c-.186-.122-.435-.069-.555.12l-.143.214-.111.152c-.135.179-.101.434.075.571.073.056.158.084.243.084.121 0 .24-.056.319-.16l.127-.174.163-.243c.12-.188.067-.441-.118-.563" id="Fill-6"/><path d="M19.386 15.459c-.045-.22-.258-.362-.474-.316-.217.046-.357.261-.312.481l.115.489c.048.182.21.302.387.302l.105-.014c.214-.059.34-.282.282-.499l-.103-.443" id="Fill-7"/><path d="M27.094 10.142c.073.134.21.21.352.21l.193-.05c.194-.109.265-.356.158-.553l-.258-.437c-.121-.188-.369-.242-.555-.119-.186.123-.238.375-.117.564l.228.385" id="Fill-8"/><path d="M21.743 7.354c-.152.076-.304.163-.45.258-.186.121-.24.373-.121.562.076.121.206.188.338.188.074 0 .149-.021.216-.065l.371-.213c.199-.099.28-.343.183-.545-.098-.202-.338-.285-.537-.186" id="Fill-9"/><path d="M19.364 10.738c-.21-.072-.437.043-.508.256l-.143.483c-.058.217.069.441.283.499l.104.014c.177 0 .339-.12.387-.302l.129-.436c.071-.213-.043-.444-.253-.515" id="Fill-10"/><path d="M28.369 13.382c-.221 0-.401.186-.401.411l-.006.289.005-.289c0-3.234-1.834-5.885-4.136-6.057l.178.017.05.004c.199 0 .372-.151.397-.357.028-.223-.128-.426-.348-.454-.17-.022-.344-.033-.516-.033h-.004c-.222 0-.399.182-.399.407 0 .225.182.407.403.407l.223.008-.223-.008c-2.329 0-4.239 2.538-4.367 5.725l.005-.113c.011-.225-.158-.416-.379-.428-.221-.012-.41.16-.422.385l-.013.498v.012c.004.221.182.398.401.398.222 0 .401-.182.401-.407v-.008l.005-.286-.005.29c0 2.79 1.365 5.144 3.217 5.849l-.077 1.898h-3.14v-2.57c0-.225-.179-.407-.401-.407h-1.166l.15-2.824v-4.5360000000000005l.046-.046 1.056-1.265c.101-.121.124-.291.058-.434-.066-.144-.208-.236-.364-.236h-1.512v-3.1c0-.225-.179-.407-.401-.407-.221 0-.401.182-.401.407v3.1h-.305v-1.782c0-.225-.18-.408-.401-.408-.221 0-.401.182-.401.408v1.782h-7.51v-1.782c0-.225-.18-.408-.401-.408-.222 0-.401.182-.401.408v1.782h-2.609c-.128 0-.249.063-.324.168-.076.105-.097.241-.057.365l.404 1.265c.054.168.208.281.382.281h1.239v4.365l-.311 5.875h-.639c-.443 0-.802.364-.802.814 0 .45.359.814.802.814h22.837c.443 0 .802-.364.802-.814 0-.45-.359-.814-.802-.814h-2.751l-.098-1.452c.076.117.203.183.334.183l.177-.042c.152-.076.304-.164.45-.259.186-.122.24-.374.12-.563-.119-.189-.368-.244-.554-.122l-.37.213c-.085.042-.147.112-.184.192l-.007-.11c1.699-.74 2.954-2.884 3.057-5.446l-.004.108c-.012.225.158.416.379.428l.021.001c.212 0 .389-.168.4-.386l.013-.493v-.008c0-.225-.18-.403-.401-.403zm-10.636-3.346l-.376.451h-12.404l-.144-.451h12.925zm-11.046 5.935l.015-.273v-.031h1.676v.039l-.014.265h-1.677zm.015-2.54h1.676v.304h-1.676v-.304zm0 1.118h1.676v.304h-1.676v-.304zm1.543 3.658h-1.676l.016-.304h1.676l-.016.304zm-1.719.814h1.676l-.017.304h-1.675l.016-.304zm-.059 1.118h1.675l-.016.304h-1.675l.016-.304zm.236-8.833h1.676v.191h-1.676v-.191zm0 1.006h1.676v.304h-1.676v-.304zm1.603 4.776h-1.677l.016-.304h1.677l-.015.285-.001.018zm.875-1.35v-4.438000000000001h1.032v4.365l-.053.998h-1.029l.049-.925zm6.146-1.19h1.676v.304h-1.676v-.304zm1.483 4.776h-1.675l.016-.304h1.676l-.016.304zm-1.483-5.895h1.676v.304h-1.676v-.304zm0 2.268v-.031h1.676v.039l-.014.265h-1.677l.015-.273zm-.058 1.087h1.676l-.016.304h-1.676l.016-.304zm1.3 1.118h.316l-.016.304h-1.676l.016-.304h1.36zm-1.242-5.591h1.676v.304h-1.676v-.304zm0-1.006h1.676v.191h-1.676v-.191zm-.252 9.136l.016-.304h1.675l-.017.304h-1.675zm-2.384-7.826h-1.675v-.304h1.676v.304zm0 1.118h-1.675v-.304h1.675v.304zm0 1.118h-1.675v-.304h1.675v.304zm-.193 4.472h-1.675l.016-.304h1.676l-.016.304zm.059-1.118h-1.676l.016-.304h1.676l-.016.304zm.059-1.118h-1.676l.016-.304h1.676l-.016.304zm-1.602-5.782h1.676v.191h-1.676v-.191zm-.252 9.136l.016-.304h1.675l-.017.304h-1.675zm1.928-4.738l-.015.265h-1.676l.014-.273.001-.022v-.009h1.675v.039zm-1.986 5.834l.015-.282h1.675l-.015.282h-1.675zm2.788-10.24h1.032v3.95h-1.032v-3.95zm1.524 10.24l.015-.282h1.675l-.006.112-.009.17h-1.675zm-8.608-.282h1.675l-.015.282h-1.675l.015-.282zm11.201-1.88h.809v2.163h-.924l.115-2.163zm-8.55-1.366l.028-.534h1.029l-.215 4.062h-1.031l.188-3.529zm4.213 1.852l.202-3.799h1.029l-.29 5.476h-1.03l.089-1.677zm10.19-5.663h.276l.323 4.798c-.153.03-.308.046-.467.046l-.329-.023.196-4.822zm-.1 5.65l-.129-.012v-.002l.129.014zm.871 1.69h-1.07l.036-.888.396.022h.009c.222 0 .401-.183.401-.408 0-.224-.18-.407-.401-.407h-.009l-.223-.008.223.008c.177 0 .351-.016.522-.044l.116 1.726zm.613-2.829l-.334-4.946c-.014-.214-.189-.38-.4-.38h-.808l-.113.018-.098-.018c-.222-.01-.408.165-.418.39l-.203 5.002c-1.422-.693-2.451-2.665-2.451-4.985 0-2.896 1.603-5.252 3.572-5.252 1.97 0 3.573 2.356 3.573 5.252 0 2.249-.967 4.172-2.321 4.918z" id="Fill-11"/><path d="M25.455 8.293l.349.254c.074.06.162.089.25.089.118 0 .234-.052.314-.153.138-.176.11-.432-.063-.572-.135-.11-.276-.212-.418-.304-.187-.121-.435-.066-.554.124-.119.19-.065.442.122.562" id="Fill-12"/><path d="M27.698 11.68l.104.442c.039.192.206.325.392.325l.082-.008c.217-.046.356-.262.311-.482l-.115-.49c-.058-.217-.278-.346-.492-.287-.214.059-.34.282-.283.5" id="Fill-13"/><path d="M27.129 24.172c-.223 0-.317-.05-.458-.128-.184-.1-.412-.223-.837-.223-.424 0-.653.123-.837.223-.141.078-.235.128-.458.128-.223 0-.316-.05-.458-.128-.184-.099-.412-.223-.837-.223-.424 0-.653.123-.837.223-.141.078-.235.128-.458.128-.223 0-.316-.05-.458-.128-.184-.099-.412-.223-.837-.223-.424 0-.653.124-.836.223-.142.078-.235.128-.458.128-.223 0-.316-.05-.458-.128-.184-.099-.412-.223-.837-.223-.424 0-.653.124-.836.223-.141.078-.235.128-.458.128-.223 0-.316-.05-.458-.128-.184-.099-.412-.223-.836-.223s-.653.124-.837.223c-.141.078-.235.128-.458.128-.223 0-.317-.05-.458-.128-.184-.099-.412-.223-.837-.223-.424 0-.653.124-.836.223-.141.078-.235.128-.458.128-.223 0-.316-.05-.457-.128-.184-.099-.412-.223-.836-.223s-.653.124-.837.223c-.141.078-.235.128-.458.128-.223 0-.316-.05-.458-.128-.184-.099-.412-.223-.836-.223s-.653.124-.837.223c-.141.078-.235.128-.458.128-.223 0-.316-.05-.458-.128-.184-.099-.412-.223-.836-.223-.222 0-.401.182-.401.407 0 .225.18.407.401.407.223 0 .316.051.457.128.184.1.412.224.837.224.424 0 .653-.124.836-.224.142-.077.235-.128.458-.128.223 0 .316.051.458.128.184.1.412.224.836.224s.653-.124.836-.224c.141-.077.235-.128.458-.128.223 0 .316.051.457.128.184.1.412.224.836.224s.653-.124.836-.224c.142-.077.235-.128.458-.128.223 0 .316.051.458.128.184.1.412.224.836.224s.653-.124.836-.224c.141-.077.235-.128.458-.128.223 0 .316.051.457.128.184.1.412.224.837.224.424 0 .653-.124.836-.224.141-.077.235-.128.458-.128.223 0 .317.051.458.128.184.1.412.224.836.224s.653-.124.837-.224c.141-.077.235-.128.458-.128.223 0 .316.051.458.128.184.1.412.224.837.224.424 0 .653-.124.836-.224.141-.077.235-.128.458-.128.223 0 .316.051.458.128.184.1.412.224.836.224s.653-.124.837-.224c.142-.077.235-.128.458-.128.223 0 .317.051.459.128.184.1.412.224.836.224.221 0 .401-.182.401-.407 0-.225-.18-.407-.401-.407" id="Fill-14"/><path d="M24.221 25.475c-.192 0-.269-.04-.395-.107-.159-.084-.377-.198-.764-.198-.388 0-.605.115-.765.198-.127.066-.203.107-.396.107-.192 0-.268-.04-.395-.107-.159-.084-.377-.198-.764-.198-.388 0-.605.115-.764.198-.127.066-.203.107-.395.107s-.269-.04-.395-.107c-.159-.084-.377-.198-.765-.198s-.605.115-.764.198c-.126.066-.203.107-.396.107-.221 0-.401.182-.401.407 0 .225.179.407.401.407.388 0 .605-.115.765-.198.126-.067.203-.107.395-.107s.269.04.396.107c.159.083.377.198.764.198.388 0 .605-.115.764-.198.126-.067.203-.107.395-.107s.269.04.395.107c.159.083.377.198.764.198.388 0 .606-.115.765-.198.127-.067.203-.107.396-.107.192 0 .269.04.395.107.159.083.377.198.764.198.222 0 .401-.182.401-.407 0-.225-.179-.407-.401-.407" id="Fill-15"/><path d="M18.407 5.61h2.239c.221 0 .401-.182.401-.407 0-.225-.18-.407-.401-.407h-2.239c-.221 0-.401.182-.401.407 0 .225.18.407.401.407" id="Fill-16"/><path d="M19.295 4.511h3.783c.222 0 .401-.182.401-.407 0-.225-.179-.407-.401-.407h-3.783c-.222 0-.401.182-.401.407 0 .225.179.407.401.407" id="Fill-17"/></g><g id="Singapore-or-Singapore-City-copy" fill="#fff" sketch:type="MSShapeGroup"><path d="M5.191 88.002c.204.187.465.29.735.29h3.3l-.013.158c0 .287.119.56.326.75.175.161.4.25.634.25h3.411c.529 0 .96-.449.96-1.001 0-.552-.43-1-.96-1h-.179c.028-.101.044-.208.044-.318 0-.64-.5-1.16-1.113-1.16h-6.409c-.27 0-.531.103-.735.29-.24.221-.378.538-.378.87 0 .332.138.65.378.87zm.534-1.108c.04-.037.107-.08.201-.08h6.409c.168 0 .305.143.305.318 0 .175-.137.318-.305.318-.223 0-.404.188-.404.421h-.002c0 .233.181.422.404.422h1.25c.084 0 .152.07.152.158 0 .087-.068.158-.152.158h-3.411l-.1-.04-.052-.118.052-.118.099-.039h.002c.223 0 .404-.189.404-.422 0-.233-.181-.421-.404-.421h-4.248c-.094 0-.162-.044-.201-.08-.067-.062-.104-.146-.104-.238s.037-.177.104-.238z" id="Fill-1"/><path d="M21.424 103.561c.067.045.143.067.218.067.133 0 .263-.069.34-.194.12-.196.065-.457-.123-.582l-.351-.264c-.174-.146-.428-.116-.568.065-.139.182-.111.446.063.593.136.113.277.219.42.314" id="Fill-2"/><path d="M19.503 101.343l.26.452c.077.124.207.192.339.192.075 0 .152-.022.22-.068.187-.127.24-.388.118-.583l-.229-.398c-.108-.204-.354-.278-.549-.166-.196.112-.267.369-.16.572" id="Fill-3"/><path d="M19.879 93.121c.068.046.144.068.219.068.132 0 .262-.068.339-.192l.141-.216.114-.162c.136-.185.102-.449-.075-.59-.177-.142-.431-.106-.566.078l-.131.185-.162.247c-.121.195-.068.456.119.583" id="Fill-4"/><path d="M28 100.32l.129.022c.169 0 .326-.111.383-.288l.144-.5c.058-.225-.07-.456-.285-.516-.216-.06-.437.073-.495.298l-.13.45c-.071.221.043.46.255.533" id="Fill-5"/><path d="M27.6 101.204c-.187-.127-.438-.071-.559.124l-.144.221-.112.158c-.136.185-.102.449.075.591.073.058.16.086.245.086.121 0 .241-.058.321-.166l.128-.18.164-.252c.121-.194.068-.456-.119-.583" id="Fill-6"/><path d="M19.498 98.888c-.046-.228-.26-.374-.477-.327-.219.047-.359.27-.314.498l.115.506c.048.188.212.312.39.312l.106-.014c.215-.061.342-.292.285-.516l-.104-.458" id="Fill-7"/><path d="M27.263 93.388c.074.139.212.218.354.218l.194-.052c.196-.113.267-.369.159-.572l-.26-.452c-.122-.194-.372-.25-.559-.123-.187.127-.24.388-.118.583l.229.398" id="Fill-8"/><path d="M21.873 90.504c-.154.079-.306.168-.454.267-.188.125-.242.386-.121.582.077.125.208.194.34.194.075 0 .15-.022.218-.067l.374-.221c.2-.103.283-.355.184-.564-.098-.209-.34-.295-.541-.192" id="Fill-9"/><path d="M19.477 94.005c-.211-.074-.44.045-.512.265l-.144.499c-.058.225.07.456.285.516l.105.014c.179 0 .342-.124.39-.312l.13-.451c.071-.22-.043-.459-.254-.533" id="Fill-10"/><path d="M28.548 96.74c-.223 0-.404.192-.404.425l-.006.299.005-.299c0-3.346-1.848-6.088-4.166-6.266l.179.017.051.004c.201 0 .375-.156.4-.369.028-.231-.129-.441-.351-.47-.171-.023-.346-.034-.52-.034h-.004c-.223 0-.402.189-.402.421 0 .233.183.421.406.421l.224.008-.224-.008c-2.346 0-4.27 2.626-4.399 5.922l.005-.117c.012-.233-.159-.431-.382-.443-.223-.012-.413.166-.425.398l-.013.515v.012c.004.228.183.412.404.412.223 0 .404-.189.404-.421v-.008l.005-.295-.005.3c0 2.886 1.375 5.321 3.241 6.051l-.078 1.963h-3.163v-2.659c0-.233-.181-.421-.404-.421h-1.175l.152-2.922v-4.693l.046-.047 1.064-1.309c.102-.125.125-.301.058-.449-.066-.149-.209-.245-.366-.245h-1.523v-3.207c0-.233-.181-.421-.404-.421-.223 0-.404.189-.404.421v3.207h-.307v-1.844c0-.233-.181-.422-.404-.422-.223 0-.404.189-.404.422v1.844h-7.565v-1.844c0-.233-.181-.422-.404-.422-.223 0-.404.189-.404.422v1.844h-2.629c-.129 0-.25.065-.327.174-.076.108-.098.249-.058.377l.407 1.309c.054.173.21.291.385.291h1.248v4.515l-.313 6.077h-.644c-.446 0-.808.377-.808.842 0 .466.362.842.808.842h23.004c.446 0 .808-.377.808-.842 0-.466-.362-.842-.808-.842h-2.771l-.099-1.502c.076.121.204.19.337.19l.179-.043c.154-.079.306-.169.453-.268.188-.126.242-.387.121-.582-.12-.196-.371-.252-.558-.126l-.373.221c-.085.044-.148.115-.185.199l-.007-.114c1.711-.766 2.975-2.983 3.079-5.634l-.004.112c-.012.233.16.43.382.443l.021.001c.213 0 .392-.174.403-.399l.013-.51v-.008c0-.233-.181-.417-.404-.417zm-10.713-3.462l-.379.466h-12.495l-.145-.466h13.019zm-11.127 6.14l.015-.282v-.033h1.688v.04l-.014.274h-1.689zm.015-2.628h1.688v.314h-1.688v-.314zm0 1.157h1.688v.314h-1.688v-.314zm1.554 3.785h-1.688l.016-.314h1.688l-.016.314zm-1.731.842h1.688l-.017.314h-1.688l.016-.314zm-.06 1.157h1.688l-.016.314h-1.687l.016-.314zm.237-9.137h1.688v.198h-1.688v-.198zm0 1.04h1.688v.314h-1.688v-.314zm1.614 4.941h-1.689l.016-.314h1.689l-.015.295-.001.019zm.881-1.397v-4.590999999999999h1.04v4.515l-.053 1.032h-1.037l.05-.957zm6.191-1.231h1.688v.314h-1.688v-.314zm1.494 4.941h-1.688l.016-.314h1.688l-.016.314zm-1.494-6.098h1.688v.314h-1.688v-.314zm0 2.346v-.033h1.688v.04l-.014.274h-1.689l.015-.282zm-.058 1.125h1.688l-.016.314h-1.688l.016-.314zm1.31 1.157h.319l-.016.314h-1.688l.016-.314h1.37zm-1.252-5.784h1.688v.314h-1.688v-.314zm0-1.04h1.688v.198h-1.688v-.198zm-.254 9.451l.016-.314h1.688l-.017.314h-1.687zm-2.401-8.096h-1.688v-.314h1.688v.315zm0 1.157h-1.688v-.314h1.688v.315zm0 1.157h-1.688v-.314h1.688v.315zm-.194 4.627h-1.688l.016-.314h1.688l-.016.314zm.06-1.157h-1.688l.016-.314h1.688l-.016.314zm.06-1.157h-1.688l.016-.314h1.688l-.016.314zm-1.613-5.981h1.688v.198h-1.688v-.198zm-.254 9.451l.016-.314h1.687l-.017.314h-1.687zm1.942-4.901l-.015.274h-1.688l.014-.282.001-.023v-.01h1.688v.041zm-2 6.036l.015-.292h1.687l-.015.292h-1.687zm2.808-10.593h1.039v4.086h-1.039v-4.086zm1.535 10.593l.015-.292h1.687l-.006.116-.009.176h-1.687zm-8.671-.292h1.687l-.015.292h-1.687l.015-.292zm11.283-1.945h.815v2.237h-.931l.116-2.237zm-8.613-1.413l.029-.552h1.037l-.216 4.202h-1.038l.189-3.65zm4.244 1.916l.204-3.93h1.036l-.292 5.664h-1.038l.09-1.735zm10.264-5.858h.278l.326 4.963c-.154.031-.311.048-.47.048l-.331-.024.198-4.988zm-.101 5.845l-.13-.013v-.002l.13.014zm.878 1.748h-1.077l.036-.919.398.023h.01c.223 0 .404-.189.404-.422 0-.232-.181-.421-.404-.421h-.01l-.225-.008.225.008c.178 0 .353-.017.526-.046l.117 1.785zm.618-2.926l-.337-5.117c-.014-.221-.19-.393-.403-.393h-.813l-.113.019-.099-.019c-.223-.011-.411.171-.421.403l-.205 5.174c-1.433-.717-2.469-2.757-2.469-5.157 0-2.995 1.614-5.433 3.598-5.433 1.985 0 3.599 2.437 3.599 5.433 0 2.327-.974 4.315-2.338 5.088z" id="Fill-11"/><path d="M25.612 91.475l.352.263c.075.062.163.092.252.092.119 0 .236-.054.316-.158.139-.182.111-.447-.063-.592-.136-.114-.278-.219-.421-.314-.188-.125-.438-.068-.558.128-.12.196-.065.457.123.582" id="Fill-12"/><path d="M27.872 94.979l.105.457c.04.199.208.336.395.336l.083-.009c.218-.048.359-.271.313-.498l-.116-.506c-.058-.224-.28-.358-.495-.297-.215.061-.343.292-.285.517" id="Fill-13"/><path d="M27.298 107.902c-.225 0-.319-.052-.462-.132-.185-.103-.415-.231-.843-.231-.427 0-.658.127-.843.231-.142.08-.237.132-.462.132-.225 0-.319-.052-.461-.132-.185-.103-.415-.231-.843-.231-.427 0-.658.127-.843.231-.142.08-.237.132-.461.132-.225 0-.319-.052-.461-.132-.185-.103-.415-.231-.843-.231-.427 0-.658.128-.842.231-.143.08-.237.132-.462.132-.225 0-.319-.052-.461-.132-.185-.103-.415-.231-.843-.231-.427 0-.658.128-.842.231-.142.08-.237.132-.461.132-.225 0-.319-.052-.461-.132-.185-.103-.415-.231-.842-.231s-.658.128-.843.231c-.142.08-.237.132-.461.132-.225 0-.319-.052-.461-.132-.185-.103-.415-.231-.843-.231-.427 0-.658.128-.842.231-.142.08-.237.132-.461.132-.224 0-.318-.052-.461-.132-.185-.103-.415-.231-.842-.231s-.658.128-.843.231c-.142.08-.237.132-.461.132-.225 0-.319-.052-.461-.132-.185-.103-.415-.231-.842-.231s-.658.128-.843.231c-.142.08-.237.132-.461.132-.225 0-.319-.052-.461-.132-.185-.103-.415-.231-.842-.231-.223 0-.404.188-.404.421 0 .233.181.421.404.421.224 0 .318.053.461.132.185.103.415.232.843.232.427 0 .658-.129.842-.232.143-.079.237-.132.462-.132.224 0 .319.053.461.132.185.103.415.232.842.232s.658-.129.842-.232c.142-.079.237-.132.462-.132.225 0 .318.053.461.132.185.103.415.232.842.232s.658-.129.842-.232c.143-.079.237-.132.461-.132.225 0 .319.053.462.132.185.103.415.232.842.232s.658-.129.842-.232c.142-.079.237-.132.462-.132.225 0 .319.053.461.132.185.103.415.232.843.232.427 0 .658-.129.842-.232.142-.079.237-.132.461-.132.225 0 .319.053.462.132.185.103.415.232.842.232s.658-.129.843-.232c.142-.079.237-.132.461-.132.225 0 .319.053.461.132.185.103.415.232.843.232.427 0 .658-.129.842-.232.142-.079.237-.132.462-.132.225 0 .319.053.462.132.185.103.415.232.842.232s.658-.129.843-.232c.143-.079.237-.132.462-.132.225 0 .319.053.462.132.185.103.415.232.842.232.223 0 .404-.188.404-.421 0-.233-.181-.421-.404-.421" id="Fill-14"/><path d="M24.369 109.25c-.193 0-.271-.042-.398-.11-.16-.086-.379-.205-.77-.205-.39 0-.61.119-.77.205-.128.069-.204.11-.398.11-.193 0-.27-.042-.398-.11-.16-.086-.379-.205-.77-.205-.39 0-.61.119-.77.205-.128.069-.205.11-.398.11-.194 0-.271-.042-.398-.11-.16-.086-.379-.205-.77-.205-.39 0-.61.119-.77.205-.127.069-.205.11-.398.11-.223 0-.404.189-.404.421 0 .233.181.421.404.421.391 0 .61-.119.77-.205.127-.069.204-.111.398-.111.194 0 .271.042.398.111.16.086.379.205.77.205.39 0 .61-.119.77-.205.127-.069.204-.111.398-.111.194 0 .271.042.398.111.16.086.38.205.77.205.391 0 .61-.119.77-.205.128-.069.205-.111.398-.111.193 0 .271.042.398.111.16.086.379.205.77.205.223 0 .404-.188.404-.421 0-.233-.181-.421-.404-.421" id="Fill-15"/><path d="M18.513 88.7h2.256c.223 0 .404-.188.404-.421 0-.233-.181-.421-.404-.421h-2.256c-.223 0-.404.189-.404.421 0 .233.181.421.404.421" id="Fill-16"/><path d="M19.407 87.563h3.811c.223 0 .404-.189.404-.421 0-.233-.181-.421-.404-.421h-3.811c-.223 0-.404.189-.404.421 0 .233.181.421.404.421" id="Fill-17"/></g><g fill="#67737B" sketch:type="MSShapeGroup"><path d="M5.191 45.002c.204.187.465.29.735.29h3.3l-.013.158c0 .287.119.56.326.75.175.161.4.25.634.25h3.411c.529 0 .96-.449.96-1.001 0-.552-.43-1-.96-1h-.179c.028-.101.044-.208.044-.318 0-.64-.5-1.16-1.113-1.16h-6.409c-.27 0-.531.103-.735.29-.24.221-.378.538-.378.87 0 .332.138.65.378.87zm.534-1.108c.04-.037.107-.08.201-.08h6.409c.168 0 .305.143.305.318 0 .175-.137.318-.305.318-.223 0-.404.188-.404.421h-.002c0 .233.181.422.404.422h1.25c.084 0 .152.07.152.158 0 .087-.068.158-.152.158h-3.411l-.1-.04-.052-.118.052-.118.099-.039h.002c.223 0 .404-.189.404-.422 0-.233-.181-.421-.404-.421h-4.248c-.094 0-.162-.044-.201-.08-.067-.062-.104-.146-.104-.238s.037-.177.104-.238z" id="Fill-1"/><path d="M21.424 60.561c.067.045.143.067.218.067.133 0 .263-.069.34-.194.12-.196.065-.457-.123-.582l-.351-.264c-.174-.146-.428-.116-.568.065-.139.182-.111.446.063.593.136.113.277.219.42.314" id="Fill-2"/><path d="M19.503 58.343l.26.452c.077.124.207.192.339.192.075 0 .152-.022.22-.068.187-.127.24-.388.118-.583l-.229-.398c-.108-.204-.354-.278-.549-.166-.196.112-.267.369-.16.572" id="Fill-3"/><path d="M19.879 50.121c.068.046.144.068.219.068.132 0 .262-.068.339-.192l.141-.216.114-.162c.136-.185.102-.449-.075-.59-.177-.142-.431-.106-.566.078l-.131.185-.162.247c-.121.195-.068.456.119.583" id="Fill-4"/><path d="M28 57.32l.129.022c.169 0 .326-.111.383-.288l.144-.5c.058-.225-.07-.456-.285-.516-.216-.06-.437.073-.495.298l-.13.45c-.071.221.043.46.255.533" id="Fill-5"/><path d="M27.6 58.204c-.187-.127-.438-.071-.559.124l-.144.221-.112.158c-.136.185-.102.449.075.591.073.058.16.086.245.086.121 0 .241-.058.321-.166l.128-.18.164-.252c.121-.194.068-.456-.119-.583" id="Fill-6"/><path d="M19.498 55.888c-.046-.228-.26-.374-.477-.327-.219.047-.359.27-.314.498l.115.506c.048.188.212.312.39.312l.106-.014c.215-.061.342-.292.285-.516l-.104-.458" id="Fill-7"/><path d="M27.263 50.388c.074.139.212.218.354.218l.194-.052c.196-.113.267-.369.159-.572l-.26-.452c-.122-.194-.372-.25-.559-.123-.187.127-.24.388-.118.583l.229.398" id="Fill-8"/><path d="M21.873 47.504c-.154.079-.306.168-.454.267-.188.125-.242.386-.121.582.077.125.208.194.34.194.075 0 .15-.022.218-.067l.374-.221c.2-.103.283-.355.184-.564-.098-.209-.34-.295-.541-.192" id="Fill-9"/><path d="M19.477 51.005c-.211-.074-.44.045-.512.265l-.144.499c-.058.225.07.456.285.516l.105.014c.179 0 .342-.124.39-.312l.13-.451c.071-.22-.043-.459-.254-.533" id="Fill-10"/><path d="M28.548 53.74c-.223 0-.404.192-.404.425l-.006.299.005-.299c0-3.346-1.848-6.088-4.166-6.266l.179.017.051.004c.201 0 .375-.156.4-.369.028-.231-.129-.441-.351-.47-.171-.023-.346-.034-.52-.034h-.004c-.223 0-.402.189-.402.421 0 .233.183.421.406.421l.224.008-.224-.008c-2.346 0-4.27 2.626-4.399 5.922l.005-.117c.012-.233-.159-.431-.382-.443-.223-.012-.413.166-.425.398l-.013.515v.012c.004.228.183.412.404.412.223 0 .404-.189.404-.421v-.008l.005-.295-.005.3c0 2.886 1.375 5.321 3.241 6.051l-.078 1.963h-3.163v-2.659c0-.233-.181-.421-.404-.421h-1.175l.152-2.922v-4.693l.046-.047 1.064-1.309c.102-.125.125-.301.058-.449-.066-.149-.209-.245-.366-.245h-1.523v-3.207c0-.233-.181-.421-.404-.421-.223 0-.404.189-.404.421v3.207h-.307v-1.844c0-.233-.181-.422-.404-.422-.223 0-.404.189-.404.422v1.844h-7.565v-1.844c0-.233-.181-.422-.404-.422-.223 0-.404.189-.404.422v1.844h-2.629c-.129 0-.25.065-.327.174-.076.108-.098.249-.058.377l.407 1.309c.054.173.21.291.385.291h1.248v4.515l-.313 6.077h-.644c-.446 0-.808.377-.808.842 0 .466.362.842.808.842h23.004c.446 0 .808-.377.808-.842 0-.466-.362-.842-.808-.842h-2.771l-.099-1.502c.076.121.204.19.337.19l.179-.043c.154-.079.306-.169.453-.268.188-.126.242-.387.121-.582-.12-.196-.371-.252-.558-.126l-.373.221c-.085.044-.148.115-.185.199l-.007-.114c1.711-.766 2.975-2.983 3.079-5.634l-.004.112c-.012.233.16.43.382.443l.021.001c.213 0 .392-.174.403-.399l.013-.51v-.008c0-.233-.181-.417-.404-.417zm-10.713-3.462l-.379.466h-12.495l-.145-.466h13.019zm-11.127 6.14l.015-.282v-.033h1.688v.04l-.014.274h-1.689zm.015-2.628h1.688v.314h-1.688v-.314zm0 1.157h1.688v.314h-1.688v-.314zm1.554 3.785h-1.688l.016-.314h1.688l-.016.314zm-1.731.842h1.688l-.017.314h-1.688l.016-.314zm-.06 1.157h1.688l-.016.314h-1.687l.016-.314zm.237-9.137h1.688v.198h-1.688v-.198zm0 1.04h1.688v.314h-1.688v-.314zm1.614 4.941h-1.689l.016-.314h1.689l-.015.295-.001.019zm.881-1.397v-4.590999999999999h1.04v4.515l-.053 1.032h-1.037l.05-.957zm6.191-1.231h1.688v.314h-1.688v-.314zm1.494 4.941h-1.688l.016-.314h1.688l-.016.314zm-1.494-6.098h1.688v.314h-1.688v-.314zm0 2.346v-.033h1.688v.04l-.014.274h-1.689l.015-.282zm-.058 1.125h1.688l-.016.314h-1.688l.016-.314zm1.31 1.157h.319l-.016.314h-1.688l.016-.314h1.37zm-1.252-5.784h1.688v.314h-1.688v-.314zm0-1.04h1.688v.198h-1.688v-.198zm-.254 9.451l.016-.314h1.688l-.017.314h-1.687zm-2.401-8.096h-1.688v-.314h1.688v.315zm0 1.157h-1.688v-.314h1.688v.315zm0 1.157h-1.688v-.314h1.688v.315zm-.194 4.627h-1.688l.016-.314h1.688l-.016.314zm.06-1.157h-1.688l.016-.314h1.688l-.016.314zm.06-1.157h-1.688l.016-.314h1.688l-.016.314zm-1.613-5.981h1.688v.198h-1.688v-.198zm-.254 9.451l.016-.314h1.687l-.017.314h-1.687zm1.942-4.901l-.015.274h-1.688l.014-.282.001-.023v-.01h1.688v.041zm-2 6.036l.015-.292h1.687l-.015.292h-1.687zm2.808-10.593h1.039v4.086h-1.039v-4.086zm1.535 10.593l.015-.292h1.687l-.006.116-.009.176h-1.687zm-8.671-.292h1.687l-.015.292h-1.687l.015-.292zm11.283-1.945h.815v2.237h-.931l.116-2.237zm-8.613-1.413l.029-.552h1.037l-.216 4.202h-1.038l.189-3.65zm4.244 1.916l.204-3.93h1.036l-.292 5.664h-1.038l.09-1.735zm10.264-5.858h.278l.326 4.963c-.154.031-.311.048-.47.048l-.331-.024.198-4.988zm-.101 5.845l-.13-.013v-.002l.13.014zm.878 1.748h-1.077l.036-.919.398.023h.01c.223 0 .404-.189.404-.422 0-.232-.181-.421-.404-.421h-.01l-.225-.008.225.008c.178 0 .353-.017.526-.046l.117 1.785zm.618-2.926l-.337-5.117c-.014-.221-.19-.393-.403-.393h-.813l-.113.019-.099-.019c-.223-.011-.411.171-.421.403l-.205 5.174c-1.433-.717-2.469-2.757-2.469-5.157 0-2.995 1.614-5.433 3.598-5.433 1.985 0 3.599 2.437 3.599 5.433 0 2.327-.974 4.315-2.338 5.088z" id="Fill-11"/><path d="M25.612 48.475l.352.263c.075.062.163.092.252.092.119 0 .236-.054.316-.158.139-.182.111-.447-.063-.592-.136-.114-.278-.219-.421-.314-.188-.125-.438-.068-.558.128-.12.196-.065.457.123.582" id="Fill-12"/><path d="M27.872 51.979l.105.457c.04.199.208.336.395.336l.083-.009c.218-.048.359-.271.313-.498l-.116-.506c-.058-.224-.28-.358-.495-.297-.215.061-.343.292-.285.517" id="Fill-13"/><path d="M27.298 64.902c-.225 0-.319-.052-.462-.132-.185-.103-.415-.231-.843-.231-.427 0-.658.127-.843.231-.142.08-.237.132-.462.132-.225 0-.319-.052-.461-.132-.185-.103-.415-.231-.843-.231-.427 0-.658.127-.843.231-.142.08-.237.132-.461.132-.225 0-.319-.052-.461-.132-.185-.103-.415-.231-.843-.231-.427 0-.658.128-.842.231-.143.08-.237.132-.462.132-.225 0-.319-.052-.461-.132-.185-.103-.415-.231-.843-.231-.427 0-.658.128-.842.231-.142.08-.237.132-.461.132-.225 0-.319-.052-.461-.132-.185-.103-.415-.231-.842-.231s-.658.128-.843.231c-.142.08-.237.132-.461.132-.225 0-.319-.052-.461-.132-.185-.103-.415-.231-.843-.231-.427 0-.658.128-.842.231-.142.08-.237.132-.461.132-.224 0-.318-.052-.461-.132-.185-.103-.415-.231-.842-.231s-.658.128-.843.231c-.142.08-.237.132-.461.132-.225 0-.319-.052-.461-.132-.185-.103-.415-.231-.842-.231s-.658.128-.843.231c-.142.08-.237.132-.461.132-.225 0-.319-.052-.461-.132-.185-.103-.415-.231-.842-.231-.223 0-.404.188-.404.421 0 .233.181.421.404.421.224 0 .318.053.461.132.185.103.415.232.843.232.427 0 .658-.129.842-.232.143-.079.237-.132.462-.132.224 0 .319.053.461.132.185.103.415.232.842.232s.658-.129.842-.232c.142-.079.237-.132.462-.132.225 0 .318.053.461.132.185.103.415.232.842.232s.658-.129.842-.232c.143-.079.237-.132.461-.132.225 0 .319.053.462.132.185.103.415.232.842.232s.658-.129.842-.232c.142-.079.237-.132.462-.132.225 0 .319.053.461.132.185.103.415.232.843.232.427 0 .658-.129.842-.232.142-.079.237-.132.461-.132.225 0 .319.053.462.132.185.103.415.232.842.232s.658-.129.843-.232c.142-.079.237-.132.461-.132.225 0 .319.053.461.132.185.103.415.232.843.232.427 0 .658-.129.842-.232.142-.079.237-.132.462-.132.225 0 .319.053.462.132.185.103.415.232.842.232s.658-.129.843-.232c.143-.079.237-.132.462-.132.225 0 .319.053.462.132.185.103.415.232.842.232.223 0 .404-.188.404-.421 0-.233-.181-.421-.404-.421" id="Fill-14"/><path d="M24.369 66.25c-.193 0-.271-.042-.398-.11-.16-.086-.379-.205-.77-.205-.39 0-.61.119-.77.205-.128.069-.204.11-.398.11-.193 0-.27-.042-.398-.11-.16-.086-.379-.205-.77-.205-.39 0-.61.119-.77.205-.128.069-.205.11-.398.11-.194 0-.271-.042-.398-.11-.16-.086-.379-.205-.77-.205-.39 0-.61.119-.77.205-.127.069-.205.11-.398.11-.223 0-.404.189-.404.421 0 .233.181.421.404.421.391 0 .61-.119.77-.205.127-.069.204-.111.398-.111.194 0 .271.042.398.111.16.086.379.205.77.205.39 0 .61-.119.77-.205.127-.069.204-.111.398-.111.194 0 .271.042.398.111.16.086.38.205.77.205.391 0 .61-.119.77-.205.128-.069.205-.111.398-.111.193 0 .271.042.398.111.16.086.379.205.77.205.223 0 .404-.188.404-.421 0-.233-.181-.421-.404-.421" id="Fill-15"/><path d="M18.513 45.7h2.256c.223 0 .404-.188.404-.421 0-.233-.181-.421-.404-.421h-2.256c-.223 0-.404.189-.404.421 0 .233.181.421.404.421" id="Fill-16"/><path d="M19.407 44.563h3.811c.223 0 .404-.189.404-.421 0-.233-.181-.421-.404-.421h-3.811c-.223 0-.404.189-.404.421 0 .233.181.421.404.421" id="Fill-17"/></g><g fill="#206FAC" sketch:type="MSShapeGroup"><path d="M5.191 128.002c.204.187.465.29.735.29h3.3l-.013.158c0 .287.119.56.326.75.175.161.4.25.634.25h3.411c.529 0 .96-.449.96-1.001 0-.552-.43-1-.96-1h-.179c.028-.101.044-.208.044-.318 0-.64-.5-1.16-1.113-1.16h-6.409c-.27 0-.531.103-.735.29-.24.221-.378.538-.378.87 0 .332.138.65.378.87zm.534-1.108c.04-.037.107-.08.201-.08h6.409c.168 0 .305.143.305.318 0 .175-.137.318-.305.318-.223 0-.404.188-.404.421h-.002c0 .233.181.422.404.422h1.25c.084 0 .152.07.152.158 0 .087-.068.158-.152.158h-3.411l-.1-.04-.052-.118.052-.118.099-.039h.002c.223 0 .404-.189.404-.422 0-.233-.181-.421-.404-.421h-4.248c-.094 0-.162-.044-.201-.08-.067-.062-.104-.146-.104-.238s.037-.177.104-.238z"/><path d="M21.424 143.561c.067.045.143.067.218.067.133 0 .263-.069.34-.194.12-.196.065-.457-.123-.582l-.351-.264c-.174-.146-.428-.116-.568.065-.139.182-.111.446.063.593.136.113.277.219.42.314"/><path d="M19.503 141.343l.26.452c.077.124.207.192.339.192.075 0 .152-.022.22-.068.187-.127.24-.388.118-.583l-.229-.398c-.108-.204-.354-.278-.549-.166-.196.112-.267.369-.16.572"/><path d="M19.879 133.121c.068.046.144.068.219.068.132 0 .262-.068.339-.192l.141-.216.114-.162c.136-.185.102-.449-.075-.59-.177-.142-.431-.106-.566.078l-.131.185-.162.247c-.121.195-.068.456.119.583"/><path d="M28 140.32l.129.022c.169 0 .326-.111.383-.288l.144-.5c.058-.225-.07-.456-.285-.516-.216-.06-.437.073-.495.298l-.13.45c-.071.221.043.46.255.533"/><path d="M27.6 141.204c-.187-.127-.438-.071-.559.124l-.144.221-.112.158c-.136.185-.102.449.075.591.073.058.16.086.245.086.121 0 .241-.058.321-.166l.128-.18.164-.252c.121-.194.068-.456-.119-.583"/><path d="M19.498 138.888c-.046-.228-.26-.374-.477-.327-.219.047-.359.27-.314.498l.115.506c.048.188.212.312.39.312l.106-.014c.215-.061.342-.292.285-.516l-.104-.458"/><path d="M27.263 133.388c.074.139.212.218.354.218l.194-.052c.196-.113.267-.369.159-.572l-.26-.452c-.122-.194-.372-.25-.559-.123-.187.127-.24.388-.118.583l.229.398"/><path d="M21.873 130.504c-.154.079-.306.168-.454.267-.188.125-.242.386-.121.582.077.125.208.194.34.194.075 0 .15-.022.218-.067l.374-.221c.2-.103.283-.355.184-.564-.098-.209-.34-.295-.541-.192"/><path d="M19.477 134.005c-.211-.074-.44.045-.512.265l-.144.499c-.058.225.07.456.285.516l.105.014c.179 0 .342-.124.39-.312l.13-.451c.071-.22-.043-.459-.254-.533"/><path d="M28.548 136.74c-.223 0-.404.192-.404.425l-.006.299.005-.299c0-3.346-1.848-6.088-4.166-6.266l.179.017.051.004c.201 0 .375-.156.4-.369.028-.231-.129-.441-.351-.47-.171-.023-.346-.034-.52-.034h-.004c-.223 0-.402.189-.402.421 0 .233.183.421.406.421l.224.008-.224-.008c-2.346 0-4.27 2.626-4.399 5.922l.005-.117c.012-.233-.159-.431-.382-.443-.223-.012-.413.166-.425.398l-.013.515v.012c.004.228.183.412.404.412.223 0 .404-.189.404-.421v-.008l.005-.295-.005.3c0 2.886 1.375 5.321 3.241 6.051l-.078 1.963h-3.163v-2.659c0-.233-.181-.421-.404-.421h-1.175l.152-2.922v-4.693l.046-.047 1.064-1.309c.102-.125.125-.301.058-.449-.066-.149-.209-.245-.366-.245h-1.523v-3.207c0-.233-.181-.421-.404-.421-.223 0-.404.189-.404.421v3.207h-.307v-1.844c0-.233-.181-.422-.404-.422-.223 0-.404.189-.404.422v1.844h-7.565v-1.844c0-.233-.181-.422-.404-.422-.223 0-.404.189-.404.422v1.844h-2.629c-.129 0-.25.065-.327.174-.076.108-.098.249-.058.377l.407 1.309c.054.173.21.291.385.291h1.248v4.515l-.313 6.077h-.644c-.446 0-.808.377-.808.842 0 .466.362.842.808.842h23.004c.446 0 .808-.377.808-.842 0-.466-.362-.842-.808-.842h-2.771l-.099-1.502c.076.121.204.19.337.19l.179-.043c.154-.079.306-.169.453-.268.188-.126.242-.387.121-.582-.12-.196-.371-.252-.558-.126l-.373.221c-.085.044-.148.115-.185.199l-.007-.114c1.711-.766 2.975-2.983 3.079-5.634l-.004.112c-.012.233.16.43.382.443l.021.001c.213 0 .392-.174.403-.399l.013-.51v-.008c0-.233-.181-.417-.404-.417zm-10.713-3.462l-.379.466h-12.495l-.145-.466h13.019zm-11.127 6.14l.015-.282v-.033h1.688v.04l-.014.274h-1.689zm.015-2.628h1.688v.314h-1.688v-.314zm0 1.157h1.688v.314h-1.688v-.314zm1.554 3.785h-1.688l.016-.314h1.688l-.016.314zm-1.731.842h1.688l-.017.314h-1.688l.016-.314zm-.06 1.157h1.688l-.016.314h-1.687l.016-.314zm.237-9.137h1.688v.198h-1.688v-.198zm0 1.04h1.688v.314h-1.688v-.314zm1.614 4.941h-1.689l.016-.314h1.689l-.015.295-.001.019zm.881-1.397v-4.590999999999999h1.04v4.515l-.053 1.032h-1.037l.05-.957zm6.191-1.231h1.688v.314h-1.688v-.314zm1.494 4.941h-1.688l.016-.314h1.688l-.016.314zm-1.494-6.098h1.688v.314h-1.688v-.314zm0 2.346v-.033h1.688v.04l-.014.274h-1.689l.015-.282zm-.058 1.125h1.688l-.016.314h-1.688l.016-.314zm1.31 1.157h.319l-.016.314h-1.688l.016-.314h1.37zm-1.252-5.784h1.688v.314h-1.688v-.314zm0-1.04h1.688v.198h-1.688v-.198zm-.254 9.451l.016-.314h1.688l-.017.314h-1.687zm-2.401-8.096h-1.688v-.314h1.688v.315zm0 1.157h-1.688v-.314h1.688v.315zm0 1.157h-1.688v-.314h1.688v.315zm-.194 4.627h-1.688l.016-.314h1.688l-.016.314zm.06-1.157h-1.688l.016-.314h1.688l-.016.314zm.06-1.157h-1.688l.016-.314h1.688l-.016.314zm-1.613-5.981h1.688v.198h-1.688v-.198zm-.254 9.451l.016-.314h1.687l-.017.314h-1.687zm1.942-4.901l-.015.274h-1.688l.014-.282.001-.023v-.01h1.688v.041zm-2 6.036l.015-.292h1.687l-.015.292h-1.687zm2.808-10.593h1.039v4.086h-1.039v-4.086zm1.535 10.593l.015-.292h1.687l-.006.116-.009.176h-1.687zm-8.671-.292h1.687l-.015.292h-1.687l.015-.292zm11.283-1.945h.815v2.237h-.931l.116-2.237zm-8.613-1.413l.029-.552h1.037l-.216 4.202h-1.038l.189-3.65zm4.244 1.916l.204-3.93h1.036l-.292 5.664h-1.038l.09-1.735zm10.264-5.858h.278l.326 4.963c-.154.031-.311.048-.47.048l-.331-.024.198-4.988zm-.101 5.845l-.13-.013v-.002l.13.014zm.878 1.748h-1.077l.036-.919.398.023h.01c.223 0 .404-.189.404-.422 0-.232-.181-.421-.404-.421h-.01l-.225-.008.225.008c.178 0 .353-.017.526-.046l.117 1.785zm.618-2.926l-.337-5.117c-.014-.221-.19-.393-.403-.393h-.813l-.113.019-.099-.019c-.223-.011-.411.171-.421.403l-.205 5.174c-1.433-.717-2.469-2.757-2.469-5.157 0-2.995 1.614-5.433 3.598-5.433 1.985 0 3.599 2.437 3.599 5.433 0 2.327-.974 4.315-2.338 5.088z"/><path d="M25.612 131.475l.352.263c.075.062.163.092.252.092.119 0 .236-.054.316-.158.139-.182.111-.447-.063-.592-.136-.114-.278-.219-.421-.314-.188-.125-.438-.068-.558.128-.12.196-.065.457.123.582"/><path d="M27.872 134.979l.105.457c.04.199.208.336.395.336l.083-.009c.218-.048.359-.271.313-.498l-.116-.506c-.058-.224-.28-.358-.495-.297-.215.061-.343.292-.285.517"/><path d="M27.298 147.902c-.225 0-.319-.052-.462-.132-.185-.103-.415-.231-.843-.231-.427 0-.658.127-.843.231-.142.08-.237.132-.462.132-.225 0-.319-.052-.461-.132-.185-.103-.415-.231-.843-.231-.427 0-.658.127-.843.231-.142.08-.237.132-.461.132-.225 0-.319-.052-.461-.132-.185-.103-.415-.231-.843-.231-.427 0-.658.128-.842.231-.143.08-.237.132-.462.132-.225 0-.319-.052-.461-.132-.185-.103-.415-.231-.843-.231-.427 0-.658.128-.842.231-.142.08-.237.132-.461.132-.225 0-.319-.052-.461-.132-.185-.103-.415-.231-.842-.231s-.658.128-.843.231c-.142.08-.237.132-.461.132-.225 0-.319-.052-.461-.132-.185-.103-.415-.231-.843-.231-.427 0-.658.128-.842.231-.142.08-.237.132-.461.132-.224 0-.318-.052-.461-.132-.185-.103-.415-.231-.842-.231s-.658.128-.843.231c-.142.08-.237.132-.461.132-.225 0-.319-.052-.461-.132-.185-.103-.415-.231-.842-.231s-.658.128-.843.231c-.142.08-.237.132-.461.132-.225 0-.319-.052-.461-.132-.185-.103-.415-.231-.842-.231-.223 0-.404.188-.404.421 0 .233.181.421.404.421.224 0 .318.053.461.132.185.103.415.232.843.232.427 0 .658-.129.842-.232.143-.079.237-.132.462-.132.224 0 .319.053.461.132.185.103.415.232.842.232s.658-.129.842-.232c.142-.079.237-.132.462-.132.225 0 .318.053.461.132.185.103.415.232.842.232s.658-.129.842-.232c.143-.079.237-.132.461-.132.225 0 .319.053.462.132.185.103.415.232.842.232s.658-.129.842-.232c.142-.079.237-.132.462-.132.225 0 .319.053.461.132.185.103.415.232.843.232.427 0 .658-.129.842-.232.142-.079.237-.132.461-.132.225 0 .319.053.462.132.185.103.415.232.842.232s.658-.129.843-.232c.142-.079.237-.132.461-.132.225 0 .319.053.461.132.185.103.415.232.843.232.427 0 .658-.129.842-.232.142-.079.237-.132.462-.132.225 0 .319.053.462.132.185.103.415.232.842.232s.658-.129.843-.232c.143-.079.237-.132.462-.132.225 0 .319.053.462.132.185.103.415.232.842.232.223 0 .404-.188.404-.421 0-.233-.181-.421-.404-.421"/><path d="M24.369 149.25c-.193 0-.271-.042-.398-.11-.16-.086-.379-.205-.77-.205-.39 0-.61.119-.77.205-.128.069-.204.11-.398.11-.193 0-.27-.042-.398-.11-.16-.086-.379-.205-.77-.205-.39 0-.61.119-.77.205-.128.069-.205.11-.398.11-.194 0-.271-.042-.398-.11-.16-.086-.379-.205-.77-.205-.39 0-.61.119-.77.205-.127.069-.205.11-.398.11-.223 0-.404.189-.404.421 0 .233.181.421.404.421.391 0 .61-.119.77-.205.127-.069.204-.111.398-.111.194 0 .271.042.398.111.16.086.379.205.77.205.39 0 .61-.119.77-.205.127-.069.204-.111.398-.111.194 0 .271.042.398.111.16.086.38.205.77.205.391 0 .61-.119.77-.205.128-.069.205-.111.398-.111.193 0 .271.042.398.111.16.086.379.205.77.205.223 0 .404-.188.404-.421 0-.233-.181-.421-.404-.421"/><path d="M18.513 128.7h2.256c.223 0 .404-.188.404-.421 0-.233-.181-.421-.404-.421h-2.256c-.223 0-.404.189-.404.421 0 .233.181.421.404.421"/><path d="M19.407 127.563h3.811c.223 0 .404-.189.404-.421 0-.233-.181-.421-.404-.421h-3.811c-.223 0-.404.189-.404.421 0 .233.181.421.404.421"/></g></g></g></svg>