<svg xmlns:sketch="http://www.bohemiancoding.com/sketch/ns" xmlns="http://www.w3.org/2000/svg" width="32" height="232" viewBox="0 0 32 232"><title>switzerland</title><desc>Created with Sketch.</desc><g sketch:type="MSShapeGroup" fill="#fff"><path d="M25.979 104.537c-.207 0-.293-.034-.422-.086-.16-.065-.361-.146-.729-.146s-.568.081-.729.146c-.129.052-.215.086-.423.086s-.294-.034-.422-.086c-.161-.065-.362-.146-.729-.146-.366 0-.566.081-.729.146-.129.052-.214.086-.422.086-.209 0-.294-.034-.422-.086-.162-.065-.362-.146-.73-.146-.367 0-.565.081-.729.146-.129.052-.213.086-.422.086s-.293-.034-.422-.086c-.162-.065-.361-.146-.729-.146s-.567.081-.729.146c-.129.052-.213.086-.422.086-.207 0-.292-.034-.421-.086-.161-.065-.362-.146-.729-.146s-.568.081-.729.146c-.128.052-.213.086-.422.086-.208 0-.293-.034-.422-.086-.161-.065-.362-.146-.729-.146s-.568.081-.729.146c-.128.052-.213.086-.422.086-.208 0-.293-.034-.422-.086-.161-.065-.362-.146-.729-.146s-.568.081-.729.146c-.129.052-.214.086-.422.086-.233 0-.422.196-.422.438s.189.438.422.438c.367 0 .568-.081.729-.146.129-.052.214-.086.422-.086s.293.035.422.086c.161.065.361.146.729.146s.568-.081.729-.146c.129-.052.214-.086.422-.086s.293.035.422.086c.161.065.362.146.729.146s.568-.081.729-.146c.129-.052.214-.086.422-.086s.293.035.422.086c.161.065.362.146.729.146s.568-.081.729-.146c.129-.052.214-.086.423-.086.207 0 .293.035.422.086.16.065.361.146.729.146s.567-.081.729-.146c.13-.052.216-.086.423-.086.209 0 .293.035.422.087.162.065.362.146.729.146s.567-.081.729-.146c.129-.052.213-.086.422-.086s.293.035.422.086c.162.065.361.146.729.146s.567-.081.729-.146c.129-.052.213-.086.422-.086.208 0 .293.035.422.086.161.065.36.146.729.146.232 0 .422-.196.422-.438-.002-.244-.19-.439-.423-.439"/><path d="M28.736 97.123l-.883-.66c-.158-.119-.375-.109-.523.025l-1.33 1.202-.1.09-.363-.05-.797-.111-.594-.485c-.105-.085-.244-.115-.373-.078l-1.25.356-.693-.898-.062-.072-2.858-2.962-1.479-1.763-1.491-3.727c-.066-.166-.18-.307-.327-.403l-1.485-.981c-.26-.171-.589-.182-.859-.028s-.438.448-.438.767v.792l-.736.873c-.09.106-.154.234-.186.373l-.054.234c-.201-.364-.578-.61-1.01-.61h-6.696c-.283 0-.556.107-.769.302-.25.229-.395.559-.395.904s.144.675.395.904c.213.195.485.302.768.302h3.448l-.014.164c0 .298.124.582.34.78.184.168.419.26.663.26h2.575l-.312 1.35-1.309.792c-.259.157-.419.445-.419.756v1.646h-.236c-.244 0-.475.109-.635.299l-.117.138-1.353-.276-.191.007-.843.236-.968-.487c-.209-.106-.462-.015-.564.203-.102.217-.014.479.195.585l1.11.559c.092.046.196.057.294.029l.901-.253.777.159-.188.221-.124.192-1.583 3.362c-.082.174-.102.363-.071.54l-.262.029c-.208 0-.293-.034-.422-.086-.161-.065-.362-.146-.729-.146-.233 0-.422.196-.422.438s.189.438.422.438c.208 0 .293.035.421.087.162.065.362.146.729.146.368 0 .568-.081.729-.146l.172-.061.189.022.239-.037.243.075c.161.065.361.146.729.146.367 0 .567-.081.729-.146.129-.052.214-.087.422-.087s.293.035.422.087c.161.065.362.146.729.146s.568-.081.729-.146c.128-.052.214-.087.422-.087s.293.035.422.087c.161.065.361.146.729.146s.568-.081.729-.146c.129-.052.214-.087.422-.087s.293.035.422.087c.161.065.362.146.729.146s.568-.081.729-.146c.129-.052.214-.087.422-.087s.293.035.422.087c.161.065.362.146.729.146s.568-.081.729-.146c.129-.052.214-.087.423-.087.207 0 .293.035.422.087.16.065.361.146.729.146s.567-.081.729-.146c.13-.052.216-.087.423-.087.209 0 .293.035.422.087.162.065.362.146.729.146s.567-.081.729-.146c.129-.052.213-.087.422-.087s.293.035.422.087c.162.065.361.146.729.146s.567-.081.729-.146c.129-.052.213-.087.422-.087.208 0 .293.035.422.087.161.065.36.146.729.146.367 0 .567-.081.729-.146.129-.052.214-.087.423-.087.208 0 .293.035.422.087.162.065.362.146.729.146.232 0 .423-.196.423-.438s-.188-.438-.423-.438c-.208 0-.295-.034-.424-.086-.16-.065-.36-.146-.729-.146l-.254.015c-.006-.163-.057-.327-.152-.47l-.676-.996-.072-.093-1.621-1.805-.084-.081-1.078-.916.599-.171.521.423c.059.048.129.079.203.089l1.463.203.057.004c.102 0 .199-.038.277-.107l1.32-1.194.61.457c.188.141.452.098.589-.099.135-.199.093-.473-.096-.614zm-20.311-5.542l.055-.123.104-.041h.002c.233 0 .422-.196.422-.438s-.189-.438-.422-.438h-4.438c-.099 0-.168-.045-.21-.083-.041-.037-.109-.119-.109-.248s.068-.21.108-.248c.042-.038.112-.083.21-.083h6.696c.175 0 .318.148.318.331s-.143.331-.318.331c-.233 0-.422.196-.422.438h-.002c0 .242.189.438.422.438h.595l-.076.329h-2.777l-.104-.042-.054-.123zm16.276 10.5l.271.4-.146-.005c-.367 0-.568.082-.729.146-.129.052-.215.086-.423.086s-.294-.034-.423-.086c-.16-.065-.361-.146-.729-.146s-.567.082-.729.146c-.129.052-.214.086-.422.086-.209 0-.294-.034-.422-.086-.162-.065-.362-.146-.729-.146s-.566.082-.729.146c-.13.052-.214.086-.423.086s-.293-.034-.422-.086c-.162-.065-.36-.146-.729-.146s-.568.082-.729.146c-.129.052-.215.086-.424.086-.207 0-.292-.034-.42-.086-.161-.065-.362-.146-.729-.146s-.567.082-.729.146c-.128.052-.213.086-.422.086-.208 0-.293-.034-.422-.086-.161-.065-.362-.146-.729-.146s-.568.082-.729.146c-.128.052-.213.086-.422.086-.208 0-.293-.034-.422-.086-.161-.065-.362-.146-.729-.146s-.568.082-.729.146c-.129.052-.214.086-.422.086s-.293-.034-.422-.086c-.161-.065-.361-.146-.729-.146s-.568.082-.729.146c-.129.052-.214.086-.422.086-.158 0-.245-.02-.333-.052l1.416-3.006.619-.734h.698c.466 0 .844-.392.844-.875v-2.019l1.202-.728c.199-.121.342-.32.396-.552l.611-2.643c.085-.153.135-.33.135-.52l-.002-.055.353-1.527.426-.504.243 1.466.044.133.183.353-.183.353c-.07.135-.067.299.009.431l.439.769v1.844l-.173.415-.035.174v.646l-.417.499c-.067.08-.104.182-.104.287v.685c0 .124.05.241.139.324l.668.629.288.609.034.06.48.707c.079.116.208.186.345.186h.648l.551.397c.074.053.158.079.241.079.134 0 .266-.066.348-.188.133-.198.086-.471-.105-.609l-.66-.476c-.07-.051-.154-.078-.241-.078h-.562l-.334-.493-.309-.653-.096-.132-.59-.555v-.328l.417-.499c.066-.08.103-.182.103-.287v-.719l.173-.415.035-.174v-2.055c0-.079-.021-.156-.059-.224l-.377-.659.052-.101.125-.241c.067-.129.067-.286 0-.415l-.258-.498-.158-.949 1.089 2.726c.035.087.083.168.144.24l1.59 1.894.039.044 2.848 2.95 1.052 1.363.124.13 1.441 1.223 1.547 1.72z"/><path d="M17.561 91.062h3.728c.231 0 .422-.196.422-.438s-.188-.438-.422-.438h-3.728c-.232 0-.422.196-.422.438s.188.438.422.438"/><path d="M19.037 89.88h6.296c.233 0 .422-.196.422-.438s-.188-.438-.422-.438h-6.296c-.232 0-.422.196-.422.438 0 .243.19.438.422.438"/></g><g sketch:type="MSShapeGroup" fill="#373D43"><path d="M25.979 22.537c-.207 0-.293-.034-.422-.087-.16-.065-.361-.146-.729-.146s-.568.081-.729.146c-.129.053-.215.087-.423.087s-.294-.034-.422-.087c-.161-.065-.362-.146-.729-.146-.366 0-.566.081-.729.146-.129.053-.214.087-.422.087-.209 0-.294-.034-.422-.087-.162-.065-.362-.146-.73-.146-.367 0-.565.081-.729.146-.129.053-.213.087-.422.087s-.293-.034-.422-.087c-.162-.065-.361-.146-.729-.146s-.567.081-.729.146c-.129.053-.213.087-.422.087-.207 0-.292-.034-.421-.087-.161-.065-.362-.146-.729-.146s-.568.081-.729.146c-.128.053-.213.087-.422.087-.208 0-.293-.034-.422-.087-.161-.065-.362-.146-.729-.146s-.568.081-.729.146c-.128.053-.213.087-.422.087-.208 0-.293-.034-.422-.087-.161-.065-.362-.146-.729-.146s-.568.081-.729.146c-.129.053-.214.087-.422.087-.233 0-.422.195-.422.438s.189.438.422.438c.367 0 .568-.081.729-.146.129-.052.214-.086.422-.086s.293.034.422.086c.161.065.361.146.729.146s.568-.081.729-.146c.129-.052.214-.086.422-.086s.293.034.422.086c.161.065.362.146.729.146s.568-.081.729-.146c.129-.052.214-.086.422-.086s.293.034.422.086c.161.065.362.146.729.146s.568-.081.729-.146c.129-.052.214-.086.423-.086.207 0 .293.034.422.086.16.065.361.146.729.146s.567-.081.729-.146c.13-.052.216-.086.423-.086.209 0 .293.034.422.087.162.064.362.146.729.146s.567-.081.729-.146c.129-.052.213-.086.422-.086s.293.034.422.086c.162.065.361.146.729.146s.567-.081.729-.146c.129-.052.213-.086.422-.086.208 0 .293.034.422.086.161.065.36.146.729.146.232 0 .422-.195.422-.438s-.19-.439-.423-.439"/><path d="M28.736 15.123l-.883-.66c-.158-.119-.375-.109-.523.024l-1.33 1.202-.1.09-.363-.05-.797-.111-.594-.484c-.105-.086-.244-.115-.373-.078l-1.25.356-.693-.898-.062-.072-2.858-2.962-1.479-1.764-1.491-3.727c-.066-.166-.18-.307-.327-.403l-1.485-.98c-.26-.172-.589-.183-.859-.028-.27.153-.438.447-.438.767v.792l-.736.873c-.09.106-.154.234-.186.373l-.054.233c-.201-.363-.578-.61-1.01-.61h-6.696c-.283 0-.556.107-.769.302-.25.229-.395.56-.395.904 0 .346.144.675.395.904.213.195.485.302.768.302h3.448l-.014.164c0 .298.124.582.34.78.184.168.419.26.663.26h2.575l-.312 1.351-1.309.792c-.259.157-.419.445-.419.756v1.646h-.236c-.244 0-.475.109-.635.299l-.117.139-1.353-.276-.191.008-.843.236-.968-.487c-.209-.105-.462-.015-.564.203-.102.217-.014.479.195.585l1.11.559c.092.046.196.057.294.028l.901-.253.777.159-.188.221-.124.191-1.583 3.362c-.082.175-.102.363-.071.54l-.262.029c-.208 0-.293-.034-.422-.087-.161-.064-.362-.146-.729-.146-.233 0-.422.196-.422.438 0 .241.189.438.422.438.208 0 .293.034.421.087.162.064.362.146.729.146.368 0 .568-.081.729-.146l.172-.061.189.022.239-.037.243.075c.161.064.361.146.729.146.367 0 .567-.081.729-.146.129-.053.214-.087.422-.087s.293.034.422.087c.161.064.362.146.729.146s.568-.081.729-.146c.128-.053.214-.087.422-.087s.293.034.422.087c.161.064.361.146.729.146s.568-.081.729-.146c.129-.053.214-.087.422-.087s.293.034.422.087c.161.064.362.146.729.146s.568-.081.729-.146c.129-.053.214-.087.422-.087s.293.034.422.087c.161.064.362.146.729.146s.568-.081.729-.146c.129-.053.214-.087.423-.087.207 0 .293.034.422.087.16.064.361.146.729.146s.567-.081.729-.146c.13-.053.216-.087.423-.087.209 0 .293.034.422.087.162.064.362.146.729.146s.567-.081.729-.146c.129-.053.213-.087.422-.087s.293.034.422.087c.162.064.361.146.729.146s.567-.081.729-.146c.129-.053.213-.087.422-.087.208 0 .293.034.422.087.161.064.36.146.729.146.367 0 .567-.081.729-.146.129-.053.214-.087.423-.087.208 0 .293.034.422.087.162.064.362.146.729.146.232 0 .423-.195.423-.438 0-.241-.188-.438-.423-.438-.208 0-.295-.034-.424-.087-.16-.065-.36-.146-.729-.146l-.254.016c-.006-.163-.057-.327-.152-.471l-.676-.996-.072-.093-1.621-1.806-.084-.081-1.078-.916.599-.171.521.423c.059.048.129.079.203.09l1.463.203.057.004c.102 0 .199-.038.277-.107l1.32-1.194.61.457c.188.141.452.098.589-.099.135-.197.093-.47-.096-.612zm-20.311-5.542l.055-.123.104-.041h.002c.233 0 .422-.195.422-.438s-.189-.438-.422-.438h-4.438c-.099 0-.168-.046-.21-.083-.041-.037-.109-.119-.109-.248s.068-.21.108-.247c.042-.038.112-.083.21-.083h6.696c.175 0 .318.148.318.33 0 .183-.143.331-.318.331-.233 0-.422.195-.422.438h-.002c0 .242.189.438.422.438h.595l-.076.329h-2.777l-.104-.042-.054-.123zm16.276 10.5l.271.399-.146-.005c-.367 0-.568.082-.729.146-.129.053-.215.087-.423.087s-.294-.034-.423-.087c-.16-.064-.361-.146-.729-.146s-.567.082-.729.146c-.129.053-.214.087-.422.087-.209 0-.294-.034-.422-.087-.162-.064-.362-.146-.729-.146s-.566.082-.729.146c-.13.053-.214.087-.423.087s-.293-.034-.422-.087c-.162-.064-.36-.146-.729-.146s-.568.082-.729.146c-.129.053-.215.087-.424.087-.207 0-.292-.034-.42-.087-.161-.064-.362-.146-.729-.146s-.567.082-.729.146c-.128.053-.213.087-.422.087-.208 0-.293-.034-.422-.087-.161-.064-.362-.146-.729-.146s-.568.082-.729.146c-.128.053-.213.087-.422.087-.208 0-.293-.034-.422-.087-.161-.064-.362-.146-.729-.146s-.568.082-.729.146c-.129.053-.214.087-.422.087s-.293-.034-.422-.087c-.161-.064-.361-.146-.729-.146s-.568.082-.729.146c-.129.053-.214.087-.422.087-.158 0-.245-.02-.333-.052l1.416-3.006.619-.734h.698c.466 0 .844-.392.844-.875v-2.019l1.202-.728c.199-.121.342-.32.396-.553l.611-2.643c.085-.152.135-.33.135-.52l-.002-.055.353-1.527.426-.504.243 1.466.044.134.183.353-.183.354c-.07.135-.067.299.009.431l.439.769v1.844l-.173.414-.035.175v.646l-.417.499c-.067.08-.104.182-.104.287v.685c0 .124.05.241.139.324l.668.629.288.609.034.06.48.707c.079.116.208.186.345.186h.648l.551.397c.074.054.158.079.241.079.134 0 .266-.066.348-.188.133-.198.086-.471-.105-.609l-.66-.476c-.07-.051-.154-.078-.241-.078h-.562l-.334-.493-.309-.653-.096-.132-.59-.555v-.328l.417-.499c.066-.079.103-.182.103-.286v-.719l.173-.415.035-.174v-2.055c0-.079-.021-.156-.059-.224l-.377-.659.052-.101.125-.241c.067-.13.067-.286 0-.415l-.258-.498-.158-.949 1.089 2.726c.035.088.083.169.144.24l1.59 1.894.039.044 2.848 2.95 1.052 1.362.124.131 1.441 1.223 1.547 1.718z"/><path d="M17.561 9.062h3.728c.231 0 .422-.195.422-.438 0-.241-.188-.438-.422-.438h-3.728c-.232 0-.422.196-.422.438 0 .243.188.438.422.438"/><path d="M19.037 7.881h6.296c.233 0 .422-.196.422-.438 0-.241-.188-.438-.422-.438h-6.296c-.232 0-.422.196-.422.438s.19.438.422.438"/></g><g sketch:type="MSShapeGroup" fill="#67737B"><path d="M25.979 62.537c-.207 0-.293-.034-.422-.086-.16-.065-.361-.146-.729-.146s-.568.081-.729.146c-.129.052-.215.086-.423.086s-.294-.034-.422-.086c-.161-.065-.362-.146-.729-.146-.366 0-.566.081-.729.146-.129.052-.214.086-.422.086-.209 0-.294-.034-.422-.086-.162-.065-.362-.146-.73-.146-.367 0-.565.081-.729.146-.129.052-.213.086-.422.086s-.293-.034-.422-.086c-.162-.065-.361-.146-.729-.146s-.567.081-.729.146c-.129.052-.213.086-.422.086-.207 0-.292-.034-.421-.086-.161-.065-.362-.146-.729-.146s-.568.081-.729.146c-.128.052-.213.086-.422.086-.208 0-.293-.034-.422-.086-.161-.065-.362-.146-.729-.146s-.568.081-.729.146c-.128.052-.213.086-.422.086-.208 0-.293-.034-.422-.086-.161-.065-.362-.146-.729-.146s-.568.081-.729.146c-.129.052-.214.086-.422.086-.233 0-.422.196-.422.438s.189.438.422.438c.367 0 .568-.081.729-.146.129-.052.214-.086.422-.086s.293.035.422.086c.161.065.361.146.729.146s.568-.081.729-.146c.129-.052.214-.086.422-.086s.293.035.422.086c.161.065.362.146.729.146s.568-.081.729-.146c.129-.052.214-.086.422-.086s.293.035.422.086c.161.065.362.146.729.146s.568-.081.729-.146c.129-.052.214-.086.423-.086.207 0 .293.035.422.086.16.065.361.146.729.146s.567-.081.729-.146c.13-.052.216-.086.423-.086.209 0 .293.035.422.087.162.065.362.146.729.146s.567-.081.729-.146c.129-.052.213-.086.422-.086s.293.035.422.086c.162.065.361.146.729.146s.567-.081.729-.146c.129-.052.213-.086.422-.086.208 0 .293.035.422.086.161.065.36.146.729.146.232 0 .422-.196.422-.438-.002-.244-.19-.439-.423-.439"/><path d="M28.736 55.123l-.883-.66c-.158-.119-.375-.109-.523.025l-1.33 1.202-.1.09-.363-.05-.797-.111-.594-.485c-.105-.085-.244-.115-.373-.078l-1.25.356-.693-.898-.062-.072-2.858-2.962-1.479-1.763-1.491-3.727c-.066-.166-.18-.307-.327-.403l-1.485-.981c-.26-.171-.589-.182-.859-.028s-.438.448-.438.767v.792l-.736.873c-.09.106-.154.234-.186.373l-.054.234c-.201-.364-.578-.61-1.01-.61h-6.696c-.283 0-.556.107-.769.302-.25.229-.395.559-.395.904s.144.675.395.904c.213.195.485.302.768.302h3.448l-.014.164c0 .298.124.582.34.78.184.168.419.26.663.26h2.575l-.312 1.35-1.309.792c-.259.157-.419.445-.419.756v1.646h-.236c-.244 0-.475.109-.635.299l-.117.138-1.353-.276-.191.007-.843.236-.968-.487c-.209-.106-.462-.015-.564.203-.102.217-.014.479.195.585l1.11.559c.092.046.196.057.294.029l.901-.253.777.159-.188.221-.124.192-1.583 3.362c-.082.174-.102.363-.071.54l-.262.029c-.208 0-.293-.034-.422-.086-.161-.065-.362-.146-.729-.146-.233 0-.422.196-.422.438s.189.438.422.438c.208 0 .293.035.421.087.162.065.362.146.729.146.368 0 .568-.081.729-.146l.172-.061.189.022.239-.037.243.075c.161.065.361.146.729.146.367 0 .567-.081.729-.146.129-.052.214-.087.422-.087s.293.035.422.087c.161.065.362.146.729.146s.568-.081.729-.146c.128-.052.214-.087.422-.087s.293.035.422.087c.161.065.361.146.729.146s.568-.081.729-.146c.129-.052.214-.087.422-.087s.293.035.422.087c.161.065.362.146.729.146s.568-.081.729-.146c.129-.052.214-.087.422-.087s.293.035.422.087c.161.065.362.146.729.146s.568-.081.729-.146c.129-.052.214-.087.423-.087.207 0 .293.035.422.087.16.065.361.146.729.146s.567-.081.729-.146c.13-.052.216-.087.423-.087.209 0 .293.035.422.087.162.065.362.146.729.146s.567-.081.729-.146c.129-.052.213-.087.422-.087s.293.035.422.087c.162.065.361.146.729.146s.567-.081.729-.146c.129-.052.213-.087.422-.087.208 0 .293.035.422.087.161.065.36.146.729.146.367 0 .567-.081.729-.146.129-.052.214-.087.423-.087.208 0 .293.035.422.087.162.065.362.146.729.146.232 0 .423-.196.423-.438s-.188-.438-.423-.438c-.208 0-.295-.034-.424-.086-.16-.065-.36-.146-.729-.146l-.254.015c-.006-.163-.057-.327-.152-.47l-.676-.996-.072-.093-1.621-1.805-.084-.081-1.078-.916.599-.171.521.423c.059.048.129.079.203.089l1.463.203.057.004c.102 0 .199-.038.277-.107l1.32-1.194.61.457c.188.141.452.098.589-.099.135-.199.093-.473-.096-.614zm-20.311-5.542l.055-.123.104-.041h.002c.233 0 .422-.196.422-.438s-.189-.438-.422-.438h-4.438c-.099 0-.168-.045-.21-.083-.041-.037-.109-.119-.109-.248s.068-.21.108-.248c.042-.038.112-.083.21-.083h6.696c.175 0 .318.148.318.331s-.143.331-.318.331c-.233 0-.422.196-.422.438h-.002c0 .242.189.438.422.438h.595l-.076.329h-2.777l-.104-.042-.054-.123zm16.276 10.5l.271.4-.146-.005c-.367 0-.568.082-.729.146-.129.052-.215.086-.423.086s-.294-.034-.423-.086c-.16-.065-.361-.146-.729-.146s-.567.082-.729.146c-.129.052-.214.086-.422.086-.209 0-.294-.034-.422-.086-.162-.065-.362-.146-.729-.146s-.566.082-.729.146c-.13.052-.214.086-.423.086s-.293-.034-.422-.086c-.162-.065-.36-.146-.729-.146s-.568.082-.729.146c-.129.052-.215.086-.424.086-.207 0-.292-.034-.42-.086-.161-.065-.362-.146-.729-.146s-.567.082-.729.146c-.128.052-.213.086-.422.086-.208 0-.293-.034-.422-.086-.161-.065-.362-.146-.729-.146s-.568.082-.729.146c-.128.052-.213.086-.422.086-.208 0-.293-.034-.422-.086-.161-.065-.362-.146-.729-.146s-.568.082-.729.146c-.129.052-.214.086-.422.086s-.293-.034-.422-.086c-.161-.065-.361-.146-.729-.146s-.568.082-.729.146c-.129.052-.214.086-.422.086-.158 0-.245-.02-.333-.052l1.416-3.006.619-.734h.698c.466 0 .844-.392.844-.875v-2.019l1.202-.728c.199-.121.342-.32.396-.552l.611-2.643c.085-.153.135-.33.135-.52l-.002-.055.353-1.527.426-.504.243 1.466.044.133.183.353-.183.353c-.07.135-.067.299.009.431l.439.769v1.844l-.173.415-.035.174v.646l-.417.499c-.067.08-.104.182-.104.287v.685c0 .124.05.241.139.324l.668.629.288.609.034.06.48.707c.079.116.208.186.345.186h.648l.551.397c.074.053.158.079.241.079.134 0 .266-.066.348-.188.133-.198.086-.471-.105-.609l-.66-.476c-.07-.051-.154-.078-.241-.078h-.562l-.334-.493-.309-.653-.096-.132-.59-.555v-.328l.417-.499c.066-.08.103-.182.103-.287v-.719l.173-.415.035-.174v-2.055c0-.079-.021-.156-.059-.224l-.377-.659.052-.101.125-.241c.067-.129.067-.286 0-.415l-.258-.498-.158-.949 1.089 2.726c.035.087.083.168.144.24l1.59 1.894.039.044 2.848 2.95 1.052 1.363.124.13 1.441 1.223 1.547 1.72z"/><path d="M17.561 49.062h3.728c.231 0 .422-.196.422-.438s-.188-.438-.422-.438h-3.728c-.232 0-.422.196-.422.438s.188.438.422.438"/><path d="M19.037 47.88h6.296c.233 0 .422-.196.422-.438s-.188-.438-.422-.438h-6.296c-.232 0-.422.196-.422.438 0 .243.19.438.422.438"/></g><g sketch:type="MSShapeGroup" fill="#206FAC"><path d="M25.979 145.417c-.207 0-.293-.033-.422-.086-.16-.065-.361-.146-.729-.146s-.568.08-.729.146c-.129.053-.215.086-.423.086s-.294-.033-.422-.086c-.161-.065-.362-.146-.729-.146-.366 0-.566.08-.729.146-.129.053-.214.086-.422.086-.209 0-.294-.033-.422-.086-.162-.065-.362-.146-.73-.146-.367 0-.565.08-.729.146-.129.053-.213.086-.422.086s-.293-.033-.422-.086c-.162-.065-.361-.146-.729-.146s-.567.08-.729.146c-.129.053-.213.086-.422.086-.207 0-.292-.033-.421-.086-.161-.065-.362-.146-.729-.146s-.568.08-.729.146c-.128.053-.213.086-.422.086-.208 0-.293-.033-.422-.086-.161-.065-.362-.146-.729-.146s-.568.08-.729.146c-.128.053-.213.086-.422.086-.208 0-.293-.033-.422-.086-.161-.065-.362-.146-.729-.146s-.568.08-.729.146c-.129.053-.214.086-.422.086-.233 0-.422.196-.422.438 0 .24.189.438.422.438.367 0 .568-.081.729-.146.129-.052.214-.086.422-.086s.293.034.422.086c.161.065.361.146.729.146s.568-.081.729-.146c.129-.052.214-.086.422-.086s.293.034.422.086c.161.065.362.146.729.146s.568-.081.729-.146c.129-.052.214-.086.422-.086s.293.034.422.086c.161.065.362.146.729.146s.568-.081.729-.146c.129-.052.214-.086.423-.086.207 0 .293.034.422.086.16.065.361.146.729.146s.567-.081.729-.146c.13-.052.216-.086.423-.086.209 0 .293.034.422.088.162.063.362.146.729.146s.567-.081.729-.146c.129-.053.213-.088.422-.088s.293.035.422.088c.162.064.361.146.729.146s.567-.081.729-.146c.129-.053.213-.088.422-.088.208 0 .293.035.422.088.161.064.36.146.729.146.232 0 .422-.196.422-.438-.002-.244-.19-.44-.423-.44"/><path d="M28.736 138.003l-.883-.66c-.158-.119-.375-.108-.523.024l-1.33 1.203-.1.09-.363-.051-.797-.11-.594-.484c-.105-.086-.244-.114-.373-.077l-1.25.354-.693-.897-.062-.072-2.858-2.961-1.479-1.765-1.491-3.727c-.066-.166-.18-.308-.327-.403l-1.485-.98c-.26-.172-.589-.183-.859-.027-.27.152-.438.447-.438.768v.791l-.736.873c-.09.106-.154.234-.186.373l-.054.233c-.201-.364-.578-.61-1.01-.61h-6.696c-.283 0-.556.107-.769.303-.25.229-.395.56-.395.903 0 .345.144.675.395.904.213.194.485.302.768.302h3.448l-.014.164c0 .298.124.582.34.779.184.168.419.261.663.261h2.575l-.312 1.351-1.309.793c-.259.156-.419.443-.419.756v1.646h-.236c-.244 0-.475.108-.635.299l-.117.138-1.353-.274-.191.008-.843.235-.968-.486c-.209-.105-.462-.016-.564.202s-.014.479.195.586l1.11.56c.092.045.196.057.294.027l.901-.253.777.158-.188.221-.124.192-1.583 3.361c-.082.174-.102.363-.071.539l-.262.029c-.208 0-.293-.033-.422-.086-.161-.064-.362-.146-.729-.146-.233 0-.422.196-.422.438 0 .241.189.438.422.438.208 0 .293.034.421.088.162.063.362.146.729.146.368 0 .568-.081.729-.146l.172-.062.189.021.239-.035.243.074c.161.064.361.146.729.146.367 0 .567-.081.729-.146.129-.053.214-.088.422-.088s.293.035.422.088c.161.064.362.146.729.146s.568-.081.729-.146c.128-.053.214-.088.422-.088s.293.035.422.088c.161.064.361.146.729.146s.568-.081.729-.146c.129-.053.214-.088.422-.088s.293.035.422.088c.161.064.362.146.729.146s.568-.081.729-.146c.129-.053.214-.088.422-.088s.293.035.422.088c.161.064.362.146.729.146s.568-.081.729-.146c.129-.053.214-.088.423-.088.207 0 .293.035.422.088.16.064.361.146.729.146s.567-.081.729-.146c.13-.053.216-.088.423-.088.209 0 .293.035.422.088.162.064.362.146.729.146s.567-.081.729-.146c.129-.053.213-.088.422-.088s.293.035.422.088c.162.064.361.146.729.146s.567-.081.729-.146c.129-.053.213-.088.422-.088.208 0 .293.035.422.088.161.064.36.146.729.146.367 0 .567-.081.729-.146.129-.053.214-.088.423-.088.208 0 .293.035.422.088.162.064.362.146.729.146.232 0 .423-.195.423-.438s-.188-.438-.423-.438c-.208 0-.295-.033-.424-.086-.16-.065-.36-.146-.729-.146l-.254.016c-.006-.164-.057-.327-.152-.471l-.676-.996-.072-.094-1.621-1.806-.084-.081-1.078-.916.599-.171.521.423c.059.049.129.079.203.09l1.463.202.057.005c.102 0 .199-.037.277-.107l1.32-1.193.61.457c.188.141.452.098.589-.1.135-.199.093-.472-.096-.615zm-20.311-5.541l.055-.123.104-.041h.002c.233 0 .422-.194.422-.438 0-.242-.189-.438-.422-.438h-4.438c-.099 0-.168-.046-.21-.084-.041-.037-.109-.118-.109-.247s.068-.21.108-.247c.042-.038.112-.084.21-.084h6.696c.175 0 .318.148.318.331s-.143.331-.318.331c-.233 0-.422.195-.422.438h-.002c0 .242.189.438.422.438h.595l-.076.328h-2.777l-.104-.041-.054-.123zm16.276 10.5l.271.399-.146-.006c-.367 0-.568.082-.729.146-.129.053-.215.086-.423.086s-.294-.033-.423-.086c-.16-.064-.361-.146-.729-.146s-.567.082-.729.146c-.129.053-.214.086-.422.086-.209 0-.294-.033-.422-.086-.162-.064-.362-.146-.729-.146s-.566.082-.729.146c-.13.053-.214.086-.423.086s-.293-.033-.422-.086c-.162-.064-.36-.146-.729-.146s-.568.082-.729.146c-.129.053-.215.086-.424.086-.207 0-.292-.033-.42-.086-.161-.064-.362-.146-.729-.146s-.567.082-.729.146c-.128.053-.213.086-.422.086-.208 0-.293-.033-.422-.086-.161-.064-.362-.146-.729-.146s-.568.082-.729.146c-.128.053-.213.086-.422.086-.208 0-.293-.033-.422-.086-.161-.064-.362-.146-.729-.146s-.568.082-.729.146c-.129.053-.214.086-.422.086s-.293-.033-.422-.086c-.161-.064-.361-.146-.729-.146s-.568.082-.729.146c-.129.053-.214.086-.422.086-.158 0-.245-.02-.333-.051l1.416-3.006.619-.734h.698c.466 0 .844-.393.844-.875v-2.02l1.202-.728c.199-.121.342-.319.396-.553l.611-2.644c.085-.152.135-.33.135-.52l-.002-.055.353-1.527.426-.504.243 1.466.044.134.183.354-.183.353c-.07.136-.067.3.009.433l.439.768v1.844l-.173.415-.035.175v.646l-.417.499c-.067.079-.104.182-.104.286v.686c0 .124.05.241.139.324l.668.629.288.609.034.06.48.707c.079.116.208.187.345.187h.648l.551.396c.074.055.158.079.241.079.134 0 .266-.065.348-.188.133-.197.086-.472-.105-.608l-.66-.476c-.07-.052-.154-.078-.241-.078h-.562l-.334-.494-.309-.652-.096-.133-.59-.555v-.328l.417-.498c.066-.08.103-.182.103-.287v-.719l.173-.414.035-.174v-2.056c0-.079-.021-.155-.059-.226l-.377-.657.052-.103.125-.239c.067-.13.067-.286 0-.416l-.258-.497-.158-.949 1.089 2.727c.035.088.083.168.144.239l1.59 1.894.039.045 2.848 2.949 1.052 1.363.124.131 1.441 1.223 1.547 1.718z"/><path d="M17.561 131.943h3.728c.231 0 .422-.196.422-.438s-.188-.438-.422-.438h-3.728c-.232 0-.422.197-.422.438s.188.438.422.438"/><path d="M19.037 130.761h6.296c.233 0 .422-.194.422-.438 0-.242-.188-.438-.422-.438h-6.296c-.232 0-.422.195-.422.438s.19.438.422.438"/></g></svg>