<svg xmlns:sketch="http://www.bohemiancoding.com/sketch/ns" xmlns="http://www.w3.org/2000/svg" width="32" height="232" viewBox="0 0 32 232"><title>thailand_bangkok</title><desc>Created with Sketch.</desc><g sketch:type="MSShapeGroup" fill="#373D43"><path d="M27.857 25.974h-1.02l-.929-1.222c-.075-.1-.192-.159-.317-.159h-.035l-1.076-3.3c-.044-.135-.154-.233-.285-.266l-.314-3.192c-.01-.096-.053-.181-.115-.245v-1.425h1.693c.223 0 .402-.182.402-.407s-.18-.407-.402-.407h-1.803c-.086-.173-.219-.317-.382-.417v-.112c.146-.097.235-.262.235-.442 0-.193-.104-.372-.271-.464l-.019-.01-.01-.019c-.092-.17-.268-.275-.459-.275-.19 0-.365.105-.457.275l-.011.019-.019.011c-.168.092-.271.271-.271.464 0 .18.09.345.236.442v.112c-.281.171-.475.477-.491.833l-.001.019v1.373h-1.658c-.222 0-.402.183-.402.408v.464h-.48v-1.521c0-.225-.18-.407-.402-.407h-1.418l-.466-4.736c-.034-.347-.28-.624-.6-.707v-2.829c-.027-.603-.408-1.104-.933-1.309v-.544l.006-.012.129-.071c.167-.093.271-.271.271-.464s-.104-.372-.271-.464l-.129-.071-.07-.131c-.092-.17-.268-.275-.458-.275-.191 0-.367.105-.458.276l-.071.13-.128.071c-.167.093-.272.271-.272.464s.104.372.272.464l.128.071.007.012v.544c-.525.204-.905.706-.933 1.309v2.829c-.319.083-.565.36-.599.707l-.518 5.254h-1.078c-.222 0-.402.182-.402.407v1.111h-.722v-.572c0-.225-.18-.408-.401-.408h-1.706v-1.392c-.017-.356-.21-.662-.491-.833v-.112c.146-.097.236-.263.236-.442 0-.193-.104-.372-.271-.464l-.018-.01-.01-.02c-.092-.17-.267-.275-.458-.275-.19 0-.367.105-.458.275l-.01.02-.019.01c-.167.092-.271.271-.271.464 0 .179.09.345.236.442v.112c-.163.1-.296.244-.382.417h-2.037c-.222 0-.401.182-.401.407s.18.407.401.407h1.927v1.425c-.062.064-.105.149-.115.245l-.314 3.192c-.132.033-.241.131-.285.266l-1.076 3.3h-.035c-.125 0-.242.059-.318.159l-.929 1.222h-1.019c-.443 0-.803.365-.803.814 0 .45.36.814.803.814h26.001c.443 0 .803-.364.803-.814-.001-.45-.36-.815-.804-.815zm-16.81 0l-.893-1.174.208-.274h8.987l.209.274-.893 1.174h-7.618zm-4.452-7.692h.731l.269 2.731h-1.27l.27-2.731zm.155-2.117v-.368c.008-.11.1-.196.21-.196.111 0 .202.086.21.196v1.625h-.421v-1.257h.001zm7.454-8.305c.01-.173.085-.327.2-.438.118-.114.277-.184.453-.184.175 0 .334.07.452.184.115.112.19.266.2.438v2.772h-1.305v-2.772zm8.275 18.114h-2.8l.386-.507.045-.059h5.284l.431.566h-3.346zm2.077-1.857l.146.447h-3.897l.146-.447.02.001h3.568l.017-.001zm-.265-.813h-3.076l.108-.334h2.857l.111.334zm-2.702-1.149l.106-.327h2.113l.107.327h-2.326zm.798-3.873h.731l.269 2.731h-1.27l.27-2.731zm.576-.86h-.421v-1.625c.009-.11.1-.196.21-.196.111 0 .202.086.211.196v1.625zm-9.532.942h2.852l.453 1.449h-.992l-.051-.031-.688-.352c-.119-.061-.26-.058-.376.008l-.623.352-.036.024h-.993l.454-1.45zm-.14 4.532v-1.824h.508v2.231h-.508v-.407zm1.311-2.231v-.282l.231-.13.277.142v2.909h-.508v-2.639zm1.82.776v1.863h-.509v-2.231h.509v.368zm.803.007h.269l.706 1.448h-.975v-1.448zm-5.006 0h.269v1.448h-.975l.706-1.448zm-6.315.38h2.114l.106.327h-2.327l.107-.327zm2.486 1.142l.109.334h-3.076l.109-.334h2.858zm.255 1.148h.035l.082-.008.148.454h-3.897l.145-.446h3.487zm-4.326 1.29h5.284l.044.059.386.507h-6.145l.431-.566zm14.076-8.491v1.521c0 .225.179.407.4.407h1.285c.221 0 .401-.182.401-.407v-.465h1.128l-.3 3.055c-.132.033-.241.131-.285.266l-.632 1.937-.012-.016c-.096-.125-.223-.218-.366-.27l-1.303-2.671c-.057-.116-.14-.213-.236-.288l-.841-2.683c-.035-.113-.094-.213-.168-.298l-.01-.088h.939zm-4.446-.815l.378-3.841h1.057l.378 3.841h-1.813zm-4.67 1.87v.573c0 .225.18.407.402.407h1.525c.222 0 .401-.182.401-.407v-1.111h.429l-.799 2.551c-.098.075-.18.172-.237.288l-1.302 2.671c-.144.052-.271.145-.366.27l-.012.016-.632-1.937c-.043-.135-.153-.233-.285-.266l-.3-3.055h1.176z"/><path d="M10.957 12.209c.07.053.155.083.243.083.086 0 .17-.028.24-.081.156-.117.207-.333.119-.509l-.025-.044c-.075-.113-.2-.181-.334-.181-.086 0-.171.028-.24.081-.094.071-.152.18-.161.298-.008.119.035.235.118.318l.04.035"/><path d="M18.741 7.483c.069.053.155.083.243.083.086 0 .17-.029.24-.081.155-.118.205-.333.119-.509l-.119-.144c-.139-.106-.342-.106-.48-.001-.156.119-.207.334-.119.511l.116.141"/><path d="M19.649 12.344c.069.054.155.083.243.083.086 0 .17-.028.24-.081.155-.118.205-.333.118-.509l-.118-.144c-.139-.105-.342-.106-.48-.001-.157.118-.207.334-.119.511l.116.141"/><path d="M6.526 10.074l.333.185.183.339c.07.13.206.212.352.212.147 0 .282-.082.352-.212l.183-.339.333-.185c.128-.071.209-.208.209-.357s-.081-.286-.209-.357l-.333-.185-.183-.339c-.07-.13-.205-.211-.352-.211-.146 0-.282.081-.352.211l-.183.339-.333.185c-.128.072-.209.208-.209.357-.001.149.08.286.209.357"/><path d="M20.806 5.375l.333.185.184.339c.07.131.205.211.352.211s.282-.081.352-.211l.184-.339.334-.185c.129-.071.209-.208.209-.357s-.08-.286-.209-.357l-.334-.186-.184-.338c-.069-.131-.205-.211-.352-.211s-.281.081-.352.211l-.184.338-.333.186c-.129.071-.209.208-.209.357 0 .148.08.285.209.357"/><path d="M20.984 12.019c0 .225.18.407.4.407h2.445c.223 0 .402-.182.402-.407 0-.225-.18-.407-.402-.407h-2.445c-.22 0-.4.182-.4.407"/></g><g sketch:type="MSShapeGroup" fill="#fff"><path d="M28.268 108.147h-.996l-.908-1.243c-.074-.102-.189-.161-.311-.161h-.035l-1.053-3.356c-.043-.138-.15-.237-.279-.271l-.307-3.246c-.01-.098-.051-.184-.112-.25v-1.45h1.655c.218 0 .394-.185.394-.414 0-.229-.176-.415-.394-.415h-1.763c-.085-.176-.214-.323-.374-.424v-.114c.144-.099.23-.267.23-.449 0-.197-.102-.378-.265-.472l-.019-.011-.01-.019c-.089-.173-.261-.28-.447-.28-.188 0-.357.107-.447.28l-.011.019-.019.011c-.164.094-.266.275-.266.472 0 .183.089.35.231.449v.114c-.275.174-.464.485-.48.847l-.001.019v1.396h-1.622c-.217 0-.394.185-.394.415v.472h-.47v-1.547c0-.229-.177-.414-.394-.414h-1.387l-.455-4.816c-.034-.354-.274-.635-.587-.719v-2.8760000000000003c-.027-.613-.399-1.124-.913-1.331v-.553l.006-.012.125-.073c.164-.094.266-.275.266-.472 0-.197-.102-.378-.266-.473l-.125-.073-.069-.133c-.09-.172-.262-.28-.448-.28-.187 0-.359.107-.448.28l-.069.132-.125.073c-.164.095-.266.275-.266.473 0 .196.103.377.266.472l.125.073.007.012v.554c-.514.208-.885.718-.913 1.331v2.8760000000000003c-.312.084-.553.366-.586.719l-.506 5.342h-1.054c-.217 0-.393.185-.393.414v1.13h-.707v-.582c0-.229-.176-.415-.393-.415h-1.669v-1.4149999999999998c-.016-.362-.205-.673-.48-.847v-.114c.143-.099.23-.267.23-.449 0-.197-.102-.378-.265-.472l-.018-.011-.01-.02c-.089-.173-.261-.28-.448-.28s-.358.107-.448.28l-.01.02-.018.011c-.164.094-.265.275-.265.472 0 .182.088.35.231.449v.114c-.16.101-.29.248-.374.424h-1.992c-.217 0-.393.186-.393.415 0 .229.176.414.393.414h1.885v1.45c-.062.065-.104.151-.113.25l-.307 3.246c-.129.034-.236.133-.279.271l-1.052 3.356h-.035c-.121 0-.236.059-.311.161l-.909 1.243h-.997c-.434 0-.785.371-.785.828 0 .458.352.828.785.828h25.431c.435 0 .786-.371.786-.828.005-.456-.347-.827-.781-.827zm-16.441 0l-.873-1.194.204-.279h8.79l.205.279-.874 1.194h-7.452zm-4.354-7.822h.715l.263 2.777h-1.242l.264-2.777zm.151-2.154v-.374c.009-.112.098-.2.206-.2.109 0 .197.087.206.2v1.652h-.412v-1.278zm7.29-8.445c.01-.176.083-.333.196-.446.115-.116.271-.187.442-.187.171 0 .327.071.442.187.112.114.186.271.195.446v2.819h-1.276v-2.819h.001zm8.094 18.421h-2.738l.378-.516.044-.06h5.168l.421.576h-3.273zm2.031-1.889l.143.455h-3.812l.143-.455.019.001h3.489l.018-.001zm-.26-.826h-3.008l.105-.34h2.795l.108.34zm-2.642-1.169l.105-.333h2.066l.104.333h-2.275zm.781-3.938h.715l.264 2.777h-1.242l.263-2.777zm.562-.875h-.411v-1.652c.009-.112.098-.2.206-.2.107 0 .197.087.205.2v1.652zm-9.322.958h2.789l.443 1.473h-.97l-.05-.032-.673-.358c-.117-.062-.254-.059-.368.008l-.609.357-.035.024h-.971l.444-1.472zm-.137 4.61v-1.855h.497v2.27h-.497v-.415zm1.283-2.27v-.286l.226-.132.271.144v2.958h-.497v-2.684zm1.78.789v1.895h-.498v-2.27h.498v.375zm.785.007h.262l.691 1.473h-.953v-1.473zm-4.896 0h.263v1.473h-.954l.691-1.473zm-6.177.387h2.067l.104.333h-2.275l.104-.333zm2.432 1.16l.107.34h-3.009l.107-.34h2.795zm.249 1.169h.034l.081-.008.145.461h-3.812l.142-.453h3.41zm-4.231 1.311h5.168l.043.06.377.516h-6.01l.422-.576zm13.766-8.635v1.547c0 .229.176.414.393.414h1.257c.217 0 .393-.186.393-.414v-.473h1.104l-.295 3.106c-.129.034-.234.133-.278.271l-.618 1.97-.012-.016c-.092-.127-.217-.222-.357-.275l-1.274-2.716c-.056-.118-.136-.216-.231-.292l-.822-2.729c-.034-.115-.092-.217-.164-.303l-.009-.09h.913zm-4.346-.829l.37-3.906h1.034l.37 3.906h-1.774zm-4.569 1.903v.582c0 .229.176.414.393.414h1.492c.217 0 .393-.186.393-.414v-1.13h.419l-.781 2.595c-.096.076-.176.174-.231.292l-1.274 2.716c-.141.053-.265.147-.358.275l-.012.016-.618-1.97c-.043-.138-.15-.237-.279-.271l-.294-3.106h1.15v.001z"/><path d="M11.738 94.149c.068.054.152.083.237.083.084 0 .167-.028.235-.082.152-.12.202-.338.117-.518l-.025-.045c-.073-.115-.195-.184-.327-.184-.084 0-.167.029-.235.082-.091.072-.149.183-.157.303-.008.121.034.239.115.324l.04.037"/><path d="M19.352 89.343c.068.054.152.084.238.084.084 0 .166-.029.234-.083.152-.12.201-.338.117-.518l-.116-.146c-.136-.107-.335-.107-.471-.001-.153.12-.202.34-.116.52l.114.144"/><path d="M20.24 94.286c.068.055.152.084.237.084s.167-.028.235-.082c.152-.12.201-.338.115-.518l-.114-.146c-.136-.107-.335-.108-.472-.001-.152.121-.201.34-.115.52l.114.143"/><path d="M7.405 91.978l.326.188.179.345c.068.132.201.215.344.215s.276-.083.344-.215l.179-.345.327-.188c.125-.073.204-.212.204-.363s-.079-.291-.204-.363l-.327-.188-.179-.345c-.068-.132-.201-.215-.344-.215s-.276.083-.344.215l-.179.345-.326.188c-.126.073-.205.212-.205.363s.078.29.205.363"/><path d="M21.371 87.198l.326.188.179.345c.069.133.201.215.345.215s.275-.083.344-.215l.179-.345.327-.188c.125-.073.203-.212.203-.363 0-.152-.078-.291-.203-.363l-.327-.189-.179-.344c-.068-.133-.2-.215-.344-.215s-.275.082-.345.215l-.179.344-.326.189c-.126.072-.205.211-.205.363 0 .151.079.29.205.363"/><path d="M21.545 93.955c0 .229.176.414.393.414h2.393c.217 0 .393-.185.393-.414 0-.229-.176-.414-.393-.414h-2.393c-.217.001-.393.186-.393.414"/></g><g sketch:type="MSShapeGroup" fill="#67737B"><path d="M28.268 66.147h-.996l-.908-1.243c-.074-.102-.189-.161-.311-.161h-.035l-1.053-3.356c-.043-.138-.15-.237-.279-.271l-.307-3.246c-.01-.098-.051-.184-.112-.25v-1.45h1.655c.218 0 .394-.185.394-.414 0-.229-.176-.415-.394-.415h-1.763c-.085-.176-.214-.323-.374-.424v-.114c.144-.099.23-.267.23-.449 0-.197-.102-.378-.265-.472l-.019-.011-.01-.019c-.089-.173-.261-.28-.447-.28-.188 0-.357.107-.447.28l-.011.019-.019.011c-.164.094-.266.275-.266.472 0 .183.089.35.231.449v.114c-.275.174-.464.485-.48.847l-.001.019v1.396h-1.622c-.217 0-.394.185-.394.415v.472h-.47v-1.547c0-.229-.177-.414-.394-.414h-1.387l-.455-4.816c-.034-.354-.274-.635-.587-.719v-2.8760000000000003c-.027-.613-.399-1.124-.913-1.331v-.553l.006-.012.125-.073c.164-.094.266-.275.266-.472 0-.197-.102-.378-.266-.473l-.125-.073-.069-.133c-.09-.172-.262-.28-.448-.28-.187 0-.359.107-.448.28l-.069.132-.125.073c-.164.095-.266.275-.266.473 0 .196.103.377.266.472l.125.073.007.012v.554c-.514.208-.885.718-.913 1.331v2.8760000000000003c-.312.084-.553.366-.586.719l-.506 5.342h-1.054c-.217 0-.393.185-.393.414v1.13h-.707v-.582c0-.229-.176-.415-.393-.415h-1.669v-1.4149999999999998c-.016-.362-.205-.673-.48-.847v-.114c.143-.099.23-.267.23-.449 0-.197-.102-.378-.265-.472l-.018-.011-.01-.02c-.089-.173-.261-.28-.448-.28s-.358.107-.448.28l-.01.02-.018.011c-.164.094-.265.275-.265.472 0 .182.088.35.231.449v.114c-.16.101-.29.248-.374.424h-1.992c-.217 0-.393.186-.393.415 0 .229.176.414.393.414h1.885v1.45c-.062.065-.104.151-.113.25l-.307 3.246c-.129.034-.236.133-.279.271l-1.052 3.356h-.035c-.121 0-.236.059-.311.161l-.909 1.243h-.997c-.434 0-.785.371-.785.828 0 .458.352.828.785.828h25.431c.435 0 .786-.371.786-.828.005-.456-.347-.827-.781-.827zm-16.441 0l-.873-1.194.204-.279h8.79l.205.279-.874 1.194h-7.452zm-4.354-7.822h.715l.263 2.777h-1.242l.264-2.777zm.151-2.154v-.374c.009-.112.098-.2.206-.2.109 0 .197.087.206.2v1.652h-.412v-1.278zm7.29-8.445c.01-.176.083-.333.196-.446.115-.116.271-.187.442-.187.171 0 .327.071.442.187.112.114.186.271.195.446v2.819h-1.276v-2.819h.001zm8.094 18.421h-2.738l.378-.516.044-.06h5.168l.421.576h-3.273zm2.031-1.889l.143.455h-3.812l.143-.455.019.001h3.489l.018-.001zm-.26-.826h-3.008l.105-.34h2.795l.108.34zm-2.642-1.169l.105-.333h2.066l.104.333h-2.275zm.781-3.938h.715l.264 2.777h-1.242l.263-2.777zm.562-.875h-.411v-1.652c.009-.112.098-.2.206-.2.107 0 .197.087.205.2v1.652zm-9.322.958h2.789l.443 1.473h-.97l-.05-.032-.673-.358c-.117-.062-.254-.059-.368.008l-.609.357-.035.024h-.971l.444-1.472zm-.137 4.61v-1.855h.497v2.27h-.497v-.415zm1.283-2.27v-.286l.226-.132.271.144v2.958h-.497v-2.684zm1.78.789v1.895h-.498v-2.27h.498v.375zm.785.007h.262l.691 1.473h-.953v-1.473zm-4.896 0h.263v1.473h-.954l.691-1.473zm-6.177.387h2.067l.104.333h-2.275l.104-.333zm2.432 1.16l.107.34h-3.009l.107-.34h2.795zm.249 1.169h.034l.081-.008.145.461h-3.812l.142-.453h3.41zm-4.231 1.311h5.168l.043.06.377.516h-6.01l.422-.576zm13.766-8.635v1.547c0 .229.176.414.393.414h1.257c.217 0 .393-.186.393-.414v-.473h1.104l-.295 3.106c-.129.034-.234.133-.278.271l-.618 1.97-.012-.016c-.092-.127-.217-.222-.357-.275l-1.274-2.716c-.056-.118-.136-.216-.231-.292l-.822-2.729c-.034-.115-.092-.217-.164-.303l-.009-.09h.913zm-4.346-.829l.37-3.906h1.034l.37 3.906h-1.774zm-4.569 1.903v.582c0 .229.176.414.393.414h1.492c.217 0 .393-.186.393-.414v-1.13h.419l-.781 2.595c-.096.076-.176.174-.231.292l-1.274 2.716c-.141.053-.265.147-.358.275l-.012.016-.618-1.97c-.043-.138-.15-.237-.279-.271l-.294-3.106h1.15v.001z"/><path d="M11.738 52.149c.068.054.152.083.237.083.084 0 .167-.028.235-.082.152-.12.202-.338.117-.518l-.025-.045c-.073-.115-.195-.184-.327-.184-.084 0-.167.029-.235.082-.091.072-.149.183-.157.303-.008.121.034.239.115.324l.04.037"/><path d="M19.352 47.343c.068.054.152.084.238.084.084 0 .166-.029.234-.083.152-.12.201-.338.117-.518l-.116-.146c-.136-.107-.335-.107-.471-.001-.153.12-.202.34-.116.52l.114.144"/><path d="M20.24 52.286c.068.055.152.084.237.084s.167-.028.235-.082c.152-.12.201-.338.115-.518l-.114-.146c-.136-.107-.335-.108-.472-.001-.152.121-.201.34-.115.52l.114.143"/><path d="M7.405 49.978l.326.188.179.345c.068.132.201.215.344.215s.276-.083.344-.215l.179-.345.327-.188c.125-.073.204-.212.204-.363s-.079-.291-.204-.363l-.327-.188-.179-.345c-.068-.132-.201-.215-.344-.215s-.276.083-.344.215l-.179.345-.326.188c-.126.073-.205.212-.205.363s.078.29.205.363"/><path d="M21.371 45.198l.326.188.179.345c.069.133.201.215.345.215s.275-.083.344-.215l.179-.345.327-.188c.125-.073.203-.212.203-.363 0-.152-.078-.291-.203-.363l-.327-.189-.179-.344c-.068-.133-.2-.215-.344-.215s-.275.082-.345.215l-.179.344-.326.189c-.126.072-.205.211-.205.363 0 .151.079.29.205.363"/><path d="M21.545 51.955c0 .229.176.414.393.414h2.393c.217 0 .393-.185.393-.414 0-.229-.176-.414-.393-.414h-2.393c-.217.001-.393.186-.393.414"/></g><g sketch:type="MSShapeGroup" fill="#206FAC"><path d="M28.268 146.146h-.996l-.908-1.243c-.074-.102-.189-.16-.311-.16h-.035l-1.053-3.357c-.043-.137-.15-.236-.279-.271l-.307-3.245c-.01-.099-.051-.185-.112-.25v-1.449h1.655c.218 0 .394-.186.394-.414s-.176-.414-.394-.414h-1.763c-.085-.177-.214-.323-.374-.424v-.114c.144-.099.23-.267.23-.449 0-.196-.102-.378-.265-.472l-.019-.011-.01-.019c-.089-.174-.261-.281-.447-.281-.188 0-.357.107-.447.28l-.011.019-.019.012c-.164.094-.266.275-.266.472 0 .183.089.351.231.449v.114c-.275.174-.464.484-.48.847l-.001.019v1.396h-1.622c-.217 0-.394.186-.394.415v.472h-.47v-1.547c0-.229-.177-.414-.394-.414h-1.387l-.455-4.815c-.034-.354-.274-.635-.587-.72v-2.8760000000000003c-.027-.613-.399-1.124-.913-1.331v-.553l.006-.013.125-.073c.164-.094.266-.275.266-.471 0-.197-.102-.379-.266-.473l-.125-.073-.069-.133c-.09-.173-.262-.28-.448-.28-.187 0-.359.107-.448.281l-.069.132-.125.073c-.164.094-.266.275-.266.473 0 .195.103.377.266.471l.125.073.007.012v.554c-.514.207-.885.718-.913 1.331v2.8760000000000003c-.312.085-.553.366-.586.72l-.506 5.343h-1.054c-.217 0-.393.185-.393.414v1.13h-.707v-.582c0-.229-.176-.415-.393-.415h-1.669v-1.4149999999999998c-.016-.362-.205-.673-.48-.847v-.114c.143-.099.23-.267.23-.449 0-.196-.102-.378-.265-.472l-.018-.011-.01-.02c-.089-.173-.261-.28-.448-.28s-.358.107-.448.28l-.01.02-.018.011c-.164.094-.265.275-.265.472 0 .183.088.351.231.449v.114c-.16.101-.29.247-.374.424h-1.992c-.217 0-.393.186-.393.414s.176.414.393.414h1.885v1.449c-.062.065-.104.151-.113.25l-.307 3.245c-.129.034-.236.134-.279.271l-1.052 3.357h-.035c-.121 0-.236.059-.311.16l-.909 1.243h-.997c-.434 0-.785.371-.785.828 0 .458.352.828.785.828h25.431c.435 0 .786-.37.786-.828.005-.457-.347-.829-.781-.829zm-16.441 0l-.873-1.194.204-.279h8.79l.205.279-.874 1.194h-7.452zm-4.354-7.822h.715l.263 2.777h-1.242l.264-2.777zm.151-2.153v-.374c.009-.112.098-.2.206-.2.109 0 .197.088.206.2v1.652h-.412v-1.278zm7.29-8.445c.01-.176.083-.332.196-.446.115-.116.271-.187.442-.187.171 0 .327.07.442.187.112.114.186.271.195.446v2.819h-1.276v-2.819h.001zm8.094 18.42h-2.738l.378-.517.044-.059h5.168l.421.575h-3.273v.001zm2.031-1.888l.143.454h-3.812l.143-.454.019.001h3.489l.018-.001zm-.26-.827h-3.008l.105-.34h2.795l.108.34zm-2.642-1.168l.105-.332h2.066l.104.332h-2.275zm.781-3.939h.715l.264 2.777h-1.242l.263-2.777zm.562-.875h-.411v-1.652c.009-.112.098-.2.206-.2.107 0 .197.088.205.2v1.652zm-9.322.958h2.789l.443 1.473h-.97l-.05-.031-.673-.357c-.117-.062-.254-.059-.368.008l-.609.357-.035.023h-.971l.444-1.473zm-.137 4.61v-1.855h.497v2.27h-.497v-.415zm1.283-2.27v-.285l.226-.133.271.145v2.957h-.497v-2.684zm1.78.789v1.895h-.498v-2.27h.498v.375zm.785.008h.262l.691 1.473h-.953v-1.473zm-4.896 0h.263v1.473h-.954l.691-1.473zm-6.177.387h2.067l.104.332h-2.275l.104-.332zm2.432 1.16l.107.34h-3.009l.107-.34h2.795zm.249 1.168h.034l.081-.008.145.461h-3.812l.142-.453h3.41zm-4.231 1.312h5.168l.043.059.377.517h-6.01l.422-.576zm13.766-8.636v1.547c0 .229.176.414.393.414h1.257c.217 0 .393-.186.393-.414v-.473h1.104l-.295 3.106c-.129.034-.234.134-.278.271l-.618 1.971-.012-.017c-.092-.128-.217-.222-.357-.274l-1.274-2.717c-.056-.117-.136-.217-.231-.292l-.822-2.729c-.034-.114-.092-.217-.164-.303l-.009-.091h.913v.001zm-4.346-.829l.37-3.905h1.034l.37 3.905h-1.774zm-4.569 1.903v.582c0 .229.176.414.393.414h1.492c.217 0 .393-.186.393-.414v-1.129h.419l-.781 2.595c-.096.075-.176.175-.231.292l-1.274 2.717c-.141.053-.265.146-.358.274l-.012.017-.618-1.971c-.043-.137-.15-.236-.279-.271l-.294-3.106h1.15z"/><path d="M11.738 132.148c.068.054.152.083.237.083.084 0 .167-.027.235-.082.152-.119.202-.338.117-.518l-.025-.045c-.073-.115-.195-.184-.327-.184-.084 0-.167.029-.235.082-.091.072-.149.184-.157.303-.008.121.034.238.115.324l.04.037"/><path d="M19.352 127.343c.068.054.152.084.238.084.084 0 .166-.029.234-.083.152-.12.201-.338.117-.518l-.116-.146c-.136-.107-.335-.107-.471-.002-.153.121-.202.34-.116.52l.114.145"/><path d="M20.24 132.286c.068.055.152.084.237.084s.167-.029.235-.082c.152-.12.201-.339.115-.518l-.114-.146c-.136-.107-.335-.107-.472-.002-.152.121-.201.341-.115.521l.114.143"/><path d="M7.405 129.978l.326.188.179.346c.068.132.201.215.344.215s.276-.083.344-.215l.179-.346.327-.188c.125-.073.204-.213.204-.363 0-.151-.079-.291-.204-.363l-.327-.188-.179-.345c-.068-.133-.201-.215-.344-.215s-.276.082-.344.215l-.179.345-.326.188c-.126.072-.205.212-.205.363 0 .15.078.289.205.363"/><path d="M21.371 125.198l.326.188.179.345c.069.133.201.216.345.216s.275-.083.344-.216l.179-.345.327-.188c.125-.073.203-.213.203-.363 0-.152-.078-.291-.203-.363l-.327-.189-.179-.344c-.068-.133-.2-.215-.344-.215s-.275.082-.345.215l-.179.344-.326.189c-.126.072-.205.211-.205.363 0 .15.079.29.205.363"/><path d="M21.545 131.954c0 .229.176.414.393.414h2.393c.217 0 .393-.185.393-.414 0-.229-.176-.413-.393-.413h-2.393c-.217 0-.393.185-.393.413"/></g></svg>