<svg width="32" height="232" viewBox="0 0 32 232" xmlns="http://www.w3.org/2000/svg" xmlns:sketch="http://www.bohemiancoding.com/sketch/ns"><title>Galipolli-Peninsula</title><desc>Created with Sketch.</desc><g sketch:type="MSPage" fill="none"><g sketch:type="MSLayerGroup"><g fill="#fff" sketch:type="MSShapeGroup"><path d="M19.849 89.109c.19.181.433.28.685.28h1.43l-.004.084c0 .279.112.545.306.73.165.157.377.243.596.243h3.01c.497 0 .902-.437.902-.973 0-.537-.405-.973-.902-.973h-.087l.022-.231c0-.617-.465-1.12-1.037-1.12h-4.236c-.252 0-.496.099-.685.28-.224.213-.352.518-.352.839 0 .321.128.627.352.839zm.545-1.012l.141-.058h4.236c.118 0 .214.103.214.231 0 .127-.096.231-.214.231-.227 0-.412.199-.412.444h-.002c0 .245.184.444.412.444h1.103c.043 0 .078.038.078.084 0 .046-.035.085-.078.085h-3.01l-.051-.022-.027-.063.027-.063.051-.021h.002c.227 0 .412-.199.412-.444 0-.246-.184-.444-.412-.444h-2.329l-.141-.058c-.027-.026-.073-.083-.073-.173 0-.09.046-.147.073-.173z" id="Fill-1"/><path d="M29.497 106.217c-.245 0-.35-.044-.496-.106-.176-.074-.395-.166-.795-.166l-.297.02v-2.03c0-.245-.184-.444-.412-.444h-.553v-1.393c0-.246-.184-.445-.412-.445h-2.986v-3.218c0-.221-.15-.408-.352-.44l-3.047-.478-.006-.001-.019-.002-.027-.002h-.021l-.026.002-.021.003-.025.005-.021.005-.027.009-.013.004-1.16.478c-.16.066-.265.231-.265.415v3.218h-1.227v-8.155c.679-.054 1.25-.085 1.668-.085 2.515 0 4.191.26 5.669.489l.201.031c1.083.167 2.043.306 3.161.306.227 0 .412-.199.412-.444s-.184-.444-.412-.444c-1.128 0-2.109-.152-3.245-.328-1.506-.233-3.212-.498-5.787-.498-.424 0-.995.03-1.668.083v-4.767c0-.416-.267-.776-.643-.867l-7.87-1.909-.051-.009-.035-.006-.098-.006-.023.002-.076.006-.039.007-.06.013-.04.013-.057.022-.037.017-.059.032-.023.013-2.997 1.908c-.251.16-.405.451-.405.765v6.321c-1.12.162-1.869.275-1.989.293-.225.034-.382.259-.351.502.029.222.205.383.407.383l.057-.004c.03-.005.749-.113 1.876-.276v6.594h-.402c-.227 0-.412.199-.412.445v1.393h-.51c-.227 0-.412.199-.412.444v2.115c-.153-.055-.348-.105-.64-.105-.227 0-.412.199-.412.444s.184.444.412.444c.245 0 .35.044.495.106.176.074.395.166.795.166s.619-.092.795-.166c.145-.061.25-.106.495-.106s.35.044.495.106c.176.074.395.166.795.166s.619-.092.795-.166c.145-.061.25-.106.495-.106s.35.044.495.106c.176.074.395.166.795.166s.619-.092.795-.166c.145-.061.25-.106.495-.106s.35.044.495.106c.176.074.395.166.795.166s.619-.092.795-.166c.145-.061.25-.106.495-.106s.35.044.495.106c.176.074.395.166.795.166s.619-.092.795-.166c.145-.061.25-.106.495-.106s.35.044.495.106c.176.074.395.166.795.166s.619-.092.795-.166c.145-.061.25-.106.496-.106.245 0 .35.044.495.106.176.074.395.166.795.166s.619-.092.795-.166c.145-.061.25-.106.495-.106s.35.044.496.106c.176.074.395.166.795.166s.619-.092.795-.166c.145-.061.251-.106.496-.106s.35.044.495.106c.176.074.395.166.795.166s.619-.092.795-.166c.145-.061.25-.106.496-.106.245 0 .35.044.495.106.176.074.395.166.795.166s.619-.092.795-.166c.146-.061.251-.106.496-.106s.35.044.496.106c.176.074.395.166.795.166.227 0 .412-.199.412-.444 0-.246-.184-.445-.412-.445zm-23.076-11.393v-6.476l1.35-.86v13.791h-1.35v-6.455zm2.997-7.781l6.223 1.509v12.727h-1.383v-11.229c0-.211-.138-.393-.329-.435l-2.633-.582c-.121-.027-.247.007-.343.091-.096.084-.151.211-.151.344v11.81h-1.383v-14.237zm2.206 14.237v-11.266l1.81.4v11.241h-1.81v-.375zm-3.776 1.264h18.271v.826h-21.336v-.826h3.064zm11.49-3.801l.337-.139v2.977h-.337v-2.839zm3.384 2.839h-2.224v-3.109l2.224.349v2.76zm-18.86 2.799h23.223v1.3h-23.223v-1.3z" id="Fill-2"/><path d="M26.915 108.055c-.245 0-.35-.044-.495-.106-.176-.074-.395-.166-.795-.166s-.619.092-.795.166c-.145.061-.251.106-.496.106s-.35-.044-.495-.106c-.176-.074-.395-.166-.795-.166s-.619.092-.795.166c-.145.061-.25.106-.496.106-.245 0-.35-.044-.495-.106-.176-.074-.395-.166-.795-.166s-.619.092-.795.166c-.145.061-.25.106-.495.106s-.35-.044-.496-.106c-.176-.074-.395-.166-.795-.166s-.619.092-.795.166c-.145.061-.25.106-.496.106-.245 0-.35-.044-.495-.106-.176-.074-.395-.166-.795-.166s-.619.092-.795.166c-.145.061-.25.106-.495.106s-.35-.044-.495-.106c-.176-.074-.395-.166-.795-.166-.227 0-.412.199-.412.444s.184.444.412.444c.245 0 .35.044.495.105.176.074.395.166.795.166s.619-.092.795-.166c.145-.061.25-.105.495-.105s.35.044.495.105c.176.074.395.166.795.166s.619-.092.795-.166c.145-.061.25-.106.496-.106.245 0 .35.044.495.105.176.074.395.166.795.166s.619-.092.795-.166c.145-.061.25-.105.495-.105s.35.044.496.106c.176.074.395.166.795.166s.619-.092.795-.166c.145-.061.251-.106.496-.106s.35.044.495.105c.176.074.395.166.795.166s.619-.092.795-.166c.145-.061.25-.106.496-.106.245 0 .35.044.495.105.176.074.395.166.795.166.227 0 .412-.199.412-.444s-.184-.444-.412-.444" id="Fill-3"/></g><g fill="#373D43" sketch:type="MSShapeGroup"><path d="M19.849 6.109c.19.181.433.28.685.28h1.43l-.004.084c0 .279.112.545.306.73.165.157.377.243.596.243h3.01c.497 0 .902-.437.902-.973 0-.537-.405-.973-.902-.973h-.087l.022-.231c0-.617-.465-1.12-1.037-1.12h-4.236c-.252 0-.496.099-.685.28-.224.213-.352.518-.352.839 0 .321.128.627.352.839zm.545-1.012l.141-.058h4.236c.118 0 .214.103.214.231 0 .127-.096.231-.214.231-.227 0-.412.199-.412.444h-.002c0 .245.184.444.412.444h1.103c.043 0 .078.038.078.084 0 .046-.035.085-.078.085h-3.01l-.051-.022-.027-.063.027-.063.051-.021h.002c.227 0 .412-.199.412-.444 0-.246-.184-.444-.412-.444h-2.329l-.141-.058c-.027-.026-.073-.083-.073-.173 0-.09.046-.147.073-.173z" id="Fill-1"/><path d="M29.497 23.217c-.245 0-.35-.044-.496-.106-.176-.074-.395-.166-.795-.166l-.297.02v-2.03c0-.245-.184-.444-.412-.444h-.553v-1.393c0-.246-.184-.445-.412-.445h-2.986v-3.218c0-.221-.15-.408-.352-.44l-3.047-.478-.006-.001-.019-.002-.027-.002h-.021l-.026.002-.021.003-.025.005-.021.005-.027.009-.013.004-1.16.478c-.16.066-.265.231-.265.415v3.218h-1.227v-8.155c.679-.054 1.25-.085 1.668-.085 2.515 0 4.191.26 5.669.489l.201.031c1.083.167 2.043.306 3.161.306.227 0 .412-.199.412-.444s-.184-.444-.412-.444c-1.128 0-2.109-.152-3.245-.328-1.506-.233-3.212-.498-5.787-.498-.424 0-.995.03-1.668.083v-4.767c0-.416-.267-.776-.643-.867l-7.87-1.909-.051-.009-.035-.006-.098-.006-.023.002-.076.006-.039.007-.06.013-.04.013-.057.022-.037.017-.059.032-.023.013-2.997 1.908c-.251.16-.405.451-.405.765v6.321c-1.12.162-1.869.275-1.989.293-.225.034-.382.259-.351.502.029.222.205.383.407.383l.057-.004c.03-.005.749-.113 1.876-.276v6.594h-.402c-.227 0-.412.199-.412.445v1.393h-.51c-.227 0-.412.199-.412.444v2.115c-.153-.055-.348-.105-.64-.105-.227 0-.412.199-.412.444s.184.444.412.444c.245 0 .35.044.495.106.176.074.395.166.795.166s.619-.092.795-.166c.145-.061.25-.106.495-.106s.35.044.495.106c.176.074.395.166.795.166s.619-.092.795-.166c.145-.061.25-.106.495-.106s.35.044.495.106c.176.074.395.166.795.166s.619-.092.795-.166c.145-.061.25-.106.495-.106s.35.044.495.106c.176.074.395.166.795.166s.619-.092.795-.166c.145-.061.25-.106.495-.106s.35.044.495.106c.176.074.395.166.795.166s.619-.092.795-.166c.145-.061.25-.106.495-.106s.35.044.495.106c.176.074.395.166.795.166s.619-.092.795-.166c.145-.061.25-.106.496-.106.245 0 .35.044.495.106.176.074.395.166.795.166s.619-.092.795-.166c.145-.061.25-.106.495-.106s.35.044.496.106c.176.074.395.166.795.166s.619-.092.795-.166c.145-.061.251-.106.496-.106s.35.044.495.106c.176.074.395.166.795.166s.619-.092.795-.166c.145-.061.25-.106.496-.106.245 0 .35.044.495.106.176.074.395.166.795.166s.619-.092.795-.166c.146-.061.251-.106.496-.106s.35.044.496.106c.176.074.395.166.795.166.227 0 .412-.199.412-.444 0-.246-.184-.445-.412-.445zm-23.076-11.393v-6.476l1.35-.86v13.791h-1.35v-6.455zm2.997-7.781l6.223 1.509v12.727h-1.383v-11.229c0-.211-.138-.393-.329-.435l-2.633-.582c-.121-.027-.247.007-.343.091-.096.084-.151.211-.151.344v11.81h-1.383v-14.237zm2.206 14.237v-11.266l1.81.4v11.241h-1.81v-.375zm-3.776 1.264h18.271v.826h-21.336v-.826h3.064zm11.49-3.801l.337-.139v2.977h-.337v-2.839zm3.384 2.839h-2.224v-3.109l2.224.349v2.76zm-18.86 2.799h23.223v1.3h-23.223v-1.3z" id="Fill-2"/><path d="M26.915 25.055c-.245 0-.35-.044-.495-.106-.176-.074-.395-.166-.795-.166s-.619.092-.795.166c-.145.061-.251.106-.496.106s-.35-.044-.495-.106c-.176-.074-.395-.166-.795-.166s-.619.092-.795.166c-.145.061-.25.106-.496.106-.245 0-.35-.044-.495-.106-.176-.074-.395-.166-.795-.166s-.619.092-.795.166c-.145.061-.25.106-.495.106s-.35-.044-.496-.106c-.176-.074-.395-.166-.795-.166s-.619.092-.795.166c-.145.061-.25.106-.496.106-.245 0-.35-.044-.495-.106-.176-.074-.395-.166-.795-.166s-.619.092-.795.166c-.145.061-.25.106-.495.106s-.35-.044-.495-.106c-.176-.074-.395-.166-.795-.166-.227 0-.412.199-.412.444s.184.444.412.444c.245 0 .35.044.495.105.176.074.395.166.795.166s.619-.092.795-.166c.145-.061.25-.105.495-.105s.35.044.495.105c.176.074.395.166.795.166s.619-.092.795-.166c.145-.061.25-.106.496-.106.245 0 .35.044.495.105.176.074.395.166.795.166s.619-.092.795-.166c.145-.061.25-.105.495-.105s.35.044.496.106c.176.074.395.166.795.166s.619-.092.795-.166c.145-.061.251-.106.496-.106s.35.044.495.105c.176.074.395.166.795.166s.619-.092.795-.166c.145-.061.25-.106.496-.106.245 0 .35.044.495.105.176.074.395.166.795.166.227 0 .412-.199.412-.444s-.184-.444-.412-.444" id="Fill-3"/></g><g fill="#67737B" sketch:type="MSShapeGroup"><path d="M19.849 49.109c.19.181.433.28.685.28h1.43l-.004.084c0 .279.112.545.306.73.165.157.377.243.596.243h3.01c.497 0 .902-.437.902-.973 0-.537-.405-.973-.902-.973h-.087l.022-.231c0-.617-.465-1.12-1.037-1.12h-4.236c-.252 0-.496.099-.685.28-.224.213-.352.518-.352.839 0 .321.128.627.352.839zm.545-1.012l.141-.058h4.236c.118 0 .214.103.214.231 0 .127-.096.231-.214.231-.227 0-.412.199-.412.444h-.002c0 .245.184.444.412.444h1.103c.043 0 .078.038.078.084 0 .046-.035.085-.078.085h-3.01l-.051-.022-.027-.063.027-.063.051-.021h.002c.227 0 .412-.199.412-.444 0-.246-.184-.444-.412-.444h-2.329l-.141-.058c-.027-.026-.073-.083-.073-.173 0-.09.046-.147.073-.173z" id="Fill-1"/><path d="M29.497 66.217c-.245 0-.35-.044-.496-.106-.176-.074-.395-.166-.795-.166l-.297.02v-2.03c0-.245-.184-.444-.412-.444h-.553v-1.393c0-.246-.184-.445-.412-.445h-2.986v-3.218c0-.221-.15-.408-.352-.44l-3.047-.478-.006-.001-.019-.002-.027-.002h-.021l-.026.002-.021.003-.025.005-.021.005-.027.009-.013.004-1.16.478c-.16.066-.265.231-.265.415v3.218h-1.227v-8.155c.679-.054 1.25-.085 1.668-.085 2.515 0 4.191.26 5.669.489l.201.031c1.083.167 2.043.306 3.161.306.227 0 .412-.199.412-.444s-.184-.444-.412-.444c-1.128 0-2.109-.152-3.245-.328-1.506-.233-3.212-.498-5.787-.498-.424 0-.995.03-1.668.083v-4.767c0-.416-.267-.776-.643-.867l-7.87-1.909-.051-.009-.035-.006-.098-.006-.023.002-.076.006-.039.007-.06.013-.04.013-.057.022-.037.017-.059.032-.023.013-2.997 1.908c-.251.16-.405.451-.405.765v6.321c-1.12.162-1.869.275-1.989.293-.225.034-.382.259-.351.502.029.222.205.383.407.383l.057-.004c.03-.005.749-.113 1.876-.276v6.594h-.402c-.227 0-.412.199-.412.445v1.393h-.51c-.227 0-.412.199-.412.444v2.115c-.153-.055-.348-.105-.64-.105-.227 0-.412.199-.412.444s.184.444.412.444c.245 0 .35.044.495.106.176.074.395.166.795.166s.619-.092.795-.166c.145-.061.25-.106.495-.106s.35.044.495.106c.176.074.395.166.795.166s.619-.092.795-.166c.145-.061.25-.106.495-.106s.35.044.495.106c.176.074.395.166.795.166s.619-.092.795-.166c.145-.061.25-.106.495-.106s.35.044.495.106c.176.074.395.166.795.166s.619-.092.795-.166c.145-.061.25-.106.495-.106s.35.044.495.106c.176.074.395.166.795.166s.619-.092.795-.166c.145-.061.25-.106.495-.106s.35.044.495.106c.176.074.395.166.795.166s.619-.092.795-.166c.145-.061.25-.106.496-.106.245 0 .35.044.495.106.176.074.395.166.795.166s.619-.092.795-.166c.145-.061.25-.106.495-.106s.35.044.496.106c.176.074.395.166.795.166s.619-.092.795-.166c.145-.061.251-.106.496-.106s.35.044.495.106c.176.074.395.166.795.166s.619-.092.795-.166c.145-.061.25-.106.496-.106.245 0 .35.044.495.106.176.074.395.166.795.166s.619-.092.795-.166c.146-.061.251-.106.496-.106s.35.044.496.106c.176.074.395.166.795.166.227 0 .412-.199.412-.444 0-.246-.184-.445-.412-.445zm-23.076-11.393v-6.476l1.35-.86v13.791h-1.35v-6.455zm2.997-7.781l6.223 1.509v12.727h-1.383v-11.229c0-.211-.138-.393-.329-.435l-2.633-.582c-.121-.027-.247.007-.343.091-.096.084-.151.211-.151.344v11.81h-1.383v-14.237zm2.206 14.237v-11.266l1.81.4v11.241h-1.81v-.375zm-3.776 1.264h18.271v.826h-21.336v-.826h3.064zm11.49-3.801l.337-.139v2.977h-.337v-2.839zm3.384 2.839h-2.224v-3.109l2.224.349v2.76zm-18.86 2.799h23.223v1.3h-23.223v-1.3z" id="Fill-2"/><path d="M26.915 68.055c-.245 0-.35-.044-.495-.106-.176-.074-.395-.166-.795-.166s-.619.092-.795.166c-.145.061-.251.106-.496.106s-.35-.044-.495-.106c-.176-.074-.395-.166-.795-.166s-.619.092-.795.166c-.145.061-.25.106-.496.106-.245 0-.35-.044-.495-.106-.176-.074-.395-.166-.795-.166s-.619.092-.795.166c-.145.061-.25.106-.495.106s-.35-.044-.496-.106c-.176-.074-.395-.166-.795-.166s-.619.092-.795.166c-.145.061-.25.106-.496.106-.245 0-.35-.044-.495-.106-.176-.074-.395-.166-.795-.166s-.619.092-.795.166c-.145.061-.25.106-.495.106s-.35-.044-.495-.106c-.176-.074-.395-.166-.795-.166-.227 0-.412.199-.412.444s.184.444.412.444c.245 0 .35.044.495.105.176.074.395.166.795.166s.619-.092.795-.166c.145-.061.25-.105.495-.105s.35.044.495.105c.176.074.395.166.795.166s.619-.092.795-.166c.145-.061.25-.106.496-.106.245 0 .35.044.495.105.176.074.395.166.795.166s.619-.092.795-.166c.145-.061.25-.105.495-.105s.35.044.496.106c.176.074.395.166.795.166s.619-.092.795-.166c.145-.061.251-.106.496-.106s.35.044.495.105c.176.074.395.166.795.166s.619-.092.795-.166c.145-.061.25-.106.496-.106.245 0 .35.044.495.105.176.074.395.166.795.166.227 0 .412-.199.412-.444s-.184-.444-.412-.444" id="Fill-3"/></g><g fill="#206FAC" sketch:type="MSShapeGroup"><path d="M19.849 130.109c.19.181.433.28.685.28h1.43l-.004.084c0 .279.112.545.306.73.165.157.377.243.596.243h3.01c.497 0 .902-.437.902-.973 0-.537-.405-.973-.902-.973h-.087l.022-.231c0-.617-.465-1.12-1.037-1.12h-4.236c-.252 0-.496.099-.685.28-.224.213-.352.518-.352.839 0 .321.128.627.352.839zm.545-1.012l.141-.058h4.236c.118 0 .214.103.214.231 0 .127-.096.231-.214.231-.227 0-.412.199-.412.444h-.002c0 .245.184.444.412.444h1.103c.043 0 .078.038.078.084 0 .046-.035.085-.078.085h-3.01l-.051-.022-.027-.063.027-.063.051-.021h.002c.227 0 .412-.199.412-.444 0-.246-.184-.444-.412-.444h-2.329l-.141-.058c-.027-.026-.073-.083-.073-.173 0-.09.046-.147.073-.173z"/><path d="M29.497 147.217c-.245 0-.35-.044-.496-.106-.176-.074-.395-.166-.795-.166l-.297.02v-2.03c0-.245-.184-.444-.412-.444h-.553v-1.393c0-.246-.184-.445-.412-.445h-2.986v-3.218c0-.221-.15-.408-.352-.44l-3.047-.478-.006-.001-.019-.002-.027-.002h-.021l-.026.002-.021.003-.025.005-.021.005-.027.009-.013.004-1.16.478c-.16.066-.265.231-.265.415v3.218h-1.227v-8.155c.679-.054 1.25-.085 1.668-.085 2.515 0 4.191.26 5.669.489l.201.031c1.083.167 2.043.306 3.161.306.227 0 .412-.199.412-.444s-.184-.444-.412-.444c-1.128 0-2.109-.152-3.245-.328-1.506-.233-3.212-.498-5.787-.498-.424 0-.995.03-1.668.083v-4.767c0-.416-.267-.776-.643-.867l-7.87-1.909-.051-.009-.035-.006-.098-.006-.023.002-.076.006-.039.007-.06.013-.04.013-.057.022-.037.017-.059.032-.023.013-2.997 1.908c-.251.16-.405.451-.405.765v6.321c-1.12.162-1.869.275-1.989.293-.225.034-.382.259-.351.502.029.222.205.383.407.383l.057-.004c.03-.005.749-.113 1.876-.276v6.594h-.402c-.227 0-.412.199-.412.445v1.393h-.51c-.227 0-.412.199-.412.444v2.115c-.153-.055-.348-.105-.64-.105-.227 0-.412.199-.412.444s.184.444.412.444c.245 0 .35.044.495.106.176.074.395.166.795.166s.619-.092.795-.166c.145-.061.25-.106.495-.106s.35.044.495.106c.176.074.395.166.795.166s.619-.092.795-.166c.145-.061.25-.106.495-.106s.35.044.495.106c.176.074.395.166.795.166s.619-.092.795-.166c.145-.061.25-.106.495-.106s.35.044.495.106c.176.074.395.166.795.166s.619-.092.795-.166c.145-.061.25-.106.495-.106s.35.044.495.106c.176.074.395.166.795.166s.619-.092.795-.166c.145-.061.25-.106.495-.106s.35.044.495.106c.176.074.395.166.795.166s.619-.092.795-.166c.145-.061.25-.106.496-.106.245 0 .35.044.495.106.176.074.395.166.795.166s.619-.092.795-.166c.145-.061.25-.106.495-.106s.35.044.496.106c.176.074.395.166.795.166s.619-.092.795-.166c.145-.061.251-.106.496-.106s.35.044.495.106c.176.074.395.166.795.166s.619-.092.795-.166c.145-.061.25-.106.496-.106.245 0 .35.044.495.106.176.074.395.166.795.166s.619-.092.795-.166c.146-.061.251-.106.496-.106s.35.044.496.106c.176.074.395.166.795.166.227 0 .412-.199.412-.444 0-.246-.184-.445-.412-.445zm-23.076-11.393v-6.476l1.35-.86v13.791h-1.35v-6.455zm2.997-7.781l6.223 1.509v12.727h-1.383v-11.229c0-.211-.138-.393-.329-.435l-2.633-.582c-.121-.027-.247.007-.343.091-.096.084-.151.211-.151.344v11.81h-1.383v-14.237zm2.206 14.237v-11.266l1.81.4v11.241h-1.81v-.375zm-3.776 1.264h18.271v.826h-21.336v-.826h3.064zm11.49-3.801l.337-.139v2.977h-.337v-2.839zm3.384 2.839h-2.224v-3.109l2.224.349v2.76zm-18.86 2.799h23.223v1.3h-23.223v-1.3z"/><path d="M26.915 149.055c-.245 0-.35-.044-.495-.106-.176-.074-.395-.166-.795-.166s-.619.092-.795.166c-.145.061-.251.106-.496.106s-.35-.044-.495-.106c-.176-.074-.395-.166-.795-.166s-.619.092-.795.166c-.145.061-.25.106-.496.106-.245 0-.35-.044-.495-.106-.176-.074-.395-.166-.795-.166s-.619.092-.795.166c-.145.061-.25.106-.495.106s-.35-.044-.496-.106c-.176-.074-.395-.166-.795-.166s-.619.092-.795.166c-.145.061-.25.106-.496.106-.245 0-.35-.044-.495-.106-.176-.074-.395-.166-.795-.166s-.619.092-.795.166c-.145.061-.25.106-.495.106s-.35-.044-.495-.106c-.176-.074-.395-.166-.795-.166-.227 0-.412.199-.412.444s.184.444.412.444c.245 0 .35.044.495.105.176.074.395.166.795.166s.619-.092.795-.166c.145-.061.25-.105.495-.105s.35.044.495.105c.176.074.395.166.795.166s.619-.092.795-.166c.145-.061.25-.106.496-.106.245 0 .35.044.495.105.176.074.395.166.795.166s.619-.092.795-.166c.145-.061.25-.105.495-.105s.35.044.496.106c.176.074.395.166.795.166s.619-.092.795-.166c.145-.061.251-.106.496-.106s.35.044.495.105c.176.074.395.166.795.166s.619-.092.795-.166c.145-.061.25-.106.496-.106.245 0 .35.044.495.105.176.074.395.166.795.166.227 0 .412-.199.412-.444s-.184-.444-.412-.444"/></g></g></g></svg>