<svg xmlns:sketch="http://www.bohemiancoding.com/sketch/ns" xmlns="http://www.w3.org/2000/svg" width="32" height="232" viewBox="0 0 32 232"><title>Chicago</title><desc>Created with Sketch.</desc><g sketch:type="MSShapeGroup" fill="#373D43"><path d="M27.751 25.93h-1.263v-4.479h.889c.225 0 .404-.183.404-.407s-.182-.407-.404-.407h-.889v-3.087c0-.225-.182-.407-.404-.407h-2.787c-.148 0-.286.083-.355.215s-.062.292.021.418l.576.87-.576.87c-.083.125-.09.286-.021.418.069.132.207.215.355.215h2.383v.489h-2.281c-.224 0-.403.183-.403.407v.605h-.526l-.673-12.431c-.022-.432-.377-.77-.807-.77h-.15v-2.524c0-.225-.181-.407-.403-.407-.224 0-.404.183-.404.407v2.524h-1.299v-2.524c0-.225-.182-.407-.404-.407s-.403.183-.403.407v2.524h-.149c-.431 0-.784.338-.809.77l-.501 9.261h-.688v-1.344c0-.354-.226-.655-.539-.767v-4.038c0-.305-.166-.57-.412-.71v-4.095c0-.423-.32-.771-.73-.81v-2.393c0-.225-.181-.408-.404-.408-.223 0-.404.183-.404.408v2.389h-.246v-.865c0-.225-.181-.407-.404-.407s-.404.183-.404.407v.865h-.246v-2.389c0-.225-.181-.408-.404-.408-.223 0-.404.183-.404.408v2.393c-.41.039-.73.387-.73.81v4.096c-.245.14-.412.405-.412.709v1.792h-3.041c-.224 0-.404.182-.404.407 0 .225.18.407.404.407h3.038v1.432c-.313.112-.539.413-.539.767v3.502h-2.026c-.224 0-.404.183-.404.407v4.886h-.48l-.093-6.939 1.013.889c.076.067.171.1.265.1.112 0 .225-.047.304-.14.146-.169.129-.427-.039-.574l-1.4-1.229 1.218-1.411c.146-.169.129-.426-.04-.574-.168-.147-.423-.13-.57.04l-1.218 1.411-1.4-1.228c-.168-.148-.423-.13-.57.04-.146.17-.128.427.04.575l1.4 1.228-1.218 1.411c-.146.17-.129.426.04.575.076.066.17.1.265.1.113 0 .225-.047.304-.14l.76-.88-.09 6.748h-.812c-.446 0-.808.365-.808.814 0 .45.361.815.808.815h23.003999999999998c.445 0 .809-.365.809-.815-.002-.452-.364-.817-.81-.817zm-5.052 0l-.01-.202c.332-.367.535-.855.535-1.39 0-.541-.207-1.053-.584-1.441l-.011-.011-.035-.034-.065-.062-.019-.327h.886c.225 0 .404-.183.404-.407v-.605h1.878v4.479h-2.979zm-11.046-12.785h1.968v3.176h-1.968v-3.176zm8.833 12.228l-.035-.021c-.619-.336-1.32-.515-2.026-.515-.231 0-.462.021-.69.059-.467.077-.92.229-1.336.456l-.034.021-.14.08-.14.061c-.1.036-.203.058-.308.067l-.105.006c-.684 0-1.239-.56-1.239-1.249 0-.326.125-.634.351-.869l.03-.03.068-.062.011-.01c.244-.213.542-.399.885-.554.146-.066.302-.127.463-.181.492-.166 1.048-.276 1.636-.318l.55-.02c.915 0 1.778.161 2.483.449.409.168.769.378 1.049.625l.002.001.009.008.069.064.026.025c.228.235.353.545.353.872 0 .688-.555 1.249-1.237 1.249l-.115-.007c-.151-.015-.299-.056-.438-.127l-.142-.08zm-1.996-14.436l.318.321-.354.358.036-.679zm1.807 4.44l-.916.924-.918-.924.918-.924.916.924zm.077 3.078l-.993 1.001-.994-1.001.994-1.001.993 1.001zm.146 3.302c-.617-.173-1.301-.269-2.006-.275l.867-.874 1.139 1.149zm.289-.861l-.856-.864.771-.775.085 1.639zm-.181-3.337l-.677-.682.607-.611.07 1.293zm-.171-3.172l-.506-.509.453-.457.053.966zm-.15-2.771l-.354-.358.317-.321.037.679zm-.2.952l-.728.734-.729-.734.729-.734.728.734zm-1.298 1.309l-.504.509.053-.966.451.457zm0 3l-.676.682.069-1.293.607.611zm0 3.155l-.856.864.09-1.64.766.776zm-2.523 1.737c-.176.05-.346.106-.51.168v-2.644h.645l-.135 2.476zm7.766-2.436l.308-.462c.091-.137.091-.315 0-.452l-.308-.462h1.628v1.377l-1.628-.001zm-4.072-9.256l-.601.605-.601-.605h1.202zm-7.915-1.737h1.145v3.176h-1.145v-3.176zm-4.189 13.111h1.623v4.479h-1.623v-4.479zm3.239 4.479v-7.981h3.045v4.999c-.347.381-.536.872-.536 1.39 0 .535.203 1.023.536 1.391v.201h-3.045zm6.565 0l.01-.197c.24-.053.487-.082.735-.082.466 0 .927.097 1.353.279h-2.098z"/><path d="M5.732 13.716h3.651c.223 0 .404-.182.404-.407s-.181-.407-.404-.407h-3.651c-.141 0-.255-.116-.255-.258s.115-.258.255-.258c.224 0 .404-.183.404-.407 0-.225-.181-.407-.404-.407-.586 0-1.063.48-1.063 1.072 0 .592.477 1.072 1.063 1.072"/><path d="M23.021 15.14h2.524c.224 0 .403-.183.403-.407 0-.225-.182-.408-.403-.408h-2.524c-.224 0-.403.183-.403.408-.001.225.18.407.403.407"/><path d="M24.283 14.013h1.42c.223 0 .404-.182.404-.407s-.183-.408-.404-.408h-1.42c-.223 0-.404.183-.404.408s.182.407.404.407"/><path d="M18.08 22.995l-.243.015c-.573.041-1.124.139-1.634.292l-.427.143-.288.118c-.204.091-.298.331-.208.537.066.152.214.244.37.244l.126-.022.037-.011.343-.135c.496-.178 1.051-.295 1.637-.345l.318-.02c.225-.009.396-.199.389-.423-.01-.227-.198-.4-.42-.393"/><path d="M19.305 23.007h-.108c-.224 0-.403.182-.403.407s.182.407.403.407h.108c.223 0 .403-.183.403-.407s-.181-.407-.403-.407"/></g><g sketch:type="MSShapeGroup" fill="#fff"><path d="M27.168 108.177h-1.23v-4.555h.867c.217 0 .396-.186.396-.414s-.179-.414-.396-.414h-.867v-3.14c0-.229-.178-.414-.395-.414h-2.719c-.146 0-.279.084-.348.219-.069.135-.062.298.02.425l.562.884-.562.885c-.081.127-.088.29-.02.425.067.135.2.219.348.219h2.324v.497h-2.228c-.217 0-.396.186-.396.414v.616h-.512l-.656-12.642c-.022-.439-.369-.783-.787-.783h-.146v-2.567c0-.229-.178-.414-.396-.414-.217 0-.395.186-.395.414v2.567h-1.268v-2.567c0-.229-.176-.414-.395-.414-.218 0-.395.186-.395.414v2.567h-.146c-.419 0-.765.344-.787.783l-.489 9.417h-.671v-1.367c0-.36-.22-.666-.526-.78v-4.106c0-.31-.162-.579-.402-.722v-4.165c0-.431-.312-.784-.712-.824v-2.433c0-.229-.176-.415-.394-.415-.217 0-.394.186-.394.415v2.429h-.239v-.879c0-.229-.177-.414-.394-.414-.218 0-.395.186-.395.414v.879h-.239v-2.429c0-.229-.176-.415-.394-.415s-.394.186-.394.415v2.433c-.4.04-.713.394-.713.824v4.165c-.239.142-.401.412-.401.721v1.822h-2.963c-.218 0-.394.186-.394.414 0 .229.176.414.394.414h2.963v1.456c-.306.114-.526.42-.526.78v3.562h-1.976c-.218 0-.395.186-.395.414v4.969h-.469l-.091-7.057.989.904c.074.068.167.102.259.102.109 0 .219-.048.297-.142.143-.172.125-.435-.039-.584l-1.366-1.25 1.188-1.435c.144-.172.126-.434-.039-.583-.164-.15-.413-.132-.556.04l-1.188 1.435-1.365-1.249c-.165-.15-.413-.132-.557.04-.142.173-.125.435.039.584l1.366 1.249-1.188 1.435c-.143.172-.125.434.039.584.074.068.167.102.259.102.11 0 .219-.048.297-.143l.741-.895-.088 6.862h-.793c-.435 0-.788.371-.788.828 0 .458.353.829.788.829h22.439999999999998c.436 0 .789-.371.789-.829.006-.455-.347-.826-.783-.826zm-4.927 0l-.011-.206c.324-.373.522-.869.522-1.414 0-.55-.202-1.071-.569-1.465l-.011-.011-.032-.035-.064-.063-.018-.332h.862c.218 0 .396-.186.396-.415v-.615h1.832v4.555l-2.907.001zm-10.776-13.003h1.92v3.23h-1.92v-3.23zm8.617 12.436l-.035-.021c-.604-.342-1.287-.523-1.977-.523-.225 0-.45.021-.672.059-.457.079-.899.234-1.306.464l-.034.021-.136.082-.137.062c-.098.037-.198.059-.3.068l-.103.006c-.667 0-1.208-.569-1.208-1.27 0-.332.122-.645.342-.884l.03-.031.065-.063.011-.01c.238-.217.529-.406.863-.563.143-.067.294-.129.452-.185.48-.169 1.021-.281 1.596-.323l.534-.021c.894 0 1.736.164 2.425.457.399.17.748.384 1.022.635l.002.002.008.008.068.065.025.026c.223.239.344.554.344.887 0 .7-.541 1.27-1.207 1.27l-.113-.007c-.147-.015-.291-.057-.428-.129l-.131-.082zm-1.946-14.68l.31.326-.346.365.036-.691zm1.76 4.515l-.895.939-.895-.939.895-.94.895.94zm.077 3.129l-.97 1.019-.969-1.019.969-1.018.97 1.018zm.142 3.359c-.604-.176-1.271-.273-1.957-.28l.845-.889 1.112 1.169zm.281-.875l-.836-.879.75-.788.086 1.667zm-.175-3.394l-.66-.693.592-.622.068 1.315zm-.168-3.226l-.492-.518.441-.464.051.982zm-.147-2.817l-.346-.365.311-.326.035.691zm-.193.967l-.71.746-.71-.746.71-.747.71.747zm-1.268 1.332l-.492.518.051-.982.441.464zm0 3.051l-.66.693.068-1.315.592.622zm0 3.207l-.836.879.086-1.667.75.788zm-2.46 1.767c-.171.051-.337.108-.498.171v-2.689h.628l-.13 2.518zm7.576-2.476l.299-.471c.089-.139.089-.32 0-.459l-.299-.471h1.588v1.401h-1.588zm-3.973-9.414l-.585.616-.585-.616h1.17zm-7.721-1.766h1.117v3.23h-1.117v-3.23zm-4.085 13.333h1.583v4.555h-1.583v-4.555zm3.158 4.555v-8.117h2.97v5.084c-.338.388-.523.887-.523 1.414 0 .544.199 1.041.523 1.414v.205h-2.97zm6.404 0l.01-.201c.235-.053.478-.083.717-.083.455 0 .904.099 1.32.284h-2.047z"/><path d="M5.689 95.755h3.562c.218 0 .394-.185.394-.414s-.176-.415-.394-.415h-3.562c-.137 0-.249-.118-.249-.262s.112-.262.249-.262c.218 0 .395-.186.395-.414 0-.229-.176-.414-.395-.414-.572 0-1.037.489-1.037 1.09s.466 1.091 1.037 1.091"/><path d="M22.555 97.204h2.463c.217 0 .396-.185.396-.414s-.179-.415-.396-.415h-2.463c-.218 0-.395.186-.395.415s.177.414.395.414"/><path d="M23.786 96.058h1.385c.218 0 .394-.185.394-.414s-.176-.415-.394-.415h-1.385c-.218 0-.394.186-.394.415s.176.414.394.414"/><path d="M17.734 105.192l-.236.015c-.559.041-1.097.141-1.594.296l-.417.145-.281.12c-.199.092-.291.336-.203.546.065.155.209.248.361.248l.123-.022.036-.012.335-.138c.484-.181 1.025-.3 1.597-.35l.311-.02c.219-.009.387-.202.379-.431-.009-.228-.194-.404-.411-.397"/><path d="M18.928 105.204h-.104c-.219 0-.395.186-.395.414s.176.414.395.414h.104c.219 0 .396-.186.396-.414s-.178-.414-.396-.414"/></g><g sketch:type="MSShapeGroup" fill="#67737B"><path d="M27.168 66.177h-1.23v-4.555h.867c.217 0 .396-.186.396-.414s-.179-.414-.396-.414h-.867v-3.14c0-.229-.178-.414-.395-.414h-2.719c-.146 0-.279.084-.348.219-.069.135-.062.298.02.425l.562.884-.562.885c-.081.127-.088.29-.02.425.067.135.2.219.348.219h2.324v.497h-2.228c-.217 0-.396.186-.396.414v.616h-.512l-.656-12.642c-.022-.439-.369-.783-.787-.783h-.146v-2.567c0-.229-.178-.414-.396-.414-.217 0-.395.186-.395.414v2.567h-1.268v-2.567c0-.229-.176-.414-.395-.414-.218 0-.395.186-.395.414v2.567h-.146c-.419 0-.765.344-.787.783l-.489 9.417h-.671v-1.367c0-.36-.22-.666-.526-.78v-4.106c0-.31-.162-.579-.402-.722v-4.165c0-.431-.312-.784-.712-.824v-2.433c0-.229-.176-.415-.394-.415-.217 0-.394.186-.394.415v2.429h-.239v-.879c0-.229-.177-.414-.394-.414-.218 0-.395.186-.395.414v.879h-.239v-2.429c0-.229-.176-.415-.394-.415s-.394.186-.394.415v2.433c-.4.04-.713.394-.713.824v4.165c-.239.142-.401.412-.401.721v1.822h-2.963c-.218 0-.394.186-.394.414 0 .229.176.414.394.414h2.963v1.456c-.306.114-.526.42-.526.78v3.562h-1.976c-.218 0-.395.186-.395.414v4.969h-.469l-.091-7.057.989.904c.074.068.167.102.259.102.109 0 .219-.048.297-.142.143-.172.125-.435-.039-.584l-1.366-1.25 1.188-1.435c.144-.172.126-.434-.039-.583-.164-.15-.413-.132-.556.04l-1.188 1.435-1.365-1.249c-.165-.15-.413-.132-.557.04-.142.173-.125.435.039.584l1.366 1.249-1.188 1.435c-.143.172-.125.434.039.584.074.068.167.102.259.102.11 0 .219-.048.297-.143l.741-.895-.088 6.862h-.793c-.435 0-.788.371-.788.828 0 .458.353.829.788.829h22.439999999999998c.436 0 .789-.371.789-.829.006-.455-.347-.826-.783-.826zm-4.927 0l-.011-.206c.324-.373.522-.869.522-1.414 0-.55-.202-1.071-.569-1.465l-.011-.011-.032-.035-.064-.063-.018-.332h.862c.218 0 .396-.186.396-.415v-.615h1.832v4.555l-2.907.001zm-10.776-13.003h1.92v3.23h-1.92v-3.23zm8.617 12.436l-.035-.021c-.604-.342-1.287-.523-1.977-.523-.225 0-.45.021-.672.059-.457.079-.899.234-1.306.464l-.034.021-.136.082-.137.062c-.098.037-.198.059-.3.068l-.103.006c-.667 0-1.208-.569-1.208-1.27 0-.332.122-.645.342-.884l.03-.031.065-.063.011-.01c.238-.217.529-.406.863-.563.143-.067.294-.129.452-.185.48-.169 1.021-.281 1.596-.323l.534-.021c.894 0 1.736.164 2.425.457.399.17.748.384 1.022.635l.002.002.008.008.068.065.025.026c.223.239.344.554.344.887 0 .7-.541 1.27-1.207 1.27l-.113-.007c-.147-.015-.291-.057-.428-.129l-.131-.082zm-1.946-14.68l.31.326-.346.365.036-.691zm1.76 4.515l-.895.939-.895-.939.895-.94.895.94zm.077 3.129l-.97 1.019-.969-1.019.969-1.018.97 1.018zm.142 3.359c-.604-.176-1.271-.273-1.957-.28l.845-.889 1.112 1.169zm.281-.875l-.836-.879.75-.788.086 1.667zm-.175-3.394l-.66-.693.592-.622.068 1.315zm-.168-3.226l-.492-.518.441-.464.051.982zm-.147-2.817l-.346-.365.311-.326.035.691zm-.193.967l-.71.746-.71-.746.71-.747.71.747zm-1.268 1.332l-.492.518.051-.982.441.464zm0 3.051l-.66.693.068-1.315.592.622zm0 3.207l-.836.879.086-1.667.75.788zm-2.46 1.767c-.171.051-.337.108-.498.171v-2.689h.628l-.13 2.518zm7.576-2.476l.299-.471c.089-.139.089-.32 0-.459l-.299-.471h1.588v1.401h-1.588zm-3.973-9.414l-.585.616-.585-.616h1.17zm-7.721-1.766h1.117v3.23h-1.117v-3.23zm-4.085 13.333h1.583v4.555h-1.583v-4.555zm3.158 4.555v-8.117h2.97v5.084c-.338.388-.523.887-.523 1.414 0 .544.199 1.041.523 1.414v.205h-2.97zm6.404 0l.01-.201c.235-.053.478-.083.717-.083.455 0 .904.099 1.32.284h-2.047z"/><path d="M5.689 53.755h3.562c.218 0 .394-.185.394-.414s-.176-.415-.394-.415h-3.562c-.137 0-.249-.118-.249-.262s.112-.262.249-.262c.218 0 .395-.186.395-.414 0-.229-.176-.414-.395-.414-.572 0-1.037.489-1.037 1.09s.466 1.091 1.037 1.091"/><path d="M22.555 55.204h2.463c.217 0 .396-.185.396-.414s-.179-.415-.396-.415h-2.463c-.218 0-.395.186-.395.415s.177.414.395.414"/><path d="M23.786 54.058h1.385c.218 0 .394-.185.394-.414s-.176-.415-.394-.415h-1.385c-.218 0-.394.186-.394.415s.176.414.394.414"/><path d="M17.734 63.192l-.236.015c-.559.041-1.097.141-1.594.296l-.417.145-.281.12c-.199.092-.291.336-.203.546.065.155.209.248.361.248l.123-.022.036-.012.335-.138c.484-.181 1.025-.3 1.597-.35l.311-.02c.219-.009.387-.202.379-.431-.009-.228-.194-.404-.411-.397"/><path d="M18.928 63.204h-.104c-.219 0-.395.186-.395.414s.176.414.395.414h.104c.219 0 .396-.186.396-.414s-.178-.414-.396-.414"/></g><g sketch:type="MSShapeGroup" fill="#206FAC"><path d="M27.168 148.048h-1.23v-4.556h.867c.217 0 .396-.186.396-.414s-.179-.414-.396-.414h-.867v-3.141c0-.229-.178-.414-.395-.414h-2.719c-.146 0-.279.085-.348.22-.069.135-.062.297.02.425l.562.885-.562.885c-.081.127-.088.291-.02.426.067.135.2.219.348.219h2.324v.497h-2.228c-.217 0-.396.187-.396.414v.616h-.512l-.656-12.643c-.022-.439-.369-.783-.787-.783h-.146v-2.566c0-.229-.178-.414-.396-.414-.217 0-.395.186-.395.414v2.566h-1.268v-2.566c0-.229-.176-.414-.395-.414-.218 0-.395.186-.395.414v2.566h-.146c-.419 0-.765.344-.787.783l-.489 9.418h-.671v-1.367c0-.359-.22-.666-.526-.779v-4.105c0-.311-.162-.58-.402-.723v-4.164c0-.432-.312-.785-.712-.824v-2.434c0-.229-.176-.414-.394-.414-.217 0-.394.186-.394.414v2.43h-.239v-.88c0-.229-.177-.414-.394-.414-.218 0-.395.187-.395.414v.88h-.239v-2.43c0-.229-.176-.414-.394-.414s-.394.186-.394.414v2.434c-.4.039-.713.393-.713.824v4.164c-.239.143-.401.412-.401.723v1.82h-2.963c-.218 0-.394.186-.394.414s.176.414.394.414h2.963v1.457c-.306.113-.526.42-.526.779v3.562h-1.976c-.218 0-.395.187-.395.414v4.97h-.469l-.091-7.058.989.903c.074.067.167.102.259.102.109 0 .219-.047.297-.143.143-.172.125-.435-.039-.584l-1.366-1.248 1.188-1.437c.144-.172.126-.435-.039-.584-.164-.149-.413-.132-.556.041l-1.188 1.435-1.365-1.248c-.165-.15-.413-.133-.557.041-.142.172-.125.434.039.584l1.366 1.248-1.188 1.436c-.143.173-.125.434.039.585.074.067.167.103.259.103.11 0 .219-.049.297-.144l.741-.896-.088 6.862h-.793c-.435 0-.788.37-.788.827 0 .458.353.829.788.829h22.439999999999998c.436 0 .789-.371.789-.829.006-.457-.347-.827-.783-.827zm-4.927 0l-.011-.206c.324-.373.522-.869.522-1.412 0-.552-.202-1.072-.569-1.467l-.011-.011-.032-.035-.064-.062-.018-.332h.862c.218 0 .396-.188.396-.416v-.614h1.832v4.556l-2.907-.001zm-10.776-13.004h1.92v3.229h-1.92v-3.229zm8.617 12.436l-.035-.021c-.604-.343-1.287-.521-1.977-.521-.225 0-.45.021-.672.059-.457.078-.899.234-1.306.464l-.034.021-.136.082-.137.062c-.098.036-.198.06-.3.067l-.103.007c-.667 0-1.208-.57-1.208-1.271 0-.332.122-.646.342-.885l.03-.029.065-.063.011-.011c.238-.217.529-.405.863-.562l.452-.186c.48-.168 1.021-.28 1.596-.322.176-.014.354-.021.534-.021.894 0 1.736.164 2.425.457.399.17.748.385 1.022.635l.002.003.008.008.068.065.025.025c.223.238.344.555.344.887 0 .699-.541 1.271-1.207 1.271l-.113-.009c-.147-.014-.291-.057-.428-.129l-.131-.083zm-1.946-14.679l.31.325-.346.365.036-.69zm1.76 4.513l-.895.939-.895-.939.895-.938.895.938zm.077 3.13l-.97 1.019-.969-1.019.969-1.019.97 1.019zm.142 3.359c-.604-.176-1.271-.271-1.957-.279l.845-.889 1.112 1.168zm.281-.875l-.836-.88.75-.786.086 1.666zm-.175-3.394l-.66-.692.592-.623.068 1.315zm-.168-3.225l-.492-.519.441-.465.051.984zm-.147-2.818l-.346-.365.311-.325.035.69zm-.193.967l-.71.746-.71-.746.71-.746.71.746zm-1.268 1.332l-.492.519.051-.982.441.463zm0 3.052l-.66.692.068-1.315.592.623zm0 3.206l-.836.88.086-1.666.75.786zm-2.46 1.766c-.171.052-.337.107-.498.172v-2.688h.628l-.13 2.516zm7.576-2.475l.299-.471c.089-.14.089-.32 0-.459l-.299-.472h1.588v1.4l-1.588.002zm-3.973-9.413l-.585.615-.585-.615h1.17zm-7.721-1.767h1.117v3.229h-1.117v-3.229zm-4.085 13.333h1.583v4.555h-1.583v-4.555zm3.158 4.556v-8.116h2.97v5.084c-.338.388-.523.887-.523 1.414 0 .543.199 1.039.523 1.414v.204h-2.97zm6.404 0l.01-.2c.235-.055.478-.084.717-.084.455 0 .904.1 1.32.284h-2.047z"/><path d="M5.689 135.626h3.562c.218 0 .394-.187.394-.414s-.176-.414-.394-.414h-3.562c-.137 0-.249-.118-.249-.263s.112-.264.249-.264c.218 0 .395-.186.395-.414 0-.228-.176-.413-.395-.413-.572 0-1.037.489-1.037 1.091s.466 1.091 1.037 1.091"/><path d="M22.555 137.073h2.463c.217 0 .396-.185.396-.414s-.179-.414-.396-.414h-2.463c-.218 0-.395.187-.395.414 0 .23.177.414.395.414"/><path d="M23.786 135.93h1.385c.218 0 .394-.187.394-.414 0-.229-.176-.416-.394-.416h-1.385c-.218 0-.394.188-.394.416.001.227.176.414.394.414"/><path d="M17.734 145.062l-.236.015c-.559.041-1.097.142-1.594.297l-.417.146-.281.119c-.199.094-.291.338-.203.547.065.153.209.248.361.248l.123-.023.036-.012.335-.137c.484-.183 1.025-.302 1.597-.352l.311-.021c.219-.009.387-.201.379-.43-.009-.229-.194-.404-.411-.397"/><path d="M18.928 145.074h-.104c-.219 0-.395.186-.395.414s.176.414.395.414h.104c.219 0 .396-.186.396-.414s-.178-.414-.396-.414"/></g></svg>