<svg width="33" height="232" viewBox="0 0 33 232" xmlns="http://www.w3.org/2000/svg" xmlns:sketch="http://www.bohemiancoding.com/sketch/ns"><title>1111 Bookings Icon</title><desc>Created with Sketch.</desc><g sketch:type="MSPage" fill="none"><g sketch:type="MSLayerGroup" fill="#373D43"><path d="M21.662 11.84c.89 0 1.612-.718 1.612-1.605v-4.531c0-.886-.722-1.604-1.612-1.604-.892 0-1.614.718-1.614 1.604v4.531c0 .887.722 1.605 1.614 1.605" id="Fill-1" sketch:type="MSShapeGroup"/><path d="M27.827 9.314l-.212-.21c-.821-.763-1.921-1.231-3.132-1.231h-.323v2.362c0 1.37-1.122 2.485-2.497 2.485-1.379 0-2.499-1.114-2.499-2.485v-2.362h-5.967v2.362c0 1.37-1.12 2.485-2.495 2.485-1.376 0-2.496-1.114-2.496-2.485v-2.36c-2.486.054-4.493 2.084-4.493 4.572v12.448c0 2.521 2.062 4.573 4.597 4.573h16.173c2.534 0 4.596-2.051 4.596-4.573v-12.448c0-1.212-.476-2.313-1.251-3.133zm-11.483 13.765l-1.194 1.193-1.194-1.193-3.283-3.284 1.194-1.194 3.283 3.283 6.12-6.12 1.193 1.194-6.12 6.12z" id="Fill-2" sketch:type="MSShapeGroup"/><path d="M10.701 11.84c.891 0 1.613-.718 1.613-1.605v-4.531c0-.886-.722-1.604-1.613-1.604-.89 0-1.612.718-1.612 1.604v4.531c0 .887.722 1.605 1.612 1.605" id="Fill-3" sketch:type="MSShapeGroup"/></g><g sketch:type="MSLayerGroup" fill="#67737B"><path d="M21.663 51.84c.89 0 1.612-.718 1.612-1.605v-4.531c0-.886-.722-1.604-1.612-1.604-.892 0-1.614.718-1.614 1.604v4.531c0 .887.722 1.605 1.614 1.605" id="Fill-1" sketch:type="MSShapeGroup"/><path d="M27.828 49.314l-.212-.21c-.821-.763-1.921-1.231-3.132-1.231h-.323v2.362c0 1.37-1.122 2.485-2.497 2.485-1.379 0-2.499-1.114-2.499-2.485v-2.362h-5.967v2.362c0 1.37-1.12 2.485-2.495 2.485-1.376 0-2.496-1.114-2.496-2.485v-2.36c-2.486.054-4.493 2.084-4.493 4.572v12.448c0 2.521 2.062 4.573 4.597 4.573h16.173c2.534 0 4.596-2.051 4.596-4.573v-12.448c0-1.212-.476-2.313-1.251-3.133zm-11.483 13.765l-1.194 1.193-1.194-1.193-3.283-3.284 1.194-1.194 3.283 3.283 6.12-6.12 1.193 1.194-6.12 6.12z" id="Fill-2" sketch:type="MSShapeGroup"/><path d="M10.702 51.84c.891 0 1.613-.718 1.613-1.605v-4.531c0-.886-.722-1.604-1.613-1.604-.89 0-1.612.718-1.612 1.604v4.531c0 .887.722 1.605 1.612 1.605" id="Fill-3" sketch:type="MSShapeGroup"/></g><g sketch:type="MSLayerGroup" fill="#fff"><path d="M21.663 90.84c.89 0 1.612-.718 1.612-1.605v-4.531c0-.886-.722-1.604-1.612-1.604-.892 0-1.614.718-1.614 1.604v4.531c0 .887.722 1.605 1.614 1.605" id="Fill-1" sketch:type="MSShapeGroup"/><path d="M27.828 88.314l-.212-.21c-.821-.763-1.921-1.231-3.132-1.231h-.323v2.362c0 1.37-1.122 2.485-2.497 2.485-1.379 0-2.499-1.114-2.499-2.485v-2.362h-5.967v2.362c0 1.37-1.12 2.485-2.495 2.485-1.376 0-2.496-1.114-2.496-2.485v-2.36c-2.486.054-4.493 2.084-4.493 4.572v12.448c0 2.521 2.062 4.573 4.597 4.573h16.173c2.534 0 4.596-2.051 4.596-4.573v-12.448c0-1.212-.476-2.313-1.251-3.133zm-11.483 13.765l-1.194 1.193-1.194-1.193-3.283-3.284 1.194-1.194 3.283 3.283 6.12-6.12 1.193 1.194-6.12 6.12z" id="Fill-2" sketch:type="MSShapeGroup"/><path d="M10.702 90.84c.891 0 1.613-.718 1.613-1.605v-4.531c0-.886-.722-1.604-1.613-1.604-.89 0-1.612.718-1.612 1.604v4.531c0 .887.722 1.605 1.612 1.605" id="Fill-3" sketch:type="MSShapeGroup"/></g><g sketch:type="MSLayerGroup" fill="#206FAC"><path d="M21.663 130.84c.89 0 1.612-.718 1.612-1.605v-4.531c0-.886-.722-1.604-1.612-1.604-.892 0-1.614.718-1.614 1.604v4.531c0 .887.722 1.605 1.614 1.605" sketch:type="MSShapeGroup"/><path d="M27.828 128.314l-.212-.21c-.821-.763-1.921-1.231-3.132-1.231h-.323v2.362c0 1.37-1.122 2.485-2.497 2.485-1.379 0-2.499-1.114-2.499-2.485v-2.362h-5.967v2.362c0 1.37-1.12 2.485-2.495 2.485-1.376 0-2.496-1.114-2.496-2.485v-2.36c-2.486.054-4.493 2.084-4.493 4.572v12.448c0 2.521 2.062 4.573 4.597 4.573h16.173c2.534 0 4.596-2.051 4.596-4.573v-12.448c0-1.212-.476-2.313-1.251-3.133zm-11.483 13.765l-1.194 1.193-1.194-1.193-3.283-3.284 1.194-1.194 3.283 3.283 6.12-6.12 1.193 1.194-6.12 6.12z" sketch:type="MSShapeGroup"/><path d="M10.702 130.84c.891 0 1.613-.718 1.613-1.605v-4.531c0-.886-.722-1.604-1.613-1.604-.89 0-1.612.718-1.612 1.604v4.531c0 .887.722 1.605 1.612 1.605" sketch:type="MSShapeGroup"/></g></g></svg>