<?xml version="1.0" encoding="UTF-8" standalone="no"?>
<svg width="33px" height="232px" viewBox="0 0 33 232" version="1.1" xmlns="http://www.w3.org/2000/svg" xmlns:xlink="http://www.w3.org/1999/xlink" xmlns:sketch="http://www.bohemiancoding.com/sketch/ns">
    <!-- Generator: Sketch 3.0.3 (7892) - http://www.bohemiancoding.com/sketch -->
    <title>1111 Bookings Icon</title>
    <desc>Created with Sketch.</desc>
    <defs></defs>
    <g id="Categories" stroke="none" stroke-width="1" fill="none" fill-rule="evenodd" sketch:type="MSPage">
        <g id="Imported-Layers" sketch:type="MSLayerGroup" transform="translate(3.499128, 4.000000)" fill="#373D43">
            <path d="M18.1632195,7.83995122 C19.0529268,7.83995122 19.7752195,7.12209756 19.7752195,6.23492683 L19.7752195,1.70395122 C19.7752195,0.81804878 19.0529268,0.0995609756 18.1632195,0.0995609756 C17.2709756,0.0995609756 16.5493171,0.81804878 16.5493171,1.70395122 L16.5493171,6.23492683 C16.5493171,7.12209756 17.2709756,7.83995122 18.1632195,7.83995122" id="Fill-1" sketch:type="MSShapeGroup"></path>
            <path d="M24.3277561,5.3135122 L24.1153171,5.10360976 C23.2940976,4.34073171 22.1938537,3.87273171 20.9832683,3.87273171 L20.6598537,3.87273171 L20.6598537,6.23492683 C20.6598537,7.60531707 19.5380488,8.7195122 18.1632195,8.7195122 C16.7845854,8.7195122 15.6640488,7.60531707 15.6640488,6.23492683 L15.6640488,3.87273171 L9.69736585,3.87273171 L9.69736585,6.23492683 C9.69736585,7.60531707 8.57746341,8.7195122 7.202,8.7195122 C5.82590244,8.7195122 4.706,7.60531707 4.706,6.23492683 L4.706,3.87463415 C2.2195122,3.92853659 0.213073171,5.95843902 0.213073171,8.44619512 L0.213073171,20.8938537 C0.213073171,23.4152195 2.27468293,25.4666829 4.81,25.4666829 L20.9832683,25.4666829 C23.5173171,25.4666829 25.5789268,23.4152195 25.5789268,20.8938537 L25.5789268,8.44619512 C25.5789268,7.23370732 25.1026829,6.13282927 24.3277561,5.3135122 L24.3277561,5.3135122 Z M12.8446341,19.0789268 L11.6505366,20.2723902 L10.456439,19.0789268 L7.17346341,15.7953171 L8.36756098,14.6012195 L11.6505366,17.8841951 L17.7706829,11.7646829 L18.9641463,12.9587805 L12.8446341,19.0789268 L12.8446341,19.0789268 Z" id="Fill-2" sketch:type="MSShapeGroup"></path>
            <path d="M7.202,7.83995122 C8.09297561,7.83995122 8.81463415,7.12209756 8.81463415,6.23492683 L8.81463415,1.70395122 C8.81463415,0.81804878 8.09297561,0.0995609756 7.202,0.0995609756 C6.31229268,0.0995609756 5.59,0.81804878 5.59,1.70395122 L5.59,6.23492683 C5.59,7.12209756 6.31229268,7.83995122 7.202,7.83995122" id="Fill-3" sketch:type="MSShapeGroup"></path>
        </g>
        <g id="Imported-Layers-2" sketch:type="MSLayerGroup" transform="translate(3.500000, 44.000000)" fill="#67737B">
            <path d="M18.1632195,7.83995122 C19.0529268,7.83995122 19.7752195,7.12209756 19.7752195,6.23492683 L19.7752195,1.70395122 C19.7752195,0.81804878 19.0529268,0.0995609756 18.1632195,0.0995609756 C17.2709756,0.0995609756 16.5493171,0.81804878 16.5493171,1.70395122 L16.5493171,6.23492683 C16.5493171,7.12209756 17.2709756,7.83995122 18.1632195,7.83995122" id="Fill-1" sketch:type="MSShapeGroup"></path>
            <path d="M24.3277561,5.3135122 L24.1153171,5.10360976 C23.2940976,4.34073171 22.1938537,3.87273171 20.9832683,3.87273171 L20.6598537,3.87273171 L20.6598537,6.23492683 C20.6598537,7.60531707 19.5380488,8.7195122 18.1632195,8.7195122 C16.7845854,8.7195122 15.6640488,7.60531707 15.6640488,6.23492683 L15.6640488,3.87273171 L9.69736585,3.87273171 L9.69736585,6.23492683 C9.69736585,7.60531707 8.57746341,8.7195122 7.202,8.7195122 C5.82590244,8.7195122 4.706,7.60531707 4.706,6.23492683 L4.706,3.87463415 C2.2195122,3.92853659 0.213073171,5.95843902 0.213073171,8.44619512 L0.213073171,20.8938537 C0.213073171,23.4152195 2.27468293,25.4666829 4.81,25.4666829 L20.9832683,25.4666829 C23.5173171,25.4666829 25.5789268,23.4152195 25.5789268,20.8938537 L25.5789268,8.44619512 C25.5789268,7.23370732 25.1026829,6.13282927 24.3277561,5.3135122 L24.3277561,5.3135122 Z M12.8446341,19.0789268 L11.6505366,20.2723902 L10.456439,19.0789268 L7.17346341,15.7953171 L8.36756098,14.6012195 L11.6505366,17.8841951 L17.7706829,11.7646829 L18.9641463,12.9587805 L12.8446341,19.0789268 L12.8446341,19.0789268 Z" id="Fill-2" sketch:type="MSShapeGroup"></path>
            <path d="M7.202,7.83995122 C8.09297561,7.83995122 8.81463415,7.12209756 8.81463415,6.23492683 L8.81463415,1.70395122 C8.81463415,0.81804878 8.09297561,0.0995609756 7.202,0.0995609756 C6.31229268,0.0995609756 5.59,0.81804878 5.59,1.70395122 L5.59,6.23492683 C5.59,7.12209756 6.31229268,7.83995122 7.202,7.83995122" id="Fill-3" sketch:type="MSShapeGroup"></path>
        </g>
        <g id="Imported-Layers-3" sketch:type="MSLayerGroup" transform="translate(3.500000, 83.000000)" fill="#FFFFFF">
            <path d="M18.1632195,7.83995122 C19.0529268,7.83995122 19.7752195,7.12209756 19.7752195,6.23492683 L19.7752195,1.70395122 C19.7752195,0.81804878 19.0529268,0.0995609756 18.1632195,0.0995609756 C17.2709756,0.0995609756 16.5493171,0.81804878 16.5493171,1.70395122 L16.5493171,6.23492683 C16.5493171,7.12209756 17.2709756,7.83995122 18.1632195,7.83995122" id="Fill-1" sketch:type="MSShapeGroup"></path>
            <path d="M24.3277561,5.3135122 L24.1153171,5.10360976 C23.2940976,4.34073171 22.1938537,3.87273171 20.9832683,3.87273171 L20.6598537,3.87273171 L20.6598537,6.23492683 C20.6598537,7.60531707 19.5380488,8.7195122 18.1632195,8.7195122 C16.7845854,8.7195122 15.6640488,7.60531707 15.6640488,6.23492683 L15.6640488,3.87273171 L9.69736585,3.87273171 L9.69736585,6.23492683 C9.69736585,7.60531707 8.57746341,8.7195122 7.202,8.7195122 C5.82590244,8.7195122 4.706,7.60531707 4.706,6.23492683 L4.706,3.87463415 C2.2195122,3.92853659 0.213073171,5.95843902 0.213073171,8.44619512 L0.213073171,20.8938537 C0.213073171,23.4152195 2.27468293,25.4666829 4.81,25.4666829 L20.9832683,25.4666829 C23.5173171,25.4666829 25.5789268,23.4152195 25.5789268,20.8938537 L25.5789268,8.44619512 C25.5789268,7.23370732 25.1026829,6.13282927 24.3277561,5.3135122 L24.3277561,5.3135122 Z M12.8446341,19.0789268 L11.6505366,20.2723902 L10.456439,19.0789268 L7.17346341,15.7953171 L8.36756098,14.6012195 L11.6505366,17.8841951 L17.7706829,11.7646829 L18.9641463,12.9587805 L12.8446341,19.0789268 L12.8446341,19.0789268 Z" id="Fill-2" sketch:type="MSShapeGroup"></path>
            <path d="M7.202,7.83995122 C8.09297561,7.83995122 8.81463415,7.12209756 8.81463415,6.23492683 L8.81463415,1.70395122 C8.81463415,0.81804878 8.09297561,0.0995609756 7.202,0.0995609756 C6.31229268,0.0995609756 5.59,0.81804878 5.59,1.70395122 L5.59,6.23492683 C5.59,7.12209756 6.31229268,7.83995122 7.202,7.83995122" id="Fill-3" sketch:type="MSShapeGroup"></path>
        </g>
        <g id="Imported-Layers-4" sketch:type="MSLayerGroup" transform="translate(3.500000, 123.000000)" fill="#206FAC">
            <path d="M18.1632195,7.83995122 C19.0529268,7.83995122 19.7752195,7.12209756 19.7752195,6.23492683 L19.7752195,1.70395122 C19.7752195,0.81804878 19.0529268,0.0995609756 18.1632195,0.0995609756 C17.2709756,0.0995609756 16.5493171,0.81804878 16.5493171,1.70395122 L16.5493171,6.23492683 C16.5493171,7.12209756 17.2709756,7.83995122 18.1632195,7.83995122" id="Fill-1" sketch:type="MSShapeGroup"></path>
            <path d="M24.3277561,5.3135122 L24.1153171,5.10360976 C23.2940976,4.34073171 22.1938537,3.87273171 20.9832683,3.87273171 L20.6598537,3.87273171 L20.6598537,6.23492683 C20.6598537,7.60531707 19.5380488,8.7195122 18.1632195,8.7195122 C16.7845854,8.7195122 15.6640488,7.60531707 15.6640488,6.23492683 L15.6640488,3.87273171 L9.69736585,3.87273171 L9.69736585,6.23492683 C9.69736585,7.60531707 8.57746341,8.7195122 7.202,8.7195122 C5.82590244,8.7195122 4.706,7.60531707 4.706,6.23492683 L4.706,3.87463415 C2.2195122,3.92853659 0.213073171,5.95843902 0.213073171,8.44619512 L0.213073171,20.8938537 C0.213073171,23.4152195 2.27468293,25.4666829 4.81,25.4666829 L20.9832683,25.4666829 C23.5173171,25.4666829 25.5789268,23.4152195 25.5789268,20.8938537 L25.5789268,8.44619512 C25.5789268,7.23370732 25.1026829,6.13282927 24.3277561,5.3135122 L24.3277561,5.3135122 Z M12.8446341,19.0789268 L11.6505366,20.2723902 L10.456439,19.0789268 L7.17346341,15.7953171 L8.36756098,14.6012195 L11.6505366,17.8841951 L17.7706829,11.7646829 L18.9641463,12.9587805 L12.8446341,19.0789268 L12.8446341,19.0789268 Z" id="Fill-2" sketch:type="MSShapeGroup"></path>
            <path d="M7.202,7.83995122 C8.09297561,7.83995122 8.81463415,7.12209756 8.81463415,6.23492683 L8.81463415,1.70395122 C8.81463415,0.81804878 8.09297561,0.0995609756 7.202,0.0995609756 C6.31229268,0.0995609756 5.59,0.81804878 5.59,1.70395122 L5.59,6.23492683 C5.59,7.12209756 6.31229268,7.83995122 7.202,7.83995122" id="Fill-3" sketch:type="MSShapeGroup"></path>
        </g>
    </g>
</svg>