<svg width="32" height="32" viewBox="0 0 32 32" xmlns="http://www.w3.org/2000/svg" xmlns:sketch="http://www.bohemiancoding.com/sketch/ns"><title>destination--disk</title><desc>Created with Sketch.</desc><g sketch:type="MSPage" fill="none"><circle fill="#0FDDCF" sketch:type="MSShapeGroup" cx="16" cy="16" r="14"/><path d="M15.999 8c3.037 0 5.501 2.182 5.501 5.46 0 3.203-2.776 4.58-4.253 6.629-1.209 1.673-1.248 2.911-1.248 2.911s-.008-1.245-1.246-2.911c-1.52-2.049-4.254-3.33-4.254-6.629 0-3.28 2.463-5.46 5.499-5.46zm0 3.046c-1.291 0-2.337 1.045-2.337 2.337 0 1.289 1.046 2.336 2.337 2.336 1.29 0 2.338-1.047 2.338-2.336 0-1.292-1.048-2.337-2.338-2.337z" fill="#fff" sketch:type="MSShapeGroup"/></g></svg>