<svg width="22" height="32" viewBox="0 0 22 32" xmlns="http://www.w3.org/2000/svg" xmlns:sketch="http://www.bohemiancoding.com/sketch/ns"><title>destination--pin</title><desc>Created with Sketch.</desc><g sketch:type="MSPage" fill="none"><path d="M15.518 29.984c0 1.105-2.016 2-4.5 2-2.487 0-4.5-.895-4.5-2 0-1.104 2.013-2 4.5-2 2.484 0 4.5.896 4.5 2" sketch:type="MSShapeGroup" fill-opacity=".2" fill="#1D508D"/><path d="M10.999 0c6.075 0 11.001 4.364 11.001 10.92 0 6.407-5.551 9.16-8.505 13.258-2.418 3.345-2.496 5.822-2.496 5.822s-.017-2.49-2.492-5.822c-3.04-4.098-8.507-6.661-8.507-13.258 0-6.56 4.926-10.92 10.999-10.92zm0 6.091c-2.582 0-4.674 2.091-4.674 4.675 0 2.577 2.092 4.672 4.674 4.672 2.579 0 4.676-2.095 4.676-4.672 0-2.584-2.097-4.675-4.676-4.675z" fill="#0FDDCF" sketch:type="MSShapeGroup"/></g></svg>