<svg width="24" height="32" viewBox="0 0 24 32" xmlns="http://www.w3.org/2000/svg" xmlns:sketch="http://www.bohemiancoding.com/sketch/ns"><title>event--pin--simple</title><desc>Created with Sketch.</desc><path d="M11.999 0c6.627 0 12.001 4.655 12.001 11.648 0 6.834-6.056 9.771-9.278 14.142-2.638 3.568-2.723 6.21-2.723 6.21s-.019-2.656-2.719-6.21c-3.316-4.371-9.28-7.105-9.28-14.142 0-6.997 5.374-11.648 11.999-11.648zm0 6.497c-2.817 0-5.099 2.23-5.099 4.987 0 2.749 2.282 4.983 5.099 4.983 2.813 0 5.101-2.235 5.101-4.983 0-2.756-2.288-4.987-5.101-4.987z" fill="#684E79" sketch:type="MSShapeGroup"/></svg>