<svg width="32" height="232" viewBox="0 0 32 232" xmlns="http://www.w3.org/2000/svg" xmlns:sketch="http://www.bohemiancoding.com/sketch/ns"><title>place--pin</title><g sketch:type="MSPage" fill="none"><path d="M16.032 3c5.266 0 9.535 3.781 9.535 9.464 0 5.552-4.811 7.939-7.372 11.49-2.096 2.899-2.163 5.046-2.163 5.046s-.015-2.159-2.159-5.046c-2.635-3.551-7.373-5.773-7.373-11.49 0-5.685 4.269-9.464 9.532-9.464zm.002 5.279c-2.238 0-4.05 1.811-4.05 4.051 0 2.233 1.812 4.049 4.05 4.049 2.236 0 4.053-1.816 4.053-4.049 0-2.24-1.817-4.051-4.053-4.051z" fill="#3B444F" sketch:type="MSShapeGroup"/><path d="M16.032 43c5.266 0 9.535 3.781 9.535 9.464 0 5.552-4.811 7.939-7.372 11.49-2.096 2.899-2.163 5.046-2.163 5.046s-.015-2.159-2.159-5.046c-2.635-3.551-7.373-5.773-7.373-11.49 0-5.685 4.269-9.464 9.532-9.464zm.002 5.279c-2.238 0-4.05 1.811-4.05 4.051 0 2.233 1.812 4.049 4.05 4.049 2.236 0 4.053-1.816 4.053-4.049 0-2.24-1.817-4.051-4.053-4.051z" fill="#67747C" sketch:type="MSShapeGroup"/><path d="M16.032 83c5.266 0 9.535 3.781 9.535 9.464 0 5.552-4.811 7.939-7.372 11.49-2.096 2.899-2.163 5.046-2.163 5.046s-.015-2.159-2.159-5.046c-2.635-3.551-7.373-5.773-7.373-11.49 0-5.685 4.269-9.464 9.532-9.464zm.002 5.279c-2.238 0-4.05 1.811-4.05 4.051 0 2.233 1.812 4.049 4.05 4.049 2.236 0 4.053-1.816 4.053-4.049 0-2.24-1.817-4.051-4.053-4.051z" fill="#fff" sketch:type="MSShapeGroup"/><path d="M16.032 123c5.266 0 9.535 3.781 9.535 9.464 0 5.552-4.811 7.939-7.372 11.49-2.096 2.899-2.163 5.046-2.163 5.046s-.015-2.159-2.159-5.046c-2.635-3.551-7.373-5.773-7.373-11.49 0-5.685 4.269-9.464 9.532-9.464zm.002 5.279c-2.238 0-4.05 1.811-4.05 4.051 0 2.233 1.812 4.049 4.05 4.049 2.236 0 4.053-1.816 4.053-4.049 0-2.24-1.817-4.051-4.053-4.051z" fill="#206FAC" sketch:type="MSShapeGroup"/><path d="M16.032 163c5.266 0 9.535 3.781 9.535 9.464 0 5.552-4.811 7.939-7.372 11.49-2.096 2.899-2.163 5.046-2.163 5.046s-.015-2.159-2.159-5.046c-2.635-3.551-7.373-5.773-7.373-11.49 0-5.685 4.269-9.464 9.532-9.464zm.002 5.279c-2.238 0-4.05 1.811-4.05 4.051 0 2.233 1.812 4.049 4.05 4.049 2.236 0 4.053-1.816 4.053-4.049 0-2.24-1.817-4.051-4.053-4.051z" fill="#0FDDCF" sketch:type="MSShapeGroup"/></g></svg>