<svg width="32" height="232" viewBox="0 0 32 232" xmlns="http://www.w3.org/2000/svg" xmlns:sketch="http://www.bohemiancoding.com/sketch/ns"><title>place--pin--line</title><g sketch:type="MSPage" fill="none"><path d="M16.286 29l-1.419-.022-.215.003c0-.019-.062-1.899-1.911-4.414-.705-.954-1.578-1.808-2.503-2.709-2.219-2.177-4.738-4.64-4.738-8.884 0-5.687 4.287-9.974 9.969-9.974 5.687 0 9.975 4.287 9.975 9.974 0 4.099-2.5 6.593-4.71 8.792-.936.937-1.826 1.822-2.523 2.796-1.814 2.534-1.924 4.421-1.925 4.438zm-.817-24.365c-4.829 0-8.335 3.507-8.335 8.339 0 3.558 2.062 5.578 4.246 7.716.928.909 1.889 1.846 2.675 2.91.643.876 1.101 1.69 1.429 2.412.324-.715.775-1.528 1.398-2.404.778-1.083 1.757-2.053 2.7-3.002 2.176-2.163 4.231-4.212 4.231-7.632 0-4.832-3.507-8.339-8.344-8.339zm.001 13.023c-2.789 0-5.059-2.269-5.059-5.058 0-2.791 2.27-5.061 5.059-5.061 2.792 0 5.063 2.27 5.063 5.061 0 2.789-2.271 5.058-5.063 5.058zm0-8.473c-1.882 0-3.414 1.532-3.414 3.415 0 1.881 1.532 3.412 3.414 3.412 1.884 0 3.417-1.531 3.417-3.412 0-1.883-1.533-3.415-3.417-3.415z" fill="#3B444F" sketch:type="MSShapeGroup"/><path d="M16.286 69l-1.419-.022-.215.003c0-.019-.062-1.899-1.911-4.414-.705-.954-1.578-1.808-2.503-2.709-2.219-2.177-4.738-4.64-4.738-8.884 0-5.687 4.287-9.974 9.969-9.974 5.687 0 9.975 4.287 9.975 9.974 0 4.099-2.5 6.593-4.71 8.792-.936.937-1.826 1.822-2.523 2.796-1.814 2.534-1.924 4.421-1.925 4.438zm-.817-24.365c-4.829 0-8.335 3.507-8.335 8.339 0 3.558 2.062 5.578 4.246 7.716.928.909 1.889 1.846 2.675 2.91.643.876 1.101 1.69 1.429 2.412.324-.715.775-1.528 1.398-2.404.778-1.083 1.757-2.053 2.7-3.002 2.176-2.163 4.231-4.212 4.231-7.632 0-4.832-3.507-8.339-8.344-8.339zm.001 13.023c-2.789 0-5.059-2.269-5.059-5.058 0-2.791 2.27-5.061 5.059-5.061 2.792 0 5.063 2.27 5.063 5.061 0 2.789-2.271 5.058-5.063 5.058zm0-8.473c-1.882 0-3.414 1.532-3.414 3.415 0 1.881 1.532 3.412 3.414 3.412 1.884 0 3.417-1.531 3.417-3.412 0-1.883-1.533-3.415-3.417-3.415z" fill="#67747C" sketch:type="MSShapeGroup"/><path d="M16.286 109l-1.419-.022-.215.003c0-.019-.062-1.899-1.911-4.414-.705-.954-1.578-1.808-2.503-2.709-2.219-2.177-4.738-4.64-4.738-8.884 0-5.687 4.287-9.974 9.969-9.974 5.687 0 9.975 4.287 9.975 9.974 0 4.099-2.5 6.593-4.71 8.792-.936.937-1.826 1.822-2.523 2.796-1.814 2.534-1.924 4.421-1.925 4.438zm-.817-24.365c-4.829 0-8.335 3.507-8.335 8.339 0 3.558 2.062 5.578 4.246 7.716.928.909 1.889 1.846 2.675 2.91.643.876 1.101 1.69 1.429 2.412.324-.715.775-1.528 1.398-2.404.778-1.083 1.757-2.053 2.7-3.002 2.176-2.163 4.231-4.212 4.231-7.632 0-4.832-3.507-8.339-8.344-8.339zm.001 13.023c-2.789 0-5.059-2.269-5.059-5.058 0-2.791 2.27-5.061 5.059-5.061 2.792 0 5.063 2.27 5.063 5.061 0 2.789-2.271 5.058-5.063 5.058zm0-8.473c-1.882 0-3.414 1.532-3.414 3.415 0 1.881 1.532 3.412 3.414 3.412 1.884 0 3.417-1.531 3.417-3.412 0-1.883-1.533-3.415-3.417-3.415z" fill="#fff" sketch:type="MSShapeGroup"/><path d="M16.286 149l-1.419-.022-.215.003c0-.019-.062-1.899-1.911-4.414-.705-.954-1.578-1.808-2.503-2.709-2.219-2.177-4.738-4.64-4.738-8.884 0-5.687 4.287-9.974 9.969-9.974 5.687 0 9.975 4.287 9.975 9.974 0 4.099-2.5 6.593-4.71 8.792-.936.937-1.826 1.822-2.523 2.796-1.814 2.534-1.924 4.421-1.925 4.438zm-.817-24.365c-4.829 0-8.335 3.507-8.335 8.339 0 3.558 2.062 5.578 4.246 7.716.928.909 1.889 1.846 2.675 2.91.643.876 1.101 1.69 1.429 2.412.324-.715.775-1.528 1.398-2.404.778-1.083 1.757-2.053 2.7-3.002 2.176-2.163 4.231-4.212 4.231-7.632 0-4.832-3.507-8.339-8.344-8.339zm.001 13.023c-2.789 0-5.059-2.269-5.059-5.058 0-2.791 2.27-5.061 5.059-5.061 2.792 0 5.063 2.27 5.063 5.061 0 2.789-2.271 5.058-5.063 5.058zm0-8.473c-1.882 0-3.414 1.532-3.414 3.415 0 1.881 1.532 3.412 3.414 3.412 1.884 0 3.417-1.531 3.417-3.412 0-1.883-1.533-3.415-3.417-3.415z" fill="#206FAC" sketch:type="MSShapeGroup"/></g></svg>